%TF.GenerationSoftware,KiCad,Pcbnew,(5.1.7)-1*%
%TF.CreationDate,2021-02-09T20:12:25+08:00*%
%TF.ProjectId,jiran-ble,6a697261-6e2d-4626-9c65-2e6b69636164,rev?*%
%TF.SameCoordinates,Original*%
%TF.FileFunction,Soldermask,Bot*%
%TF.FilePolarity,Negative*%
%FSLAX46Y46*%
G04 Gerber Fmt 4.6, Leading zero omitted, Abs format (unit mm)*
G04 Created by KiCad (PCBNEW (5.1.7)-1) date 2021-02-09 20:12:25*
%MOMM*%
%LPD*%
G01*
G04 APERTURE LIST*
%ADD10C,0.800000*%
%ADD11C,3.987800*%
%ADD12C,3.000000*%
%ADD13R,2.300000X2.000000*%
%ADD14C,1.750000*%
%ADD15R,0.800000X1.200000*%
%ADD16R,0.650000X1.000000*%
%ADD17R,1.000000X0.650000*%
%ADD18R,0.650000X1.060000*%
%ADD19C,1.000000*%
%ADD20R,0.800000X0.900000*%
%ADD21O,1.700000X1.700000*%
%ADD22R,1.700000X1.700000*%
%ADD23C,4.200000*%
%ADD24R,1.200000X0.900000*%
%ADD25R,0.900000X1.200000*%
G04 APERTURE END LIST*
D10*
%TO.C,P4*%
X191491850Y-127000000D03*
X191491850Y-125809300D03*
X191491850Y-128190700D03*
X191491850Y-129381400D03*
X191491850Y-124618600D03*
X194270150Y-124618600D03*
X194270150Y-125809300D03*
X194270150Y-129381400D03*
X194270150Y-128190700D03*
X194270150Y-127000000D03*
%TD*%
%TO.C,P3*%
X191491850Y-49212500D03*
X191491850Y-48021800D03*
X191491850Y-50403200D03*
X191491850Y-51593900D03*
X191491850Y-46831100D03*
X194270150Y-46831100D03*
X194270150Y-48021800D03*
X194270150Y-51593900D03*
X194270150Y-50403200D03*
X194270150Y-49212500D03*
%TD*%
%TO.C,P2*%
X173235850Y-49212500D03*
X173235850Y-48021800D03*
X173235850Y-50403200D03*
X173235850Y-51593900D03*
X173235850Y-46831100D03*
X176014150Y-46831100D03*
X176014150Y-48021800D03*
X176014150Y-51593900D03*
X176014150Y-50403200D03*
X176014150Y-49212500D03*
%TD*%
%TO.C,P1*%
X173235850Y-127000000D03*
X173235850Y-125809300D03*
X173235850Y-128190700D03*
X173235850Y-129381400D03*
X173235850Y-124618600D03*
X176014150Y-124618600D03*
X176014150Y-125809300D03*
X176014150Y-129381400D03*
X176014150Y-128190700D03*
X176014150Y-127000000D03*
%TD*%
D11*
%TO.C,SW22*%
X87312500Y-103188000D03*
D12*
X89852500Y-98108000D03*
D13*
X93154500Y-98108000D03*
D14*
X92392500Y-103188000D03*
D13*
X80227500Y-100648000D03*
D12*
X83502500Y-100648000D03*
D14*
X82232500Y-103188000D03*
%TD*%
D15*
%TO.C,X2*%
X208159000Y-64293800D03*
X206559000Y-64293800D03*
%TD*%
%TO.C,X1*%
X159410000Y-57943800D03*
X161010000Y-57943800D03*
%TD*%
D16*
%TO.C,U5*%
X208252000Y-57077800D03*
X204442000Y-57077800D03*
D17*
X210792000Y-62411800D03*
X210792000Y-59871800D03*
X210792000Y-63681800D03*
X210792000Y-58601800D03*
D16*
X199362000Y-57077800D03*
X206982000Y-57077800D03*
X201902000Y-57077800D03*
X203172000Y-57077800D03*
X205712000Y-57077800D03*
X200632000Y-57077800D03*
D17*
X210792000Y-64951800D03*
X210792000Y-61141800D03*
X210792000Y-57331800D03*
%TD*%
D18*
%TO.C,U4*%
X207012000Y-61425000D03*
X208912000Y-61425000D03*
X207012000Y-59225000D03*
X207962000Y-61425000D03*
X208912000Y-59225000D03*
%TD*%
D16*
%TO.C,U2*%
X159254000Y-65159800D03*
X163064000Y-65159800D03*
D17*
X156714000Y-59825800D03*
X156714000Y-62365800D03*
X156714000Y-58555800D03*
X156714000Y-63635800D03*
D16*
X168144000Y-65159800D03*
X160524000Y-65159800D03*
X165604000Y-65159800D03*
X164334000Y-65159800D03*
X161794000Y-65159800D03*
X166874000Y-65159800D03*
D17*
X156714000Y-57285800D03*
X156714000Y-61095800D03*
X156714000Y-64905800D03*
%TD*%
D18*
%TO.C,U1*%
X160526000Y-60812500D03*
X158626000Y-60812500D03*
X160526000Y-63012500D03*
X159576000Y-60812500D03*
X158626000Y-63012500D03*
%TD*%
D11*
%TO.C,SW32*%
X299244000Y-53181200D03*
D12*
X301784000Y-48101200D03*
D13*
X305086000Y-48101200D03*
D14*
X304324000Y-53181200D03*
D13*
X292159000Y-50641200D03*
D12*
X295434000Y-50641200D03*
D14*
X294164000Y-53181200D03*
%TD*%
D11*
%TO.C,SW31*%
X318294000Y-55562500D03*
D12*
X320834000Y-50482500D03*
D13*
X324136000Y-50482500D03*
D14*
X323374000Y-55562500D03*
D13*
X311209000Y-53022500D03*
D12*
X314484000Y-53022500D03*
D14*
X313214000Y-55562500D03*
%TD*%
D11*
%TO.C,SW29*%
X163512000Y-127000000D03*
D12*
X166052000Y-121920000D03*
D13*
X169354000Y-121920000D03*
D14*
X168592000Y-127000000D03*
D13*
X156427000Y-124460000D03*
D12*
X159702000Y-124460000D03*
D14*
X158432000Y-127000000D03*
%TD*%
D19*
%TO.C,SW1*%
X171450000Y-79332000D03*
X171450000Y-77132000D03*
%TD*%
D20*
%TO.C,Q3*%
X204944000Y-59325000D03*
X203994000Y-61325000D03*
X203044000Y-59325000D03*
%TD*%
D19*
%TO.C,J5*%
X209569300Y-44627800D03*
X209569300Y-44932600D03*
X198418700Y-45554900D03*
X198418700Y-45262800D03*
X198418700Y-44919900D03*
X198418700Y-44615100D03*
X198418400Y-44335700D03*
X209569300Y-45275500D03*
X198418700Y-49098200D03*
X198419000Y-49343500D03*
X198419000Y-48581500D03*
X198419000Y-48844200D03*
X209569600Y-49343500D03*
X209569600Y-48581500D03*
X209569300Y-49098200D03*
X209569600Y-48844200D03*
X209569300Y-45567600D03*
X209569000Y-44348400D03*
%TD*%
D21*
%TO.C,J3*%
X166370000Y-76993800D03*
D22*
X158750000Y-76993800D03*
D21*
X161290000Y-76993800D03*
X163830000Y-76993800D03*
%TD*%
D19*
%TO.C,J2*%
X169087300Y-44627800D03*
X169087300Y-44932600D03*
X157936700Y-45554900D03*
X157936700Y-45262800D03*
X157936700Y-44919900D03*
X157936700Y-44615100D03*
X157936400Y-44335700D03*
X169087300Y-45275500D03*
X157936700Y-49098200D03*
X157937000Y-49343500D03*
X157937000Y-48581500D03*
X157937000Y-48844200D03*
X169087600Y-49343500D03*
X169087600Y-48581500D03*
X169087300Y-49098200D03*
X169087600Y-48844200D03*
X169087300Y-45567600D03*
X169087000Y-44348400D03*
%TD*%
D23*
%TO.C,HM10*%
X327819000Y-84137500D03*
%TD*%
%TO.C,HM9*%
X308769000Y-101997000D03*
%TD*%
%TO.C,HM8*%
X308769000Y-63896900D03*
%TD*%
%TO.C,HM7*%
X232569000Y-56753100D03*
%TD*%
%TO.C,HM6*%
X232569000Y-113903000D03*
%TD*%
%TO.C,HM5*%
X39687500Y-84137500D03*
%TD*%
%TO.C,HM4*%
X58737500Y-101997000D03*
%TD*%
%TO.C,HM3*%
X58737500Y-63896900D03*
%TD*%
%TO.C,HM2*%
X134938000Y-56753100D03*
%TD*%
%TO.C,HM1*%
X134938000Y-113903000D03*
%TD*%
D24*
%TO.C,D58*%
X196056000Y-132619000D03*
X196056000Y-129319000D03*
%TD*%
%TO.C,D57*%
X215900000Y-130238000D03*
X215900000Y-126938000D03*
%TD*%
%TO.C,D56*%
X234950000Y-127856000D03*
X234950000Y-124556000D03*
%TD*%
%TO.C,D55*%
X330200000Y-94518800D03*
X330200000Y-91218800D03*
%TD*%
%TO.C,D54*%
X215900000Y-111188000D03*
X215900000Y-107888000D03*
%TD*%
%TO.C,D53*%
X234950000Y-108806000D03*
X234950000Y-105506000D03*
%TD*%
%TO.C,D52*%
X254000000Y-104044000D03*
X254000000Y-100744000D03*
%TD*%
%TO.C,D51*%
X273050000Y-108806000D03*
X273050000Y-105506000D03*
%TD*%
%TO.C,D50*%
X292100000Y-115950000D03*
X292100000Y-112650000D03*
%TD*%
%TO.C,D49*%
X311150000Y-118331000D03*
X311150000Y-115031000D03*
%TD*%
%TO.C,D48*%
X215900000Y-92137500D03*
X215900000Y-88837500D03*
%TD*%
%TO.C,D47*%
X234950000Y-89756200D03*
X234950000Y-86456200D03*
%TD*%
%TO.C,D46*%
X254000000Y-84993800D03*
X254000000Y-81693800D03*
%TD*%
%TO.C,D45*%
X273050000Y-89756200D03*
X273050000Y-86456200D03*
%TD*%
%TO.C,D44*%
X292100000Y-96900000D03*
X292100000Y-93600000D03*
%TD*%
%TO.C,D43*%
X311150000Y-99281200D03*
X311150000Y-95981200D03*
%TD*%
%TO.C,D42*%
X215900000Y-73087500D03*
X215900000Y-69787500D03*
%TD*%
%TO.C,D41*%
X234950000Y-70706200D03*
X234950000Y-67406200D03*
%TD*%
%TO.C,D40*%
X254000000Y-65943800D03*
X254000000Y-62643800D03*
%TD*%
%TO.C,D39*%
X273050000Y-70706200D03*
X273050000Y-67406200D03*
%TD*%
%TO.C,D38*%
X292100000Y-77850000D03*
X292100000Y-74550000D03*
%TD*%
%TO.C,D37*%
X311150000Y-80231200D03*
X311150000Y-76931200D03*
%TD*%
%TO.C,D36*%
X215900000Y-54037500D03*
X215900000Y-50737500D03*
%TD*%
%TO.C,D35*%
X234950000Y-51656200D03*
X234950000Y-48356200D03*
%TD*%
%TO.C,D34*%
X254000000Y-46893800D03*
X254000000Y-43593800D03*
%TD*%
%TO.C,D33*%
X273050000Y-51656200D03*
X273050000Y-48356200D03*
%TD*%
%TO.C,D32*%
X292100000Y-58800000D03*
X292100000Y-55500000D03*
%TD*%
%TO.C,D31*%
X311150000Y-61181200D03*
X311150000Y-57881200D03*
%TD*%
D25*
%TO.C,D30*%
X198915000Y-64389000D03*
X202215000Y-64389000D03*
%TD*%
D24*
%TO.C,D29*%
X156369000Y-132619000D03*
X156369000Y-129319000D03*
%TD*%
%TO.C,D28*%
X137319000Y-130238000D03*
X137319000Y-126938000D03*
%TD*%
%TO.C,D27*%
X118269000Y-127856000D03*
X118269000Y-124556000D03*
%TD*%
%TO.C,D26*%
X23018800Y-94518800D03*
X23018800Y-91218800D03*
%TD*%
%TO.C,D25*%
X137319000Y-111188000D03*
X137319000Y-107888000D03*
%TD*%
%TO.C,D24*%
X118269000Y-108806000D03*
X118269000Y-105506000D03*
%TD*%
%TO.C,D23*%
X99218800Y-104044000D03*
X99218800Y-100744000D03*
%TD*%
%TO.C,D22*%
X80168800Y-108806000D03*
X80168800Y-105506000D03*
%TD*%
%TO.C,D21*%
X61118800Y-115950000D03*
X61118800Y-112650000D03*
%TD*%
%TO.C,D20*%
X42068800Y-118331000D03*
X42068800Y-115031000D03*
%TD*%
%TO.C,D19*%
X137319000Y-92137500D03*
X137319000Y-88837500D03*
%TD*%
%TO.C,D18*%
X118269000Y-89756200D03*
X118269000Y-86456200D03*
%TD*%
%TO.C,D17*%
X99218800Y-84993800D03*
X99218800Y-81693800D03*
%TD*%
%TO.C,D16*%
X80168800Y-89756200D03*
X80168800Y-86456200D03*
%TD*%
%TO.C,D15*%
X61118800Y-96900000D03*
X61118800Y-93600000D03*
%TD*%
%TO.C,D14*%
X42068800Y-99281200D03*
X42068800Y-95981200D03*
%TD*%
%TO.C,D13*%
X137319000Y-73087500D03*
X137319000Y-69787500D03*
%TD*%
%TO.C,D12*%
X118269000Y-70706200D03*
X118269000Y-67406200D03*
%TD*%
%TO.C,D11*%
X99218800Y-65943800D03*
X99218800Y-62643800D03*
%TD*%
%TO.C,D10*%
X80168800Y-70706200D03*
X80168800Y-67406200D03*
%TD*%
%TO.C,D9*%
X61118800Y-77850000D03*
X61118800Y-74550000D03*
%TD*%
%TO.C,D8*%
X42068800Y-80231200D03*
X42068800Y-76931200D03*
%TD*%
%TO.C,D7*%
X137319000Y-54037500D03*
X137319000Y-50737500D03*
%TD*%
%TO.C,D6*%
X118269000Y-51656200D03*
X118269000Y-48356200D03*
%TD*%
%TO.C,D5*%
X99218800Y-46893800D03*
X99218800Y-43593800D03*
%TD*%
%TO.C,D4*%
X80168800Y-51656200D03*
X80168800Y-48356200D03*
%TD*%
%TO.C,D3*%
X61118800Y-58800000D03*
X61118800Y-55500000D03*
%TD*%
%TO.C,D2*%
X42068800Y-61181200D03*
X42068800Y-57881200D03*
%TD*%
D25*
%TO.C,D1*%
X168592000Y-57848500D03*
X165292000Y-57848500D03*
%TD*%
D18*
%TO.C,U6*%
X199075000Y-61425000D03*
X200975000Y-61425000D03*
X199075000Y-59225000D03*
X200025000Y-61425000D03*
X200975000Y-59225000D03*
%TD*%
D11*
%TO.C,SW58*%
X203994000Y-127000000D03*
D12*
X206534000Y-121920000D03*
D13*
X209836000Y-121920000D03*
D14*
X209074000Y-127000000D03*
D13*
X196909000Y-124460000D03*
D12*
X200184000Y-124460000D03*
D14*
X198914000Y-127000000D03*
%TD*%
D11*
%TO.C,SW57*%
X223044000Y-124619000D03*
D12*
X225584000Y-119539000D03*
D13*
X228886000Y-119539000D03*
D14*
X228124000Y-124619000D03*
D13*
X215959000Y-122079000D03*
D12*
X219234000Y-122079000D03*
D14*
X217964000Y-124619000D03*
%TD*%
D11*
%TO.C,SW56*%
X242094000Y-122238000D03*
D12*
X244634000Y-117158000D03*
D13*
X247936000Y-117158000D03*
D14*
X247174000Y-122238000D03*
D13*
X235009000Y-119698000D03*
D12*
X238284000Y-119698000D03*
D14*
X237014000Y-122238000D03*
%TD*%
D11*
%TO.C,SW55*%
X337344000Y-88900000D03*
D12*
X339884000Y-83820000D03*
D13*
X343186000Y-83820000D03*
D14*
X342424000Y-88900000D03*
D13*
X330259000Y-86360000D03*
D12*
X333534000Y-86360000D03*
D14*
X332264000Y-88900000D03*
%TD*%
D11*
%TO.C,SW54*%
X223044000Y-105569000D03*
D12*
X225584000Y-100489000D03*
D13*
X228886000Y-100489000D03*
D14*
X228124000Y-105569000D03*
D13*
X215959000Y-103029000D03*
D12*
X219234000Y-103029000D03*
D14*
X217964000Y-105569000D03*
%TD*%
D11*
%TO.C,SW53*%
X242094000Y-103188000D03*
D12*
X244634000Y-98108000D03*
D13*
X247936000Y-98108000D03*
D14*
X247174000Y-103188000D03*
D13*
X235009000Y-100648000D03*
D12*
X238284000Y-100648000D03*
D14*
X237014000Y-103188000D03*
%TD*%
D11*
%TO.C,SW52*%
X261144000Y-98425000D03*
D12*
X263684000Y-93345000D03*
D13*
X266986000Y-93345000D03*
D14*
X266224000Y-98425000D03*
D13*
X254059000Y-95885000D03*
D12*
X257334000Y-95885000D03*
D14*
X256064000Y-98425000D03*
%TD*%
D11*
%TO.C,SW51*%
X280194000Y-103188000D03*
D12*
X282734000Y-98108000D03*
D13*
X286036000Y-98108000D03*
D14*
X285274000Y-103188000D03*
D13*
X273109000Y-100648000D03*
D12*
X276384000Y-100648000D03*
D14*
X275114000Y-103188000D03*
%TD*%
D11*
%TO.C,SW50*%
X299244000Y-110331000D03*
D12*
X301784000Y-105251000D03*
D13*
X305086000Y-105251000D03*
D14*
X304324000Y-110331000D03*
D13*
X292159000Y-107791000D03*
D12*
X295434000Y-107791000D03*
D14*
X294164000Y-110331000D03*
%TD*%
D11*
%TO.C,SW49*%
X318294000Y-112712000D03*
D12*
X320834000Y-107632000D03*
D13*
X324136000Y-107632000D03*
D14*
X323374000Y-112712000D03*
D13*
X311209000Y-110172000D03*
D12*
X314484000Y-110172000D03*
D14*
X313214000Y-112712000D03*
%TD*%
D11*
%TO.C,SW48*%
X223044000Y-86518800D03*
D12*
X225584000Y-81438800D03*
D13*
X228886000Y-81438800D03*
D14*
X228124000Y-86518800D03*
D13*
X215959000Y-83978800D03*
D12*
X219234000Y-83978800D03*
D14*
X217964000Y-86518800D03*
%TD*%
D11*
%TO.C,SW47*%
X242094000Y-84137500D03*
D12*
X244634000Y-79057500D03*
D13*
X247936000Y-79057500D03*
D14*
X247174000Y-84137500D03*
D13*
X235009000Y-81597500D03*
D12*
X238284000Y-81597500D03*
D14*
X237014000Y-84137500D03*
%TD*%
D11*
%TO.C,SW46*%
X261144000Y-79375000D03*
D12*
X263684000Y-74295000D03*
D13*
X266986000Y-74295000D03*
D14*
X266224000Y-79375000D03*
D13*
X254059000Y-76835000D03*
D12*
X257334000Y-76835000D03*
D14*
X256064000Y-79375000D03*
%TD*%
D11*
%TO.C,SW45*%
X280194000Y-84137500D03*
D12*
X282734000Y-79057500D03*
D13*
X286036000Y-79057500D03*
D14*
X285274000Y-84137500D03*
D13*
X273109000Y-81597500D03*
D12*
X276384000Y-81597500D03*
D14*
X275114000Y-84137500D03*
%TD*%
D11*
%TO.C,SW44*%
X299244000Y-91281200D03*
D12*
X301784000Y-86201200D03*
D13*
X305086000Y-86201200D03*
D14*
X304324000Y-91281200D03*
D13*
X292159000Y-88741200D03*
D12*
X295434000Y-88741200D03*
D14*
X294164000Y-91281200D03*
%TD*%
D11*
%TO.C,SW43*%
X318294000Y-93662500D03*
D12*
X320834000Y-88582500D03*
D13*
X324136000Y-88582500D03*
D14*
X323374000Y-93662500D03*
D13*
X311209000Y-91122500D03*
D12*
X314484000Y-91122500D03*
D14*
X313214000Y-93662500D03*
%TD*%
D11*
%TO.C,SW42*%
X223044000Y-67468800D03*
D12*
X225584000Y-62388800D03*
D13*
X228886000Y-62388800D03*
D14*
X228124000Y-67468800D03*
D13*
X215959000Y-64928800D03*
D12*
X219234000Y-64928800D03*
D14*
X217964000Y-67468800D03*
%TD*%
D11*
%TO.C,SW41*%
X242094000Y-65087500D03*
D12*
X244634000Y-60007500D03*
D13*
X247936000Y-60007500D03*
D14*
X247174000Y-65087500D03*
D13*
X235009000Y-62547500D03*
D12*
X238284000Y-62547500D03*
D14*
X237014000Y-65087500D03*
%TD*%
D11*
%TO.C,SW40*%
X261144000Y-60325000D03*
D12*
X263684000Y-55245000D03*
D13*
X266986000Y-55245000D03*
D14*
X266224000Y-60325000D03*
D13*
X254059000Y-57785000D03*
D12*
X257334000Y-57785000D03*
D14*
X256064000Y-60325000D03*
%TD*%
D11*
%TO.C,SW39*%
X280194000Y-65087500D03*
D12*
X282734000Y-60007500D03*
D13*
X286036000Y-60007500D03*
D14*
X285274000Y-65087500D03*
D13*
X273109000Y-62547500D03*
D12*
X276384000Y-62547500D03*
D14*
X275114000Y-65087500D03*
%TD*%
D11*
%TO.C,SW38*%
X299244000Y-72231200D03*
D12*
X301784000Y-67151200D03*
D13*
X305086000Y-67151200D03*
D14*
X304324000Y-72231200D03*
D13*
X292159000Y-69691200D03*
D12*
X295434000Y-69691200D03*
D14*
X294164000Y-72231200D03*
%TD*%
D11*
%TO.C,SW37*%
X318294000Y-74612500D03*
D12*
X320834000Y-69532500D03*
D13*
X324136000Y-69532500D03*
D14*
X323374000Y-74612500D03*
D13*
X311209000Y-72072500D03*
D12*
X314484000Y-72072500D03*
D14*
X313214000Y-74612500D03*
%TD*%
D11*
%TO.C,SW36*%
X223044000Y-48418800D03*
D12*
X225584000Y-43338800D03*
D13*
X228886000Y-43338800D03*
D14*
X228124000Y-48418800D03*
D13*
X215959000Y-45878800D03*
D12*
X219234000Y-45878800D03*
D14*
X217964000Y-48418800D03*
%TD*%
D11*
%TO.C,SW35*%
X242094000Y-46037500D03*
D12*
X244634000Y-40957500D03*
D13*
X247936000Y-40957500D03*
D14*
X247174000Y-46037500D03*
D13*
X235009000Y-43497500D03*
D12*
X238284000Y-43497500D03*
D14*
X237014000Y-46037500D03*
%TD*%
D11*
%TO.C,SW34*%
X261144000Y-41275000D03*
D12*
X263684000Y-36195000D03*
D13*
X266986000Y-36195000D03*
D14*
X266224000Y-41275000D03*
D13*
X254059000Y-38735000D03*
D12*
X257334000Y-38735000D03*
D14*
X256064000Y-41275000D03*
%TD*%
D11*
%TO.C,SW33*%
X280194000Y-46037500D03*
D12*
X282734000Y-40957500D03*
D13*
X286036000Y-40957500D03*
D14*
X285274000Y-46037500D03*
D13*
X273109000Y-43497500D03*
D12*
X276384000Y-43497500D03*
D14*
X275114000Y-46037500D03*
%TD*%
D21*
%TO.C,J6*%
X201136000Y-76962000D03*
D22*
X208756000Y-76962000D03*
D21*
X206216000Y-76962000D03*
X203676000Y-76962000D03*
%TD*%
D18*
%TO.C,U3*%
X168463000Y-60812500D03*
X166563000Y-60812500D03*
X168463000Y-63012500D03*
X167513000Y-60812500D03*
X166563000Y-63012500D03*
%TD*%
D19*
%TO.C,SW30*%
X196056000Y-77132000D03*
X196056000Y-79332000D03*
%TD*%
D11*
%TO.C,SW28*%
X144462000Y-124619000D03*
D12*
X147002000Y-119539000D03*
D13*
X150304000Y-119539000D03*
D14*
X149542000Y-124619000D03*
D13*
X137377000Y-122079000D03*
D12*
X140652000Y-122079000D03*
D14*
X139382000Y-124619000D03*
%TD*%
D11*
%TO.C,SW27*%
X125412000Y-122238000D03*
D12*
X127952000Y-117158000D03*
D13*
X131254000Y-117158000D03*
D14*
X130492000Y-122238000D03*
D13*
X118327000Y-119698000D03*
D12*
X121602000Y-119698000D03*
D14*
X120332000Y-122238000D03*
%TD*%
D11*
%TO.C,SW26*%
X30162500Y-88900000D03*
D12*
X32702500Y-83820000D03*
D13*
X36004500Y-83820000D03*
D14*
X35242500Y-88900000D03*
D13*
X23077500Y-86360000D03*
D12*
X26352500Y-86360000D03*
D14*
X25082500Y-88900000D03*
%TD*%
D11*
%TO.C,SW25*%
X144462000Y-105569000D03*
D12*
X147002000Y-100489000D03*
D13*
X150304000Y-100489000D03*
D14*
X149542000Y-105569000D03*
D13*
X137377000Y-103029000D03*
D12*
X140652000Y-103029000D03*
D14*
X139382000Y-105569000D03*
%TD*%
D11*
%TO.C,SW24*%
X125412000Y-103188000D03*
D12*
X127952000Y-98108000D03*
D13*
X131254000Y-98108000D03*
D14*
X130492000Y-103188000D03*
D13*
X118327000Y-100648000D03*
D12*
X121602000Y-100648000D03*
D14*
X120332000Y-103188000D03*
%TD*%
D11*
%TO.C,SW23*%
X106362000Y-98425000D03*
D12*
X108902000Y-93345000D03*
D13*
X112204000Y-93345000D03*
D14*
X111442000Y-98425000D03*
D13*
X99277000Y-95885000D03*
D12*
X102552000Y-95885000D03*
D14*
X101282000Y-98425000D03*
%TD*%
D11*
%TO.C,SW21*%
X68262500Y-110331000D03*
D12*
X70802500Y-105251000D03*
D13*
X74104500Y-105251000D03*
D14*
X73342500Y-110331000D03*
D13*
X61177500Y-107791000D03*
D12*
X64452500Y-107791000D03*
D14*
X63182500Y-110331000D03*
%TD*%
D11*
%TO.C,SW20*%
X49212500Y-112712000D03*
D12*
X51752500Y-107632000D03*
D13*
X55054500Y-107632000D03*
D14*
X54292500Y-112712000D03*
D13*
X42127500Y-110172000D03*
D12*
X45402500Y-110172000D03*
D14*
X44132500Y-112712000D03*
%TD*%
D11*
%TO.C,SW19*%
X144462000Y-86518800D03*
D12*
X147002000Y-81438800D03*
D13*
X150304000Y-81438800D03*
D14*
X149542000Y-86518800D03*
D13*
X137377000Y-83978800D03*
D12*
X140652000Y-83978800D03*
D14*
X139382000Y-86518800D03*
%TD*%
D11*
%TO.C,SW18*%
X125412000Y-84137500D03*
D12*
X127952000Y-79057500D03*
D13*
X131254000Y-79057500D03*
D14*
X130492000Y-84137500D03*
D13*
X118327000Y-81597500D03*
D12*
X121602000Y-81597500D03*
D14*
X120332000Y-84137500D03*
%TD*%
D11*
%TO.C,SW17*%
X106362000Y-79375000D03*
D12*
X108902000Y-74295000D03*
D13*
X112204000Y-74295000D03*
D14*
X111442000Y-79375000D03*
D13*
X99277000Y-76835000D03*
D12*
X102552000Y-76835000D03*
D14*
X101282000Y-79375000D03*
%TD*%
D11*
%TO.C,SW16*%
X87312500Y-84137500D03*
D12*
X89852500Y-79057500D03*
D13*
X93154500Y-79057500D03*
D14*
X92392500Y-84137500D03*
D13*
X80227500Y-81597500D03*
D12*
X83502500Y-81597500D03*
D14*
X82232500Y-84137500D03*
%TD*%
D11*
%TO.C,SW15*%
X68262500Y-91281200D03*
D12*
X70802500Y-86201200D03*
D13*
X74104500Y-86201200D03*
D14*
X73342500Y-91281200D03*
D13*
X61177500Y-88741200D03*
D12*
X64452500Y-88741200D03*
D14*
X63182500Y-91281200D03*
%TD*%
D11*
%TO.C,SW14*%
X49212500Y-93662500D03*
D12*
X51752500Y-88582500D03*
D13*
X55054500Y-88582500D03*
D14*
X54292500Y-93662500D03*
D13*
X42127500Y-91122500D03*
D12*
X45402500Y-91122500D03*
D14*
X44132500Y-93662500D03*
%TD*%
D11*
%TO.C,SW13*%
X144462000Y-67468800D03*
D12*
X147002000Y-62388800D03*
D13*
X150304000Y-62388800D03*
D14*
X149542000Y-67468800D03*
D13*
X137377000Y-64928800D03*
D12*
X140652000Y-64928800D03*
D14*
X139382000Y-67468800D03*
%TD*%
D11*
%TO.C,SW12*%
X125412000Y-65087500D03*
D12*
X127952000Y-60007500D03*
D13*
X131254000Y-60007500D03*
D14*
X130492000Y-65087500D03*
D13*
X118327000Y-62547500D03*
D12*
X121602000Y-62547500D03*
D14*
X120332000Y-65087500D03*
%TD*%
D11*
%TO.C,SW11*%
X106362000Y-60325000D03*
D12*
X108902000Y-55245000D03*
D13*
X112204000Y-55245000D03*
D14*
X111442000Y-60325000D03*
D13*
X99277000Y-57785000D03*
D12*
X102552000Y-57785000D03*
D14*
X101282000Y-60325000D03*
%TD*%
D11*
%TO.C,SW10*%
X87312500Y-65087500D03*
D12*
X89852500Y-60007500D03*
D13*
X93154500Y-60007500D03*
D14*
X92392500Y-65087500D03*
D13*
X80227500Y-62547500D03*
D12*
X83502500Y-62547500D03*
D14*
X82232500Y-65087500D03*
%TD*%
D11*
%TO.C,SW9*%
X68262500Y-72231200D03*
D12*
X70802500Y-67151200D03*
D13*
X74104500Y-67151200D03*
D14*
X73342500Y-72231200D03*
D13*
X61177500Y-69691200D03*
D12*
X64452500Y-69691200D03*
D14*
X63182500Y-72231200D03*
%TD*%
D11*
%TO.C,SW8*%
X49212500Y-74612500D03*
D12*
X51752500Y-69532500D03*
D13*
X55054500Y-69532500D03*
D14*
X54292500Y-74612500D03*
D13*
X42127500Y-72072500D03*
D12*
X45402500Y-72072500D03*
D14*
X44132500Y-74612500D03*
%TD*%
D11*
%TO.C,SW7*%
X144462000Y-48418800D03*
D12*
X147002000Y-43338800D03*
D13*
X150304000Y-43338800D03*
D14*
X149542000Y-48418800D03*
D13*
X137377000Y-45878800D03*
D12*
X140652000Y-45878800D03*
D14*
X139382000Y-48418800D03*
%TD*%
D11*
%TO.C,SW6*%
X125412000Y-46037500D03*
D12*
X127952000Y-40957500D03*
D13*
X131254000Y-40957500D03*
D14*
X130492000Y-46037500D03*
D13*
X118327000Y-43497500D03*
D12*
X121602000Y-43497500D03*
D14*
X120332000Y-46037500D03*
%TD*%
D11*
%TO.C,SW5*%
X106362000Y-41275000D03*
D12*
X108902000Y-36195000D03*
D13*
X112204000Y-36195000D03*
D14*
X111442000Y-41275000D03*
D13*
X99277000Y-38735000D03*
D12*
X102552000Y-38735000D03*
D14*
X101282000Y-41275000D03*
%TD*%
D11*
%TO.C,SW4*%
X87312500Y-46037500D03*
D12*
X89852500Y-40957500D03*
D13*
X93154500Y-40957500D03*
D14*
X92392500Y-46037500D03*
D13*
X80227500Y-43497500D03*
D12*
X83502500Y-43497500D03*
D14*
X82232500Y-46037500D03*
%TD*%
D11*
%TO.C,SW3*%
X68262500Y-53181200D03*
D12*
X70802500Y-48101200D03*
D13*
X74104500Y-48101200D03*
D14*
X73342500Y-53181200D03*
D13*
X61177500Y-50641200D03*
D12*
X64452500Y-50641200D03*
D14*
X63182500Y-53181200D03*
%TD*%
D11*
%TO.C,SW2*%
X49212500Y-55562500D03*
D12*
X51752500Y-50482500D03*
D13*
X55054500Y-50482500D03*
D14*
X54292500Y-55562500D03*
D13*
X42127500Y-53022500D03*
D12*
X45402500Y-53022500D03*
D14*
X44132500Y-55562500D03*
%TD*%
D20*
%TO.C,Q1*%
X162594000Y-62912500D03*
X163544000Y-60912500D03*
X164494000Y-62912500D03*
%TD*%
D22*
%TO.C,J4*%
X208756000Y-80962500D03*
D21*
X206216000Y-80962500D03*
%TD*%
D22*
%TO.C,J1*%
X158750000Y-80962500D03*
D21*
X161290000Y-80962500D03*
%TD*%
M02*
