M48
; DRILL file {KiCad (5.1.7)-1} date 02/09/21 20:12:26
; FORMAT={-:-/ absolute / inch / decimal}
; #@! TF.CreationDate,2021-02-09T20:12:26+08:00
; #@! TF.GenerationSoftware,Kicad,Pcbnew,(5.1.7)-1
; #@! TF.FileFunction,NonPlated,1,2,NPTH
FMAT,2
INCH
T1C0.0315
T2C0.0394
T3C0.0689
T4C0.1181
T5C0.1570
T6C0.1654
%
G90
G05
T1
X7.539Y-4.9062
X7.539Y-4.9531
X7.539Y-5.0
X7.539Y-5.0469
X7.539Y-5.0938
X7.6484Y-4.9062
X7.6484Y-4.9531
X7.6484Y-5.0
X7.6484Y-5.0469
X7.6484Y-5.0938
X6.8203Y-4.9062
X6.8203Y-4.9531
X6.8203Y-5.0
X6.8203Y-5.0469
X6.8203Y-5.0938
X6.9297Y-4.9062
X6.9297Y-4.9531
X6.9297Y-5.0
X6.9297Y-5.0469
X6.9297Y-5.0938
X6.8203Y-1.8437
X6.8203Y-1.8906
X6.8203Y-1.9375
X6.8203Y-1.9844
X6.8203Y-2.0313
X6.9297Y-1.8437
X6.9297Y-1.8906
X6.9297Y-1.9375
X6.9297Y-1.9844
X6.9297Y-2.0313
X7.539Y-1.8437
X7.539Y-1.8906
X7.539Y-1.9375
X7.539Y-1.9844
X7.539Y-2.0313
X7.6484Y-1.8437
X7.6484Y-1.8906
X7.6484Y-1.9375
X7.6484Y-1.9844
X7.6484Y-2.0313
T2
X7.7187Y-3.0367
X7.7187Y-3.1233
X6.75Y-3.0367
X6.75Y-3.1233
T3
X9.3313Y-3.3125
X9.7313Y-3.3125
X3.9875Y-1.625
X4.3875Y-1.625
X8.5813Y-4.1563
X8.9813Y-4.1563
X3.2375Y-2.5625
X3.6375Y-2.5625
X3.2375Y-1.8125
X3.6375Y-1.8125
X10.0813Y-3.875
X10.4813Y-3.875
X4.7375Y-3.3125
X5.1375Y-3.3125
X3.9875Y-3.875
X4.3875Y-3.875
X4.7375Y-4.8125
X5.1375Y-4.8125
X8.5813Y-2.6563
X8.9813Y-2.6563
X10.0813Y-3.125
X10.4813Y-3.125
X10.8313Y-3.3125
X11.2313Y-3.3125
X5.4875Y-1.9063
X5.8875Y-1.9063
X7.8313Y-5.0
X8.2313Y-5.0
X2.4875Y-4.3437
X2.8875Y-4.3437
X13.0813Y-3.5
X13.4813Y-3.5
X5.4875Y-3.4063
X5.8875Y-3.4063
X4.7375Y-4.0625
X5.1375Y-4.0625
X11.5813Y-2.8437
X11.9813Y-2.8437
X10.0813Y-1.625
X10.4813Y-1.625
X12.3313Y-4.4375
X12.7313Y-4.4375
X1.7375Y-2.9375
X2.1375Y-2.9375
X10.8313Y-4.0625
X11.2313Y-4.0625
X12.3313Y-2.1875
X12.7313Y-2.1875
X4.7375Y-2.5625
X5.1375Y-2.5625
X3.2375Y-4.0625
X3.6375Y-4.0625
X5.4875Y-4.1563
X5.8875Y-4.1563
X9.3313Y-2.5625
X9.7313Y-2.5625
X9.3313Y-1.8125
X9.7313Y-1.8125
X11.5813Y-3.5937
X11.9813Y-3.5937
X2.4875Y-2.0937
X2.8875Y-2.0937
X9.3313Y-4.8125
X9.7313Y-4.8125
X11.5813Y-2.0937
X11.9813Y-2.0937
X5.4875Y-2.6563
X5.8875Y-2.6563
X3.2375Y-3.3125
X3.6375Y-3.3125
X2.4875Y-3.5937
X2.8875Y-3.5937
X1.7375Y-2.1875
X2.1375Y-2.1875
X10.8313Y-2.5625
X11.2313Y-2.5625
X10.0813Y-2.375
X10.4813Y-2.375
X8.5813Y-4.9063
X8.9813Y-4.9063
X3.9875Y-3.125
X4.3875Y-3.125
X1.7375Y-4.4375
X2.1375Y-4.4375
X6.2375Y-5.0
X6.6375Y-5.0
X5.4875Y-4.9063
X5.8875Y-4.9063
X10.8313Y-1.8125
X11.2313Y-1.8125
X11.5813Y-4.3437
X11.9813Y-4.3437
X2.4875Y-2.8437
X2.8875Y-2.8437
X4.7375Y-1.8125
X5.1375Y-1.8125
X8.5813Y-1.9063
X8.9813Y-1.9063
X8.5813Y-3.4063
X8.9813Y-3.4063
X9.3313Y-4.0625
X9.7313Y-4.0625
X3.9875Y-2.375
X4.3875Y-2.375
X1.7375Y-3.6875
X2.1375Y-3.6875
X0.9875Y-3.5
X1.3875Y-3.5
X12.3313Y-2.9375
X12.7313Y-2.9375
X12.3313Y-3.6875
X12.7313Y-3.6875
T4
X8.6313Y-1.8063
X8.8813Y-1.7063
X8.6313Y-3.3063
X8.8813Y-3.2063
X9.3813Y-3.9625
X9.6313Y-3.8625
X4.0375Y-2.275
X4.2875Y-2.175
X1.7875Y-3.5875
X2.0375Y-3.4875
X1.0375Y-3.4
X1.2875Y-3.3
X12.3813Y-2.8375
X12.6313Y-2.7375
X12.3813Y-3.5875
X12.6313Y-3.4875
X9.3813Y-3.2125
X9.6313Y-3.1125
X4.0375Y-1.525
X4.2875Y-1.425
X8.6313Y-4.0563
X8.8813Y-3.9563
X3.2875Y-2.4625
X3.5375Y-2.3625
X3.2875Y-1.7125
X3.5375Y-1.6125
X10.1313Y-3.775
X10.3813Y-3.675
X4.7875Y-3.2125
X5.0375Y-3.1125
X4.0375Y-3.775
X4.2875Y-3.675
X4.7875Y-4.7125
X5.0375Y-4.6125
X8.6313Y-2.5563
X8.8813Y-2.4563
X10.1313Y-3.025
X10.3813Y-2.925
X10.8813Y-3.2125
X11.1313Y-3.1125
X5.5375Y-1.8063
X5.7875Y-1.7063
X7.8813Y-4.9
X8.1313Y-4.8
X2.5375Y-4.2437
X2.7875Y-4.1437
X13.1313Y-3.4
X13.3813Y-3.3
X5.5375Y-3.3063
X5.7875Y-3.2063
X4.7875Y-3.9625
X5.0375Y-3.8625
X11.6313Y-2.7437
X11.8813Y-2.6437
X10.1313Y-1.525
X10.3813Y-1.425
X12.3813Y-4.3375
X12.6313Y-4.2375
X1.7875Y-2.8375
X2.0375Y-2.7375
X10.8813Y-3.9625
X11.1313Y-3.8625
X12.3813Y-2.0875
X12.6313Y-1.9875
X4.7875Y-2.4625
X5.0375Y-2.3625
X3.2875Y-3.9625
X3.5375Y-3.8625
X5.5375Y-4.0563
X5.7875Y-3.9563
X9.3813Y-2.4625
X9.6313Y-2.3625
X9.3813Y-1.7125
X9.6313Y-1.6125
X11.6313Y-3.4937
X11.8813Y-3.3937
X2.5375Y-1.9937
X2.7875Y-1.8937
X9.3813Y-4.7125
X9.6313Y-4.6125
X11.6313Y-1.9937
X11.8813Y-1.8937
X5.5375Y-2.5563
X5.7875Y-2.4563
X3.2875Y-3.2125
X3.5375Y-3.1125
X2.5375Y-3.4937
X2.7875Y-3.3937
X1.7875Y-2.0875
X2.0375Y-1.9875
X10.8813Y-2.4625
X11.1313Y-2.3625
X10.1313Y-2.275
X10.3813Y-2.175
X8.6313Y-4.8063
X8.8813Y-4.7063
X4.0375Y-3.025
X4.2875Y-2.925
X1.7875Y-4.3375
X2.0375Y-4.2375
X6.2875Y-4.9
X6.5375Y-4.8
X5.5375Y-4.8063
X5.7875Y-4.7063
X10.8813Y-1.7125
X11.1313Y-1.6125
X11.6313Y-4.2437
X11.8813Y-4.1437
X2.5375Y-2.7437
X2.7875Y-2.6437
X4.7875Y-1.7125
X5.0375Y-1.6125
T5
X8.7813Y-3.4063
X9.5313Y-4.0625
X4.1875Y-2.375
X1.9375Y-3.6875
X1.1875Y-3.5
X12.5313Y-2.9375
X12.5313Y-3.6875
X9.5313Y-3.3125
X4.1875Y-1.625
X8.7813Y-4.1563
X3.4375Y-2.5625
X3.4375Y-1.8125
X10.2813Y-3.875
X4.9375Y-3.3125
X4.1875Y-3.875
X4.9375Y-4.8125
X8.7813Y-2.6563
X10.2813Y-3.125
X11.0313Y-3.3125
X5.6875Y-1.9063
X8.0313Y-5.0
X2.6875Y-4.3437
X13.2813Y-3.5
X5.6875Y-3.4063
X4.9375Y-4.0625
X11.7813Y-2.8437
X10.2813Y-1.625
X12.5313Y-4.4375
X1.9375Y-2.9375
X11.0313Y-4.0625
X12.5313Y-2.1875
X4.9375Y-2.5625
X3.4375Y-4.0625
X5.6875Y-4.1563
X9.5313Y-2.5625
X9.5313Y-1.8125
X11.7813Y-3.5937
X2.6875Y-2.0937
X9.5313Y-4.8125
X11.7813Y-2.0937
X5.6875Y-2.6563
X3.4375Y-3.3125
X2.6875Y-3.5937
X1.9375Y-2.1875
X11.0313Y-2.5625
X10.2813Y-2.375
X8.7813Y-4.9063
X4.1875Y-3.125
X1.9375Y-4.4375
X6.4375Y-5.0
X5.6875Y-4.9063
X11.0313Y-1.8125
X11.7813Y-4.3437
X2.6875Y-2.8437
X4.9375Y-1.8125
X8.7813Y-1.9063
T6
X5.3125Y-4.4844
X5.3125Y-2.2344
X1.5625Y-3.3125
X2.3125Y-2.5156
X9.1563Y-4.4844
X9.1563Y-2.2344
X2.3125Y-4.0156
X12.1563Y-2.5156
X12.1563Y-4.0156
X12.9063Y-3.3125
T0
M30
