M48
; DRILL file {KiCad (5.1.7)-1} date 02/09/21 20:12:26
; FORMAT={-:-/ absolute / inch / decimal}
; #@! TF.CreationDate,2021-02-09T20:12:26+08:00
; #@! TF.GenerationSoftware,Kicad,Pcbnew,(5.1.7)-1
; #@! TF.FileFunction,Plated,1,2,PTH
FMAT,2
INCH
T1C0.0118
T2C0.0236
T3C0.0394
%
G90
G05
T1
X2.3597Y-2.1797
X2.388Y-2.9796
X3.0864Y-2.9796
X3.1408Y-2.095
X3.6996Y-2.9796
X3.9374Y-3.4306
X4.2483Y-2.2786
X4.6527Y-3.4374
X4.6874Y-2.7221
X5.1198Y-2.3067
X5.3389Y-2.1076
X5.4703Y-2.3141
X5.617Y-2.3793
X5.7784Y-2.6109
X5.8102Y-3.5487
X5.8196Y-2.6109
X5.9483Y-2.2094
X5.9654Y-3.5487
X6.1685Y-1.9919
X6.1999Y-2.1199
X6.2341Y-2.8124
X6.2451Y-2.5303
X6.2543Y-2.2219
X6.2801Y-2.4712
X6.2867Y-2.6112
X6.3563Y-2.0129
X6.3707Y-2.2949
X6.3902Y-2.6114
X6.408Y-2.0332
X6.416Y-2.7682
X6.4471Y-2.045
X6.4513Y-2.0997
X6.4969Y-2.6117
X6.505Y-2.7731
X6.5285Y-2.4037
X6.5595Y-2.6832
X6.5752Y-2.7289
X6.6048Y-2.7682
X6.6601Y-2.2011
X6.7007Y-2.0706
X7.7572Y-2.1
X7.8607Y-2.5003
X7.8917Y-2.7023
X7.9065Y-2.8717
X7.9368Y-2.0123
X8.0043Y-2.1964
X8.025Y-2.07
X8.0411Y-2.015
X8.0753Y-2.3835
X8.1007Y-2.5157
X8.1481Y-2.7447
X8.1614Y-2.6111
X8.2284Y-2.3774
X8.233Y-2.6984
X8.2536Y-2.6786
X8.2548Y-2.5896
X8.2998Y-2.0071
X8.3034Y-2.9582
X8.3601Y-2.1382
X8.4025Y-2.407
X8.4938Y-2.6377
X8.4952Y-3.5519
X9.0445Y-2.2081
X9.2502Y-3.5796
X9.9892Y-2.6378
X10.4522Y-3.6269
X10.5241Y-2.6044
X10.6894Y-2.6033
X10.7103Y-2.6378
X10.7822Y-3.6122
X11.9875Y-2.7321
X12.7658Y-2.6704
X7.8489Y-2.2472
X7.8989Y-2.2472
X7.9489Y-2.2472
X7.9989Y-2.2472
X8.0489Y-2.2472
X8.0989Y-2.2472
X8.1489Y-2.2472
X8.1989Y-2.2472
X8.2989Y-2.2572
X8.2989Y-2.3072
X8.2989Y-2.3572
X8.2989Y-2.4072
X8.2989Y-2.4572
X8.2989Y-2.5072
X8.2989Y-2.5572
X6.1698Y-2.2553
X6.1698Y-2.3053
X6.1698Y-2.3553
X6.1698Y-2.4053
X6.1698Y-2.4553
X6.1698Y-2.5053
X6.1698Y-2.5553
X6.2698Y-2.5653
X6.3198Y-2.5653
X6.3698Y-2.5653
X6.4198Y-2.5653
X6.4698Y-2.5653
X6.5198Y-2.5653
X6.5698Y-2.5653
X6.6198Y-2.5653
T2
X6.218Y-1.7455
X6.218Y-1.7565
X6.218Y-1.7685
X6.218Y-1.782
X6.218Y-1.7935
X6.218Y-1.933
X6.218Y-1.9127
X6.218Y-1.923
X6.218Y-1.9427
X6.657Y-1.746
X6.657Y-1.757
X6.657Y-1.769
X6.657Y-1.7825
X6.657Y-1.794
X6.657Y-1.933
X6.657Y-1.9127
X6.657Y-1.923
X6.657Y-1.9427
X7.8117Y-1.7455
X7.8118Y-1.7565
X7.8118Y-1.7685
X7.8118Y-1.782
X7.8118Y-1.7935
X7.8118Y-1.933
X7.8118Y-1.9127
X7.8118Y-1.923
X7.8118Y-1.9427
X8.2507Y-1.746
X8.2508Y-1.757
X8.2508Y-1.769
X8.2508Y-1.7825
X8.2508Y-1.794
X8.2508Y-1.933
X8.2508Y-1.9127
X8.2508Y-1.923
X8.2508Y-1.9427
T3
X8.1187Y-3.1875
X8.2187Y-3.1875
X7.9187Y-3.03
X8.0187Y-3.03
X8.1187Y-3.03
X8.2187Y-3.03
X6.25Y-3.0313
X6.35Y-3.0313
X6.45Y-3.0313
X6.55Y-3.0313
X6.25Y-3.1875
X6.35Y-3.1875
T0
M30
