M48
; DRILL file {KiCad (5.1.7)-1} date 02/08/21 18:02:40
; FORMAT={-:-/ absolute / inch / decimal}
; #@! TF.CreationDate,2021-02-08T18:02:40+08:00
; #@! TF.GenerationSoftware,Kicad,Pcbnew,(5.1.7)-1
; #@! TF.FileFunction,Plated,1,2,PTH
FMAT,2
INCH
T1C0.0118
T2C0.0236
T3C0.0394
%
G90
G05
T1
X7.6926Y-2.2472
X7.7426Y-2.2472
X7.7926Y-2.2472
X7.8426Y-2.2472
X7.8926Y-2.2472
X7.9426Y-2.2472
X7.9926Y-2.2472
X8.0426Y-2.2472
X8.1426Y-2.2572
X8.1426Y-2.3072
X8.1426Y-2.3572
X8.1426Y-2.4072
X8.1426Y-2.4572
X8.1426Y-2.5072
X8.1426Y-2.5572
X6.4199Y-2.2553
X6.4199Y-2.3053
X6.4199Y-2.3553
X6.4199Y-2.4053
X6.4199Y-2.4553
X6.4199Y-2.5053
X6.4199Y-2.5553
X6.5199Y-2.5653
X6.5699Y-2.5653
X6.6199Y-2.5653
X6.6699Y-2.5653
X6.7199Y-2.5653
X6.7699Y-2.5653
X6.8199Y-2.5653
X6.8699Y-2.5653
T2
X6.468Y-1.7455
X6.468Y-1.7565
X6.468Y-1.7685
X6.468Y-1.782
X6.468Y-1.7935
X6.468Y-1.933
X6.468Y-1.9127
X6.468Y-1.923
X6.468Y-1.9427
X6.907Y-1.746
X6.907Y-1.757
X6.907Y-1.769
X6.907Y-1.7825
X6.907Y-1.794
X6.907Y-1.933
X6.907Y-1.9127
X6.907Y-1.923
X6.907Y-1.9427
X7.6555Y-1.7455
X7.6555Y-1.7565
X7.6555Y-1.7685
X7.6555Y-1.782
X7.6555Y-1.7935
X7.6555Y-1.933
X7.6555Y-1.9127
X7.6555Y-1.923
X7.6555Y-1.9427
X8.0945Y-1.746
X8.0945Y-1.757
X8.0945Y-1.769
X8.0945Y-1.7825
X8.0945Y-1.794
X8.0945Y-1.933
X8.0945Y-1.9127
X8.0945Y-1.923
X8.0945Y-1.9427
T3
X7.9625Y-3.1875
X8.0625Y-3.1875
X7.7625Y-3.03
X7.8625Y-3.03
X7.9625Y-3.03
X8.0625Y-3.03
X6.5Y-3.0312
X6.6Y-3.0312
X6.7Y-3.0312
X6.8Y-3.0312
X6.5Y-3.1875
X6.6Y-3.1875
T0
M30
