%TF.GenerationSoftware,KiCad,Pcbnew,(5.1.7)-1*%
%TF.CreationDate,2021-02-08T18:02:38+08:00*%
%TF.ProjectId,jiran-ble,6a697261-6e2d-4626-9c65-2e6b69636164,rev?*%
%TF.SameCoordinates,Original*%
%TF.FileFunction,Copper,L1,Top*%
%TF.FilePolarity,Positive*%
%FSLAX46Y46*%
G04 Gerber Fmt 4.6, Leading zero omitted, Abs format (unit mm)*
G04 Created by KiCad (PCBNEW (5.1.7)-1) date 2021-02-08 18:02:38*
%MOMM*%
%LPD*%
G01*
G04 APERTURE LIST*
%TA.AperFunction,SMDPad,CuDef*%
%ADD10R,0.650000X1.000000*%
%TD*%
%TA.AperFunction,ComponentPad*%
%ADD11R,0.650000X1.000000*%
%TD*%
%TA.AperFunction,SMDPad,CuDef*%
%ADD12R,1.000000X0.650000*%
%TD*%
%TA.AperFunction,ComponentPad*%
%ADD13R,1.000000X0.650000*%
%TD*%
%TA.AperFunction,SMDPad,CuDef*%
%ADD14R,0.900000X0.900000*%
%TD*%
%TA.AperFunction,SMDPad,CuDef*%
%ADD15R,0.900000X0.500000*%
%TD*%
%TA.AperFunction,SMDPad,CuDef*%
%ADD16R,0.300000X1.250000*%
%TD*%
%TA.AperFunction,ComponentPad*%
%ADD17C,1.000000*%
%TD*%
%TA.AperFunction,SMDPad,CuDef*%
%ADD18R,0.540000X1.250000*%
%TD*%
%TA.AperFunction,ComponentPad*%
%ADD19O,1.700000X1.700000*%
%TD*%
%TA.AperFunction,ComponentPad*%
%ADD20R,1.700000X1.700000*%
%TD*%
G04 APERTURE END LIST*
D10*
%TO.P,U5,2*%
%TO.N,BLUE_LED_r*%
X196155000Y-67237750D03*
D11*
%TO.P,U5,28*%
%TO.N,N/C*%
X204283000Y-57077750D03*
%TO.P,U5,34*%
X200473000Y-57077750D03*
D12*
%TO.P,U5,25*%
X208534000Y-56698750D03*
D10*
%TO.P,U5,5*%
%TO.N,GND*%
X199965000Y-67237750D03*
%TO.P,U5,3*%
%TO.N,N/C*%
X197425000Y-67237750D03*
D13*
%TO.P,U5,16*%
%TO.N,/P0.08_r*%
X206823000Y-62411750D03*
D10*
%TO.P,U5,39*%
%TO.N,SWC_r*%
X197425000Y-54999750D03*
D13*
%TO.P,U5,20*%
%TO.N,/P0.12_r*%
X206823000Y-59871750D03*
D12*
%TO.P,U5,13*%
%TO.N,Net-(U5-Pad13)*%
X208534000Y-64318750D03*
D10*
%TO.P,U5,9*%
%TO.N,/P0.31_r*%
X205045000Y-67237750D03*
%TO.P,U5,37*%
%TO.N,SWD_r*%
X198695000Y-54999750D03*
D13*
%TO.P,U5,14*%
%TO.N,/P0.06_r*%
X206823000Y-63681750D03*
%TO.P,U5,22*%
%TO.N,N/C*%
X206823000Y-58601750D03*
D11*
%TO.P,U5,42*%
X195393000Y-57077750D03*
D10*
%TO.P,U5,35*%
X199965000Y-54999750D03*
D11*
%TO.P,U5,30*%
X203013000Y-57077750D03*
D10*
%TO.P,U5,6*%
%TO.N,/P1.13_r*%
X201235000Y-67237750D03*
%TO.P,U5,7*%
%TO.N,/P0.02_r*%
X202505000Y-67237750D03*
D11*
%TO.P,U5,38*%
%TO.N,N/C*%
X197933000Y-57077750D03*
D10*
%TO.P,U5,10*%
%TO.N,/P0.30_r*%
X206315000Y-67237750D03*
%TO.P,U5,26*%
%TO.N,RESET_r*%
X206315000Y-54999750D03*
D11*
%TO.P,U5,36*%
%TO.N,N/C*%
X199203000Y-57077750D03*
D12*
%TO.P,U5,11*%
%TO.N,Net-(U5-Pad11)*%
X208534000Y-65588750D03*
D11*
%TO.P,U5,32*%
%TO.N,N/C*%
X201743000Y-57077750D03*
D10*
%TO.P,U5,1*%
%TO.N,/P1.11_r*%
X194885000Y-67237750D03*
D11*
%TO.P,U5,40*%
%TO.N,N/C*%
X196663000Y-57077750D03*
D12*
%TO.P,U5,23*%
%TO.N,nRF_VDD_r*%
X208534000Y-57968750D03*
D10*
%TO.P,U5,27*%
%TO.N,VBUS_r*%
X205045000Y-54999750D03*
%TO.P,U5,41*%
%TO.N,/P0.09_r*%
X196155000Y-54999750D03*
D12*
%TO.P,U5,15*%
%TO.N,N/C*%
X208534000Y-63048750D03*
D10*
%TO.P,U5,31*%
%TO.N,DATA+_r*%
X202505000Y-54999750D03*
D12*
%TO.P,U5,17*%
%TO.N,N/C*%
X208534000Y-61778750D03*
D10*
%TO.P,U5,43*%
X194885000Y-54999750D03*
D13*
%TO.P,U5,12*%
X206823000Y-64951750D03*
D12*
%TO.P,U5,21*%
%TO.N,GND*%
X208534000Y-59238750D03*
D13*
%TO.P,U5,18*%
%TO.N,BATTERY_PIN_r*%
X206823000Y-61141750D03*
D12*
%TO.P,U5,19*%
%TO.N,nRF_VDD_r*%
X208534000Y-60508750D03*
D10*
%TO.P,U5,8*%
%TO.N,/P0.29_r*%
X203775000Y-67237750D03*
%TO.P,U5,4*%
%TO.N,/P0.28_r*%
X198695000Y-67237750D03*
D13*
%TO.P,U5,24*%
%TO.N,GND*%
X206823000Y-57331750D03*
D10*
%TO.P,U5,33*%
%TO.N,N/C*%
X201235000Y-54999750D03*
%TO.P,U5,29*%
%TO.N,DATA-_r*%
X203775000Y-54999750D03*
%TD*%
%TO.P,U2,2*%
%TO.N,BLUE_LED_l*%
X173732500Y-54999750D03*
D11*
%TO.P,U2,28*%
%TO.N,N/C*%
X165604500Y-65159750D03*
%TO.P,U2,34*%
X169414500Y-65159750D03*
D12*
%TO.P,U2,25*%
X161353500Y-65538750D03*
D10*
%TO.P,U2,5*%
%TO.N,GND*%
X169922500Y-54999750D03*
%TO.P,U2,3*%
%TO.N,N/C*%
X172462500Y-54999750D03*
D13*
%TO.P,U2,16*%
%TO.N,/P0.08_l*%
X163064500Y-59825750D03*
D10*
%TO.P,U2,39*%
%TO.N,SWC_l*%
X172462500Y-67237750D03*
D13*
%TO.P,U2,20*%
%TO.N,/P0.12_l*%
X163064500Y-62365750D03*
D12*
%TO.P,U2,13*%
%TO.N,Net-(U2-Pad13)*%
X161353500Y-57918750D03*
D10*
%TO.P,U2,9*%
%TO.N,/P0.31_l*%
X164842500Y-54999750D03*
%TO.P,U2,37*%
%TO.N,SWD_l*%
X171192500Y-67237750D03*
D13*
%TO.P,U2,14*%
%TO.N,/P0.06_l*%
X163064500Y-58555750D03*
%TO.P,U2,22*%
%TO.N,N/C*%
X163064500Y-63635750D03*
D11*
%TO.P,U2,42*%
X174494500Y-65159750D03*
D10*
%TO.P,U2,35*%
X169922500Y-67237750D03*
D11*
%TO.P,U2,30*%
X166874500Y-65159750D03*
D10*
%TO.P,U2,6*%
%TO.N,/P1.13_l*%
X168652500Y-54999750D03*
%TO.P,U2,7*%
%TO.N,/P0.02_l*%
X167382500Y-54999750D03*
D11*
%TO.P,U2,38*%
%TO.N,N/C*%
X171954500Y-65159750D03*
D10*
%TO.P,U2,10*%
%TO.N,/P0.30_l*%
X163572500Y-54999750D03*
%TO.P,U2,26*%
%TO.N,RESET_l*%
X163572500Y-67237750D03*
D11*
%TO.P,U2,36*%
%TO.N,N/C*%
X170684500Y-65159750D03*
D12*
%TO.P,U2,11*%
%TO.N,Net-(U2-Pad11)*%
X161353500Y-56648750D03*
D11*
%TO.P,U2,32*%
%TO.N,N/C*%
X168144500Y-65159750D03*
D10*
%TO.P,U2,1*%
%TO.N,/P1.11_l*%
X175002500Y-54999750D03*
D11*
%TO.P,U2,40*%
%TO.N,N/C*%
X173224500Y-65159750D03*
D12*
%TO.P,U2,23*%
%TO.N,nRF_VDD_l*%
X161353500Y-64268750D03*
D10*
%TO.P,U2,27*%
%TO.N,VBUS_l*%
X164842500Y-67237750D03*
%TO.P,U2,41*%
%TO.N,/P0.09_l*%
X173732500Y-67237750D03*
D12*
%TO.P,U2,15*%
%TO.N,N/C*%
X161353500Y-59188750D03*
D10*
%TO.P,U2,31*%
%TO.N,DATA+_l*%
X167382500Y-67237750D03*
D12*
%TO.P,U2,17*%
%TO.N,N/C*%
X161353500Y-60458750D03*
D10*
%TO.P,U2,43*%
X175002500Y-67237750D03*
D13*
%TO.P,U2,12*%
X163064500Y-57285750D03*
D12*
%TO.P,U2,21*%
%TO.N,GND*%
X161353500Y-62998750D03*
D13*
%TO.P,U2,18*%
%TO.N,BATTERY_PIN_l*%
X163064500Y-61095750D03*
D12*
%TO.P,U2,19*%
%TO.N,nRF_VDD_l*%
X161353500Y-61728750D03*
D10*
%TO.P,U2,8*%
%TO.N,/P0.29_l*%
X166112500Y-54999750D03*
%TO.P,U2,4*%
%TO.N,/P0.28_l*%
X171192500Y-54999750D03*
D13*
%TO.P,U2,24*%
%TO.N,GND*%
X163064500Y-64905750D03*
D10*
%TO.P,U2,33*%
%TO.N,N/C*%
X168652500Y-67237750D03*
%TO.P,U2,29*%
%TO.N,DATA-_l*%
X166112500Y-67237750D03*
%TD*%
D14*
%TO.P,SW1,1*%
%TO.N,RESET_l*%
X176800000Y-80332000D03*
%TO.P,SW1,2*%
%TO.N,GND*%
X176800000Y-76132000D03*
D15*
%TO.P,SW1,GND*%
%TO.N,N/C*%
X178900000Y-82032000D03*
X178900000Y-74432000D03*
%TD*%
%TO.P,R18,1*%
%TO.N,Net-(R18-Pad1)*%
%TA.AperFunction,SMDPad,CuDef*%
G36*
G01*
X199840001Y-72243750D02*
X198939999Y-72243750D01*
G75*
G02*
X198690000Y-71993751I0J249999D01*
G01*
X198690000Y-71293749D01*
G75*
G02*
X198939999Y-71043750I249999J0D01*
G01*
X199840001Y-71043750D01*
G75*
G02*
X200090000Y-71293749I0J-249999D01*
G01*
X200090000Y-71993751D01*
G75*
G02*
X199840001Y-72243750I-249999J0D01*
G01*
G37*
%TD.AperFunction*%
%TO.P,R18,2*%
%TO.N,GND*%
%TA.AperFunction,SMDPad,CuDef*%
G36*
G01*
X199840001Y-70243750D02*
X198939999Y-70243750D01*
G75*
G02*
X198690000Y-69993751I0J249999D01*
G01*
X198690000Y-69293749D01*
G75*
G02*
X198939999Y-69043750I249999J0D01*
G01*
X199840001Y-69043750D01*
G75*
G02*
X200090000Y-69293749I0J-249999D01*
G01*
X200090000Y-69993751D01*
G75*
G02*
X199840001Y-70243750I-249999J0D01*
G01*
G37*
%TD.AperFunction*%
%TD*%
%TO.P,R17,1*%
%TO.N,Net-(LED4-Pad1)*%
%TA.AperFunction,SMDPad,CuDef*%
G36*
G01*
X204570751Y-72243750D02*
X203670749Y-72243750D01*
G75*
G02*
X203420750Y-71993751I0J249999D01*
G01*
X203420750Y-71293749D01*
G75*
G02*
X203670749Y-71043750I249999J0D01*
G01*
X204570751Y-71043750D01*
G75*
G02*
X204820750Y-71293749I0J-249999D01*
G01*
X204820750Y-71993751D01*
G75*
G02*
X204570751Y-72243750I-249999J0D01*
G01*
G37*
%TD.AperFunction*%
%TO.P,R17,2*%
%TO.N,Net-(R17-Pad2)*%
%TA.AperFunction,SMDPad,CuDef*%
G36*
G01*
X204570751Y-70243750D02*
X203670749Y-70243750D01*
G75*
G02*
X203420750Y-69993751I0J249999D01*
G01*
X203420750Y-69293749D01*
G75*
G02*
X203670749Y-69043750I249999J0D01*
G01*
X204570751Y-69043750D01*
G75*
G02*
X204820750Y-69293749I0J-249999D01*
G01*
X204820750Y-69993751D01*
G75*
G02*
X204570751Y-70243750I-249999J0D01*
G01*
G37*
%TD.AperFunction*%
%TD*%
D16*
%TO.P,J5,B7*%
%TO.N,DATA-_r*%
X200775000Y-50087500D03*
D17*
%TO.P,J5,S1*%
%TO.N,GND*%
X205600300Y-44627800D03*
X205600300Y-44932600D03*
X194449700Y-45554900D03*
D16*
%TO.P,J5,B6*%
%TO.N,DATA+_r*%
X199275000Y-50087500D03*
D18*
%TO.P,J5,A4*%
%TO.N,VBUS_r*%
X197625000Y-50087500D03*
D17*
%TO.P,J5,S1*%
%TO.N,GND*%
X194449700Y-45262800D03*
X194449700Y-44919900D03*
X194449700Y-44615100D03*
X194449400Y-44335700D03*
X205600300Y-45275500D03*
D16*
%TO.P,J5,A5*%
%TO.N,Net-(J5-PadA5)*%
X201275000Y-50087500D03*
%TO.P,J5,A7*%
%TO.N,DATA-_r*%
X199775000Y-50087500D03*
D18*
%TO.P,J5,A4*%
%TO.N,VBUS_r*%
X202425000Y-50087500D03*
%TO.P,J5,A1*%
%TO.N,GND*%
X196825000Y-50087500D03*
D17*
%TO.P,J5,S1*%
X194449700Y-49098200D03*
X194450000Y-49343500D03*
X194450000Y-48581500D03*
X194450000Y-48844200D03*
X205600600Y-49343500D03*
X205600600Y-48581500D03*
X205600300Y-49098200D03*
D18*
%TO.P,J5,A1*%
X203225000Y-50087500D03*
D16*
%TO.P,J5,B5*%
%TO.N,Net-(J5-PadB5)*%
X198275000Y-50087500D03*
%TO.P,J5,A6*%
%TO.N,DATA+_r*%
X200275000Y-50087500D03*
D17*
%TO.P,J5,S1*%
%TO.N,GND*%
X205600600Y-48844200D03*
X205600300Y-45567600D03*
X205600000Y-44348400D03*
D16*
%TO.P,J5,B8*%
%TO.N,N/C*%
X201783000Y-50087500D03*
%TO.P,J5,A8*%
X198775000Y-50087500D03*
%TD*%
D19*
%TO.P,J3,4*%
%TO.N,SWC_l*%
X172720000Y-76993750D03*
D20*
%TO.P,J3,1*%
%TO.N,GND*%
X165100000Y-76993750D03*
D19*
%TO.P,J3,2*%
%TO.N,nRF_VDD_l*%
X167640000Y-76993750D03*
%TO.P,J3,3*%
%TO.N,SWD_l*%
X170180000Y-76993750D03*
%TD*%
D16*
%TO.P,J2,B7*%
%TO.N,DATA-_l*%
X170612500Y-50087500D03*
D17*
%TO.P,J2,S1*%
%TO.N,GND*%
X175437800Y-44627800D03*
X175437800Y-44932600D03*
X164287200Y-45554900D03*
D16*
%TO.P,J2,B6*%
%TO.N,DATA+_l*%
X169112500Y-50087500D03*
D18*
%TO.P,J2,A4*%
%TO.N,VBUS_l*%
X167462500Y-50087500D03*
D17*
%TO.P,J2,S1*%
%TO.N,GND*%
X164287200Y-45262800D03*
X164287200Y-44919900D03*
X164287200Y-44615100D03*
X164286900Y-44335700D03*
X175437800Y-45275500D03*
D16*
%TO.P,J2,A5*%
%TO.N,Net-(J2-PadA5)*%
X171112500Y-50087500D03*
%TO.P,J2,A7*%
%TO.N,DATA-_l*%
X169612500Y-50087500D03*
D18*
%TO.P,J2,A4*%
%TO.N,VBUS_l*%
X172262500Y-50087500D03*
%TO.P,J2,A1*%
%TO.N,GND*%
X166662500Y-50087500D03*
D17*
%TO.P,J2,S1*%
X164287200Y-49098200D03*
X164287500Y-49343500D03*
X164287500Y-48581500D03*
X164287500Y-48844200D03*
X175438100Y-49343500D03*
X175438100Y-48581500D03*
X175437800Y-49098200D03*
D18*
%TO.P,J2,A1*%
X173062500Y-50087500D03*
D16*
%TO.P,J2,B5*%
%TO.N,Net-(J2-PadB5)*%
X168112500Y-50087500D03*
%TO.P,J2,A6*%
%TO.N,DATA+_l*%
X170112500Y-50087500D03*
D17*
%TO.P,J2,S1*%
%TO.N,GND*%
X175438100Y-48844200D03*
X175437800Y-45567600D03*
X175437500Y-44348400D03*
D16*
%TO.P,J2,B8*%
%TO.N,N/C*%
X171620500Y-50087500D03*
%TO.P,J2,A8*%
X168612500Y-50087500D03*
%TD*%
%TO.P,R16,1*%
%TO.N,BATTERY_PIN_r*%
%TA.AperFunction,SMDPad,CuDef*%
G36*
G01*
X207512499Y-49993750D02*
X208412501Y-49993750D01*
G75*
G02*
X208662500Y-50243749I0J-249999D01*
G01*
X208662500Y-50943751D01*
G75*
G02*
X208412501Y-51193750I-249999J0D01*
G01*
X207512499Y-51193750D01*
G75*
G02*
X207262500Y-50943751I0J249999D01*
G01*
X207262500Y-50243749D01*
G75*
G02*
X207512499Y-49993750I249999J0D01*
G01*
G37*
%TD.AperFunction*%
%TO.P,R16,2*%
%TO.N,GND*%
%TA.AperFunction,SMDPad,CuDef*%
G36*
G01*
X207512499Y-51993750D02*
X208412501Y-51993750D01*
G75*
G02*
X208662500Y-52243749I0J-249999D01*
G01*
X208662500Y-52943751D01*
G75*
G02*
X208412501Y-53193750I-249999J0D01*
G01*
X207512499Y-53193750D01*
G75*
G02*
X207262500Y-52943751I0J249999D01*
G01*
X207262500Y-52243749D01*
G75*
G02*
X207512499Y-51993750I249999J0D01*
G01*
G37*
%TD.AperFunction*%
%TD*%
%TO.P,R15,1*%
%TO.N,VBUS_r*%
%TA.AperFunction,SMDPad,CuDef*%
G36*
G01*
X202189501Y-72243750D02*
X201289499Y-72243750D01*
G75*
G02*
X201039500Y-71993751I0J249999D01*
G01*
X201039500Y-71293749D01*
G75*
G02*
X201289499Y-71043750I249999J0D01*
G01*
X202189501Y-71043750D01*
G75*
G02*
X202439500Y-71293749I0J-249999D01*
G01*
X202439500Y-71993751D01*
G75*
G02*
X202189501Y-72243750I-249999J0D01*
G01*
G37*
%TD.AperFunction*%
%TO.P,R15,2*%
%TO.N,GND*%
%TA.AperFunction,SMDPad,CuDef*%
G36*
G01*
X202189501Y-70243750D02*
X201289499Y-70243750D01*
G75*
G02*
X201039500Y-69993751I0J249999D01*
G01*
X201039500Y-69293749D01*
G75*
G02*
X201289499Y-69043750I249999J0D01*
G01*
X202189501Y-69043750D01*
G75*
G02*
X202439500Y-69293749I0J-249999D01*
G01*
X202439500Y-69993751D01*
G75*
G02*
X202189501Y-70243750I-249999J0D01*
G01*
G37*
%TD.AperFunction*%
%TD*%
%TO.P,R13,1*%
%TO.N,Net-(LED3-Pad1)*%
%TA.AperFunction,SMDPad,CuDef*%
G36*
G01*
X197458751Y-72243750D02*
X196558749Y-72243750D01*
G75*
G02*
X196308750Y-71993751I0J249999D01*
G01*
X196308750Y-71293749D01*
G75*
G02*
X196558749Y-71043750I249999J0D01*
G01*
X197458751Y-71043750D01*
G75*
G02*
X197708750Y-71293749I0J-249999D01*
G01*
X197708750Y-71993751D01*
G75*
G02*
X197458751Y-72243750I-249999J0D01*
G01*
G37*
%TD.AperFunction*%
%TO.P,R13,2*%
%TO.N,GND*%
%TA.AperFunction,SMDPad,CuDef*%
G36*
G01*
X197458751Y-70243750D02*
X196558749Y-70243750D01*
G75*
G02*
X196308750Y-69993751I0J249999D01*
G01*
X196308750Y-69293749D01*
G75*
G02*
X196558749Y-69043750I249999J0D01*
G01*
X197458751Y-69043750D01*
G75*
G02*
X197708750Y-69293749I0J-249999D01*
G01*
X197708750Y-69993751D01*
G75*
G02*
X197458751Y-70243750I-249999J0D01*
G01*
G37*
%TD.AperFunction*%
%TD*%
%TO.P,R12,1*%
%TO.N,VBAT_r*%
%TA.AperFunction,SMDPad,CuDef*%
G36*
G01*
X192537501Y-53193750D02*
X191637499Y-53193750D01*
G75*
G02*
X191387500Y-52943751I0J249999D01*
G01*
X191387500Y-52243749D01*
G75*
G02*
X191637499Y-51993750I249999J0D01*
G01*
X192537501Y-51993750D01*
G75*
G02*
X192787500Y-52243749I0J-249999D01*
G01*
X192787500Y-52943751D01*
G75*
G02*
X192537501Y-53193750I-249999J0D01*
G01*
G37*
%TD.AperFunction*%
%TO.P,R12,2*%
%TO.N,BATTERY_PIN_r*%
%TA.AperFunction,SMDPad,CuDef*%
G36*
G01*
X192537501Y-51193750D02*
X191637499Y-51193750D01*
G75*
G02*
X191387500Y-50943751I0J249999D01*
G01*
X191387500Y-50243749D01*
G75*
G02*
X191637499Y-49993750I249999J0D01*
G01*
X192537501Y-49993750D01*
G75*
G02*
X192787500Y-50243749I0J-249999D01*
G01*
X192787500Y-50943751D01*
G75*
G02*
X192537501Y-51193750I-249999J0D01*
G01*
G37*
%TD.AperFunction*%
%TD*%
%TO.P,R11,1*%
%TO.N,Net-(J5-PadB5)*%
%TA.AperFunction,SMDPad,CuDef*%
G36*
G01*
X198450000Y-52191499D02*
X198450000Y-53091501D01*
G75*
G02*
X198200001Y-53341500I-249999J0D01*
G01*
X197499999Y-53341500D01*
G75*
G02*
X197250000Y-53091501I0J249999D01*
G01*
X197250000Y-52191499D01*
G75*
G02*
X197499999Y-51941500I249999J0D01*
G01*
X198200001Y-51941500D01*
G75*
G02*
X198450000Y-52191499I0J-249999D01*
G01*
G37*
%TD.AperFunction*%
%TO.P,R11,2*%
%TO.N,GND*%
%TA.AperFunction,SMDPad,CuDef*%
G36*
G01*
X196450000Y-52191499D02*
X196450000Y-53091501D01*
G75*
G02*
X196200001Y-53341500I-249999J0D01*
G01*
X195499999Y-53341500D01*
G75*
G02*
X195250000Y-53091501I0J249999D01*
G01*
X195250000Y-52191499D01*
G75*
G02*
X195499999Y-51941500I249999J0D01*
G01*
X196200001Y-51941500D01*
G75*
G02*
X196450000Y-52191499I0J-249999D01*
G01*
G37*
%TD.AperFunction*%
%TD*%
%TO.P,R10,1*%
%TO.N,Net-(J5-PadA5)*%
%TA.AperFunction,SMDPad,CuDef*%
G36*
G01*
X201600000Y-53091501D02*
X201600000Y-52191499D01*
G75*
G02*
X201849999Y-51941500I249999J0D01*
G01*
X202550001Y-51941500D01*
G75*
G02*
X202800000Y-52191499I0J-249999D01*
G01*
X202800000Y-53091501D01*
G75*
G02*
X202550001Y-53341500I-249999J0D01*
G01*
X201849999Y-53341500D01*
G75*
G02*
X201600000Y-53091501I0J249999D01*
G01*
G37*
%TD.AperFunction*%
%TO.P,R10,2*%
%TO.N,GND*%
%TA.AperFunction,SMDPad,CuDef*%
G36*
G01*
X203600000Y-53091501D02*
X203600000Y-52191499D01*
G75*
G02*
X203849999Y-51941500I249999J0D01*
G01*
X204550001Y-51941500D01*
G75*
G02*
X204800000Y-52191499I0J-249999D01*
G01*
X204800000Y-53091501D01*
G75*
G02*
X204550001Y-53341500I-249999J0D01*
G01*
X203849999Y-53341500D01*
G75*
G02*
X203600000Y-53091501I0J249999D01*
G01*
G37*
%TD.AperFunction*%
%TD*%
%TO.P,R9,1*%
%TO.N,Net-(R9-Pad1)*%
%TA.AperFunction,SMDPad,CuDef*%
G36*
G01*
X170015749Y-69837500D02*
X170915751Y-69837500D01*
G75*
G02*
X171165750Y-70087499I0J-249999D01*
G01*
X171165750Y-70787501D01*
G75*
G02*
X170915751Y-71037500I-249999J0D01*
G01*
X170015749Y-71037500D01*
G75*
G02*
X169765750Y-70787501I0J249999D01*
G01*
X169765750Y-70087499D01*
G75*
G02*
X170015749Y-69837500I249999J0D01*
G01*
G37*
%TD.AperFunction*%
%TO.P,R9,2*%
%TO.N,GND*%
%TA.AperFunction,SMDPad,CuDef*%
G36*
G01*
X170015749Y-71837500D02*
X170915751Y-71837500D01*
G75*
G02*
X171165750Y-72087499I0J-249999D01*
G01*
X171165750Y-72787501D01*
G75*
G02*
X170915751Y-73037500I-249999J0D01*
G01*
X170015749Y-73037500D01*
G75*
G02*
X169765750Y-72787501I0J249999D01*
G01*
X169765750Y-72087499D01*
G75*
G02*
X170015749Y-71837500I249999J0D01*
G01*
G37*
%TD.AperFunction*%
%TD*%
%TO.P,LED4,1*%
%TO.N,Net-(LED4-Pad1)*%
%TA.AperFunction,SMDPad,CuDef*%
G36*
G01*
X206952001Y-72243750D02*
X206051999Y-72243750D01*
G75*
G02*
X205802000Y-71993751I0J249999D01*
G01*
X205802000Y-71343749D01*
G75*
G02*
X206051999Y-71093750I249999J0D01*
G01*
X206952001Y-71093750D01*
G75*
G02*
X207202000Y-71343749I0J-249999D01*
G01*
X207202000Y-71993751D01*
G75*
G02*
X206952001Y-72243750I-249999J0D01*
G01*
G37*
%TD.AperFunction*%
%TO.P,LED4,2*%
%TO.N,VBUS_r*%
%TA.AperFunction,SMDPad,CuDef*%
G36*
G01*
X206952001Y-70193750D02*
X206051999Y-70193750D01*
G75*
G02*
X205802000Y-69943751I0J249999D01*
G01*
X205802000Y-69293749D01*
G75*
G02*
X206051999Y-69043750I249999J0D01*
G01*
X206952001Y-69043750D01*
G75*
G02*
X207202000Y-69293749I0J-249999D01*
G01*
X207202000Y-69943751D01*
G75*
G02*
X206952001Y-70193750I-249999J0D01*
G01*
G37*
%TD.AperFunction*%
%TD*%
%TO.P,LED3,1*%
%TO.N,Net-(LED3-Pad1)*%
%TA.AperFunction,SMDPad,CuDef*%
G36*
G01*
X195077501Y-72243750D02*
X194177499Y-72243750D01*
G75*
G02*
X193927500Y-71993751I0J249999D01*
G01*
X193927500Y-71343749D01*
G75*
G02*
X194177499Y-71093750I249999J0D01*
G01*
X195077501Y-71093750D01*
G75*
G02*
X195327500Y-71343749I0J-249999D01*
G01*
X195327500Y-71993751D01*
G75*
G02*
X195077501Y-72243750I-249999J0D01*
G01*
G37*
%TD.AperFunction*%
%TO.P,LED3,2*%
%TO.N,BLUE_LED_r*%
%TA.AperFunction,SMDPad,CuDef*%
G36*
G01*
X195077501Y-70193750D02*
X194177499Y-70193750D01*
G75*
G02*
X193927500Y-69943751I0J249999D01*
G01*
X193927500Y-69293749D01*
G75*
G02*
X194177499Y-69043750I249999J0D01*
G01*
X195077501Y-69043750D01*
G75*
G02*
X195327500Y-69293749I0J-249999D01*
G01*
X195327500Y-69943751D01*
G75*
G02*
X195077501Y-70193750I-249999J0D01*
G01*
G37*
%TD.AperFunction*%
%TD*%
D19*
%TO.P,J6,4*%
%TO.N,SWC_r*%
X197167500Y-76962000D03*
D20*
%TO.P,J6,1*%
%TO.N,GND*%
X204787500Y-76962000D03*
D19*
%TO.P,J6,2*%
%TO.N,nRF_VDD_r*%
X202247500Y-76962000D03*
%TO.P,J6,3*%
%TO.N,SWD_r*%
X199707500Y-76962000D03*
%TD*%
D14*
%TO.P,SW30,1*%
%TO.N,RESET_r*%
X193087500Y-76132000D03*
%TO.P,SW30,2*%
%TO.N,GND*%
X193087500Y-80332000D03*
D15*
%TO.P,SW30,GND*%
%TO.N,N/C*%
X190987500Y-74432000D03*
X190987500Y-82032000D03*
%TD*%
%TO.P,R8,1*%
%TO.N,Net-(LED2-Pad1)*%
%TA.AperFunction,SMDPad,CuDef*%
G36*
G01*
X166185001Y-73037500D02*
X165284999Y-73037500D01*
G75*
G02*
X165035000Y-72787501I0J249999D01*
G01*
X165035000Y-72087499D01*
G75*
G02*
X165284999Y-71837500I249999J0D01*
G01*
X166185001Y-71837500D01*
G75*
G02*
X166435000Y-72087499I0J-249999D01*
G01*
X166435000Y-72787501D01*
G75*
G02*
X166185001Y-73037500I-249999J0D01*
G01*
G37*
%TD.AperFunction*%
%TO.P,R8,2*%
%TO.N,Net-(R8-Pad2)*%
%TA.AperFunction,SMDPad,CuDef*%
G36*
G01*
X166185001Y-71037500D02*
X165284999Y-71037500D01*
G75*
G02*
X165035000Y-70787501I0J249999D01*
G01*
X165035000Y-70087499D01*
G75*
G02*
X165284999Y-69837500I249999J0D01*
G01*
X166185001Y-69837500D01*
G75*
G02*
X166435000Y-70087499I0J-249999D01*
G01*
X166435000Y-70787501D01*
G75*
G02*
X166185001Y-71037500I-249999J0D01*
G01*
G37*
%TD.AperFunction*%
%TD*%
%TO.P,R7,1*%
%TO.N,BATTERY_PIN_l*%
%TA.AperFunction,SMDPad,CuDef*%
G36*
G01*
X161474999Y-49993750D02*
X162375001Y-49993750D01*
G75*
G02*
X162625000Y-50243749I0J-249999D01*
G01*
X162625000Y-50943751D01*
G75*
G02*
X162375001Y-51193750I-249999J0D01*
G01*
X161474999Y-51193750D01*
G75*
G02*
X161225000Y-50943751I0J249999D01*
G01*
X161225000Y-50243749D01*
G75*
G02*
X161474999Y-49993750I249999J0D01*
G01*
G37*
%TD.AperFunction*%
%TO.P,R7,2*%
%TO.N,GND*%
%TA.AperFunction,SMDPad,CuDef*%
G36*
G01*
X161474999Y-51993750D02*
X162375001Y-51993750D01*
G75*
G02*
X162625000Y-52243749I0J-249999D01*
G01*
X162625000Y-52943751D01*
G75*
G02*
X162375001Y-53193750I-249999J0D01*
G01*
X161474999Y-53193750D01*
G75*
G02*
X161225000Y-52943751I0J249999D01*
G01*
X161225000Y-52243749D01*
G75*
G02*
X161474999Y-51993750I249999J0D01*
G01*
G37*
%TD.AperFunction*%
%TD*%
%TO.P,R5,1*%
%TO.N,VBAT_l*%
%TA.AperFunction,SMDPad,CuDef*%
G36*
G01*
X178250001Y-53193750D02*
X177349999Y-53193750D01*
G75*
G02*
X177100000Y-52943751I0J249999D01*
G01*
X177100000Y-52243749D01*
G75*
G02*
X177349999Y-51993750I249999J0D01*
G01*
X178250001Y-51993750D01*
G75*
G02*
X178500000Y-52243749I0J-249999D01*
G01*
X178500000Y-52943751D01*
G75*
G02*
X178250001Y-53193750I-249999J0D01*
G01*
G37*
%TD.AperFunction*%
%TO.P,R5,2*%
%TO.N,BATTERY_PIN_l*%
%TA.AperFunction,SMDPad,CuDef*%
G36*
G01*
X178250001Y-51193750D02*
X177349999Y-51193750D01*
G75*
G02*
X177100000Y-50943751I0J249999D01*
G01*
X177100000Y-50243749D01*
G75*
G02*
X177349999Y-49993750I249999J0D01*
G01*
X178250001Y-49993750D01*
G75*
G02*
X178500000Y-50243749I0J-249999D01*
G01*
X178500000Y-50943751D01*
G75*
G02*
X178250001Y-51193750I-249999J0D01*
G01*
G37*
%TD.AperFunction*%
%TD*%
%TO.P,R4,1*%
%TO.N,VBUS_l*%
%TA.AperFunction,SMDPad,CuDef*%
G36*
G01*
X167666249Y-69837500D02*
X168566251Y-69837500D01*
G75*
G02*
X168816250Y-70087499I0J-249999D01*
G01*
X168816250Y-70787501D01*
G75*
G02*
X168566251Y-71037500I-249999J0D01*
G01*
X167666249Y-71037500D01*
G75*
G02*
X167416250Y-70787501I0J249999D01*
G01*
X167416250Y-70087499D01*
G75*
G02*
X167666249Y-69837500I249999J0D01*
G01*
G37*
%TD.AperFunction*%
%TO.P,R4,2*%
%TO.N,GND*%
%TA.AperFunction,SMDPad,CuDef*%
G36*
G01*
X167666249Y-71837500D02*
X168566251Y-71837500D01*
G75*
G02*
X168816250Y-72087499I0J-249999D01*
G01*
X168816250Y-72787501D01*
G75*
G02*
X168566251Y-73037500I-249999J0D01*
G01*
X167666249Y-73037500D01*
G75*
G02*
X167416250Y-72787501I0J249999D01*
G01*
X167416250Y-72087499D01*
G75*
G02*
X167666249Y-71837500I249999J0D01*
G01*
G37*
%TD.AperFunction*%
%TD*%
%TO.P,R3,1*%
%TO.N,Net-(LED1-Pad1)*%
%TA.AperFunction,SMDPad,CuDef*%
G36*
G01*
X173297001Y-73037500D02*
X172396999Y-73037500D01*
G75*
G02*
X172147000Y-72787501I0J249999D01*
G01*
X172147000Y-72087499D01*
G75*
G02*
X172396999Y-71837500I249999J0D01*
G01*
X173297001Y-71837500D01*
G75*
G02*
X173547000Y-72087499I0J-249999D01*
G01*
X173547000Y-72787501D01*
G75*
G02*
X173297001Y-73037500I-249999J0D01*
G01*
G37*
%TD.AperFunction*%
%TO.P,R3,2*%
%TO.N,GND*%
%TA.AperFunction,SMDPad,CuDef*%
G36*
G01*
X173297001Y-71037500D02*
X172396999Y-71037500D01*
G75*
G02*
X172147000Y-70787501I0J249999D01*
G01*
X172147000Y-70087499D01*
G75*
G02*
X172396999Y-69837500I249999J0D01*
G01*
X173297001Y-69837500D01*
G75*
G02*
X173547000Y-70087499I0J-249999D01*
G01*
X173547000Y-70787501D01*
G75*
G02*
X173297001Y-71037500I-249999J0D01*
G01*
G37*
%TD.AperFunction*%
%TD*%
%TO.P,R2,1*%
%TO.N,Net-(J2-PadB5)*%
%TA.AperFunction,SMDPad,CuDef*%
G36*
G01*
X168287500Y-52191499D02*
X168287500Y-53091501D01*
G75*
G02*
X168037501Y-53341500I-249999J0D01*
G01*
X167337499Y-53341500D01*
G75*
G02*
X167087500Y-53091501I0J249999D01*
G01*
X167087500Y-52191499D01*
G75*
G02*
X167337499Y-51941500I249999J0D01*
G01*
X168037501Y-51941500D01*
G75*
G02*
X168287500Y-52191499I0J-249999D01*
G01*
G37*
%TD.AperFunction*%
%TO.P,R2,2*%
%TO.N,GND*%
%TA.AperFunction,SMDPad,CuDef*%
G36*
G01*
X166287500Y-52191499D02*
X166287500Y-53091501D01*
G75*
G02*
X166037501Y-53341500I-249999J0D01*
G01*
X165337499Y-53341500D01*
G75*
G02*
X165087500Y-53091501I0J249999D01*
G01*
X165087500Y-52191499D01*
G75*
G02*
X165337499Y-51941500I249999J0D01*
G01*
X166037501Y-51941500D01*
G75*
G02*
X166287500Y-52191499I0J-249999D01*
G01*
G37*
%TD.AperFunction*%
%TD*%
%TO.P,R1,1*%
%TO.N,Net-(J2-PadA5)*%
%TA.AperFunction,SMDPad,CuDef*%
G36*
G01*
X171437500Y-53091501D02*
X171437500Y-52191499D01*
G75*
G02*
X171687499Y-51941500I249999J0D01*
G01*
X172387501Y-51941500D01*
G75*
G02*
X172637500Y-52191499I0J-249999D01*
G01*
X172637500Y-53091501D01*
G75*
G02*
X172387501Y-53341500I-249999J0D01*
G01*
X171687499Y-53341500D01*
G75*
G02*
X171437500Y-53091501I0J249999D01*
G01*
G37*
%TD.AperFunction*%
%TO.P,R1,2*%
%TO.N,GND*%
%TA.AperFunction,SMDPad,CuDef*%
G36*
G01*
X173437500Y-53091501D02*
X173437500Y-52191499D01*
G75*
G02*
X173687499Y-51941500I249999J0D01*
G01*
X174387501Y-51941500D01*
G75*
G02*
X174637500Y-52191499I0J-249999D01*
G01*
X174637500Y-53091501D01*
G75*
G02*
X174387501Y-53341500I-249999J0D01*
G01*
X173687499Y-53341500D01*
G75*
G02*
X173437500Y-53091501I0J249999D01*
G01*
G37*
%TD.AperFunction*%
%TD*%
%TO.P,LED2,1*%
%TO.N,Net-(LED2-Pad1)*%
%TA.AperFunction,SMDPad,CuDef*%
G36*
G01*
X163803751Y-73037500D02*
X162903749Y-73037500D01*
G75*
G02*
X162653750Y-72787501I0J249999D01*
G01*
X162653750Y-72137499D01*
G75*
G02*
X162903749Y-71887500I249999J0D01*
G01*
X163803751Y-71887500D01*
G75*
G02*
X164053750Y-72137499I0J-249999D01*
G01*
X164053750Y-72787501D01*
G75*
G02*
X163803751Y-73037500I-249999J0D01*
G01*
G37*
%TD.AperFunction*%
%TO.P,LED2,2*%
%TO.N,VBUS_l*%
%TA.AperFunction,SMDPad,CuDef*%
G36*
G01*
X163803751Y-70987500D02*
X162903749Y-70987500D01*
G75*
G02*
X162653750Y-70737501I0J249999D01*
G01*
X162653750Y-70087499D01*
G75*
G02*
X162903749Y-69837500I249999J0D01*
G01*
X163803751Y-69837500D01*
G75*
G02*
X164053750Y-70087499I0J-249999D01*
G01*
X164053750Y-70737501D01*
G75*
G02*
X163803751Y-70987500I-249999J0D01*
G01*
G37*
%TD.AperFunction*%
%TD*%
%TO.P,LED1,1*%
%TO.N,Net-(LED1-Pad1)*%
%TA.AperFunction,SMDPad,CuDef*%
G36*
G01*
X175678251Y-73037500D02*
X174778249Y-73037500D01*
G75*
G02*
X174528250Y-72787501I0J249999D01*
G01*
X174528250Y-72137499D01*
G75*
G02*
X174778249Y-71887500I249999J0D01*
G01*
X175678251Y-71887500D01*
G75*
G02*
X175928250Y-72137499I0J-249999D01*
G01*
X175928250Y-72787501D01*
G75*
G02*
X175678251Y-73037500I-249999J0D01*
G01*
G37*
%TD.AperFunction*%
%TO.P,LED1,2*%
%TO.N,BLUE_LED_l*%
%TA.AperFunction,SMDPad,CuDef*%
G36*
G01*
X175678251Y-70987500D02*
X174778249Y-70987500D01*
G75*
G02*
X174528250Y-70737501I0J249999D01*
G01*
X174528250Y-70087499D01*
G75*
G02*
X174778249Y-69837500I249999J0D01*
G01*
X175678251Y-69837500D01*
G75*
G02*
X175928250Y-70087499I0J-249999D01*
G01*
X175928250Y-70737501D01*
G75*
G02*
X175678251Y-70987500I-249999J0D01*
G01*
G37*
%TD.AperFunction*%
%TD*%
D20*
%TO.P,J4,1*%
%TO.N,GND*%
X204787500Y-80962500D03*
D19*
%TO.P,J4,2*%
%TO.N,VBAT_r*%
X202247500Y-80962500D03*
%TD*%
D20*
%TO.P,J1,1*%
%TO.N,GND*%
X165100000Y-80962500D03*
D19*
%TO.P,J1,2*%
%TO.N,VBAT_l*%
X167640000Y-80962500D03*
%TD*%
M02*
