%TF.GenerationSoftware,KiCad,Pcbnew,(5.1.7)-1*%
%TF.CreationDate,2021-02-08T18:02:38+08:00*%
%TF.ProjectId,jiran-ble,6a697261-6e2d-4626-9c65-2e6b69636164,rev?*%
%TF.SameCoordinates,Original*%
%TF.FileFunction,Legend,Top*%
%TF.FilePolarity,Positive*%
%FSLAX46Y46*%
G04 Gerber Fmt 4.6, Leading zero omitted, Abs format (unit mm)*
G04 Created by KiCad (PCBNEW (5.1.7)-1) date 2021-02-08 18:02:38*
%MOMM*%
%LPD*%
G01*
G04 APERTURE LIST*
%ADD10C,0.120000*%
%ADD11C,0.010000*%
%ADD12R,0.650000X1.000000*%
%ADD13R,1.000000X0.650000*%
%ADD14C,3.987800*%
%ADD15C,3.000000*%
%ADD16C,1.750000*%
%ADD17R,0.900000X0.900000*%
%ADD18R,0.900000X0.500000*%
%ADD19C,1.000000*%
%ADD20R,0.300000X1.250000*%
%ADD21R,0.540000X1.250000*%
%ADD22O,1.700000X1.700000*%
%ADD23R,1.700000X1.700000*%
%ADD24C,4.200000*%
G04 APERTURE END LIST*
D10*
%TO.C,LED4*%
X205542000Y-72503750D02*
X207462000Y-72503750D01*
X207462000Y-72503750D02*
X207462000Y-70643750D01*
X205542000Y-70643750D02*
X205542000Y-72503750D01*
%TO.C,LED3*%
X193667500Y-72503750D02*
X195587500Y-72503750D01*
X195587500Y-72503750D02*
X195587500Y-70643750D01*
X193667500Y-70643750D02*
X193667500Y-72503750D01*
%TO.C,LED2*%
X162393750Y-71437500D02*
X162393750Y-73297500D01*
X164313750Y-73297500D02*
X164313750Y-71437500D01*
X162393750Y-73297500D02*
X164313750Y-73297500D01*
%TO.C,LED1*%
X174268250Y-71437500D02*
X174268250Y-73297500D01*
X176188250Y-73297500D02*
X176188250Y-71437500D01*
X174268250Y-73297500D02*
X176188250Y-73297500D01*
D11*
%TO.C,G2*%
G36*
X-75061422Y-13777158D02*
G01*
X-74993286Y-13779055D01*
X-74941054Y-13781771D01*
X-74901805Y-13785939D01*
X-74872615Y-13792195D01*
X-74850563Y-13801174D01*
X-74832725Y-13813511D01*
X-74816179Y-13829840D01*
X-74815513Y-13830574D01*
X-74799658Y-13859979D01*
X-74792881Y-13898377D01*
X-74795833Y-13937919D01*
X-74804500Y-13962986D01*
X-74819345Y-13985355D01*
X-74839524Y-14002726D01*
X-74867429Y-14015766D01*
X-74905454Y-14025142D01*
X-74955989Y-14031521D01*
X-75021428Y-14035569D01*
X-75070837Y-14037208D01*
X-75233235Y-14041407D01*
X-75233235Y-13773369D01*
X-75061422Y-13777158D01*
G37*
X-75061422Y-13777158D02*
X-74993286Y-13779055D01*
X-74941054Y-13781771D01*
X-74901805Y-13785939D01*
X-74872615Y-13792195D01*
X-74850563Y-13801174D01*
X-74832725Y-13813511D01*
X-74816179Y-13829840D01*
X-74815513Y-13830574D01*
X-74799658Y-13859979D01*
X-74792881Y-13898377D01*
X-74795833Y-13937919D01*
X-74804500Y-13962986D01*
X-74819345Y-13985355D01*
X-74839524Y-14002726D01*
X-74867429Y-14015766D01*
X-74905454Y-14025142D01*
X-74955989Y-14031521D01*
X-75021428Y-14035569D01*
X-75070837Y-14037208D01*
X-75233235Y-14041407D01*
X-75233235Y-13773369D01*
X-75061422Y-13777158D01*
G36*
X-74971364Y-14265672D02*
G01*
X-74907723Y-14268052D01*
X-74858013Y-14272582D01*
X-74819802Y-14279724D01*
X-74790663Y-14289938D01*
X-74768165Y-14303686D01*
X-74749878Y-14321428D01*
X-74749101Y-14322344D01*
X-74731943Y-14349287D01*
X-74725385Y-14380685D01*
X-74724997Y-14395151D01*
X-74729659Y-14440338D01*
X-74745115Y-14473166D01*
X-74774073Y-14498279D01*
X-74790432Y-14507401D01*
X-74805412Y-14514454D01*
X-74820498Y-14519743D01*
X-74838579Y-14523520D01*
X-74862546Y-14526039D01*
X-74895290Y-14527550D01*
X-74939701Y-14528308D01*
X-74998668Y-14528564D01*
X-75032821Y-14528584D01*
X-75233235Y-14528584D01*
X-75233235Y-14264981D01*
X-75051363Y-14264981D01*
X-74971364Y-14265672D01*
G37*
X-74971364Y-14265672D02*
X-74907723Y-14268052D01*
X-74858013Y-14272582D01*
X-74819802Y-14279724D01*
X-74790663Y-14289938D01*
X-74768165Y-14303686D01*
X-74749878Y-14321428D01*
X-74749101Y-14322344D01*
X-74731943Y-14349287D01*
X-74725385Y-14380685D01*
X-74724997Y-14395151D01*
X-74729659Y-14440338D01*
X-74745115Y-14473166D01*
X-74774073Y-14498279D01*
X-74790432Y-14507401D01*
X-74805412Y-14514454D01*
X-74820498Y-14519743D01*
X-74838579Y-14523520D01*
X-74862546Y-14526039D01*
X-74895290Y-14527550D01*
X-74939701Y-14528308D01*
X-74998668Y-14528564D01*
X-75032821Y-14528584D01*
X-75233235Y-14528584D01*
X-75233235Y-14264981D01*
X-75051363Y-14264981D01*
X-74971364Y-14265672D01*
G36*
X-75703954Y-9491890D02*
G01*
X-76212331Y-9491890D01*
X-76212331Y-9040000D01*
X-75703954Y-9040000D01*
X-75703954Y-9491890D01*
G37*
X-75703954Y-9491890D02*
X-76212331Y-9491890D01*
X-76212331Y-9040000D01*
X-75703954Y-9040000D01*
X-75703954Y-9491890D01*
G36*
X-69395285Y-9779407D02*
G01*
X-69347666Y-9780557D01*
X-69310440Y-9782980D01*
X-69279392Y-9787064D01*
X-69250309Y-9793195D01*
X-69222577Y-9800711D01*
X-69133257Y-9832046D01*
X-69056174Y-9871949D01*
X-68985445Y-9923865D01*
X-68938893Y-9966875D01*
X-68873811Y-10039480D01*
X-68823308Y-10114856D01*
X-68783465Y-10199258D01*
X-68769670Y-10236841D01*
X-68760645Y-10263911D01*
X-68752748Y-10289954D01*
X-68745904Y-10316376D01*
X-68740038Y-10344582D01*
X-68735074Y-10375978D01*
X-68730937Y-10411970D01*
X-68727552Y-10453963D01*
X-68724845Y-10503364D01*
X-68722740Y-10561577D01*
X-68721161Y-10630009D01*
X-68720034Y-10710065D01*
X-68719284Y-10803151D01*
X-68718835Y-10910672D01*
X-68718612Y-11034035D01*
X-68718541Y-11174645D01*
X-68718539Y-11193539D01*
X-68718483Y-11901971D01*
X-69198617Y-11901971D01*
X-69198780Y-11259440D01*
X-69198840Y-11126315D01*
X-69199014Y-11010566D01*
X-69199402Y-10910740D01*
X-69200103Y-10825386D01*
X-69201218Y-10753049D01*
X-69202845Y-10692279D01*
X-69205086Y-10641621D01*
X-69208039Y-10599623D01*
X-69211804Y-10564833D01*
X-69216482Y-10535799D01*
X-69222171Y-10511066D01*
X-69228972Y-10489184D01*
X-69236985Y-10468698D01*
X-69246308Y-10448157D01*
X-69255844Y-10428542D01*
X-69287076Y-10377225D01*
X-69326316Y-10329863D01*
X-69334710Y-10321580D01*
X-69395847Y-10272529D01*
X-69461502Y-10238043D01*
X-69535022Y-10216906D01*
X-69619756Y-10207901D01*
X-69648992Y-10207383D01*
X-69744661Y-10215332D01*
X-69830644Y-10239312D01*
X-69907446Y-10279522D01*
X-69975166Y-10335747D01*
X-70024594Y-10394426D01*
X-70061529Y-10459298D01*
X-70088866Y-10535664D01*
X-70093189Y-10551812D01*
X-70096854Y-10566913D01*
X-70100005Y-10582430D01*
X-70102681Y-10599839D01*
X-70104920Y-10620620D01*
X-70106762Y-10646249D01*
X-70108244Y-10678204D01*
X-70109405Y-10717964D01*
X-70110285Y-10767005D01*
X-70110921Y-10826806D01*
X-70111353Y-10898845D01*
X-70111619Y-10984599D01*
X-70111757Y-11085546D01*
X-70111808Y-11203164D01*
X-70111812Y-11263299D01*
X-70111812Y-11901971D01*
X-70591945Y-11901971D01*
X-70591945Y-9811979D01*
X-70112267Y-9811979D01*
X-70109686Y-9966900D01*
X-70107104Y-10121820D01*
X-70056440Y-10060228D01*
X-69970736Y-9970456D01*
X-69873771Y-9895363D01*
X-69766903Y-9835909D01*
X-69700038Y-9808656D01*
X-69669023Y-9797872D01*
X-69643168Y-9790107D01*
X-69618380Y-9784863D01*
X-69590571Y-9781641D01*
X-69555647Y-9779945D01*
X-69509520Y-9779277D01*
X-69457512Y-9779144D01*
X-69395285Y-9779407D01*
G37*
X-69395285Y-9779407D02*
X-69347666Y-9780557D01*
X-69310440Y-9782980D01*
X-69279392Y-9787064D01*
X-69250309Y-9793195D01*
X-69222577Y-9800711D01*
X-69133257Y-9832046D01*
X-69056174Y-9871949D01*
X-68985445Y-9923865D01*
X-68938893Y-9966875D01*
X-68873811Y-10039480D01*
X-68823308Y-10114856D01*
X-68783465Y-10199258D01*
X-68769670Y-10236841D01*
X-68760645Y-10263911D01*
X-68752748Y-10289954D01*
X-68745904Y-10316376D01*
X-68740038Y-10344582D01*
X-68735074Y-10375978D01*
X-68730937Y-10411970D01*
X-68727552Y-10453963D01*
X-68724845Y-10503364D01*
X-68722740Y-10561577D01*
X-68721161Y-10630009D01*
X-68720034Y-10710065D01*
X-68719284Y-10803151D01*
X-68718835Y-10910672D01*
X-68718612Y-11034035D01*
X-68718541Y-11174645D01*
X-68718539Y-11193539D01*
X-68718483Y-11901971D01*
X-69198617Y-11901971D01*
X-69198780Y-11259440D01*
X-69198840Y-11126315D01*
X-69199014Y-11010566D01*
X-69199402Y-10910740D01*
X-69200103Y-10825386D01*
X-69201218Y-10753049D01*
X-69202845Y-10692279D01*
X-69205086Y-10641621D01*
X-69208039Y-10599623D01*
X-69211804Y-10564833D01*
X-69216482Y-10535799D01*
X-69222171Y-10511066D01*
X-69228972Y-10489184D01*
X-69236985Y-10468698D01*
X-69246308Y-10448157D01*
X-69255844Y-10428542D01*
X-69287076Y-10377225D01*
X-69326316Y-10329863D01*
X-69334710Y-10321580D01*
X-69395847Y-10272529D01*
X-69461502Y-10238043D01*
X-69535022Y-10216906D01*
X-69619756Y-10207901D01*
X-69648992Y-10207383D01*
X-69744661Y-10215332D01*
X-69830644Y-10239312D01*
X-69907446Y-10279522D01*
X-69975166Y-10335747D01*
X-70024594Y-10394426D01*
X-70061529Y-10459298D01*
X-70088866Y-10535664D01*
X-70093189Y-10551812D01*
X-70096854Y-10566913D01*
X-70100005Y-10582430D01*
X-70102681Y-10599839D01*
X-70104920Y-10620620D01*
X-70106762Y-10646249D01*
X-70108244Y-10678204D01*
X-70109405Y-10717964D01*
X-70110285Y-10767005D01*
X-70110921Y-10826806D01*
X-70111353Y-10898845D01*
X-70111619Y-10984599D01*
X-70111757Y-11085546D01*
X-70111808Y-11203164D01*
X-70111812Y-11263299D01*
X-70111812Y-11901971D01*
X-70591945Y-11901971D01*
X-70591945Y-9811979D01*
X-70112267Y-9811979D01*
X-70109686Y-9966900D01*
X-70107104Y-10121820D01*
X-70056440Y-10060228D01*
X-69970736Y-9970456D01*
X-69873771Y-9895363D01*
X-69766903Y-9835909D01*
X-69700038Y-9808656D01*
X-69669023Y-9797872D01*
X-69643168Y-9790107D01*
X-69618380Y-9784863D01*
X-69590571Y-9781641D01*
X-69555647Y-9779945D01*
X-69509520Y-9779277D01*
X-69457512Y-9779144D01*
X-69395285Y-9779407D01*
G36*
X-73661033Y-10282698D02*
G01*
X-73722624Y-10282698D01*
X-73832798Y-10291733D01*
X-73937593Y-10318251D01*
X-74035357Y-10361366D01*
X-74124439Y-10420194D01*
X-74203187Y-10493852D01*
X-74264190Y-10572592D01*
X-74295579Y-10624095D01*
X-74321178Y-10676240D01*
X-74343334Y-10734622D01*
X-74364390Y-10804835D01*
X-74369443Y-10823700D01*
X-74373837Y-10841209D01*
X-74377555Y-10858751D01*
X-74380667Y-10878056D01*
X-74383245Y-10900852D01*
X-74385358Y-10928870D01*
X-74387077Y-10963838D01*
X-74388472Y-11007485D01*
X-74389614Y-11061540D01*
X-74390573Y-11127733D01*
X-74391421Y-11207792D01*
X-74392226Y-11303447D01*
X-74392947Y-11400656D01*
X-74396544Y-11901971D01*
X-74875488Y-11901971D01*
X-74875488Y-9811979D01*
X-74395355Y-9811979D01*
X-74395080Y-10040277D01*
X-74394805Y-10268576D01*
X-74355030Y-10193261D01*
X-74289944Y-10084609D01*
X-74218351Y-9993219D01*
X-74139603Y-9918456D01*
X-74053051Y-9859687D01*
X-73975360Y-9822813D01*
X-73914155Y-9803069D01*
X-73843947Y-9787267D01*
X-73773813Y-9777152D01*
X-73722624Y-9774321D01*
X-73661033Y-9774321D01*
X-73661033Y-10282698D01*
G37*
X-73661033Y-10282698D02*
X-73722624Y-10282698D01*
X-73832798Y-10291733D01*
X-73937593Y-10318251D01*
X-74035357Y-10361366D01*
X-74124439Y-10420194D01*
X-74203187Y-10493852D01*
X-74264190Y-10572592D01*
X-74295579Y-10624095D01*
X-74321178Y-10676240D01*
X-74343334Y-10734622D01*
X-74364390Y-10804835D01*
X-74369443Y-10823700D01*
X-74373837Y-10841209D01*
X-74377555Y-10858751D01*
X-74380667Y-10878056D01*
X-74383245Y-10900852D01*
X-74385358Y-10928870D01*
X-74387077Y-10963838D01*
X-74388472Y-11007485D01*
X-74389614Y-11061540D01*
X-74390573Y-11127733D01*
X-74391421Y-11207792D01*
X-74392226Y-11303447D01*
X-74392947Y-11400656D01*
X-74396544Y-11901971D01*
X-74875488Y-11901971D01*
X-74875488Y-9811979D01*
X-74395355Y-9811979D01*
X-74395080Y-10040277D01*
X-74394805Y-10268576D01*
X-74355030Y-10193261D01*
X-74289944Y-10084609D01*
X-74218351Y-9993219D01*
X-74139603Y-9918456D01*
X-74053051Y-9859687D01*
X-73975360Y-9822813D01*
X-73914155Y-9803069D01*
X-73843947Y-9787267D01*
X-73773813Y-9777152D01*
X-73722624Y-9774321D01*
X-73661033Y-9774321D01*
X-73661033Y-10282698D01*
G36*
X-75713368Y-11901971D02*
G01*
X-76202916Y-11901971D01*
X-76202916Y-9811979D01*
X-75713368Y-9811979D01*
X-75713368Y-11901971D01*
G37*
X-75713368Y-11901971D02*
X-76202916Y-11901971D01*
X-76202916Y-9811979D01*
X-75713368Y-9811979D01*
X-75713368Y-11901971D01*
G36*
X-77040796Y-10092304D02*
G01*
X-77040896Y-10259761D01*
X-77041192Y-10414720D01*
X-77041677Y-10556506D01*
X-77042346Y-10684444D01*
X-77043191Y-10797859D01*
X-77044207Y-10896075D01*
X-77045387Y-10978418D01*
X-77046724Y-11044213D01*
X-77048214Y-11092784D01*
X-77049849Y-11123457D01*
X-77050502Y-11130239D01*
X-77073314Y-11263316D01*
X-77108138Y-11383522D01*
X-77155750Y-11493091D01*
X-77205358Y-11577296D01*
X-77278875Y-11671791D01*
X-77364358Y-11752080D01*
X-77462179Y-11818418D01*
X-77572709Y-11871062D01*
X-77685761Y-11907571D01*
X-77725830Y-11917293D01*
X-77762892Y-11924318D01*
X-77801782Y-11929175D01*
X-77847336Y-11932390D01*
X-77904389Y-11934493D01*
X-77939869Y-11935315D01*
X-77997746Y-11935896D01*
X-78053542Y-11935389D01*
X-78102612Y-11933914D01*
X-78140311Y-11931589D01*
X-78155602Y-11929825D01*
X-78293041Y-11898896D01*
X-78424048Y-11850636D01*
X-78547221Y-11785858D01*
X-78661159Y-11705375D01*
X-78764462Y-11610001D01*
X-78824046Y-11541896D01*
X-78860000Y-11497202D01*
X-78718745Y-11348901D01*
X-78665994Y-11293387D01*
X-78624772Y-11250097D01*
X-78593396Y-11217836D01*
X-78570185Y-11195411D01*
X-78553457Y-11181628D01*
X-78541531Y-11175294D01*
X-78532723Y-11175215D01*
X-78525353Y-11180197D01*
X-78517739Y-11189047D01*
X-78508793Y-11199898D01*
X-78486446Y-11225857D01*
X-78466288Y-11250088D01*
X-78460943Y-11256758D01*
X-78437452Y-11281432D01*
X-78402238Y-11312182D01*
X-78359833Y-11345578D01*
X-78314768Y-11378192D01*
X-78271574Y-11406596D01*
X-78236861Y-11426324D01*
X-78151127Y-11462134D01*
X-78065291Y-11482044D01*
X-77979513Y-11487739D01*
X-77886269Y-11479914D01*
X-77803625Y-11456615D01*
X-77731838Y-11418100D01*
X-77671170Y-11364630D01*
X-77621878Y-11296464D01*
X-77584222Y-11213862D01*
X-77558460Y-11117085D01*
X-77549232Y-11055981D01*
X-77547729Y-11033232D01*
X-77546326Y-10992739D01*
X-77545032Y-10935586D01*
X-77543858Y-10862858D01*
X-77542813Y-10775639D01*
X-77541909Y-10675012D01*
X-77541154Y-10562063D01*
X-77540560Y-10437876D01*
X-77540136Y-10303535D01*
X-77539893Y-10160125D01*
X-77539836Y-10054399D01*
X-77539758Y-9134143D01*
X-77040796Y-9134143D01*
X-77040796Y-10092304D01*
G37*
X-77040796Y-10092304D02*
X-77040896Y-10259761D01*
X-77041192Y-10414720D01*
X-77041677Y-10556506D01*
X-77042346Y-10684444D01*
X-77043191Y-10797859D01*
X-77044207Y-10896075D01*
X-77045387Y-10978418D01*
X-77046724Y-11044213D01*
X-77048214Y-11092784D01*
X-77049849Y-11123457D01*
X-77050502Y-11130239D01*
X-77073314Y-11263316D01*
X-77108138Y-11383522D01*
X-77155750Y-11493091D01*
X-77205358Y-11577296D01*
X-77278875Y-11671791D01*
X-77364358Y-11752080D01*
X-77462179Y-11818418D01*
X-77572709Y-11871062D01*
X-77685761Y-11907571D01*
X-77725830Y-11917293D01*
X-77762892Y-11924318D01*
X-77801782Y-11929175D01*
X-77847336Y-11932390D01*
X-77904389Y-11934493D01*
X-77939869Y-11935315D01*
X-77997746Y-11935896D01*
X-78053542Y-11935389D01*
X-78102612Y-11933914D01*
X-78140311Y-11931589D01*
X-78155602Y-11929825D01*
X-78293041Y-11898896D01*
X-78424048Y-11850636D01*
X-78547221Y-11785858D01*
X-78661159Y-11705375D01*
X-78764462Y-11610001D01*
X-78824046Y-11541896D01*
X-78860000Y-11497202D01*
X-78718745Y-11348901D01*
X-78665994Y-11293387D01*
X-78624772Y-11250097D01*
X-78593396Y-11217836D01*
X-78570185Y-11195411D01*
X-78553457Y-11181628D01*
X-78541531Y-11175294D01*
X-78532723Y-11175215D01*
X-78525353Y-11180197D01*
X-78517739Y-11189047D01*
X-78508793Y-11199898D01*
X-78486446Y-11225857D01*
X-78466288Y-11250088D01*
X-78460943Y-11256758D01*
X-78437452Y-11281432D01*
X-78402238Y-11312182D01*
X-78359833Y-11345578D01*
X-78314768Y-11378192D01*
X-78271574Y-11406596D01*
X-78236861Y-11426324D01*
X-78151127Y-11462134D01*
X-78065291Y-11482044D01*
X-77979513Y-11487739D01*
X-77886269Y-11479914D01*
X-77803625Y-11456615D01*
X-77731838Y-11418100D01*
X-77671170Y-11364630D01*
X-77621878Y-11296464D01*
X-77584222Y-11213862D01*
X-77558460Y-11117085D01*
X-77549232Y-11055981D01*
X-77547729Y-11033232D01*
X-77546326Y-10992739D01*
X-77545032Y-10935586D01*
X-77543858Y-10862858D01*
X-77542813Y-10775639D01*
X-77541909Y-10675012D01*
X-77541154Y-10562063D01*
X-77540560Y-10437876D01*
X-77540136Y-10303535D01*
X-77539893Y-10160125D01*
X-77539836Y-10054399D01*
X-77539758Y-9134143D01*
X-77040796Y-9134143D01*
X-77040796Y-10092304D01*
G36*
X-72090252Y-9799921D02*
G01*
X-71958840Y-9825152D01*
X-71900544Y-9841824D01*
X-71790587Y-9886391D01*
X-71692044Y-9945781D01*
X-71605638Y-10019321D01*
X-71532097Y-10106334D01*
X-71472143Y-10206145D01*
X-71445437Y-10265718D01*
X-71432787Y-10298721D01*
X-71421696Y-10331376D01*
X-71412063Y-10365110D01*
X-71403787Y-10401347D01*
X-71396767Y-10441517D01*
X-71390903Y-10487043D01*
X-71386092Y-10539354D01*
X-71382234Y-10599875D01*
X-71379229Y-10670034D01*
X-71376975Y-10751255D01*
X-71375371Y-10844966D01*
X-71374316Y-10952594D01*
X-71373709Y-11075563D01*
X-71373450Y-11215302D01*
X-71373419Y-11282976D01*
X-71373339Y-11901971D01*
X-71844058Y-11901971D01*
X-71844058Y-11645285D01*
X-71917936Y-11715868D01*
X-72006541Y-11790394D01*
X-72100744Y-11849265D01*
X-72202593Y-11893307D01*
X-72314137Y-11923351D01*
X-72437424Y-11940224D01*
X-72479528Y-11942968D01*
X-72529753Y-11944162D01*
X-72582327Y-11943305D01*
X-72628344Y-11940606D01*
X-72641956Y-11939179D01*
X-72756920Y-11917312D01*
X-72865437Y-11881624D01*
X-72964981Y-11833342D01*
X-73053029Y-11773698D01*
X-73127058Y-11703920D01*
X-73128724Y-11702036D01*
X-73183326Y-11628417D01*
X-73223457Y-11547230D01*
X-73249637Y-11456768D01*
X-73262389Y-11355324D01*
X-73263041Y-11275915D01*
X-72790203Y-11275915D01*
X-72789753Y-11320489D01*
X-72787670Y-11351892D01*
X-72782857Y-11375772D01*
X-72774215Y-11397781D01*
X-72761960Y-11421190D01*
X-72720368Y-11477532D01*
X-72664595Y-11523634D01*
X-72596588Y-11558978D01*
X-72518291Y-11583044D01*
X-72431649Y-11595313D01*
X-72338607Y-11595267D01*
X-72241111Y-11582386D01*
X-72195956Y-11572176D01*
X-72107141Y-11541286D01*
X-72026871Y-11497071D01*
X-71957594Y-11441416D01*
X-71901760Y-11376207D01*
X-71869558Y-11320858D01*
X-71857336Y-11294261D01*
X-71848953Y-11272157D01*
X-71843685Y-11249993D01*
X-71840811Y-11223214D01*
X-71839607Y-11187265D01*
X-71839352Y-11137592D01*
X-71839351Y-11130446D01*
X-71839351Y-11003806D01*
X-71909118Y-10981908D01*
X-71998045Y-10957745D01*
X-72087993Y-10941426D01*
X-72184581Y-10932185D01*
X-72293426Y-10929259D01*
X-72295948Y-10929260D01*
X-72358297Y-10929805D01*
X-72406555Y-10931617D01*
X-72445441Y-10935133D01*
X-72479673Y-10940788D01*
X-72513972Y-10949022D01*
X-72516375Y-10949673D01*
X-72600599Y-10979064D01*
X-72668840Y-11017301D01*
X-72722102Y-11065110D01*
X-72761390Y-11123215D01*
X-72763936Y-11128282D01*
X-72776355Y-11155607D01*
X-72784133Y-11180072D01*
X-72788324Y-11207603D01*
X-72789983Y-11244125D01*
X-72790203Y-11275915D01*
X-73263041Y-11275915D01*
X-73263157Y-11261793D01*
X-73253973Y-11157989D01*
X-73233763Y-11067201D01*
X-73201435Y-10986454D01*
X-73155895Y-10912769D01*
X-73118298Y-10866812D01*
X-73045617Y-10799693D01*
X-72958020Y-10742851D01*
X-72856582Y-10696618D01*
X-72742375Y-10661326D01*
X-72616471Y-10637305D01*
X-72479943Y-10624886D01*
X-72333864Y-10624402D01*
X-72333606Y-10624412D01*
X-72245192Y-10629915D01*
X-72154300Y-10639550D01*
X-72065275Y-10652597D01*
X-71982459Y-10668339D01*
X-71910196Y-10686056D01*
X-71857618Y-10703156D01*
X-71850464Y-10704449D01*
X-71846099Y-10699621D01*
X-71844142Y-10685601D01*
X-71844212Y-10659314D01*
X-71845929Y-10617689D01*
X-71846236Y-10611354D01*
X-71857751Y-10517748D01*
X-71882735Y-10436849D01*
X-71921484Y-10368369D01*
X-71974297Y-10312022D01*
X-72041471Y-10267521D01*
X-72123303Y-10234578D01*
X-72220091Y-10212907D01*
X-72265223Y-10207102D01*
X-72356416Y-10203130D01*
X-72458813Y-10208204D01*
X-72567552Y-10221556D01*
X-72677770Y-10242415D01*
X-72784603Y-10270015D01*
X-72883190Y-10303584D01*
X-72888556Y-10305699D01*
X-72919565Y-10316750D01*
X-72943482Y-10322906D01*
X-72955326Y-10322900D01*
X-72955493Y-10322736D01*
X-72960326Y-10312037D01*
X-72970182Y-10286301D01*
X-72984047Y-10248325D01*
X-73000901Y-10200905D01*
X-73019727Y-10146838D01*
X-73023651Y-10135438D01*
X-73085566Y-9955227D01*
X-72999078Y-9922147D01*
X-72844943Y-9870056D01*
X-72688763Y-9830425D01*
X-72532872Y-9803426D01*
X-72379601Y-9789228D01*
X-72231283Y-9788003D01*
X-72090252Y-9799921D01*
G37*
X-72090252Y-9799921D02*
X-71958840Y-9825152D01*
X-71900544Y-9841824D01*
X-71790587Y-9886391D01*
X-71692044Y-9945781D01*
X-71605638Y-10019321D01*
X-71532097Y-10106334D01*
X-71472143Y-10206145D01*
X-71445437Y-10265718D01*
X-71432787Y-10298721D01*
X-71421696Y-10331376D01*
X-71412063Y-10365110D01*
X-71403787Y-10401347D01*
X-71396767Y-10441517D01*
X-71390903Y-10487043D01*
X-71386092Y-10539354D01*
X-71382234Y-10599875D01*
X-71379229Y-10670034D01*
X-71376975Y-10751255D01*
X-71375371Y-10844966D01*
X-71374316Y-10952594D01*
X-71373709Y-11075563D01*
X-71373450Y-11215302D01*
X-71373419Y-11282976D01*
X-71373339Y-11901971D01*
X-71844058Y-11901971D01*
X-71844058Y-11645285D01*
X-71917936Y-11715868D01*
X-72006541Y-11790394D01*
X-72100744Y-11849265D01*
X-72202593Y-11893307D01*
X-72314137Y-11923351D01*
X-72437424Y-11940224D01*
X-72479528Y-11942968D01*
X-72529753Y-11944162D01*
X-72582327Y-11943305D01*
X-72628344Y-11940606D01*
X-72641956Y-11939179D01*
X-72756920Y-11917312D01*
X-72865437Y-11881624D01*
X-72964981Y-11833342D01*
X-73053029Y-11773698D01*
X-73127058Y-11703920D01*
X-73128724Y-11702036D01*
X-73183326Y-11628417D01*
X-73223457Y-11547230D01*
X-73249637Y-11456768D01*
X-73262389Y-11355324D01*
X-73263041Y-11275915D01*
X-72790203Y-11275915D01*
X-72789753Y-11320489D01*
X-72787670Y-11351892D01*
X-72782857Y-11375772D01*
X-72774215Y-11397781D01*
X-72761960Y-11421190D01*
X-72720368Y-11477532D01*
X-72664595Y-11523634D01*
X-72596588Y-11558978D01*
X-72518291Y-11583044D01*
X-72431649Y-11595313D01*
X-72338607Y-11595267D01*
X-72241111Y-11582386D01*
X-72195956Y-11572176D01*
X-72107141Y-11541286D01*
X-72026871Y-11497071D01*
X-71957594Y-11441416D01*
X-71901760Y-11376207D01*
X-71869558Y-11320858D01*
X-71857336Y-11294261D01*
X-71848953Y-11272157D01*
X-71843685Y-11249993D01*
X-71840811Y-11223214D01*
X-71839607Y-11187265D01*
X-71839352Y-11137592D01*
X-71839351Y-11130446D01*
X-71839351Y-11003806D01*
X-71909118Y-10981908D01*
X-71998045Y-10957745D01*
X-72087993Y-10941426D01*
X-72184581Y-10932185D01*
X-72293426Y-10929259D01*
X-72295948Y-10929260D01*
X-72358297Y-10929805D01*
X-72406555Y-10931617D01*
X-72445441Y-10935133D01*
X-72479673Y-10940788D01*
X-72513972Y-10949022D01*
X-72516375Y-10949673D01*
X-72600599Y-10979064D01*
X-72668840Y-11017301D01*
X-72722102Y-11065110D01*
X-72761390Y-11123215D01*
X-72763936Y-11128282D01*
X-72776355Y-11155607D01*
X-72784133Y-11180072D01*
X-72788324Y-11207603D01*
X-72789983Y-11244125D01*
X-72790203Y-11275915D01*
X-73263041Y-11275915D01*
X-73263157Y-11261793D01*
X-73253973Y-11157989D01*
X-73233763Y-11067201D01*
X-73201435Y-10986454D01*
X-73155895Y-10912769D01*
X-73118298Y-10866812D01*
X-73045617Y-10799693D01*
X-72958020Y-10742851D01*
X-72856582Y-10696618D01*
X-72742375Y-10661326D01*
X-72616471Y-10637305D01*
X-72479943Y-10624886D01*
X-72333864Y-10624402D01*
X-72333606Y-10624412D01*
X-72245192Y-10629915D01*
X-72154300Y-10639550D01*
X-72065275Y-10652597D01*
X-71982459Y-10668339D01*
X-71910196Y-10686056D01*
X-71857618Y-10703156D01*
X-71850464Y-10704449D01*
X-71846099Y-10699621D01*
X-71844142Y-10685601D01*
X-71844212Y-10659314D01*
X-71845929Y-10617689D01*
X-71846236Y-10611354D01*
X-71857751Y-10517748D01*
X-71882735Y-10436849D01*
X-71921484Y-10368369D01*
X-71974297Y-10312022D01*
X-72041471Y-10267521D01*
X-72123303Y-10234578D01*
X-72220091Y-10212907D01*
X-72265223Y-10207102D01*
X-72356416Y-10203130D01*
X-72458813Y-10208204D01*
X-72567552Y-10221556D01*
X-72677770Y-10242415D01*
X-72784603Y-10270015D01*
X-72883190Y-10303584D01*
X-72888556Y-10305699D01*
X-72919565Y-10316750D01*
X-72943482Y-10322906D01*
X-72955326Y-10322900D01*
X-72955493Y-10322736D01*
X-72960326Y-10312037D01*
X-72970182Y-10286301D01*
X-72984047Y-10248325D01*
X-73000901Y-10200905D01*
X-73019727Y-10146838D01*
X-73023651Y-10135438D01*
X-73085566Y-9955227D01*
X-72999078Y-9922147D01*
X-72844943Y-9870056D01*
X-72688763Y-9830425D01*
X-72532872Y-9803426D01*
X-72379601Y-9789228D01*
X-72231283Y-9788003D01*
X-72090252Y-9799921D01*
G36*
X-68709069Y-15309977D02*
G01*
X-78838943Y-15309977D01*
X-78838943Y-13540074D01*
X-75496838Y-13540074D01*
X-75496838Y-14773358D01*
X-75150859Y-14773194D01*
X-75051300Y-14772956D01*
X-74968741Y-14772304D01*
X-74901360Y-14771178D01*
X-74847332Y-14769516D01*
X-74804832Y-14767259D01*
X-74772036Y-14764344D01*
X-74747120Y-14760712D01*
X-74741321Y-14759562D01*
X-74655532Y-14733980D01*
X-74583618Y-14696716D01*
X-74526145Y-14648156D01*
X-74483681Y-14588691D01*
X-74479019Y-14579625D01*
X-74463292Y-14545117D01*
X-74454173Y-14515936D01*
X-74449904Y-14484053D01*
X-74448727Y-14441440D01*
X-74448727Y-14441293D01*
X-74454931Y-14361330D01*
X-74474839Y-14293676D01*
X-74509297Y-14236884D01*
X-74559153Y-14189506D01*
X-74616740Y-14154297D01*
X-74670624Y-14127050D01*
X-74629697Y-14096952D01*
X-74586052Y-14056684D01*
X-74550566Y-14008150D01*
X-74528050Y-13957999D01*
X-74527296Y-13955373D01*
X-74522272Y-13927608D01*
X-74518824Y-13890078D01*
X-74517794Y-13858162D01*
X-74526282Y-13781990D01*
X-74551266Y-13714097D01*
X-74591824Y-13655602D01*
X-74647038Y-13607629D01*
X-74715987Y-13571297D01*
X-74766847Y-13554685D01*
X-74785596Y-13550644D01*
X-74808962Y-13547387D01*
X-74838974Y-13544839D01*
X-74877663Y-13542922D01*
X-74927057Y-13541563D01*
X-74989186Y-13540686D01*
X-75066081Y-13540214D01*
X-75159771Y-13540074D01*
X-74159996Y-13540074D01*
X-74159996Y-14773358D01*
X-73275044Y-14773358D01*
X-73275044Y-14528584D01*
X-73886978Y-14528584D01*
X-73886978Y-13540074D01*
X-73011441Y-13540074D01*
X-73011441Y-14773358D01*
X-72070003Y-14773358D01*
X-72070003Y-14528584D01*
X-72738424Y-14528584D01*
X-72738424Y-14274395D01*
X-72154732Y-14274395D01*
X-72154732Y-14029621D01*
X-72738424Y-14029621D01*
X-72738424Y-13784848D01*
X-72079417Y-13784848D01*
X-72079417Y-13540074D01*
X-73011441Y-13540074D01*
X-73886978Y-13540074D01*
X-74159996Y-13540074D01*
X-75159771Y-13540074D01*
X-75496838Y-13540074D01*
X-78838943Y-13540074D01*
X-78838943Y-13003454D01*
X-68709069Y-13003454D01*
X-68709069Y-15309977D01*
G37*
X-68709069Y-15309977D02*
X-78838943Y-15309977D01*
X-78838943Y-13540074D01*
X-75496838Y-13540074D01*
X-75496838Y-14773358D01*
X-75150859Y-14773194D01*
X-75051300Y-14772956D01*
X-74968741Y-14772304D01*
X-74901360Y-14771178D01*
X-74847332Y-14769516D01*
X-74804832Y-14767259D01*
X-74772036Y-14764344D01*
X-74747120Y-14760712D01*
X-74741321Y-14759562D01*
X-74655532Y-14733980D01*
X-74583618Y-14696716D01*
X-74526145Y-14648156D01*
X-74483681Y-14588691D01*
X-74479019Y-14579625D01*
X-74463292Y-14545117D01*
X-74454173Y-14515936D01*
X-74449904Y-14484053D01*
X-74448727Y-14441440D01*
X-74448727Y-14441293D01*
X-74454931Y-14361330D01*
X-74474839Y-14293676D01*
X-74509297Y-14236884D01*
X-74559153Y-14189506D01*
X-74616740Y-14154297D01*
X-74670624Y-14127050D01*
X-74629697Y-14096952D01*
X-74586052Y-14056684D01*
X-74550566Y-14008150D01*
X-74528050Y-13957999D01*
X-74527296Y-13955373D01*
X-74522272Y-13927608D01*
X-74518824Y-13890078D01*
X-74517794Y-13858162D01*
X-74526282Y-13781990D01*
X-74551266Y-13714097D01*
X-74591824Y-13655602D01*
X-74647038Y-13607629D01*
X-74715987Y-13571297D01*
X-74766847Y-13554685D01*
X-74785596Y-13550644D01*
X-74808962Y-13547387D01*
X-74838974Y-13544839D01*
X-74877663Y-13542922D01*
X-74927057Y-13541563D01*
X-74989186Y-13540686D01*
X-75066081Y-13540214D01*
X-75159771Y-13540074D01*
X-74159996Y-13540074D01*
X-74159996Y-14773358D01*
X-73275044Y-14773358D01*
X-73275044Y-14528584D01*
X-73886978Y-14528584D01*
X-73886978Y-13540074D01*
X-73011441Y-13540074D01*
X-73011441Y-14773358D01*
X-72070003Y-14773358D01*
X-72070003Y-14528584D01*
X-72738424Y-14528584D01*
X-72738424Y-14274395D01*
X-72154732Y-14274395D01*
X-72154732Y-14029621D01*
X-72738424Y-14029621D01*
X-72738424Y-13784848D01*
X-72079417Y-13784848D01*
X-72079417Y-13540074D01*
X-73011441Y-13540074D01*
X-73886978Y-13540074D01*
X-74159996Y-13540074D01*
X-75159771Y-13540074D01*
X-75496838Y-13540074D01*
X-78838943Y-13540074D01*
X-78838943Y-13003454D01*
X-68709069Y-13003454D01*
X-68709069Y-15309977D01*
G36*
X-70074154Y-16618576D02*
G01*
X-70347171Y-16618576D01*
X-70347171Y-16373802D01*
X-70074154Y-16373802D01*
X-70074154Y-16618576D01*
G37*
X-70074154Y-16618576D02*
X-70347171Y-16618576D01*
X-70347171Y-16373802D01*
X-70074154Y-16373802D01*
X-70074154Y-16618576D01*
G36*
X-70083569Y-17908346D02*
G01*
X-70347171Y-17908346D01*
X-70347171Y-16788035D01*
X-70083569Y-16788035D01*
X-70083569Y-17908346D01*
G37*
X-70083569Y-17908346D02*
X-70347171Y-17908346D01*
X-70347171Y-16788035D01*
X-70083569Y-16788035D01*
X-70083569Y-17908346D01*
G36*
X-71053250Y-16774153D02*
G01*
X-71001635Y-16774902D01*
X-70963447Y-16777367D01*
X-70933309Y-16782270D01*
X-70905845Y-16790335D01*
X-70890883Y-16796000D01*
X-70824726Y-16832290D01*
X-70767558Y-16883654D01*
X-70721059Y-16947812D01*
X-70686908Y-17022487D01*
X-70667807Y-17098710D01*
X-70665476Y-17122863D01*
X-70663368Y-17163627D01*
X-70661532Y-17218784D01*
X-70660018Y-17286116D01*
X-70658878Y-17363406D01*
X-70658160Y-17448435D01*
X-70657917Y-17534125D01*
X-70657846Y-17908346D01*
X-70912034Y-17908346D01*
X-70912221Y-17595318D01*
X-70912546Y-17517062D01*
X-70913381Y-17441982D01*
X-70914654Y-17372899D01*
X-70916296Y-17312636D01*
X-70918236Y-17264016D01*
X-70920402Y-17229861D01*
X-70921655Y-17218328D01*
X-70938923Y-17146096D01*
X-70967766Y-17088697D01*
X-71008312Y-17046014D01*
X-71060688Y-17017931D01*
X-71125022Y-17004331D01*
X-71157612Y-17002904D01*
X-71227867Y-17010794D01*
X-71287534Y-17034136D01*
X-71336039Y-17072440D01*
X-71372812Y-17125216D01*
X-71397282Y-17191974D01*
X-71401694Y-17212272D01*
X-71403913Y-17233340D01*
X-71405943Y-17270630D01*
X-71407718Y-17321534D01*
X-71409173Y-17383447D01*
X-71410244Y-17453762D01*
X-71410864Y-17529872D01*
X-71410996Y-17584835D01*
X-71410996Y-17908346D01*
X-71665185Y-17908346D01*
X-71665185Y-16788035D01*
X-71410996Y-16788035D01*
X-71410996Y-16868057D01*
X-71410696Y-16904222D01*
X-71409895Y-16931880D01*
X-71408743Y-16946708D01*
X-71408234Y-16948080D01*
X-71400725Y-16941981D01*
X-71383020Y-16925688D01*
X-71358350Y-16902202D01*
X-71346728Y-16890952D01*
X-71292598Y-16845248D01*
X-71235865Y-16809414D01*
X-71224749Y-16803869D01*
X-71196029Y-16790813D01*
X-71172190Y-16782237D01*
X-71147902Y-16777216D01*
X-71117833Y-16774828D01*
X-71076652Y-16774148D01*
X-71053250Y-16774153D01*
G37*
X-71053250Y-16774153D02*
X-71001635Y-16774902D01*
X-70963447Y-16777367D01*
X-70933309Y-16782270D01*
X-70905845Y-16790335D01*
X-70890883Y-16796000D01*
X-70824726Y-16832290D01*
X-70767558Y-16883654D01*
X-70721059Y-16947812D01*
X-70686908Y-17022487D01*
X-70667807Y-17098710D01*
X-70665476Y-17122863D01*
X-70663368Y-17163627D01*
X-70661532Y-17218784D01*
X-70660018Y-17286116D01*
X-70658878Y-17363406D01*
X-70658160Y-17448435D01*
X-70657917Y-17534125D01*
X-70657846Y-17908346D01*
X-70912034Y-17908346D01*
X-70912221Y-17595318D01*
X-70912546Y-17517062D01*
X-70913381Y-17441982D01*
X-70914654Y-17372899D01*
X-70916296Y-17312636D01*
X-70918236Y-17264016D01*
X-70920402Y-17229861D01*
X-70921655Y-17218328D01*
X-70938923Y-17146096D01*
X-70967766Y-17088697D01*
X-71008312Y-17046014D01*
X-71060688Y-17017931D01*
X-71125022Y-17004331D01*
X-71157612Y-17002904D01*
X-71227867Y-17010794D01*
X-71287534Y-17034136D01*
X-71336039Y-17072440D01*
X-71372812Y-17125216D01*
X-71397282Y-17191974D01*
X-71401694Y-17212272D01*
X-71403913Y-17233340D01*
X-71405943Y-17270630D01*
X-71407718Y-17321534D01*
X-71409173Y-17383447D01*
X-71410244Y-17453762D01*
X-71410864Y-17529872D01*
X-71410996Y-17584835D01*
X-71410996Y-17908346D01*
X-71665185Y-17908346D01*
X-71665185Y-16788035D01*
X-71410996Y-16788035D01*
X-71410996Y-16868057D01*
X-71410696Y-16904222D01*
X-71409895Y-16931880D01*
X-71408743Y-16946708D01*
X-71408234Y-16948080D01*
X-71400725Y-16941981D01*
X-71383020Y-16925688D01*
X-71358350Y-16902202D01*
X-71346728Y-16890952D01*
X-71292598Y-16845248D01*
X-71235865Y-16809414D01*
X-71224749Y-16803869D01*
X-71196029Y-16790813D01*
X-71172190Y-16782237D01*
X-71147902Y-16777216D01*
X-71117833Y-16774828D01*
X-71076652Y-16774148D01*
X-71053250Y-16774153D01*
G36*
X-75308550Y-17672987D02*
G01*
X-74527156Y-17672987D01*
X-74527156Y-17908346D01*
X-75572153Y-17908346D01*
X-75572153Y-16430289D01*
X-75308550Y-16430289D01*
X-75308550Y-17672987D01*
G37*
X-75308550Y-17672987D02*
X-74527156Y-17672987D01*
X-74527156Y-17908346D01*
X-75572153Y-17908346D01*
X-75572153Y-16430289D01*
X-75308550Y-16430289D01*
X-75308550Y-17672987D01*
G36*
X-71975859Y-17908346D02*
G01*
X-72230047Y-17908346D01*
X-72230507Y-17724766D01*
X-72272779Y-17773367D01*
X-72339150Y-17836973D01*
X-72412902Y-17883372D01*
X-72494643Y-17912835D01*
X-72584983Y-17925631D01*
X-72618094Y-17926230D01*
X-72661533Y-17924894D01*
X-72702029Y-17922148D01*
X-72732901Y-17918494D01*
X-72740680Y-17916982D01*
X-72784155Y-17902252D01*
X-72835010Y-17878158D01*
X-72886881Y-17848205D01*
X-72933405Y-17815900D01*
X-72951900Y-17800647D01*
X-73014012Y-17733730D01*
X-73065184Y-17653806D01*
X-73102475Y-17566203D01*
X-73112549Y-17534100D01*
X-73119560Y-17505949D01*
X-73124052Y-17477069D01*
X-73126571Y-17442779D01*
X-73127663Y-17398400D01*
X-73127777Y-17371495D01*
X-72871982Y-17371495D01*
X-72864614Y-17443212D01*
X-72847550Y-17506517D01*
X-72843007Y-17517526D01*
X-72818956Y-17558663D01*
X-72784174Y-17602032D01*
X-72744543Y-17640999D01*
X-72711858Y-17665445D01*
X-72647345Y-17694673D01*
X-72576643Y-17708018D01*
X-72504596Y-17704856D01*
X-72469043Y-17696731D01*
X-72400059Y-17666737D01*
X-72339803Y-17621513D01*
X-72290666Y-17563559D01*
X-72255038Y-17495375D01*
X-72243843Y-17461258D01*
X-72231711Y-17387744D01*
X-72232413Y-17310064D01*
X-72245466Y-17235154D01*
X-72263042Y-17185029D01*
X-72294711Y-17131626D01*
X-72338605Y-17080856D01*
X-72389246Y-17038240D01*
X-72434691Y-17012022D01*
X-72486372Y-16996956D01*
X-72546998Y-16991444D01*
X-72609212Y-16995618D01*
X-72660864Y-17007901D01*
X-72709216Y-17032007D01*
X-72757834Y-17068993D01*
X-72801178Y-17113828D01*
X-72833710Y-17161479D01*
X-72836981Y-17167875D01*
X-72858059Y-17227626D01*
X-72869762Y-17297566D01*
X-72871982Y-17371495D01*
X-73127777Y-17371495D01*
X-73127876Y-17348191D01*
X-73127577Y-17291240D01*
X-73126321Y-17248464D01*
X-73123570Y-17215213D01*
X-73118785Y-17186837D01*
X-73111430Y-17158686D01*
X-73102820Y-17131660D01*
X-73062969Y-17038982D01*
X-73009757Y-16958111D01*
X-72944669Y-16890152D01*
X-72869194Y-16836215D01*
X-72784819Y-16797405D01*
X-72693030Y-16774832D01*
X-72616037Y-16769206D01*
X-72529149Y-16775110D01*
X-72453221Y-16793933D01*
X-72384114Y-16827343D01*
X-72317691Y-16877011D01*
X-72293594Y-16899236D01*
X-72230047Y-16960583D01*
X-72230047Y-16364388D01*
X-71975859Y-16364388D01*
X-71975859Y-17908346D01*
G37*
X-71975859Y-17908346D02*
X-72230047Y-17908346D01*
X-72230507Y-17724766D01*
X-72272779Y-17773367D01*
X-72339150Y-17836973D01*
X-72412902Y-17883372D01*
X-72494643Y-17912835D01*
X-72584983Y-17925631D01*
X-72618094Y-17926230D01*
X-72661533Y-17924894D01*
X-72702029Y-17922148D01*
X-72732901Y-17918494D01*
X-72740680Y-17916982D01*
X-72784155Y-17902252D01*
X-72835010Y-17878158D01*
X-72886881Y-17848205D01*
X-72933405Y-17815900D01*
X-72951900Y-17800647D01*
X-73014012Y-17733730D01*
X-73065184Y-17653806D01*
X-73102475Y-17566203D01*
X-73112549Y-17534100D01*
X-73119560Y-17505949D01*
X-73124052Y-17477069D01*
X-73126571Y-17442779D01*
X-73127663Y-17398400D01*
X-73127777Y-17371495D01*
X-72871982Y-17371495D01*
X-72864614Y-17443212D01*
X-72847550Y-17506517D01*
X-72843007Y-17517526D01*
X-72818956Y-17558663D01*
X-72784174Y-17602032D01*
X-72744543Y-17640999D01*
X-72711858Y-17665445D01*
X-72647345Y-17694673D01*
X-72576643Y-17708018D01*
X-72504596Y-17704856D01*
X-72469043Y-17696731D01*
X-72400059Y-17666737D01*
X-72339803Y-17621513D01*
X-72290666Y-17563559D01*
X-72255038Y-17495375D01*
X-72243843Y-17461258D01*
X-72231711Y-17387744D01*
X-72232413Y-17310064D01*
X-72245466Y-17235154D01*
X-72263042Y-17185029D01*
X-72294711Y-17131626D01*
X-72338605Y-17080856D01*
X-72389246Y-17038240D01*
X-72434691Y-17012022D01*
X-72486372Y-16996956D01*
X-72546998Y-16991444D01*
X-72609212Y-16995618D01*
X-72660864Y-17007901D01*
X-72709216Y-17032007D01*
X-72757834Y-17068993D01*
X-72801178Y-17113828D01*
X-72833710Y-17161479D01*
X-72836981Y-17167875D01*
X-72858059Y-17227626D01*
X-72869762Y-17297566D01*
X-72871982Y-17371495D01*
X-73127777Y-17371495D01*
X-73127876Y-17348191D01*
X-73127577Y-17291240D01*
X-73126321Y-17248464D01*
X-73123570Y-17215213D01*
X-73118785Y-17186837D01*
X-73111430Y-17158686D01*
X-73102820Y-17131660D01*
X-73062969Y-17038982D01*
X-73009757Y-16958111D01*
X-72944669Y-16890152D01*
X-72869194Y-16836215D01*
X-72784819Y-16797405D01*
X-72693030Y-16774832D01*
X-72616037Y-16769206D01*
X-72529149Y-16775110D01*
X-72453221Y-16793933D01*
X-72384114Y-16827343D01*
X-72317691Y-16877011D01*
X-72293594Y-16899236D01*
X-72230047Y-16960583D01*
X-72230047Y-16364388D01*
X-71975859Y-16364388D01*
X-71975859Y-17908346D01*
G36*
X-73791579Y-16778500D02*
G01*
X-73733824Y-16783985D01*
X-73689949Y-16792161D01*
X-73604333Y-16822617D01*
X-73532930Y-16865082D01*
X-73474925Y-16920369D01*
X-73429504Y-16989292D01*
X-73395856Y-17072664D01*
X-73390289Y-17091793D01*
X-73386162Y-17108918D01*
X-73382789Y-17128584D01*
X-73380095Y-17152773D01*
X-73378007Y-17183465D01*
X-73376450Y-17222640D01*
X-73375350Y-17272278D01*
X-73374635Y-17334359D01*
X-73374229Y-17410865D01*
X-73374058Y-17503774D01*
X-73374045Y-17527064D01*
X-73373895Y-17903639D01*
X-73498635Y-17906266D01*
X-73623376Y-17908893D01*
X-73623376Y-17776328D01*
X-73675507Y-17818790D01*
X-73730453Y-17859402D01*
X-73782677Y-17888067D01*
X-73839629Y-17908683D01*
X-73855719Y-17913098D01*
X-73906521Y-17921899D01*
X-73967421Y-17925821D01*
X-74030683Y-17924876D01*
X-74088571Y-17919080D01*
X-74119978Y-17912629D01*
X-74199236Y-17882924D01*
X-74266684Y-17840188D01*
X-74320799Y-17785600D01*
X-74355151Y-17730805D01*
X-74367171Y-17704462D01*
X-74374828Y-17680837D01*
X-74379082Y-17654338D01*
X-74380895Y-17619368D01*
X-74381233Y-17578843D01*
X-74381109Y-17567115D01*
X-74131373Y-17567115D01*
X-74128337Y-17606604D01*
X-74120161Y-17639200D01*
X-74117641Y-17644725D01*
X-74093957Y-17675690D01*
X-74058753Y-17704544D01*
X-74019016Y-17725701D01*
X-74014073Y-17727529D01*
X-73982178Y-17734141D01*
X-73938556Y-17737391D01*
X-73890000Y-17737328D01*
X-73843300Y-17733997D01*
X-73805248Y-17727446D01*
X-73800250Y-17726052D01*
X-73745221Y-17702319D01*
X-73695109Y-17667482D01*
X-73655840Y-17625961D01*
X-73645878Y-17610879D01*
X-73632050Y-17583756D01*
X-73624163Y-17556742D01*
X-73620557Y-17522548D01*
X-73619768Y-17496147D01*
X-73618669Y-17424094D01*
X-73679862Y-17406584D01*
X-73729698Y-17396087D01*
X-73788791Y-17389454D01*
X-73851580Y-17386754D01*
X-73912503Y-17388055D01*
X-73966000Y-17393427D01*
X-74005370Y-17402535D01*
X-74052518Y-17426768D01*
X-74093838Y-17462275D01*
X-74121208Y-17500556D01*
X-74129065Y-17529008D01*
X-74131373Y-17567115D01*
X-74381109Y-17567115D01*
X-74380740Y-17532286D01*
X-74378621Y-17498950D01*
X-74373915Y-17473242D01*
X-74365662Y-17449566D01*
X-74355151Y-17426881D01*
X-74313465Y-17362941D01*
X-74256828Y-17310438D01*
X-74185260Y-17269382D01*
X-74098776Y-17239787D01*
X-74073649Y-17233928D01*
X-74019518Y-17226340D01*
X-73953117Y-17223046D01*
X-73880460Y-17223841D01*
X-73807558Y-17228521D01*
X-73740427Y-17236881D01*
X-73691630Y-17246928D01*
X-73623376Y-17264833D01*
X-73623468Y-17217075D01*
X-73628819Y-17174663D01*
X-73642836Y-17129473D01*
X-73662688Y-17088666D01*
X-73685543Y-17059407D01*
X-73685932Y-17059058D01*
X-73734299Y-17027982D01*
X-73795945Y-17007520D01*
X-73868531Y-16997775D01*
X-73949714Y-16998850D01*
X-74037153Y-17010850D01*
X-74128508Y-17033877D01*
X-74144117Y-17038849D01*
X-74178250Y-17049574D01*
X-74204712Y-17056986D01*
X-74219136Y-17059893D01*
X-74220503Y-17059671D01*
X-74226620Y-17046882D01*
X-74235738Y-17021422D01*
X-74246480Y-16987971D01*
X-74257472Y-16951206D01*
X-74267340Y-16915807D01*
X-74274708Y-16886453D01*
X-74278201Y-16867822D01*
X-74278022Y-16863911D01*
X-74266289Y-16856537D01*
X-74240296Y-16845845D01*
X-74204047Y-16833109D01*
X-74161542Y-16819602D01*
X-74116783Y-16806598D01*
X-74073771Y-16795370D01*
X-74037609Y-16787401D01*
X-73985348Y-16780392D01*
X-73923090Y-16776625D01*
X-73856584Y-16776021D01*
X-73791579Y-16778500D01*
G37*
X-73791579Y-16778500D02*
X-73733824Y-16783985D01*
X-73689949Y-16792161D01*
X-73604333Y-16822617D01*
X-73532930Y-16865082D01*
X-73474925Y-16920369D01*
X-73429504Y-16989292D01*
X-73395856Y-17072664D01*
X-73390289Y-17091793D01*
X-73386162Y-17108918D01*
X-73382789Y-17128584D01*
X-73380095Y-17152773D01*
X-73378007Y-17183465D01*
X-73376450Y-17222640D01*
X-73375350Y-17272278D01*
X-73374635Y-17334359D01*
X-73374229Y-17410865D01*
X-73374058Y-17503774D01*
X-73374045Y-17527064D01*
X-73373895Y-17903639D01*
X-73498635Y-17906266D01*
X-73623376Y-17908893D01*
X-73623376Y-17776328D01*
X-73675507Y-17818790D01*
X-73730453Y-17859402D01*
X-73782677Y-17888067D01*
X-73839629Y-17908683D01*
X-73855719Y-17913098D01*
X-73906521Y-17921899D01*
X-73967421Y-17925821D01*
X-74030683Y-17924876D01*
X-74088571Y-17919080D01*
X-74119978Y-17912629D01*
X-74199236Y-17882924D01*
X-74266684Y-17840188D01*
X-74320799Y-17785600D01*
X-74355151Y-17730805D01*
X-74367171Y-17704462D01*
X-74374828Y-17680837D01*
X-74379082Y-17654338D01*
X-74380895Y-17619368D01*
X-74381233Y-17578843D01*
X-74381109Y-17567115D01*
X-74131373Y-17567115D01*
X-74128337Y-17606604D01*
X-74120161Y-17639200D01*
X-74117641Y-17644725D01*
X-74093957Y-17675690D01*
X-74058753Y-17704544D01*
X-74019016Y-17725701D01*
X-74014073Y-17727529D01*
X-73982178Y-17734141D01*
X-73938556Y-17737391D01*
X-73890000Y-17737328D01*
X-73843300Y-17733997D01*
X-73805248Y-17727446D01*
X-73800250Y-17726052D01*
X-73745221Y-17702319D01*
X-73695109Y-17667482D01*
X-73655840Y-17625961D01*
X-73645878Y-17610879D01*
X-73632050Y-17583756D01*
X-73624163Y-17556742D01*
X-73620557Y-17522548D01*
X-73619768Y-17496147D01*
X-73618669Y-17424094D01*
X-73679862Y-17406584D01*
X-73729698Y-17396087D01*
X-73788791Y-17389454D01*
X-73851580Y-17386754D01*
X-73912503Y-17388055D01*
X-73966000Y-17393427D01*
X-74005370Y-17402535D01*
X-74052518Y-17426768D01*
X-74093838Y-17462275D01*
X-74121208Y-17500556D01*
X-74129065Y-17529008D01*
X-74131373Y-17567115D01*
X-74381109Y-17567115D01*
X-74380740Y-17532286D01*
X-74378621Y-17498950D01*
X-74373915Y-17473242D01*
X-74365662Y-17449566D01*
X-74355151Y-17426881D01*
X-74313465Y-17362941D01*
X-74256828Y-17310438D01*
X-74185260Y-17269382D01*
X-74098776Y-17239787D01*
X-74073649Y-17233928D01*
X-74019518Y-17226340D01*
X-73953117Y-17223046D01*
X-73880460Y-17223841D01*
X-73807558Y-17228521D01*
X-73740427Y-17236881D01*
X-73691630Y-17246928D01*
X-73623376Y-17264833D01*
X-73623468Y-17217075D01*
X-73628819Y-17174663D01*
X-73642836Y-17129473D01*
X-73662688Y-17088666D01*
X-73685543Y-17059407D01*
X-73685932Y-17059058D01*
X-73734299Y-17027982D01*
X-73795945Y-17007520D01*
X-73868531Y-16997775D01*
X-73949714Y-16998850D01*
X-74037153Y-17010850D01*
X-74128508Y-17033877D01*
X-74144117Y-17038849D01*
X-74178250Y-17049574D01*
X-74204712Y-17056986D01*
X-74219136Y-17059893D01*
X-74220503Y-17059671D01*
X-74226620Y-17046882D01*
X-74235738Y-17021422D01*
X-74246480Y-16987971D01*
X-74257472Y-16951206D01*
X-74267340Y-16915807D01*
X-74274708Y-16886453D01*
X-74278201Y-16867822D01*
X-74278022Y-16863911D01*
X-74266289Y-16856537D01*
X-74240296Y-16845845D01*
X-74204047Y-16833109D01*
X-74161542Y-16819602D01*
X-74116783Y-16806598D01*
X-74073771Y-16795370D01*
X-74037609Y-16787401D01*
X-73985348Y-16780392D01*
X-73923090Y-16776625D01*
X-73856584Y-16776021D01*
X-73791579Y-16778500D01*
G36*
X-78584755Y-16970277D02*
G01*
X-78525094Y-16909730D01*
X-78456780Y-16849780D01*
X-78386104Y-16807360D01*
X-78310069Y-16781183D01*
X-78225680Y-16769961D01*
X-78198389Y-16769318D01*
X-78102814Y-16778104D01*
X-78013256Y-16803987D01*
X-77931187Y-16845793D01*
X-77858077Y-16902348D01*
X-77795397Y-16972478D01*
X-77744618Y-17055008D01*
X-77707210Y-17148765D01*
X-77702409Y-17165290D01*
X-77694630Y-17200113D01*
X-77689627Y-17240181D01*
X-77687032Y-17289922D01*
X-77686479Y-17353759D01*
X-77686500Y-17357605D01*
X-77687232Y-17413561D01*
X-77689089Y-17455815D01*
X-77692710Y-17489486D01*
X-77698732Y-17519695D01*
X-77707793Y-17551563D01*
X-77712505Y-17566203D01*
X-77749755Y-17653075D01*
X-77800719Y-17731770D01*
X-77863127Y-17800100D01*
X-77934708Y-17855875D01*
X-78013190Y-17896907D01*
X-78076378Y-17916958D01*
X-78112186Y-17922162D01*
X-78159868Y-17925052D01*
X-78212707Y-17925633D01*
X-78263991Y-17923913D01*
X-78307004Y-17919898D01*
X-78324751Y-17916704D01*
X-78375467Y-17898925D01*
X-78430893Y-17869843D01*
X-78484550Y-17833297D01*
X-78525446Y-17797727D01*
X-78549933Y-17773882D01*
X-78569108Y-17756349D01*
X-78579313Y-17748450D01*
X-78579843Y-17748302D01*
X-78582063Y-17756995D01*
X-78583760Y-17780193D01*
X-78584670Y-17813572D01*
X-78584755Y-17828324D01*
X-78584755Y-17908346D01*
X-78838943Y-17908346D01*
X-78838943Y-17348191D01*
X-78580047Y-17348191D01*
X-78579579Y-17399096D01*
X-78577751Y-17435934D01*
X-78573926Y-17463453D01*
X-78567466Y-17486403D01*
X-78558685Y-17507485D01*
X-78516329Y-17578478D01*
X-78461332Y-17635611D01*
X-78394198Y-17678430D01*
X-78346702Y-17697591D01*
X-78302195Y-17705829D01*
X-78248611Y-17706420D01*
X-78193837Y-17699891D01*
X-78145758Y-17686769D01*
X-78138179Y-17683640D01*
X-78084748Y-17651474D01*
X-78034872Y-17605785D01*
X-77993723Y-17551809D01*
X-77976393Y-17519856D01*
X-77964721Y-17493181D01*
X-77956975Y-17469978D01*
X-77952358Y-17445203D01*
X-77950075Y-17413810D01*
X-77949330Y-17370756D01*
X-77949284Y-17347993D01*
X-77949542Y-17299311D01*
X-77950901Y-17264432D01*
X-77954241Y-17238331D01*
X-77960440Y-17215982D01*
X-77970376Y-17192360D01*
X-77979972Y-17172486D01*
X-78021104Y-17107916D01*
X-78072713Y-17056904D01*
X-78132269Y-17019906D01*
X-78197245Y-16997374D01*
X-78265110Y-16989763D01*
X-78333337Y-16997527D01*
X-78399396Y-17021121D01*
X-78460759Y-17060999D01*
X-78483807Y-17081996D01*
X-78511363Y-17114373D01*
X-78538315Y-17153729D01*
X-78552565Y-17179245D01*
X-78564351Y-17204511D01*
X-78572185Y-17226447D01*
X-78576869Y-17249974D01*
X-78579203Y-17280012D01*
X-78579987Y-17321481D01*
X-78580047Y-17348191D01*
X-78838943Y-17348191D01*
X-78838943Y-16364388D01*
X-78584755Y-16364388D01*
X-78584755Y-16970277D01*
G37*
X-78584755Y-16970277D02*
X-78525094Y-16909730D01*
X-78456780Y-16849780D01*
X-78386104Y-16807360D01*
X-78310069Y-16781183D01*
X-78225680Y-16769961D01*
X-78198389Y-16769318D01*
X-78102814Y-16778104D01*
X-78013256Y-16803987D01*
X-77931187Y-16845793D01*
X-77858077Y-16902348D01*
X-77795397Y-16972478D01*
X-77744618Y-17055008D01*
X-77707210Y-17148765D01*
X-77702409Y-17165290D01*
X-77694630Y-17200113D01*
X-77689627Y-17240181D01*
X-77687032Y-17289922D01*
X-77686479Y-17353759D01*
X-77686500Y-17357605D01*
X-77687232Y-17413561D01*
X-77689089Y-17455815D01*
X-77692710Y-17489486D01*
X-77698732Y-17519695D01*
X-77707793Y-17551563D01*
X-77712505Y-17566203D01*
X-77749755Y-17653075D01*
X-77800719Y-17731770D01*
X-77863127Y-17800100D01*
X-77934708Y-17855875D01*
X-78013190Y-17896907D01*
X-78076378Y-17916958D01*
X-78112186Y-17922162D01*
X-78159868Y-17925052D01*
X-78212707Y-17925633D01*
X-78263991Y-17923913D01*
X-78307004Y-17919898D01*
X-78324751Y-17916704D01*
X-78375467Y-17898925D01*
X-78430893Y-17869843D01*
X-78484550Y-17833297D01*
X-78525446Y-17797727D01*
X-78549933Y-17773882D01*
X-78569108Y-17756349D01*
X-78579313Y-17748450D01*
X-78579843Y-17748302D01*
X-78582063Y-17756995D01*
X-78583760Y-17780193D01*
X-78584670Y-17813572D01*
X-78584755Y-17828324D01*
X-78584755Y-17908346D01*
X-78838943Y-17908346D01*
X-78838943Y-17348191D01*
X-78580047Y-17348191D01*
X-78579579Y-17399096D01*
X-78577751Y-17435934D01*
X-78573926Y-17463453D01*
X-78567466Y-17486403D01*
X-78558685Y-17507485D01*
X-78516329Y-17578478D01*
X-78461332Y-17635611D01*
X-78394198Y-17678430D01*
X-78346702Y-17697591D01*
X-78302195Y-17705829D01*
X-78248611Y-17706420D01*
X-78193837Y-17699891D01*
X-78145758Y-17686769D01*
X-78138179Y-17683640D01*
X-78084748Y-17651474D01*
X-78034872Y-17605785D01*
X-77993723Y-17551809D01*
X-77976393Y-17519856D01*
X-77964721Y-17493181D01*
X-77956975Y-17469978D01*
X-77952358Y-17445203D01*
X-77950075Y-17413810D01*
X-77949330Y-17370756D01*
X-77949284Y-17347993D01*
X-77949542Y-17299311D01*
X-77950901Y-17264432D01*
X-77954241Y-17238331D01*
X-77960440Y-17215982D01*
X-77970376Y-17192360D01*
X-77979972Y-17172486D01*
X-78021104Y-17107916D01*
X-78072713Y-17056904D01*
X-78132269Y-17019906D01*
X-78197245Y-16997374D01*
X-78265110Y-16989763D01*
X-78333337Y-16997527D01*
X-78399396Y-17021121D01*
X-78460759Y-17060999D01*
X-78483807Y-17081996D01*
X-78511363Y-17114373D01*
X-78538315Y-17153729D01*
X-78552565Y-17179245D01*
X-78564351Y-17204511D01*
X-78572185Y-17226447D01*
X-78576869Y-17249974D01*
X-78579203Y-17280012D01*
X-78579987Y-17321481D01*
X-78580047Y-17348191D01*
X-78838943Y-17348191D01*
X-78838943Y-16364388D01*
X-78584755Y-16364388D01*
X-78584755Y-16970277D01*
G36*
X-68738327Y-16837461D02*
G01*
X-68745191Y-16854983D01*
X-68758201Y-16888380D01*
X-68776705Y-16935969D01*
X-68800049Y-16996068D01*
X-68827580Y-17066994D01*
X-68858644Y-17147063D01*
X-68892590Y-17234593D01*
X-68928762Y-17327901D01*
X-68966509Y-17425305D01*
X-68967958Y-17429046D01*
X-69006169Y-17527331D01*
X-69043273Y-17622133D01*
X-69078566Y-17711688D01*
X-69111341Y-17794234D01*
X-69140892Y-17868010D01*
X-69166513Y-17931252D01*
X-69187499Y-17982197D01*
X-69203143Y-18019084D01*
X-69212715Y-18040101D01*
X-69252938Y-18107383D01*
X-69299344Y-18163343D01*
X-69349415Y-18205355D01*
X-69392971Y-18228136D01*
X-69433483Y-18239569D01*
X-69482636Y-18248097D01*
X-69532874Y-18252861D01*
X-69576642Y-18253000D01*
X-69594021Y-18251017D01*
X-69642697Y-18240687D01*
X-69689720Y-18227894D01*
X-69731595Y-18213910D01*
X-69764829Y-18200005D01*
X-69785928Y-18187450D01*
X-69791723Y-18179114D01*
X-69788033Y-18167055D01*
X-69778089Y-18142034D01*
X-69763575Y-18108162D01*
X-69752225Y-18082766D01*
X-69712727Y-17995763D01*
X-69674556Y-18012628D01*
X-69613002Y-18032620D01*
X-69555587Y-18037088D01*
X-69505092Y-18025872D01*
X-69498047Y-18022712D01*
X-69471653Y-18005004D01*
X-69444980Y-17979357D01*
X-69422405Y-17950975D01*
X-69408305Y-17925059D01*
X-69405733Y-17912966D01*
X-69409261Y-17902655D01*
X-69419434Y-17876477D01*
X-69435638Y-17835937D01*
X-69457258Y-17782540D01*
X-69483681Y-17717790D01*
X-69514290Y-17643194D01*
X-69548472Y-17560257D01*
X-69585612Y-17470483D01*
X-69625095Y-17375378D01*
X-69632720Y-17357048D01*
X-69672673Y-17261027D01*
X-69710535Y-17170015D01*
X-69745677Y-17085525D01*
X-69777471Y-17009069D01*
X-69805287Y-16942158D01*
X-69828497Y-16886306D01*
X-69846472Y-16843025D01*
X-69858584Y-16813827D01*
X-69864203Y-16800225D01*
X-69864479Y-16799545D01*
X-69862639Y-16794796D01*
X-69851185Y-16791626D01*
X-69827875Y-16789878D01*
X-69790463Y-16789395D01*
X-69736705Y-16790018D01*
X-69730583Y-16790131D01*
X-69591915Y-16792742D01*
X-69437522Y-17201592D01*
X-69406108Y-17284688D01*
X-69376727Y-17362231D01*
X-69350045Y-17432474D01*
X-69326729Y-17493671D01*
X-69307445Y-17544076D01*
X-69292861Y-17581942D01*
X-69283641Y-17605523D01*
X-69280476Y-17613095D01*
X-69276920Y-17605048D01*
X-69267772Y-17580956D01*
X-69253655Y-17542548D01*
X-69235191Y-17491553D01*
X-69213003Y-17429698D01*
X-69187714Y-17358713D01*
X-69159948Y-17280326D01*
X-69132308Y-17201904D01*
X-68986793Y-16788061D01*
X-68852776Y-16788048D01*
X-68718758Y-16788035D01*
X-68738327Y-16837461D01*
G37*
X-68738327Y-16837461D02*
X-68745191Y-16854983D01*
X-68758201Y-16888380D01*
X-68776705Y-16935969D01*
X-68800049Y-16996068D01*
X-68827580Y-17066994D01*
X-68858644Y-17147063D01*
X-68892590Y-17234593D01*
X-68928762Y-17327901D01*
X-68966509Y-17425305D01*
X-68967958Y-17429046D01*
X-69006169Y-17527331D01*
X-69043273Y-17622133D01*
X-69078566Y-17711688D01*
X-69111341Y-17794234D01*
X-69140892Y-17868010D01*
X-69166513Y-17931252D01*
X-69187499Y-17982197D01*
X-69203143Y-18019084D01*
X-69212715Y-18040101D01*
X-69252938Y-18107383D01*
X-69299344Y-18163343D01*
X-69349415Y-18205355D01*
X-69392971Y-18228136D01*
X-69433483Y-18239569D01*
X-69482636Y-18248097D01*
X-69532874Y-18252861D01*
X-69576642Y-18253000D01*
X-69594021Y-18251017D01*
X-69642697Y-18240687D01*
X-69689720Y-18227894D01*
X-69731595Y-18213910D01*
X-69764829Y-18200005D01*
X-69785928Y-18187450D01*
X-69791723Y-18179114D01*
X-69788033Y-18167055D01*
X-69778089Y-18142034D01*
X-69763575Y-18108162D01*
X-69752225Y-18082766D01*
X-69712727Y-17995763D01*
X-69674556Y-18012628D01*
X-69613002Y-18032620D01*
X-69555587Y-18037088D01*
X-69505092Y-18025872D01*
X-69498047Y-18022712D01*
X-69471653Y-18005004D01*
X-69444980Y-17979357D01*
X-69422405Y-17950975D01*
X-69408305Y-17925059D01*
X-69405733Y-17912966D01*
X-69409261Y-17902655D01*
X-69419434Y-17876477D01*
X-69435638Y-17835937D01*
X-69457258Y-17782540D01*
X-69483681Y-17717790D01*
X-69514290Y-17643194D01*
X-69548472Y-17560257D01*
X-69585612Y-17470483D01*
X-69625095Y-17375378D01*
X-69632720Y-17357048D01*
X-69672673Y-17261027D01*
X-69710535Y-17170015D01*
X-69745677Y-17085525D01*
X-69777471Y-17009069D01*
X-69805287Y-16942158D01*
X-69828497Y-16886306D01*
X-69846472Y-16843025D01*
X-69858584Y-16813827D01*
X-69864203Y-16800225D01*
X-69864479Y-16799545D01*
X-69862639Y-16794796D01*
X-69851185Y-16791626D01*
X-69827875Y-16789878D01*
X-69790463Y-16789395D01*
X-69736705Y-16790018D01*
X-69730583Y-16790131D01*
X-69591915Y-16792742D01*
X-69437522Y-17201592D01*
X-69406108Y-17284688D01*
X-69376727Y-17362231D01*
X-69350045Y-17432474D01*
X-69326729Y-17493671D01*
X-69307445Y-17544076D01*
X-69292861Y-17581942D01*
X-69283641Y-17605523D01*
X-69280476Y-17613095D01*
X-69276920Y-17605048D01*
X-69267772Y-17580956D01*
X-69253655Y-17542548D01*
X-69235191Y-17491553D01*
X-69213003Y-17429698D01*
X-69187714Y-17358713D01*
X-69159948Y-17280326D01*
X-69132308Y-17201904D01*
X-68986793Y-16788061D01*
X-68852776Y-16788048D01*
X-68718758Y-16788035D01*
X-68738327Y-16837461D01*
G36*
X-76458120Y-16837461D02*
G01*
X-76464983Y-16854983D01*
X-76477994Y-16888380D01*
X-76496497Y-16935969D01*
X-76519841Y-16996068D01*
X-76547372Y-17066994D01*
X-76578437Y-17147063D01*
X-76612382Y-17234593D01*
X-76648554Y-17327901D01*
X-76686301Y-17425305D01*
X-76687751Y-17429046D01*
X-76725961Y-17527331D01*
X-76763066Y-17622133D01*
X-76798358Y-17711688D01*
X-76831133Y-17794234D01*
X-76860685Y-17868010D01*
X-76886306Y-17931252D01*
X-76907292Y-17982197D01*
X-76922935Y-18019084D01*
X-76932507Y-18040101D01*
X-76972730Y-18107383D01*
X-77019136Y-18163343D01*
X-77069208Y-18205355D01*
X-77112764Y-18228136D01*
X-77153276Y-18239569D01*
X-77202428Y-18248097D01*
X-77252666Y-18252861D01*
X-77296434Y-18253000D01*
X-77313813Y-18251017D01*
X-77362490Y-18240687D01*
X-77409513Y-18227894D01*
X-77451388Y-18213910D01*
X-77484622Y-18200005D01*
X-77505720Y-18187450D01*
X-77511515Y-18179114D01*
X-77507826Y-18167055D01*
X-77497881Y-18142034D01*
X-77483367Y-18108162D01*
X-77472017Y-18082766D01*
X-77432519Y-17995763D01*
X-77394348Y-18012628D01*
X-77332795Y-18032620D01*
X-77275379Y-18037088D01*
X-77224884Y-18025872D01*
X-77217839Y-18022712D01*
X-77191445Y-18005004D01*
X-77164772Y-17979357D01*
X-77142197Y-17950975D01*
X-77128097Y-17925059D01*
X-77125526Y-17912966D01*
X-77129053Y-17902655D01*
X-77139226Y-17876477D01*
X-77155430Y-17835937D01*
X-77177051Y-17782540D01*
X-77203473Y-17717790D01*
X-77234082Y-17643194D01*
X-77268264Y-17560257D01*
X-77305404Y-17470483D01*
X-77344887Y-17375378D01*
X-77352513Y-17357048D01*
X-77392466Y-17261027D01*
X-77430328Y-17170015D01*
X-77465470Y-17085525D01*
X-77497263Y-17009069D01*
X-77525079Y-16942158D01*
X-77548289Y-16886306D01*
X-77566264Y-16843025D01*
X-77578376Y-16813827D01*
X-77583996Y-16800225D01*
X-77584271Y-16799545D01*
X-77582431Y-16794796D01*
X-77570978Y-16791626D01*
X-77547667Y-16789878D01*
X-77510255Y-16789395D01*
X-77456497Y-16790018D01*
X-77450375Y-16790131D01*
X-77311707Y-16792742D01*
X-77157314Y-17201592D01*
X-77125900Y-17284688D01*
X-77096519Y-17362231D01*
X-77069838Y-17432474D01*
X-77046522Y-17493671D01*
X-77027238Y-17544076D01*
X-77012653Y-17581942D01*
X-77003433Y-17605523D01*
X-77000268Y-17613095D01*
X-76996713Y-17605048D01*
X-76987565Y-17580956D01*
X-76973447Y-17542548D01*
X-76954983Y-17491553D01*
X-76932796Y-17429698D01*
X-76907507Y-17358713D01*
X-76879740Y-17280326D01*
X-76852100Y-17201904D01*
X-76706586Y-16788061D01*
X-76438550Y-16788035D01*
X-76458120Y-16837461D01*
G37*
X-76458120Y-16837461D02*
X-76464983Y-16854983D01*
X-76477994Y-16888380D01*
X-76496497Y-16935969D01*
X-76519841Y-16996068D01*
X-76547372Y-17066994D01*
X-76578437Y-17147063D01*
X-76612382Y-17234593D01*
X-76648554Y-17327901D01*
X-76686301Y-17425305D01*
X-76687751Y-17429046D01*
X-76725961Y-17527331D01*
X-76763066Y-17622133D01*
X-76798358Y-17711688D01*
X-76831133Y-17794234D01*
X-76860685Y-17868010D01*
X-76886306Y-17931252D01*
X-76907292Y-17982197D01*
X-76922935Y-18019084D01*
X-76932507Y-18040101D01*
X-76972730Y-18107383D01*
X-77019136Y-18163343D01*
X-77069208Y-18205355D01*
X-77112764Y-18228136D01*
X-77153276Y-18239569D01*
X-77202428Y-18248097D01*
X-77252666Y-18252861D01*
X-77296434Y-18253000D01*
X-77313813Y-18251017D01*
X-77362490Y-18240687D01*
X-77409513Y-18227894D01*
X-77451388Y-18213910D01*
X-77484622Y-18200005D01*
X-77505720Y-18187450D01*
X-77511515Y-18179114D01*
X-77507826Y-18167055D01*
X-77497881Y-18142034D01*
X-77483367Y-18108162D01*
X-77472017Y-18082766D01*
X-77432519Y-17995763D01*
X-77394348Y-18012628D01*
X-77332795Y-18032620D01*
X-77275379Y-18037088D01*
X-77224884Y-18025872D01*
X-77217839Y-18022712D01*
X-77191445Y-18005004D01*
X-77164772Y-17979357D01*
X-77142197Y-17950975D01*
X-77128097Y-17925059D01*
X-77125526Y-17912966D01*
X-77129053Y-17902655D01*
X-77139226Y-17876477D01*
X-77155430Y-17835937D01*
X-77177051Y-17782540D01*
X-77203473Y-17717790D01*
X-77234082Y-17643194D01*
X-77268264Y-17560257D01*
X-77305404Y-17470483D01*
X-77344887Y-17375378D01*
X-77352513Y-17357048D01*
X-77392466Y-17261027D01*
X-77430328Y-17170015D01*
X-77465470Y-17085525D01*
X-77497263Y-17009069D01*
X-77525079Y-16942158D01*
X-77548289Y-16886306D01*
X-77566264Y-16843025D01*
X-77578376Y-16813827D01*
X-77583996Y-16800225D01*
X-77584271Y-16799545D01*
X-77582431Y-16794796D01*
X-77570978Y-16791626D01*
X-77547667Y-16789878D01*
X-77510255Y-16789395D01*
X-77456497Y-16790018D01*
X-77450375Y-16790131D01*
X-77311707Y-16792742D01*
X-77157314Y-17201592D01*
X-77125900Y-17284688D01*
X-77096519Y-17362231D01*
X-77069838Y-17432474D01*
X-77046522Y-17493671D01*
X-77027238Y-17544076D01*
X-77012653Y-17581942D01*
X-77003433Y-17605523D01*
X-77000268Y-17613095D01*
X-76996713Y-17605048D01*
X-76987565Y-17580956D01*
X-76973447Y-17542548D01*
X-76954983Y-17491553D01*
X-76932796Y-17429698D01*
X-76907507Y-17358713D01*
X-76879740Y-17280326D01*
X-76852100Y-17201904D01*
X-76706586Y-16788061D01*
X-76438550Y-16788035D01*
X-76458120Y-16837461D01*
%TD*%
%LPC*%
D12*
%TO.C,U5*%
X196155000Y-67237750D03*
X204283000Y-57077750D03*
X200473000Y-57077750D03*
D13*
X208534000Y-56698750D03*
D12*
X199965000Y-67237750D03*
X197425000Y-67237750D03*
D13*
X206823000Y-62411750D03*
D12*
X197425000Y-54999750D03*
D13*
X206823000Y-59871750D03*
X208534000Y-64318750D03*
D12*
X205045000Y-67237750D03*
X198695000Y-54999750D03*
D13*
X206823000Y-63681750D03*
X206823000Y-58601750D03*
D12*
X195393000Y-57077750D03*
X199965000Y-54999750D03*
X203013000Y-57077750D03*
X201235000Y-67237750D03*
X202505000Y-67237750D03*
X197933000Y-57077750D03*
X206315000Y-67237750D03*
X206315000Y-54999750D03*
X199203000Y-57077750D03*
D13*
X208534000Y-65588750D03*
D12*
X201743000Y-57077750D03*
X194885000Y-67237750D03*
X196663000Y-57077750D03*
D13*
X208534000Y-57968750D03*
D12*
X205045000Y-54999750D03*
X196155000Y-54999750D03*
D13*
X208534000Y-63048750D03*
D12*
X202505000Y-54999750D03*
D13*
X208534000Y-61778750D03*
D12*
X194885000Y-54999750D03*
D13*
X206823000Y-64951750D03*
X208534000Y-59238750D03*
X206823000Y-61141750D03*
X208534000Y-60508750D03*
D12*
X203775000Y-67237750D03*
X198695000Y-67237750D03*
D13*
X206823000Y-57331750D03*
D12*
X201235000Y-54999750D03*
X203775000Y-54999750D03*
%TD*%
%TO.C,U2*%
X173732500Y-54999750D03*
X165604500Y-65159750D03*
X169414500Y-65159750D03*
D13*
X161353500Y-65538750D03*
D12*
X169922500Y-54999750D03*
X172462500Y-54999750D03*
D13*
X163064500Y-59825750D03*
D12*
X172462500Y-67237750D03*
D13*
X163064500Y-62365750D03*
X161353500Y-57918750D03*
D12*
X164842500Y-54999750D03*
X171192500Y-67237750D03*
D13*
X163064500Y-58555750D03*
X163064500Y-63635750D03*
D12*
X174494500Y-65159750D03*
X169922500Y-67237750D03*
X166874500Y-65159750D03*
X168652500Y-54999750D03*
X167382500Y-54999750D03*
X171954500Y-65159750D03*
X163572500Y-54999750D03*
X163572500Y-67237750D03*
X170684500Y-65159750D03*
D13*
X161353500Y-56648750D03*
D12*
X168144500Y-65159750D03*
X175002500Y-54999750D03*
X173224500Y-65159750D03*
D13*
X161353500Y-64268750D03*
D12*
X164842500Y-67237750D03*
X173732500Y-67237750D03*
D13*
X161353500Y-59188750D03*
D12*
X167382500Y-67237750D03*
D13*
X161353500Y-60458750D03*
D12*
X175002500Y-67237750D03*
D13*
X163064500Y-57285750D03*
X161353500Y-62998750D03*
X163064500Y-61095750D03*
X161353500Y-61728750D03*
D12*
X166112500Y-54999750D03*
X171192500Y-54999750D03*
D13*
X163064500Y-64905750D03*
D12*
X168652500Y-67237750D03*
X166112500Y-67237750D03*
%TD*%
D14*
%TO.C,SW32*%
X295275000Y-53181250D03*
D15*
X297815000Y-48101250D03*
D16*
X300355000Y-53181250D03*
D15*
X291465000Y-50641250D03*
D16*
X290195000Y-53181250D03*
%TD*%
D14*
%TO.C,SW31*%
X314325000Y-55562500D03*
D15*
X316865000Y-50482500D03*
D16*
X319405000Y-55562500D03*
D15*
X310515000Y-53022500D03*
D16*
X309245000Y-55562500D03*
%TD*%
D14*
%TO.C,SW29*%
X169862500Y-127000000D03*
D15*
X172402500Y-121920000D03*
D16*
X174942500Y-127000000D03*
D15*
X166052500Y-124460000D03*
D16*
X164782500Y-127000000D03*
%TD*%
D17*
%TO.C,SW1*%
X176800000Y-80332000D03*
X176800000Y-76132000D03*
D18*
X178900000Y-82032000D03*
X178900000Y-74432000D03*
D19*
X177800000Y-79332000D03*
X177800000Y-77132000D03*
%TD*%
%TO.C,R18*%
G36*
G01*
X199840001Y-72243750D02*
X198939999Y-72243750D01*
G75*
G02*
X198690000Y-71993751I0J249999D01*
G01*
X198690000Y-71293749D01*
G75*
G02*
X198939999Y-71043750I249999J0D01*
G01*
X199840001Y-71043750D01*
G75*
G02*
X200090000Y-71293749I0J-249999D01*
G01*
X200090000Y-71993751D01*
G75*
G02*
X199840001Y-72243750I-249999J0D01*
G01*
G37*
G36*
G01*
X199840001Y-70243750D02*
X198939999Y-70243750D01*
G75*
G02*
X198690000Y-69993751I0J249999D01*
G01*
X198690000Y-69293749D01*
G75*
G02*
X198939999Y-69043750I249999J0D01*
G01*
X199840001Y-69043750D01*
G75*
G02*
X200090000Y-69293749I0J-249999D01*
G01*
X200090000Y-69993751D01*
G75*
G02*
X199840001Y-70243750I-249999J0D01*
G01*
G37*
%TD*%
%TO.C,R17*%
G36*
G01*
X204570751Y-72243750D02*
X203670749Y-72243750D01*
G75*
G02*
X203420750Y-71993751I0J249999D01*
G01*
X203420750Y-71293749D01*
G75*
G02*
X203670749Y-71043750I249999J0D01*
G01*
X204570751Y-71043750D01*
G75*
G02*
X204820750Y-71293749I0J-249999D01*
G01*
X204820750Y-71993751D01*
G75*
G02*
X204570751Y-72243750I-249999J0D01*
G01*
G37*
G36*
G01*
X204570751Y-70243750D02*
X203670749Y-70243750D01*
G75*
G02*
X203420750Y-69993751I0J249999D01*
G01*
X203420750Y-69293749D01*
G75*
G02*
X203670749Y-69043750I249999J0D01*
G01*
X204570751Y-69043750D01*
G75*
G02*
X204820750Y-69293749I0J-249999D01*
G01*
X204820750Y-69993751D01*
G75*
G02*
X204570751Y-70243750I-249999J0D01*
G01*
G37*
%TD*%
D20*
%TO.C,J5*%
X200775000Y-50087500D03*
D19*
X205600300Y-44627800D03*
X205600300Y-44932600D03*
X194449700Y-45554900D03*
D20*
X199275000Y-50087500D03*
D21*
X197625000Y-50087500D03*
D19*
X194449700Y-45262800D03*
X194449700Y-44919900D03*
X194449700Y-44615100D03*
X194449400Y-44335700D03*
X205600300Y-45275500D03*
D20*
X201275000Y-50087500D03*
X199775000Y-50087500D03*
D21*
X202425000Y-50087500D03*
X196825000Y-50087500D03*
D19*
X194449700Y-49098200D03*
X194450000Y-49343500D03*
X194450000Y-48581500D03*
X194450000Y-48844200D03*
X205600600Y-49343500D03*
X205600600Y-48581500D03*
X205600300Y-49098200D03*
D21*
X203225000Y-50087500D03*
D20*
X198275000Y-50087500D03*
X200275000Y-50087500D03*
D19*
X205600600Y-48844200D03*
X205600300Y-45567600D03*
X205600000Y-44348400D03*
D20*
X201783000Y-50087500D03*
X198775000Y-50087500D03*
%TD*%
D22*
%TO.C,J3*%
X172720000Y-76993750D03*
D23*
X165100000Y-76993750D03*
D22*
X167640000Y-76993750D03*
X170180000Y-76993750D03*
%TD*%
D20*
%TO.C,J2*%
X170612500Y-50087500D03*
D19*
X175437800Y-44627800D03*
X175437800Y-44932600D03*
X164287200Y-45554900D03*
D20*
X169112500Y-50087500D03*
D21*
X167462500Y-50087500D03*
D19*
X164287200Y-45262800D03*
X164287200Y-44919900D03*
X164287200Y-44615100D03*
X164286900Y-44335700D03*
X175437800Y-45275500D03*
D20*
X171112500Y-50087500D03*
X169612500Y-50087500D03*
D21*
X172262500Y-50087500D03*
X166662500Y-50087500D03*
D19*
X164287200Y-49098200D03*
X164287500Y-49343500D03*
X164287500Y-48581500D03*
X164287500Y-48844200D03*
X175438100Y-49343500D03*
X175438100Y-48581500D03*
X175437800Y-49098200D03*
D21*
X173062500Y-50087500D03*
D20*
X168112500Y-50087500D03*
X170112500Y-50087500D03*
D19*
X175438100Y-48844200D03*
X175437800Y-45567600D03*
X175437500Y-44348400D03*
D20*
X171620500Y-50087500D03*
X168612500Y-50087500D03*
%TD*%
D24*
%TO.C,HM10*%
X323850000Y-84137500D03*
%TD*%
%TO.C,HM9*%
X304800000Y-101996875D03*
%TD*%
%TO.C,HM8*%
X304800000Y-63896875D03*
%TD*%
%TO.C,HM7*%
X228600000Y-56753125D03*
%TD*%
%TO.C,HM6*%
X228600000Y-113903125D03*
%TD*%
%TO.C,HM5*%
X46037500Y-84137500D03*
%TD*%
%TO.C,HM4*%
X65087500Y-101996875D03*
%TD*%
%TO.C,HM3*%
X65087500Y-63896875D03*
%TD*%
%TO.C,HM2*%
X141287500Y-56753125D03*
%TD*%
%TO.C,HM1*%
X141287500Y-113903125D03*
%TD*%
D14*
%TO.C,SW58*%
X200025000Y-127000000D03*
D15*
X202565000Y-121920000D03*
D16*
X205105000Y-127000000D03*
D15*
X196215000Y-124460000D03*
D16*
X194945000Y-127000000D03*
%TD*%
D14*
%TO.C,SW57*%
X219075000Y-124618750D03*
D15*
X221615000Y-119538750D03*
D16*
X224155000Y-124618750D03*
D15*
X215265000Y-122078750D03*
D16*
X213995000Y-124618750D03*
%TD*%
D14*
%TO.C,SW56*%
X238125000Y-122237500D03*
D15*
X240665000Y-117157500D03*
D16*
X243205000Y-122237500D03*
D15*
X234315000Y-119697500D03*
D16*
X233045000Y-122237500D03*
%TD*%
D14*
%TO.C,SW55*%
X333375000Y-88900000D03*
D15*
X335915000Y-83820000D03*
D16*
X338455000Y-88900000D03*
D15*
X329565000Y-86360000D03*
D16*
X328295000Y-88900000D03*
%TD*%
D14*
%TO.C,SW54*%
X219075000Y-105568750D03*
D15*
X221615000Y-100488750D03*
D16*
X224155000Y-105568750D03*
D15*
X215265000Y-103028750D03*
D16*
X213995000Y-105568750D03*
%TD*%
D14*
%TO.C,SW53*%
X238125000Y-103187500D03*
D15*
X240665000Y-98107500D03*
D16*
X243205000Y-103187500D03*
D15*
X234315000Y-100647500D03*
D16*
X233045000Y-103187500D03*
%TD*%
D14*
%TO.C,SW52*%
X257175000Y-98425000D03*
D15*
X259715000Y-93345000D03*
D16*
X262255000Y-98425000D03*
D15*
X253365000Y-95885000D03*
D16*
X252095000Y-98425000D03*
%TD*%
D14*
%TO.C,SW51*%
X276225000Y-103187500D03*
D15*
X278765000Y-98107500D03*
D16*
X281305000Y-103187500D03*
D15*
X272415000Y-100647500D03*
D16*
X271145000Y-103187500D03*
%TD*%
D14*
%TO.C,SW50*%
X295275000Y-110331250D03*
D15*
X297815000Y-105251250D03*
D16*
X300355000Y-110331250D03*
D15*
X291465000Y-107791250D03*
D16*
X290195000Y-110331250D03*
%TD*%
D14*
%TO.C,SW49*%
X314325000Y-112712500D03*
D15*
X316865000Y-107632500D03*
D16*
X319405000Y-112712500D03*
D15*
X310515000Y-110172500D03*
D16*
X309245000Y-112712500D03*
%TD*%
D14*
%TO.C,SW48*%
X219075000Y-86518750D03*
D15*
X221615000Y-81438750D03*
D16*
X224155000Y-86518750D03*
D15*
X215265000Y-83978750D03*
D16*
X213995000Y-86518750D03*
%TD*%
D14*
%TO.C,SW47*%
X238125000Y-84137500D03*
D15*
X240665000Y-79057500D03*
D16*
X243205000Y-84137500D03*
D15*
X234315000Y-81597500D03*
D16*
X233045000Y-84137500D03*
%TD*%
D14*
%TO.C,SW46*%
X257175000Y-79375000D03*
D15*
X259715000Y-74295000D03*
D16*
X262255000Y-79375000D03*
D15*
X253365000Y-76835000D03*
D16*
X252095000Y-79375000D03*
%TD*%
D14*
%TO.C,SW45*%
X276225000Y-84137500D03*
D15*
X278765000Y-79057500D03*
D16*
X281305000Y-84137500D03*
D15*
X272415000Y-81597500D03*
D16*
X271145000Y-84137500D03*
%TD*%
D14*
%TO.C,SW44*%
X295275000Y-91281250D03*
D15*
X297815000Y-86201250D03*
D16*
X300355000Y-91281250D03*
D15*
X291465000Y-88741250D03*
D16*
X290195000Y-91281250D03*
%TD*%
D14*
%TO.C,SW43*%
X314325000Y-93662500D03*
D15*
X316865000Y-88582500D03*
D16*
X319405000Y-93662500D03*
D15*
X310515000Y-91122500D03*
D16*
X309245000Y-93662500D03*
%TD*%
D14*
%TO.C,SW42*%
X219075000Y-67468750D03*
D15*
X221615000Y-62388750D03*
D16*
X224155000Y-67468750D03*
D15*
X215265000Y-64928750D03*
D16*
X213995000Y-67468750D03*
%TD*%
D14*
%TO.C,SW41*%
X238125000Y-65087500D03*
D15*
X240665000Y-60007500D03*
D16*
X243205000Y-65087500D03*
D15*
X234315000Y-62547500D03*
D16*
X233045000Y-65087500D03*
%TD*%
D14*
%TO.C,SW40*%
X257175000Y-60325000D03*
D15*
X259715000Y-55245000D03*
D16*
X262255000Y-60325000D03*
D15*
X253365000Y-57785000D03*
D16*
X252095000Y-60325000D03*
%TD*%
D14*
%TO.C,SW39*%
X276225000Y-65087500D03*
D15*
X278765000Y-60007500D03*
D16*
X281305000Y-65087500D03*
D15*
X272415000Y-62547500D03*
D16*
X271145000Y-65087500D03*
%TD*%
D14*
%TO.C,SW38*%
X295275000Y-72231250D03*
D15*
X297815000Y-67151250D03*
D16*
X300355000Y-72231250D03*
D15*
X291465000Y-69691250D03*
D16*
X290195000Y-72231250D03*
%TD*%
D14*
%TO.C,SW37*%
X314325000Y-74612500D03*
D15*
X316865000Y-69532500D03*
D16*
X319405000Y-74612500D03*
D15*
X310515000Y-72072500D03*
D16*
X309245000Y-74612500D03*
%TD*%
D14*
%TO.C,SW36*%
X219075000Y-48418750D03*
D15*
X221615000Y-43338750D03*
D16*
X224155000Y-48418750D03*
D15*
X215265000Y-45878750D03*
D16*
X213995000Y-48418750D03*
%TD*%
D14*
%TO.C,SW35*%
X238125000Y-46037500D03*
D15*
X240665000Y-40957500D03*
D16*
X243205000Y-46037500D03*
D15*
X234315000Y-43497500D03*
D16*
X233045000Y-46037500D03*
%TD*%
D14*
%TO.C,SW34*%
X257175000Y-41275000D03*
D15*
X259715000Y-36195000D03*
D16*
X262255000Y-41275000D03*
D15*
X253365000Y-38735000D03*
D16*
X252095000Y-41275000D03*
%TD*%
D14*
%TO.C,SW33*%
X276225000Y-46037500D03*
D15*
X278765000Y-40957500D03*
D16*
X281305000Y-46037500D03*
D15*
X272415000Y-43497500D03*
D16*
X271145000Y-46037500D03*
%TD*%
%TO.C,R16*%
G36*
G01*
X207512499Y-49993750D02*
X208412501Y-49993750D01*
G75*
G02*
X208662500Y-50243749I0J-249999D01*
G01*
X208662500Y-50943751D01*
G75*
G02*
X208412501Y-51193750I-249999J0D01*
G01*
X207512499Y-51193750D01*
G75*
G02*
X207262500Y-50943751I0J249999D01*
G01*
X207262500Y-50243749D01*
G75*
G02*
X207512499Y-49993750I249999J0D01*
G01*
G37*
G36*
G01*
X207512499Y-51993750D02*
X208412501Y-51993750D01*
G75*
G02*
X208662500Y-52243749I0J-249999D01*
G01*
X208662500Y-52943751D01*
G75*
G02*
X208412501Y-53193750I-249999J0D01*
G01*
X207512499Y-53193750D01*
G75*
G02*
X207262500Y-52943751I0J249999D01*
G01*
X207262500Y-52243749D01*
G75*
G02*
X207512499Y-51993750I249999J0D01*
G01*
G37*
%TD*%
%TO.C,R15*%
G36*
G01*
X202189501Y-72243750D02*
X201289499Y-72243750D01*
G75*
G02*
X201039500Y-71993751I0J249999D01*
G01*
X201039500Y-71293749D01*
G75*
G02*
X201289499Y-71043750I249999J0D01*
G01*
X202189501Y-71043750D01*
G75*
G02*
X202439500Y-71293749I0J-249999D01*
G01*
X202439500Y-71993751D01*
G75*
G02*
X202189501Y-72243750I-249999J0D01*
G01*
G37*
G36*
G01*
X202189501Y-70243750D02*
X201289499Y-70243750D01*
G75*
G02*
X201039500Y-69993751I0J249999D01*
G01*
X201039500Y-69293749D01*
G75*
G02*
X201289499Y-69043750I249999J0D01*
G01*
X202189501Y-69043750D01*
G75*
G02*
X202439500Y-69293749I0J-249999D01*
G01*
X202439500Y-69993751D01*
G75*
G02*
X202189501Y-70243750I-249999J0D01*
G01*
G37*
%TD*%
%TO.C,R13*%
G36*
G01*
X197458751Y-72243750D02*
X196558749Y-72243750D01*
G75*
G02*
X196308750Y-71993751I0J249999D01*
G01*
X196308750Y-71293749D01*
G75*
G02*
X196558749Y-71043750I249999J0D01*
G01*
X197458751Y-71043750D01*
G75*
G02*
X197708750Y-71293749I0J-249999D01*
G01*
X197708750Y-71993751D01*
G75*
G02*
X197458751Y-72243750I-249999J0D01*
G01*
G37*
G36*
G01*
X197458751Y-70243750D02*
X196558749Y-70243750D01*
G75*
G02*
X196308750Y-69993751I0J249999D01*
G01*
X196308750Y-69293749D01*
G75*
G02*
X196558749Y-69043750I249999J0D01*
G01*
X197458751Y-69043750D01*
G75*
G02*
X197708750Y-69293749I0J-249999D01*
G01*
X197708750Y-69993751D01*
G75*
G02*
X197458751Y-70243750I-249999J0D01*
G01*
G37*
%TD*%
%TO.C,R12*%
G36*
G01*
X192537501Y-53193750D02*
X191637499Y-53193750D01*
G75*
G02*
X191387500Y-52943751I0J249999D01*
G01*
X191387500Y-52243749D01*
G75*
G02*
X191637499Y-51993750I249999J0D01*
G01*
X192537501Y-51993750D01*
G75*
G02*
X192787500Y-52243749I0J-249999D01*
G01*
X192787500Y-52943751D01*
G75*
G02*
X192537501Y-53193750I-249999J0D01*
G01*
G37*
G36*
G01*
X192537501Y-51193750D02*
X191637499Y-51193750D01*
G75*
G02*
X191387500Y-50943751I0J249999D01*
G01*
X191387500Y-50243749D01*
G75*
G02*
X191637499Y-49993750I249999J0D01*
G01*
X192537501Y-49993750D01*
G75*
G02*
X192787500Y-50243749I0J-249999D01*
G01*
X192787500Y-50943751D01*
G75*
G02*
X192537501Y-51193750I-249999J0D01*
G01*
G37*
%TD*%
%TO.C,R11*%
G36*
G01*
X198450000Y-52191499D02*
X198450000Y-53091501D01*
G75*
G02*
X198200001Y-53341500I-249999J0D01*
G01*
X197499999Y-53341500D01*
G75*
G02*
X197250000Y-53091501I0J249999D01*
G01*
X197250000Y-52191499D01*
G75*
G02*
X197499999Y-51941500I249999J0D01*
G01*
X198200001Y-51941500D01*
G75*
G02*
X198450000Y-52191499I0J-249999D01*
G01*
G37*
G36*
G01*
X196450000Y-52191499D02*
X196450000Y-53091501D01*
G75*
G02*
X196200001Y-53341500I-249999J0D01*
G01*
X195499999Y-53341500D01*
G75*
G02*
X195250000Y-53091501I0J249999D01*
G01*
X195250000Y-52191499D01*
G75*
G02*
X195499999Y-51941500I249999J0D01*
G01*
X196200001Y-51941500D01*
G75*
G02*
X196450000Y-52191499I0J-249999D01*
G01*
G37*
%TD*%
%TO.C,R10*%
G36*
G01*
X201600000Y-53091501D02*
X201600000Y-52191499D01*
G75*
G02*
X201849999Y-51941500I249999J0D01*
G01*
X202550001Y-51941500D01*
G75*
G02*
X202800000Y-52191499I0J-249999D01*
G01*
X202800000Y-53091501D01*
G75*
G02*
X202550001Y-53341500I-249999J0D01*
G01*
X201849999Y-53341500D01*
G75*
G02*
X201600000Y-53091501I0J249999D01*
G01*
G37*
G36*
G01*
X203600000Y-53091501D02*
X203600000Y-52191499D01*
G75*
G02*
X203849999Y-51941500I249999J0D01*
G01*
X204550001Y-51941500D01*
G75*
G02*
X204800000Y-52191499I0J-249999D01*
G01*
X204800000Y-53091501D01*
G75*
G02*
X204550001Y-53341500I-249999J0D01*
G01*
X203849999Y-53341500D01*
G75*
G02*
X203600000Y-53091501I0J249999D01*
G01*
G37*
%TD*%
%TO.C,R9*%
G36*
G01*
X170015749Y-69837500D02*
X170915751Y-69837500D01*
G75*
G02*
X171165750Y-70087499I0J-249999D01*
G01*
X171165750Y-70787501D01*
G75*
G02*
X170915751Y-71037500I-249999J0D01*
G01*
X170015749Y-71037500D01*
G75*
G02*
X169765750Y-70787501I0J249999D01*
G01*
X169765750Y-70087499D01*
G75*
G02*
X170015749Y-69837500I249999J0D01*
G01*
G37*
G36*
G01*
X170015749Y-71837500D02*
X170915751Y-71837500D01*
G75*
G02*
X171165750Y-72087499I0J-249999D01*
G01*
X171165750Y-72787501D01*
G75*
G02*
X170915751Y-73037500I-249999J0D01*
G01*
X170015749Y-73037500D01*
G75*
G02*
X169765750Y-72787501I0J249999D01*
G01*
X169765750Y-72087499D01*
G75*
G02*
X170015749Y-71837500I249999J0D01*
G01*
G37*
%TD*%
%TO.C,LED4*%
G36*
G01*
X206952001Y-72243750D02*
X206051999Y-72243750D01*
G75*
G02*
X205802000Y-71993751I0J249999D01*
G01*
X205802000Y-71343749D01*
G75*
G02*
X206051999Y-71093750I249999J0D01*
G01*
X206952001Y-71093750D01*
G75*
G02*
X207202000Y-71343749I0J-249999D01*
G01*
X207202000Y-71993751D01*
G75*
G02*
X206952001Y-72243750I-249999J0D01*
G01*
G37*
G36*
G01*
X206952001Y-70193750D02*
X206051999Y-70193750D01*
G75*
G02*
X205802000Y-69943751I0J249999D01*
G01*
X205802000Y-69293749D01*
G75*
G02*
X206051999Y-69043750I249999J0D01*
G01*
X206952001Y-69043750D01*
G75*
G02*
X207202000Y-69293749I0J-249999D01*
G01*
X207202000Y-69943751D01*
G75*
G02*
X206952001Y-70193750I-249999J0D01*
G01*
G37*
%TD*%
%TO.C,LED3*%
G36*
G01*
X195077501Y-72243750D02*
X194177499Y-72243750D01*
G75*
G02*
X193927500Y-71993751I0J249999D01*
G01*
X193927500Y-71343749D01*
G75*
G02*
X194177499Y-71093750I249999J0D01*
G01*
X195077501Y-71093750D01*
G75*
G02*
X195327500Y-71343749I0J-249999D01*
G01*
X195327500Y-71993751D01*
G75*
G02*
X195077501Y-72243750I-249999J0D01*
G01*
G37*
G36*
G01*
X195077501Y-70193750D02*
X194177499Y-70193750D01*
G75*
G02*
X193927500Y-69943751I0J249999D01*
G01*
X193927500Y-69293749D01*
G75*
G02*
X194177499Y-69043750I249999J0D01*
G01*
X195077501Y-69043750D01*
G75*
G02*
X195327500Y-69293749I0J-249999D01*
G01*
X195327500Y-69943751D01*
G75*
G02*
X195077501Y-70193750I-249999J0D01*
G01*
G37*
%TD*%
D22*
%TO.C,J6*%
X197167500Y-76962000D03*
D23*
X204787500Y-76962000D03*
D22*
X202247500Y-76962000D03*
X199707500Y-76962000D03*
%TD*%
D17*
%TO.C,SW30*%
X193087500Y-76132000D03*
X193087500Y-80332000D03*
D18*
X190987500Y-74432000D03*
X190987500Y-82032000D03*
D19*
X192087500Y-77132000D03*
X192087500Y-79332000D03*
%TD*%
D14*
%TO.C,SW28*%
X150812500Y-124618750D03*
D15*
X153352500Y-119538750D03*
D16*
X155892500Y-124618750D03*
D15*
X147002500Y-122078750D03*
D16*
X145732500Y-124618750D03*
%TD*%
D14*
%TO.C,SW27*%
X131762500Y-122237500D03*
D15*
X134302500Y-117157500D03*
D16*
X136842500Y-122237500D03*
D15*
X127952500Y-119697500D03*
D16*
X126682500Y-122237500D03*
%TD*%
D14*
%TO.C,SW26*%
X36512500Y-88900000D03*
D15*
X39052500Y-83820000D03*
D16*
X41592500Y-88900000D03*
D15*
X32702500Y-86360000D03*
D16*
X31432500Y-88900000D03*
%TD*%
D14*
%TO.C,SW25*%
X150812500Y-105568750D03*
D15*
X153352500Y-100488750D03*
D16*
X155892500Y-105568750D03*
D15*
X147002500Y-103028750D03*
D16*
X145732500Y-105568750D03*
%TD*%
D14*
%TO.C,SW24*%
X131762500Y-103187500D03*
D15*
X134302500Y-98107500D03*
D16*
X136842500Y-103187500D03*
D15*
X127952500Y-100647500D03*
D16*
X126682500Y-103187500D03*
%TD*%
D14*
%TO.C,SW23*%
X112712500Y-98425000D03*
D15*
X115252500Y-93345000D03*
D16*
X117792500Y-98425000D03*
D15*
X108902500Y-95885000D03*
D16*
X107632500Y-98425000D03*
%TD*%
D14*
%TO.C,SW22*%
X93662500Y-103187500D03*
D15*
X96202500Y-98107500D03*
D16*
X98742500Y-103187500D03*
D15*
X89852500Y-100647500D03*
D16*
X88582500Y-103187500D03*
%TD*%
D14*
%TO.C,SW21*%
X74612500Y-110331250D03*
D15*
X77152500Y-105251250D03*
D16*
X79692500Y-110331250D03*
D15*
X70802500Y-107791250D03*
D16*
X69532500Y-110331250D03*
%TD*%
D14*
%TO.C,SW20*%
X55562500Y-112712500D03*
D15*
X58102500Y-107632500D03*
D16*
X60642500Y-112712500D03*
D15*
X51752500Y-110172500D03*
D16*
X50482500Y-112712500D03*
%TD*%
D14*
%TO.C,SW19*%
X150812500Y-86518750D03*
D15*
X153352500Y-81438750D03*
D16*
X155892500Y-86518750D03*
D15*
X147002500Y-83978750D03*
D16*
X145732500Y-86518750D03*
%TD*%
D14*
%TO.C,SW18*%
X131762500Y-84137500D03*
D15*
X134302500Y-79057500D03*
D16*
X136842500Y-84137500D03*
D15*
X127952500Y-81597500D03*
D16*
X126682500Y-84137500D03*
%TD*%
D14*
%TO.C,SW17*%
X112712500Y-79375000D03*
D15*
X115252500Y-74295000D03*
D16*
X117792500Y-79375000D03*
D15*
X108902500Y-76835000D03*
D16*
X107632500Y-79375000D03*
%TD*%
D14*
%TO.C,SW16*%
X93662500Y-84137500D03*
D15*
X96202500Y-79057500D03*
D16*
X98742500Y-84137500D03*
D15*
X89852500Y-81597500D03*
D16*
X88582500Y-84137500D03*
%TD*%
D14*
%TO.C,SW15*%
X74612500Y-91281250D03*
D15*
X77152500Y-86201250D03*
D16*
X79692500Y-91281250D03*
D15*
X70802500Y-88741250D03*
D16*
X69532500Y-91281250D03*
%TD*%
D14*
%TO.C,SW14*%
X55562500Y-93662500D03*
D15*
X58102500Y-88582500D03*
D16*
X60642500Y-93662500D03*
D15*
X51752500Y-91122500D03*
D16*
X50482500Y-93662500D03*
%TD*%
D14*
%TO.C,SW13*%
X150812500Y-67468750D03*
D15*
X153352500Y-62388750D03*
D16*
X155892500Y-67468750D03*
D15*
X147002500Y-64928750D03*
D16*
X145732500Y-67468750D03*
%TD*%
D14*
%TO.C,SW12*%
X131762500Y-65087500D03*
D15*
X134302500Y-60007500D03*
D16*
X136842500Y-65087500D03*
D15*
X127952500Y-62547500D03*
D16*
X126682500Y-65087500D03*
%TD*%
D14*
%TO.C,SW11*%
X112712500Y-60325000D03*
D15*
X115252500Y-55245000D03*
D16*
X117792500Y-60325000D03*
D15*
X108902500Y-57785000D03*
D16*
X107632500Y-60325000D03*
%TD*%
D14*
%TO.C,SW10*%
X93662500Y-65087500D03*
D15*
X96202500Y-60007500D03*
D16*
X98742500Y-65087500D03*
D15*
X89852500Y-62547500D03*
D16*
X88582500Y-65087500D03*
%TD*%
D14*
%TO.C,SW9*%
X74612500Y-72231250D03*
D15*
X77152500Y-67151250D03*
D16*
X79692500Y-72231250D03*
D15*
X70802500Y-69691250D03*
D16*
X69532500Y-72231250D03*
%TD*%
D14*
%TO.C,SW8*%
X55562500Y-74612500D03*
D15*
X58102500Y-69532500D03*
D16*
X60642500Y-74612500D03*
D15*
X51752500Y-72072500D03*
D16*
X50482500Y-74612500D03*
%TD*%
D14*
%TO.C,SW7*%
X150812500Y-48418750D03*
D15*
X153352500Y-43338750D03*
D16*
X155892500Y-48418750D03*
D15*
X147002500Y-45878750D03*
D16*
X145732500Y-48418750D03*
%TD*%
D14*
%TO.C,SW6*%
X131762500Y-46037500D03*
D15*
X134302500Y-40957500D03*
D16*
X136842500Y-46037500D03*
D15*
X127952500Y-43497500D03*
D16*
X126682500Y-46037500D03*
%TD*%
D14*
%TO.C,SW5*%
X112712500Y-41275000D03*
D15*
X115252500Y-36195000D03*
D16*
X117792500Y-41275000D03*
D15*
X108902500Y-38735000D03*
D16*
X107632500Y-41275000D03*
%TD*%
D14*
%TO.C,SW4*%
X93662500Y-46037500D03*
D15*
X96202500Y-40957500D03*
D16*
X98742500Y-46037500D03*
D15*
X89852500Y-43497500D03*
D16*
X88582500Y-46037500D03*
%TD*%
D14*
%TO.C,SW3*%
X74612500Y-53181250D03*
D15*
X77152500Y-48101250D03*
D16*
X79692500Y-53181250D03*
D15*
X70802500Y-50641250D03*
D16*
X69532500Y-53181250D03*
%TD*%
D14*
%TO.C,SW2*%
X55562500Y-55562500D03*
D15*
X58102500Y-50482500D03*
D16*
X60642500Y-55562500D03*
D15*
X51752500Y-53022500D03*
D16*
X50482500Y-55562500D03*
%TD*%
%TO.C,R8*%
G36*
G01*
X166185001Y-73037500D02*
X165284999Y-73037500D01*
G75*
G02*
X165035000Y-72787501I0J249999D01*
G01*
X165035000Y-72087499D01*
G75*
G02*
X165284999Y-71837500I249999J0D01*
G01*
X166185001Y-71837500D01*
G75*
G02*
X166435000Y-72087499I0J-249999D01*
G01*
X166435000Y-72787501D01*
G75*
G02*
X166185001Y-73037500I-249999J0D01*
G01*
G37*
G36*
G01*
X166185001Y-71037500D02*
X165284999Y-71037500D01*
G75*
G02*
X165035000Y-70787501I0J249999D01*
G01*
X165035000Y-70087499D01*
G75*
G02*
X165284999Y-69837500I249999J0D01*
G01*
X166185001Y-69837500D01*
G75*
G02*
X166435000Y-70087499I0J-249999D01*
G01*
X166435000Y-70787501D01*
G75*
G02*
X166185001Y-71037500I-249999J0D01*
G01*
G37*
%TD*%
%TO.C,R7*%
G36*
G01*
X161474999Y-49993750D02*
X162375001Y-49993750D01*
G75*
G02*
X162625000Y-50243749I0J-249999D01*
G01*
X162625000Y-50943751D01*
G75*
G02*
X162375001Y-51193750I-249999J0D01*
G01*
X161474999Y-51193750D01*
G75*
G02*
X161225000Y-50943751I0J249999D01*
G01*
X161225000Y-50243749D01*
G75*
G02*
X161474999Y-49993750I249999J0D01*
G01*
G37*
G36*
G01*
X161474999Y-51993750D02*
X162375001Y-51993750D01*
G75*
G02*
X162625000Y-52243749I0J-249999D01*
G01*
X162625000Y-52943751D01*
G75*
G02*
X162375001Y-53193750I-249999J0D01*
G01*
X161474999Y-53193750D01*
G75*
G02*
X161225000Y-52943751I0J249999D01*
G01*
X161225000Y-52243749D01*
G75*
G02*
X161474999Y-51993750I249999J0D01*
G01*
G37*
%TD*%
%TO.C,R5*%
G36*
G01*
X178250001Y-53193750D02*
X177349999Y-53193750D01*
G75*
G02*
X177100000Y-52943751I0J249999D01*
G01*
X177100000Y-52243749D01*
G75*
G02*
X177349999Y-51993750I249999J0D01*
G01*
X178250001Y-51993750D01*
G75*
G02*
X178500000Y-52243749I0J-249999D01*
G01*
X178500000Y-52943751D01*
G75*
G02*
X178250001Y-53193750I-249999J0D01*
G01*
G37*
G36*
G01*
X178250001Y-51193750D02*
X177349999Y-51193750D01*
G75*
G02*
X177100000Y-50943751I0J249999D01*
G01*
X177100000Y-50243749D01*
G75*
G02*
X177349999Y-49993750I249999J0D01*
G01*
X178250001Y-49993750D01*
G75*
G02*
X178500000Y-50243749I0J-249999D01*
G01*
X178500000Y-50943751D01*
G75*
G02*
X178250001Y-51193750I-249999J0D01*
G01*
G37*
%TD*%
%TO.C,R4*%
G36*
G01*
X167666249Y-69837500D02*
X168566251Y-69837500D01*
G75*
G02*
X168816250Y-70087499I0J-249999D01*
G01*
X168816250Y-70787501D01*
G75*
G02*
X168566251Y-71037500I-249999J0D01*
G01*
X167666249Y-71037500D01*
G75*
G02*
X167416250Y-70787501I0J249999D01*
G01*
X167416250Y-70087499D01*
G75*
G02*
X167666249Y-69837500I249999J0D01*
G01*
G37*
G36*
G01*
X167666249Y-71837500D02*
X168566251Y-71837500D01*
G75*
G02*
X168816250Y-72087499I0J-249999D01*
G01*
X168816250Y-72787501D01*
G75*
G02*
X168566251Y-73037500I-249999J0D01*
G01*
X167666249Y-73037500D01*
G75*
G02*
X167416250Y-72787501I0J249999D01*
G01*
X167416250Y-72087499D01*
G75*
G02*
X167666249Y-71837500I249999J0D01*
G01*
G37*
%TD*%
%TO.C,R3*%
G36*
G01*
X173297001Y-73037500D02*
X172396999Y-73037500D01*
G75*
G02*
X172147000Y-72787501I0J249999D01*
G01*
X172147000Y-72087499D01*
G75*
G02*
X172396999Y-71837500I249999J0D01*
G01*
X173297001Y-71837500D01*
G75*
G02*
X173547000Y-72087499I0J-249999D01*
G01*
X173547000Y-72787501D01*
G75*
G02*
X173297001Y-73037500I-249999J0D01*
G01*
G37*
G36*
G01*
X173297001Y-71037500D02*
X172396999Y-71037500D01*
G75*
G02*
X172147000Y-70787501I0J249999D01*
G01*
X172147000Y-70087499D01*
G75*
G02*
X172396999Y-69837500I249999J0D01*
G01*
X173297001Y-69837500D01*
G75*
G02*
X173547000Y-70087499I0J-249999D01*
G01*
X173547000Y-70787501D01*
G75*
G02*
X173297001Y-71037500I-249999J0D01*
G01*
G37*
%TD*%
%TO.C,R2*%
G36*
G01*
X168287500Y-52191499D02*
X168287500Y-53091501D01*
G75*
G02*
X168037501Y-53341500I-249999J0D01*
G01*
X167337499Y-53341500D01*
G75*
G02*
X167087500Y-53091501I0J249999D01*
G01*
X167087500Y-52191499D01*
G75*
G02*
X167337499Y-51941500I249999J0D01*
G01*
X168037501Y-51941500D01*
G75*
G02*
X168287500Y-52191499I0J-249999D01*
G01*
G37*
G36*
G01*
X166287500Y-52191499D02*
X166287500Y-53091501D01*
G75*
G02*
X166037501Y-53341500I-249999J0D01*
G01*
X165337499Y-53341500D01*
G75*
G02*
X165087500Y-53091501I0J249999D01*
G01*
X165087500Y-52191499D01*
G75*
G02*
X165337499Y-51941500I249999J0D01*
G01*
X166037501Y-51941500D01*
G75*
G02*
X166287500Y-52191499I0J-249999D01*
G01*
G37*
%TD*%
%TO.C,R1*%
G36*
G01*
X171437500Y-53091501D02*
X171437500Y-52191499D01*
G75*
G02*
X171687499Y-51941500I249999J0D01*
G01*
X172387501Y-51941500D01*
G75*
G02*
X172637500Y-52191499I0J-249999D01*
G01*
X172637500Y-53091501D01*
G75*
G02*
X172387501Y-53341500I-249999J0D01*
G01*
X171687499Y-53341500D01*
G75*
G02*
X171437500Y-53091501I0J249999D01*
G01*
G37*
G36*
G01*
X173437500Y-53091501D02*
X173437500Y-52191499D01*
G75*
G02*
X173687499Y-51941500I249999J0D01*
G01*
X174387501Y-51941500D01*
G75*
G02*
X174637500Y-52191499I0J-249999D01*
G01*
X174637500Y-53091501D01*
G75*
G02*
X174387501Y-53341500I-249999J0D01*
G01*
X173687499Y-53341500D01*
G75*
G02*
X173437500Y-53091501I0J249999D01*
G01*
G37*
%TD*%
%TO.C,LED2*%
G36*
G01*
X163803751Y-73037500D02*
X162903749Y-73037500D01*
G75*
G02*
X162653750Y-72787501I0J249999D01*
G01*
X162653750Y-72137499D01*
G75*
G02*
X162903749Y-71887500I249999J0D01*
G01*
X163803751Y-71887500D01*
G75*
G02*
X164053750Y-72137499I0J-249999D01*
G01*
X164053750Y-72787501D01*
G75*
G02*
X163803751Y-73037500I-249999J0D01*
G01*
G37*
G36*
G01*
X163803751Y-70987500D02*
X162903749Y-70987500D01*
G75*
G02*
X162653750Y-70737501I0J249999D01*
G01*
X162653750Y-70087499D01*
G75*
G02*
X162903749Y-69837500I249999J0D01*
G01*
X163803751Y-69837500D01*
G75*
G02*
X164053750Y-70087499I0J-249999D01*
G01*
X164053750Y-70737501D01*
G75*
G02*
X163803751Y-70987500I-249999J0D01*
G01*
G37*
%TD*%
%TO.C,LED1*%
G36*
G01*
X175678251Y-73037500D02*
X174778249Y-73037500D01*
G75*
G02*
X174528250Y-72787501I0J249999D01*
G01*
X174528250Y-72137499D01*
G75*
G02*
X174778249Y-71887500I249999J0D01*
G01*
X175678251Y-71887500D01*
G75*
G02*
X175928250Y-72137499I0J-249999D01*
G01*
X175928250Y-72787501D01*
G75*
G02*
X175678251Y-73037500I-249999J0D01*
G01*
G37*
G36*
G01*
X175678251Y-70987500D02*
X174778249Y-70987500D01*
G75*
G02*
X174528250Y-70737501I0J249999D01*
G01*
X174528250Y-70087499D01*
G75*
G02*
X174778249Y-69837500I249999J0D01*
G01*
X175678251Y-69837500D01*
G75*
G02*
X175928250Y-70087499I0J-249999D01*
G01*
X175928250Y-70737501D01*
G75*
G02*
X175678251Y-70987500I-249999J0D01*
G01*
G37*
%TD*%
D23*
%TO.C,J4*%
X204787500Y-80962500D03*
D22*
X202247500Y-80962500D03*
%TD*%
D23*
%TO.C,J1*%
X165100000Y-80962500D03*
D22*
X167640000Y-80962500D03*
%TD*%
M02*
