%TF.GenerationSoftware,KiCad,Pcbnew,(5.1.7)-1*%
%TF.CreationDate,2021-02-08T18:02:38+08:00*%
%TF.ProjectId,jiran-ble,6a697261-6e2d-4626-9c65-2e6b69636164,rev?*%
%TF.SameCoordinates,Original*%
%TF.FileFunction,Profile,NP*%
%FSLAX46Y46*%
G04 Gerber Fmt 4.6, Leading zero omitted, Abs format (unit mm)*
G04 Created by KiCad (PCBNEW (5.1.7)-1) date 2021-02-08 18:02:38*
%MOMM*%
%LPD*%
G01*
G04 APERTURE LIST*
%TA.AperFunction,Profile*%
%ADD10C,0.100000*%
%TD*%
G04 APERTURE END LIST*
D10*
X194065400Y-114931700D02*
G75*
G02*
X193065400Y-113931700I0J1000000D01*
G01*
X206562200Y-113935000D02*
G75*
G02*
X205562200Y-114935000I-1000000J0D01*
G01*
X205565500Y-83188300D02*
G75*
G02*
X206565500Y-84188300I0J-1000000D01*
G01*
X193068700Y-84185000D02*
G75*
G02*
X194068700Y-83185000I1000000J0D01*
G01*
X193862200Y-66716400D02*
G75*
G02*
X192862200Y-67716400I-1000000J0D01*
G01*
X190503300Y-68716400D02*
G75*
G02*
X191503300Y-67716400I1000000J0D01*
G01*
X191500000Y-136521700D02*
G75*
G02*
X190500000Y-135521700I0J1000000D01*
G01*
X209559400Y-135525000D02*
G75*
G02*
X208559400Y-136525000I-1000000J0D01*
G01*
X209553300Y-135137400D02*
G75*
G02*
X210553300Y-134137400I1000000J0D01*
G01*
X228609400Y-133137400D02*
G75*
G02*
X227609400Y-134137400I-1000000J0D01*
G01*
X228603300Y-132762500D02*
G75*
G02*
X229603300Y-131762500I1000000J0D01*
G01*
X247646700Y-130762500D02*
G75*
G02*
X246646700Y-131762500I-1000000J0D01*
G01*
X247653300Y-108950000D02*
G75*
G02*
X248653300Y-107950000I1000000J0D01*
G01*
X265700000Y-107953300D02*
G75*
G02*
X266700000Y-108953300I0J-1000000D01*
G01*
X267700000Y-112709200D02*
G75*
G02*
X266700000Y-111709200I0J1000000D01*
G01*
X284750000Y-112715800D02*
G75*
G02*
X285750000Y-113715800I0J-1000000D01*
G01*
X286750000Y-119859300D02*
G75*
G02*
X285750000Y-118859300I0J1000000D01*
G01*
X303800000Y-119853200D02*
G75*
G02*
X304800000Y-120853200I0J-1000000D01*
G01*
X305800000Y-122234200D02*
G75*
G02*
X304800000Y-121234200I0J1000000D01*
G01*
X323846700Y-121237500D02*
G75*
G02*
X322846700Y-122237500I-1000000J0D01*
G01*
X323853300Y-99425000D02*
G75*
G02*
X324853300Y-98425000I1000000J0D01*
G01*
X342896700Y-97425000D02*
G75*
G02*
X341896700Y-98425000I-1000000J0D01*
G01*
X341900000Y-79378300D02*
G75*
G02*
X342900000Y-80378300I0J-1000000D01*
G01*
X324850000Y-79371700D02*
G75*
G02*
X323850000Y-78371700I0J1000000D01*
G01*
X322850000Y-46040800D02*
G75*
G02*
X323850000Y-47040800I0J-1000000D01*
G01*
X305800000Y-46034200D02*
G75*
G02*
X304800000Y-45034200I0J1000000D01*
G01*
X303800000Y-43653200D02*
G75*
G02*
X304800000Y-44653200I0J-1000000D01*
G01*
X286750000Y-43659300D02*
G75*
G02*
X285750000Y-42659300I0J1000000D01*
G01*
X284750000Y-36515800D02*
G75*
G02*
X285750000Y-37515800I0J-1000000D01*
G01*
X267700000Y-36509200D02*
G75*
G02*
X266700000Y-35509200I0J1000000D01*
G01*
X265700000Y-31753300D02*
G75*
G02*
X266700000Y-32753300I0J-1000000D01*
G01*
X247640600Y-32750000D02*
G75*
G02*
X248640600Y-31750000I1000000J0D01*
G01*
X247646700Y-35512500D02*
G75*
G02*
X246646700Y-36512500I-1000000J0D01*
G01*
X228590600Y-37512500D02*
G75*
G02*
X229590600Y-36512500I1000000J0D01*
G01*
X228596700Y-37900100D02*
G75*
G02*
X227596700Y-38900100I-1000000J0D01*
G01*
X209553300Y-39900100D02*
G75*
G02*
X210553300Y-38900100I1000000J0D01*
G01*
X209546700Y-42649900D02*
G75*
G02*
X208546700Y-43649900I-1000000J0D01*
G01*
X190503300Y-44649900D02*
G75*
G02*
X191503300Y-43649900I1000000J0D01*
G01*
X191500000Y-54517800D02*
G75*
G02*
X190500000Y-53517800I0J1000000D01*
G01*
X192865500Y-54511700D02*
G75*
G02*
X193865500Y-55511700I0J-1000000D01*
G01*
X175822100Y-83175600D02*
G75*
G02*
X176822100Y-84175600I0J-1000000D01*
G01*
X176818800Y-113935000D02*
G75*
G02*
X175818800Y-114935000I-1000000J0D01*
G01*
X164322000Y-114931700D02*
G75*
G02*
X163322000Y-113931700I0J1000000D01*
G01*
X163325300Y-84185000D02*
G75*
G02*
X164325300Y-83185000I1000000J0D01*
G01*
X179384200Y-135525000D02*
G75*
G02*
X178384200Y-136525000I-1000000J0D01*
G01*
X161337500Y-136521700D02*
G75*
G02*
X160337500Y-135521700I0J1000000D01*
G01*
X159337500Y-134140700D02*
G75*
G02*
X160337500Y-135140700I0J-1000000D01*
G01*
X142287500Y-134146800D02*
G75*
G02*
X141287500Y-133146800I0J1000000D01*
G01*
X140287500Y-131765800D02*
G75*
G02*
X141287500Y-132765800I0J-1000000D01*
G01*
X123237500Y-131759200D02*
G75*
G02*
X122237500Y-130759200I0J1000000D01*
G01*
X121237500Y-107953300D02*
G75*
G02*
X122237500Y-108953300I0J-1000000D01*
G01*
X103190800Y-108950000D02*
G75*
G02*
X104190800Y-107950000I1000000J0D01*
G01*
X103184200Y-111712500D02*
G75*
G02*
X102184200Y-112712500I-1000000J0D01*
G01*
X84140800Y-113712500D02*
G75*
G02*
X85140800Y-112712500I1000000J0D01*
G01*
X84134200Y-118862600D02*
G75*
G02*
X83134200Y-119862600I-1000000J0D01*
G01*
X65078100Y-120849900D02*
G75*
G02*
X66078100Y-119849900I1000000J0D01*
G01*
X65084200Y-121237500D02*
G75*
G02*
X64084200Y-122237500I-1000000J0D01*
G01*
X47037500Y-122234200D02*
G75*
G02*
X46037500Y-121234200I0J1000000D01*
G01*
X45037500Y-98428300D02*
G75*
G02*
X46037500Y-99428300I0J-1000000D01*
G01*
X27987500Y-98421700D02*
G75*
G02*
X26987500Y-97421700I0J1000000D01*
G01*
X26990800Y-80375000D02*
G75*
G02*
X27990800Y-79375000I1000000J0D01*
G01*
X46034200Y-78375000D02*
G75*
G02*
X45034200Y-79375000I-1000000J0D01*
G01*
X46040800Y-47037500D02*
G75*
G02*
X47040800Y-46037500I1000000J0D01*
G01*
X176025300Y-55508400D02*
G75*
G02*
X177025300Y-54508400I1000000J0D01*
G01*
X177022000Y-67725800D02*
G75*
G02*
X176022000Y-66725800I0J1000000D01*
G01*
X178387500Y-67719700D02*
G75*
G02*
X179387500Y-68719700I0J-1000000D01*
G01*
X179384200Y-53508400D02*
G75*
G02*
X178384200Y-54508400I-1000000J0D01*
G01*
X65084200Y-45037500D02*
G75*
G02*
X64084200Y-46037500I-1000000J0D01*
G01*
X65090800Y-44649900D02*
G75*
G02*
X66090800Y-43649900I1000000J0D01*
G01*
X84134200Y-42649900D02*
G75*
G02*
X83134200Y-43649900I-1000000J0D01*
G01*
X84140800Y-37512500D02*
G75*
G02*
X85140800Y-36512500I1000000J0D01*
G01*
X103196900Y-35512500D02*
G75*
G02*
X102196900Y-36512500I-1000000J0D01*
G01*
X103190800Y-32750000D02*
G75*
G02*
X104190800Y-31750000I1000000J0D01*
G01*
X121237500Y-31753300D02*
G75*
G02*
X122237500Y-32753300I0J-1000000D01*
G01*
X123224800Y-36509200D02*
G75*
G02*
X122224800Y-35509200I0J1000000D01*
G01*
X178384960Y-43653200D02*
G75*
G02*
X179384960Y-44653200I0J-1000000D01*
G01*
X161340040Y-43656760D02*
G75*
G02*
X160340040Y-42656760I0J1000000D01*
G01*
X140284200Y-36509960D02*
G75*
G02*
X141284200Y-37509960I0J-1000000D01*
G01*
X159337500Y-38892480D02*
G75*
G02*
X160337500Y-39892480I0J-1000000D01*
G01*
X142284960Y-38891720D02*
G75*
G02*
X141284960Y-37891720I0J1000000D01*
G01*
X206562200Y-113935000D02*
X206565500Y-84188300D01*
X193068700Y-84185000D02*
X193065400Y-113931700D01*
X194068700Y-83185000D02*
X205565500Y-83188300D01*
X194065400Y-114931700D02*
X205562200Y-114935000D01*
X204584300Y-43656250D02*
X208546700Y-43649900D01*
X195491100Y-43656250D02*
X191503300Y-43649900D01*
X190500000Y-53517800D02*
X190503300Y-44649900D01*
X204584300Y-49479200D02*
X204584300Y-43656250D01*
X195491100Y-49479200D02*
X204584300Y-49479200D01*
X195491100Y-43656250D02*
X195491100Y-49479200D01*
X192865500Y-54511700D02*
X191500000Y-54517800D01*
X191503300Y-67716400D02*
X192862200Y-67716400D01*
X193862200Y-66716400D02*
X193865500Y-55511700D01*
X190500000Y-135521700D02*
X190503300Y-68716400D01*
X209553300Y-39900100D02*
X209546700Y-42649900D01*
X227596700Y-38900100D02*
X210553300Y-38900100D01*
X228590600Y-37512500D02*
X228596700Y-37900100D01*
X246646700Y-36512500D02*
X229590600Y-36512500D01*
X247640600Y-32750000D02*
X247646700Y-35512500D01*
X265700000Y-31753300D02*
X248640600Y-31750000D01*
X266700000Y-35509200D02*
X266700000Y-32753300D01*
X284750000Y-36515800D02*
X267700000Y-36509200D01*
X285750000Y-42659300D02*
X285750000Y-37515800D01*
X303800000Y-43653200D02*
X286750000Y-43659300D01*
X304800000Y-45034200D02*
X304800000Y-44653200D01*
X322850000Y-46040800D02*
X305800000Y-46034200D01*
X323850000Y-78371700D02*
X323850000Y-47040800D01*
X341900000Y-79378300D02*
X324850000Y-79371700D01*
X342896700Y-97425000D02*
X342900000Y-80378300D01*
X324853300Y-98425000D02*
X341896700Y-98425000D01*
X323846700Y-121237500D02*
X323853300Y-99425000D01*
X305800000Y-122234200D02*
X322846700Y-122237500D01*
X304800000Y-120853200D02*
X304800000Y-121234200D01*
X286750000Y-119859300D02*
X303800000Y-119853200D01*
X285750000Y-113715800D02*
X285750000Y-118859300D01*
X267700000Y-112709200D02*
X284750000Y-112715800D01*
X266700000Y-108953300D02*
X266700000Y-111709200D01*
X248653300Y-107950000D02*
X265700000Y-107953300D01*
X247646700Y-130762500D02*
X247653300Y-108950000D01*
X229603300Y-131762500D02*
X246646700Y-131762500D01*
X228609400Y-133137400D02*
X228603300Y-132762500D01*
X210553300Y-134137400D02*
X227609400Y-134137400D01*
X209559400Y-135525000D02*
X209553300Y-135137400D01*
X191500000Y-136521700D02*
X208559400Y-136525000D01*
X163322000Y-113931700D02*
X163325300Y-84185000D01*
X175818800Y-114935000D02*
X164322000Y-114931700D01*
X176822100Y-84175600D02*
X176818800Y-113935000D01*
X164325300Y-83185000D02*
X175822100Y-83175600D01*
X179384200Y-53508400D02*
X179384960Y-44653200D01*
X177025300Y-54508400D02*
X178384200Y-54508400D01*
X176022000Y-66725800D02*
X176025300Y-55508400D01*
X178387500Y-67719700D02*
X177022000Y-67725800D01*
X165303200Y-43656250D02*
X161340040Y-43656760D01*
X165303200Y-49479200D02*
X165303200Y-43656250D01*
X174396400Y-49479200D02*
X165303200Y-49479200D01*
X174396400Y-43656250D02*
X174396400Y-49479200D01*
X161337500Y-136521700D02*
X178384200Y-136525000D01*
X160337500Y-135140700D02*
X160337500Y-135521700D01*
X142287500Y-134146800D02*
X159337500Y-134140700D01*
X141287500Y-132765800D02*
X141287500Y-133146800D01*
X123237500Y-131759200D02*
X140287500Y-131765800D01*
X122237500Y-108953300D02*
X122237500Y-130759200D01*
X104190800Y-107950000D02*
X121237500Y-107953300D01*
X103184200Y-111712500D02*
X103190800Y-108950000D01*
X85140800Y-112712500D02*
X102184200Y-112712500D01*
X84134200Y-118862600D02*
X84140800Y-113712500D01*
X66078100Y-119849900D02*
X83134200Y-119862600D01*
X65084200Y-121237500D02*
X65078100Y-120849900D01*
X47037500Y-122234200D02*
X64084200Y-122237500D01*
X46037500Y-99428300D02*
X46037500Y-121234200D01*
X27987500Y-98421700D02*
X45037500Y-98428300D01*
X26990800Y-80375000D02*
X26987500Y-97421700D01*
X45034200Y-79375000D02*
X27990800Y-79375000D01*
X46040800Y-47037500D02*
X46034200Y-78375000D01*
X64084200Y-46037500D02*
X47040800Y-46037500D01*
X65090800Y-44649900D02*
X65084200Y-45037500D01*
X83134200Y-43649900D02*
X66090800Y-43649900D01*
X84140800Y-37512500D02*
X84134200Y-42649900D01*
X102196900Y-36512500D02*
X85140800Y-36512500D01*
X103190800Y-32750000D02*
X103196900Y-35512500D01*
X121237500Y-31753300D02*
X104190800Y-31750000D01*
X122224800Y-35509200D02*
X122237500Y-32753300D01*
X140284200Y-36509960D02*
X123224800Y-36509200D01*
X141284960Y-37891720D02*
X141284200Y-37509960D01*
X159337500Y-38892480D02*
X142284960Y-38891720D01*
X160340040Y-42656760D02*
X160337500Y-39892480D01*
X174396400Y-43656250D02*
X178384960Y-43653200D01*
X179384200Y-135525000D02*
X179387500Y-68719700D01*
M02*
