%TF.GenerationSoftware,KiCad,Pcbnew,(5.1.7)-1*%
%TF.CreationDate,2021-02-08T18:02:38+08:00*%
%TF.ProjectId,jiran-ble,6a697261-6e2d-4626-9c65-2e6b69636164,rev?*%
%TF.SameCoordinates,Original*%
%TF.FileFunction,Soldermask,Top*%
%TF.FilePolarity,Negative*%
%FSLAX46Y46*%
G04 Gerber Fmt 4.6, Leading zero omitted, Abs format (unit mm)*
G04 Created by KiCad (PCBNEW (5.1.7)-1) date 2021-02-08 18:02:38*
%MOMM*%
%LPD*%
G01*
G04 APERTURE LIST*
%ADD10R,0.650000X1.000000*%
%ADD11R,1.000000X0.650000*%
%ADD12C,3.987800*%
%ADD13C,3.000000*%
%ADD14C,1.750000*%
%ADD15R,0.900000X0.900000*%
%ADD16R,0.900000X0.500000*%
%ADD17C,1.000000*%
%ADD18R,0.300000X1.250000*%
%ADD19R,0.540000X1.250000*%
%ADD20O,1.700000X1.700000*%
%ADD21R,1.700000X1.700000*%
%ADD22C,4.200000*%
G04 APERTURE END LIST*
D10*
%TO.C,U5*%
X196155000Y-67237750D03*
X204283000Y-57077750D03*
X200473000Y-57077750D03*
D11*
X208534000Y-56698750D03*
D10*
X199965000Y-67237750D03*
X197425000Y-67237750D03*
D11*
X206823000Y-62411750D03*
D10*
X197425000Y-54999750D03*
D11*
X206823000Y-59871750D03*
X208534000Y-64318750D03*
D10*
X205045000Y-67237750D03*
X198695000Y-54999750D03*
D11*
X206823000Y-63681750D03*
X206823000Y-58601750D03*
D10*
X195393000Y-57077750D03*
X199965000Y-54999750D03*
X203013000Y-57077750D03*
X201235000Y-67237750D03*
X202505000Y-67237750D03*
X197933000Y-57077750D03*
X206315000Y-67237750D03*
X206315000Y-54999750D03*
X199203000Y-57077750D03*
D11*
X208534000Y-65588750D03*
D10*
X201743000Y-57077750D03*
X194885000Y-67237750D03*
X196663000Y-57077750D03*
D11*
X208534000Y-57968750D03*
D10*
X205045000Y-54999750D03*
X196155000Y-54999750D03*
D11*
X208534000Y-63048750D03*
D10*
X202505000Y-54999750D03*
D11*
X208534000Y-61778750D03*
D10*
X194885000Y-54999750D03*
D11*
X206823000Y-64951750D03*
X208534000Y-59238750D03*
X206823000Y-61141750D03*
X208534000Y-60508750D03*
D10*
X203775000Y-67237750D03*
X198695000Y-67237750D03*
D11*
X206823000Y-57331750D03*
D10*
X201235000Y-54999750D03*
X203775000Y-54999750D03*
%TD*%
%TO.C,U2*%
X173732500Y-54999750D03*
X165604500Y-65159750D03*
X169414500Y-65159750D03*
D11*
X161353500Y-65538750D03*
D10*
X169922500Y-54999750D03*
X172462500Y-54999750D03*
D11*
X163064500Y-59825750D03*
D10*
X172462500Y-67237750D03*
D11*
X163064500Y-62365750D03*
X161353500Y-57918750D03*
D10*
X164842500Y-54999750D03*
X171192500Y-67237750D03*
D11*
X163064500Y-58555750D03*
X163064500Y-63635750D03*
D10*
X174494500Y-65159750D03*
X169922500Y-67237750D03*
X166874500Y-65159750D03*
X168652500Y-54999750D03*
X167382500Y-54999750D03*
X171954500Y-65159750D03*
X163572500Y-54999750D03*
X163572500Y-67237750D03*
X170684500Y-65159750D03*
D11*
X161353500Y-56648750D03*
D10*
X168144500Y-65159750D03*
X175002500Y-54999750D03*
X173224500Y-65159750D03*
D11*
X161353500Y-64268750D03*
D10*
X164842500Y-67237750D03*
X173732500Y-67237750D03*
D11*
X161353500Y-59188750D03*
D10*
X167382500Y-67237750D03*
D11*
X161353500Y-60458750D03*
D10*
X175002500Y-67237750D03*
D11*
X163064500Y-57285750D03*
X161353500Y-62998750D03*
X163064500Y-61095750D03*
X161353500Y-61728750D03*
D10*
X166112500Y-54999750D03*
X171192500Y-54999750D03*
D11*
X163064500Y-64905750D03*
D10*
X168652500Y-67237750D03*
X166112500Y-67237750D03*
%TD*%
D12*
%TO.C,SW32*%
X295275000Y-53181250D03*
D13*
X297815000Y-48101250D03*
D14*
X300355000Y-53181250D03*
D13*
X291465000Y-50641250D03*
D14*
X290195000Y-53181250D03*
%TD*%
D12*
%TO.C,SW31*%
X314325000Y-55562500D03*
D13*
X316865000Y-50482500D03*
D14*
X319405000Y-55562500D03*
D13*
X310515000Y-53022500D03*
D14*
X309245000Y-55562500D03*
%TD*%
D12*
%TO.C,SW29*%
X169862500Y-127000000D03*
D13*
X172402500Y-121920000D03*
D14*
X174942500Y-127000000D03*
D13*
X166052500Y-124460000D03*
D14*
X164782500Y-127000000D03*
%TD*%
D15*
%TO.C,SW1*%
X176800000Y-80332000D03*
X176800000Y-76132000D03*
D16*
X178900000Y-82032000D03*
X178900000Y-74432000D03*
D17*
X177800000Y-79332000D03*
X177800000Y-77132000D03*
%TD*%
%TO.C,R18*%
G36*
G01*
X199840001Y-72243750D02*
X198939999Y-72243750D01*
G75*
G02*
X198690000Y-71993751I0J249999D01*
G01*
X198690000Y-71293749D01*
G75*
G02*
X198939999Y-71043750I249999J0D01*
G01*
X199840001Y-71043750D01*
G75*
G02*
X200090000Y-71293749I0J-249999D01*
G01*
X200090000Y-71993751D01*
G75*
G02*
X199840001Y-72243750I-249999J0D01*
G01*
G37*
G36*
G01*
X199840001Y-70243750D02*
X198939999Y-70243750D01*
G75*
G02*
X198690000Y-69993751I0J249999D01*
G01*
X198690000Y-69293749D01*
G75*
G02*
X198939999Y-69043750I249999J0D01*
G01*
X199840001Y-69043750D01*
G75*
G02*
X200090000Y-69293749I0J-249999D01*
G01*
X200090000Y-69993751D01*
G75*
G02*
X199840001Y-70243750I-249999J0D01*
G01*
G37*
%TD*%
%TO.C,R17*%
G36*
G01*
X204570751Y-72243750D02*
X203670749Y-72243750D01*
G75*
G02*
X203420750Y-71993751I0J249999D01*
G01*
X203420750Y-71293749D01*
G75*
G02*
X203670749Y-71043750I249999J0D01*
G01*
X204570751Y-71043750D01*
G75*
G02*
X204820750Y-71293749I0J-249999D01*
G01*
X204820750Y-71993751D01*
G75*
G02*
X204570751Y-72243750I-249999J0D01*
G01*
G37*
G36*
G01*
X204570751Y-70243750D02*
X203670749Y-70243750D01*
G75*
G02*
X203420750Y-69993751I0J249999D01*
G01*
X203420750Y-69293749D01*
G75*
G02*
X203670749Y-69043750I249999J0D01*
G01*
X204570751Y-69043750D01*
G75*
G02*
X204820750Y-69293749I0J-249999D01*
G01*
X204820750Y-69993751D01*
G75*
G02*
X204570751Y-70243750I-249999J0D01*
G01*
G37*
%TD*%
D18*
%TO.C,J5*%
X200775000Y-50087500D03*
D17*
X205600300Y-44627800D03*
X205600300Y-44932600D03*
X194449700Y-45554900D03*
D18*
X199275000Y-50087500D03*
D19*
X197625000Y-50087500D03*
D17*
X194449700Y-45262800D03*
X194449700Y-44919900D03*
X194449700Y-44615100D03*
X194449400Y-44335700D03*
X205600300Y-45275500D03*
D18*
X201275000Y-50087500D03*
X199775000Y-50087500D03*
D19*
X202425000Y-50087500D03*
X196825000Y-50087500D03*
D17*
X194449700Y-49098200D03*
X194450000Y-49343500D03*
X194450000Y-48581500D03*
X194450000Y-48844200D03*
X205600600Y-49343500D03*
X205600600Y-48581500D03*
X205600300Y-49098200D03*
D19*
X203225000Y-50087500D03*
D18*
X198275000Y-50087500D03*
X200275000Y-50087500D03*
D17*
X205600600Y-48844200D03*
X205600300Y-45567600D03*
X205600000Y-44348400D03*
D18*
X201783000Y-50087500D03*
X198775000Y-50087500D03*
%TD*%
D20*
%TO.C,J3*%
X172720000Y-76993750D03*
D21*
X165100000Y-76993750D03*
D20*
X167640000Y-76993750D03*
X170180000Y-76993750D03*
%TD*%
D18*
%TO.C,J2*%
X170612500Y-50087500D03*
D17*
X175437800Y-44627800D03*
X175437800Y-44932600D03*
X164287200Y-45554900D03*
D18*
X169112500Y-50087500D03*
D19*
X167462500Y-50087500D03*
D17*
X164287200Y-45262800D03*
X164287200Y-44919900D03*
X164287200Y-44615100D03*
X164286900Y-44335700D03*
X175437800Y-45275500D03*
D18*
X171112500Y-50087500D03*
X169612500Y-50087500D03*
D19*
X172262500Y-50087500D03*
X166662500Y-50087500D03*
D17*
X164287200Y-49098200D03*
X164287500Y-49343500D03*
X164287500Y-48581500D03*
X164287500Y-48844200D03*
X175438100Y-49343500D03*
X175438100Y-48581500D03*
X175437800Y-49098200D03*
D19*
X173062500Y-50087500D03*
D18*
X168112500Y-50087500D03*
X170112500Y-50087500D03*
D17*
X175438100Y-48844200D03*
X175437800Y-45567600D03*
X175437500Y-44348400D03*
D18*
X171620500Y-50087500D03*
X168612500Y-50087500D03*
%TD*%
D22*
%TO.C,HM10*%
X323850000Y-84137500D03*
%TD*%
%TO.C,HM9*%
X304800000Y-101996875D03*
%TD*%
%TO.C,HM8*%
X304800000Y-63896875D03*
%TD*%
%TO.C,HM7*%
X228600000Y-56753125D03*
%TD*%
%TO.C,HM6*%
X228600000Y-113903125D03*
%TD*%
%TO.C,HM5*%
X46037500Y-84137500D03*
%TD*%
%TO.C,HM4*%
X65087500Y-101996875D03*
%TD*%
%TO.C,HM3*%
X65087500Y-63896875D03*
%TD*%
%TO.C,HM2*%
X141287500Y-56753125D03*
%TD*%
%TO.C,HM1*%
X141287500Y-113903125D03*
%TD*%
D12*
%TO.C,SW58*%
X200025000Y-127000000D03*
D13*
X202565000Y-121920000D03*
D14*
X205105000Y-127000000D03*
D13*
X196215000Y-124460000D03*
D14*
X194945000Y-127000000D03*
%TD*%
D12*
%TO.C,SW57*%
X219075000Y-124618750D03*
D13*
X221615000Y-119538750D03*
D14*
X224155000Y-124618750D03*
D13*
X215265000Y-122078750D03*
D14*
X213995000Y-124618750D03*
%TD*%
D12*
%TO.C,SW56*%
X238125000Y-122237500D03*
D13*
X240665000Y-117157500D03*
D14*
X243205000Y-122237500D03*
D13*
X234315000Y-119697500D03*
D14*
X233045000Y-122237500D03*
%TD*%
D12*
%TO.C,SW55*%
X333375000Y-88900000D03*
D13*
X335915000Y-83820000D03*
D14*
X338455000Y-88900000D03*
D13*
X329565000Y-86360000D03*
D14*
X328295000Y-88900000D03*
%TD*%
D12*
%TO.C,SW54*%
X219075000Y-105568750D03*
D13*
X221615000Y-100488750D03*
D14*
X224155000Y-105568750D03*
D13*
X215265000Y-103028750D03*
D14*
X213995000Y-105568750D03*
%TD*%
D12*
%TO.C,SW53*%
X238125000Y-103187500D03*
D13*
X240665000Y-98107500D03*
D14*
X243205000Y-103187500D03*
D13*
X234315000Y-100647500D03*
D14*
X233045000Y-103187500D03*
%TD*%
D12*
%TO.C,SW52*%
X257175000Y-98425000D03*
D13*
X259715000Y-93345000D03*
D14*
X262255000Y-98425000D03*
D13*
X253365000Y-95885000D03*
D14*
X252095000Y-98425000D03*
%TD*%
D12*
%TO.C,SW51*%
X276225000Y-103187500D03*
D13*
X278765000Y-98107500D03*
D14*
X281305000Y-103187500D03*
D13*
X272415000Y-100647500D03*
D14*
X271145000Y-103187500D03*
%TD*%
D12*
%TO.C,SW50*%
X295275000Y-110331250D03*
D13*
X297815000Y-105251250D03*
D14*
X300355000Y-110331250D03*
D13*
X291465000Y-107791250D03*
D14*
X290195000Y-110331250D03*
%TD*%
D12*
%TO.C,SW49*%
X314325000Y-112712500D03*
D13*
X316865000Y-107632500D03*
D14*
X319405000Y-112712500D03*
D13*
X310515000Y-110172500D03*
D14*
X309245000Y-112712500D03*
%TD*%
D12*
%TO.C,SW48*%
X219075000Y-86518750D03*
D13*
X221615000Y-81438750D03*
D14*
X224155000Y-86518750D03*
D13*
X215265000Y-83978750D03*
D14*
X213995000Y-86518750D03*
%TD*%
D12*
%TO.C,SW47*%
X238125000Y-84137500D03*
D13*
X240665000Y-79057500D03*
D14*
X243205000Y-84137500D03*
D13*
X234315000Y-81597500D03*
D14*
X233045000Y-84137500D03*
%TD*%
D12*
%TO.C,SW46*%
X257175000Y-79375000D03*
D13*
X259715000Y-74295000D03*
D14*
X262255000Y-79375000D03*
D13*
X253365000Y-76835000D03*
D14*
X252095000Y-79375000D03*
%TD*%
D12*
%TO.C,SW45*%
X276225000Y-84137500D03*
D13*
X278765000Y-79057500D03*
D14*
X281305000Y-84137500D03*
D13*
X272415000Y-81597500D03*
D14*
X271145000Y-84137500D03*
%TD*%
D12*
%TO.C,SW44*%
X295275000Y-91281250D03*
D13*
X297815000Y-86201250D03*
D14*
X300355000Y-91281250D03*
D13*
X291465000Y-88741250D03*
D14*
X290195000Y-91281250D03*
%TD*%
D12*
%TO.C,SW43*%
X314325000Y-93662500D03*
D13*
X316865000Y-88582500D03*
D14*
X319405000Y-93662500D03*
D13*
X310515000Y-91122500D03*
D14*
X309245000Y-93662500D03*
%TD*%
D12*
%TO.C,SW42*%
X219075000Y-67468750D03*
D13*
X221615000Y-62388750D03*
D14*
X224155000Y-67468750D03*
D13*
X215265000Y-64928750D03*
D14*
X213995000Y-67468750D03*
%TD*%
D12*
%TO.C,SW41*%
X238125000Y-65087500D03*
D13*
X240665000Y-60007500D03*
D14*
X243205000Y-65087500D03*
D13*
X234315000Y-62547500D03*
D14*
X233045000Y-65087500D03*
%TD*%
D12*
%TO.C,SW40*%
X257175000Y-60325000D03*
D13*
X259715000Y-55245000D03*
D14*
X262255000Y-60325000D03*
D13*
X253365000Y-57785000D03*
D14*
X252095000Y-60325000D03*
%TD*%
D12*
%TO.C,SW39*%
X276225000Y-65087500D03*
D13*
X278765000Y-60007500D03*
D14*
X281305000Y-65087500D03*
D13*
X272415000Y-62547500D03*
D14*
X271145000Y-65087500D03*
%TD*%
D12*
%TO.C,SW38*%
X295275000Y-72231250D03*
D13*
X297815000Y-67151250D03*
D14*
X300355000Y-72231250D03*
D13*
X291465000Y-69691250D03*
D14*
X290195000Y-72231250D03*
%TD*%
D12*
%TO.C,SW37*%
X314325000Y-74612500D03*
D13*
X316865000Y-69532500D03*
D14*
X319405000Y-74612500D03*
D13*
X310515000Y-72072500D03*
D14*
X309245000Y-74612500D03*
%TD*%
D12*
%TO.C,SW36*%
X219075000Y-48418750D03*
D13*
X221615000Y-43338750D03*
D14*
X224155000Y-48418750D03*
D13*
X215265000Y-45878750D03*
D14*
X213995000Y-48418750D03*
%TD*%
D12*
%TO.C,SW35*%
X238125000Y-46037500D03*
D13*
X240665000Y-40957500D03*
D14*
X243205000Y-46037500D03*
D13*
X234315000Y-43497500D03*
D14*
X233045000Y-46037500D03*
%TD*%
D12*
%TO.C,SW34*%
X257175000Y-41275000D03*
D13*
X259715000Y-36195000D03*
D14*
X262255000Y-41275000D03*
D13*
X253365000Y-38735000D03*
D14*
X252095000Y-41275000D03*
%TD*%
D12*
%TO.C,SW33*%
X276225000Y-46037500D03*
D13*
X278765000Y-40957500D03*
D14*
X281305000Y-46037500D03*
D13*
X272415000Y-43497500D03*
D14*
X271145000Y-46037500D03*
%TD*%
%TO.C,R16*%
G36*
G01*
X207512499Y-49993750D02*
X208412501Y-49993750D01*
G75*
G02*
X208662500Y-50243749I0J-249999D01*
G01*
X208662500Y-50943751D01*
G75*
G02*
X208412501Y-51193750I-249999J0D01*
G01*
X207512499Y-51193750D01*
G75*
G02*
X207262500Y-50943751I0J249999D01*
G01*
X207262500Y-50243749D01*
G75*
G02*
X207512499Y-49993750I249999J0D01*
G01*
G37*
G36*
G01*
X207512499Y-51993750D02*
X208412501Y-51993750D01*
G75*
G02*
X208662500Y-52243749I0J-249999D01*
G01*
X208662500Y-52943751D01*
G75*
G02*
X208412501Y-53193750I-249999J0D01*
G01*
X207512499Y-53193750D01*
G75*
G02*
X207262500Y-52943751I0J249999D01*
G01*
X207262500Y-52243749D01*
G75*
G02*
X207512499Y-51993750I249999J0D01*
G01*
G37*
%TD*%
%TO.C,R15*%
G36*
G01*
X202189501Y-72243750D02*
X201289499Y-72243750D01*
G75*
G02*
X201039500Y-71993751I0J249999D01*
G01*
X201039500Y-71293749D01*
G75*
G02*
X201289499Y-71043750I249999J0D01*
G01*
X202189501Y-71043750D01*
G75*
G02*
X202439500Y-71293749I0J-249999D01*
G01*
X202439500Y-71993751D01*
G75*
G02*
X202189501Y-72243750I-249999J0D01*
G01*
G37*
G36*
G01*
X202189501Y-70243750D02*
X201289499Y-70243750D01*
G75*
G02*
X201039500Y-69993751I0J249999D01*
G01*
X201039500Y-69293749D01*
G75*
G02*
X201289499Y-69043750I249999J0D01*
G01*
X202189501Y-69043750D01*
G75*
G02*
X202439500Y-69293749I0J-249999D01*
G01*
X202439500Y-69993751D01*
G75*
G02*
X202189501Y-70243750I-249999J0D01*
G01*
G37*
%TD*%
%TO.C,R13*%
G36*
G01*
X197458751Y-72243750D02*
X196558749Y-72243750D01*
G75*
G02*
X196308750Y-71993751I0J249999D01*
G01*
X196308750Y-71293749D01*
G75*
G02*
X196558749Y-71043750I249999J0D01*
G01*
X197458751Y-71043750D01*
G75*
G02*
X197708750Y-71293749I0J-249999D01*
G01*
X197708750Y-71993751D01*
G75*
G02*
X197458751Y-72243750I-249999J0D01*
G01*
G37*
G36*
G01*
X197458751Y-70243750D02*
X196558749Y-70243750D01*
G75*
G02*
X196308750Y-69993751I0J249999D01*
G01*
X196308750Y-69293749D01*
G75*
G02*
X196558749Y-69043750I249999J0D01*
G01*
X197458751Y-69043750D01*
G75*
G02*
X197708750Y-69293749I0J-249999D01*
G01*
X197708750Y-69993751D01*
G75*
G02*
X197458751Y-70243750I-249999J0D01*
G01*
G37*
%TD*%
%TO.C,R12*%
G36*
G01*
X192537501Y-53193750D02*
X191637499Y-53193750D01*
G75*
G02*
X191387500Y-52943751I0J249999D01*
G01*
X191387500Y-52243749D01*
G75*
G02*
X191637499Y-51993750I249999J0D01*
G01*
X192537501Y-51993750D01*
G75*
G02*
X192787500Y-52243749I0J-249999D01*
G01*
X192787500Y-52943751D01*
G75*
G02*
X192537501Y-53193750I-249999J0D01*
G01*
G37*
G36*
G01*
X192537501Y-51193750D02*
X191637499Y-51193750D01*
G75*
G02*
X191387500Y-50943751I0J249999D01*
G01*
X191387500Y-50243749D01*
G75*
G02*
X191637499Y-49993750I249999J0D01*
G01*
X192537501Y-49993750D01*
G75*
G02*
X192787500Y-50243749I0J-249999D01*
G01*
X192787500Y-50943751D01*
G75*
G02*
X192537501Y-51193750I-249999J0D01*
G01*
G37*
%TD*%
%TO.C,R11*%
G36*
G01*
X198450000Y-52191499D02*
X198450000Y-53091501D01*
G75*
G02*
X198200001Y-53341500I-249999J0D01*
G01*
X197499999Y-53341500D01*
G75*
G02*
X197250000Y-53091501I0J249999D01*
G01*
X197250000Y-52191499D01*
G75*
G02*
X197499999Y-51941500I249999J0D01*
G01*
X198200001Y-51941500D01*
G75*
G02*
X198450000Y-52191499I0J-249999D01*
G01*
G37*
G36*
G01*
X196450000Y-52191499D02*
X196450000Y-53091501D01*
G75*
G02*
X196200001Y-53341500I-249999J0D01*
G01*
X195499999Y-53341500D01*
G75*
G02*
X195250000Y-53091501I0J249999D01*
G01*
X195250000Y-52191499D01*
G75*
G02*
X195499999Y-51941500I249999J0D01*
G01*
X196200001Y-51941500D01*
G75*
G02*
X196450000Y-52191499I0J-249999D01*
G01*
G37*
%TD*%
%TO.C,R10*%
G36*
G01*
X201600000Y-53091501D02*
X201600000Y-52191499D01*
G75*
G02*
X201849999Y-51941500I249999J0D01*
G01*
X202550001Y-51941500D01*
G75*
G02*
X202800000Y-52191499I0J-249999D01*
G01*
X202800000Y-53091501D01*
G75*
G02*
X202550001Y-53341500I-249999J0D01*
G01*
X201849999Y-53341500D01*
G75*
G02*
X201600000Y-53091501I0J249999D01*
G01*
G37*
G36*
G01*
X203600000Y-53091501D02*
X203600000Y-52191499D01*
G75*
G02*
X203849999Y-51941500I249999J0D01*
G01*
X204550001Y-51941500D01*
G75*
G02*
X204800000Y-52191499I0J-249999D01*
G01*
X204800000Y-53091501D01*
G75*
G02*
X204550001Y-53341500I-249999J0D01*
G01*
X203849999Y-53341500D01*
G75*
G02*
X203600000Y-53091501I0J249999D01*
G01*
G37*
%TD*%
%TO.C,R9*%
G36*
G01*
X170015749Y-69837500D02*
X170915751Y-69837500D01*
G75*
G02*
X171165750Y-70087499I0J-249999D01*
G01*
X171165750Y-70787501D01*
G75*
G02*
X170915751Y-71037500I-249999J0D01*
G01*
X170015749Y-71037500D01*
G75*
G02*
X169765750Y-70787501I0J249999D01*
G01*
X169765750Y-70087499D01*
G75*
G02*
X170015749Y-69837500I249999J0D01*
G01*
G37*
G36*
G01*
X170015749Y-71837500D02*
X170915751Y-71837500D01*
G75*
G02*
X171165750Y-72087499I0J-249999D01*
G01*
X171165750Y-72787501D01*
G75*
G02*
X170915751Y-73037500I-249999J0D01*
G01*
X170015749Y-73037500D01*
G75*
G02*
X169765750Y-72787501I0J249999D01*
G01*
X169765750Y-72087499D01*
G75*
G02*
X170015749Y-71837500I249999J0D01*
G01*
G37*
%TD*%
%TO.C,LED4*%
G36*
G01*
X206952001Y-72243750D02*
X206051999Y-72243750D01*
G75*
G02*
X205802000Y-71993751I0J249999D01*
G01*
X205802000Y-71343749D01*
G75*
G02*
X206051999Y-71093750I249999J0D01*
G01*
X206952001Y-71093750D01*
G75*
G02*
X207202000Y-71343749I0J-249999D01*
G01*
X207202000Y-71993751D01*
G75*
G02*
X206952001Y-72243750I-249999J0D01*
G01*
G37*
G36*
G01*
X206952001Y-70193750D02*
X206051999Y-70193750D01*
G75*
G02*
X205802000Y-69943751I0J249999D01*
G01*
X205802000Y-69293749D01*
G75*
G02*
X206051999Y-69043750I249999J0D01*
G01*
X206952001Y-69043750D01*
G75*
G02*
X207202000Y-69293749I0J-249999D01*
G01*
X207202000Y-69943751D01*
G75*
G02*
X206952001Y-70193750I-249999J0D01*
G01*
G37*
%TD*%
%TO.C,LED3*%
G36*
G01*
X195077501Y-72243750D02*
X194177499Y-72243750D01*
G75*
G02*
X193927500Y-71993751I0J249999D01*
G01*
X193927500Y-71343749D01*
G75*
G02*
X194177499Y-71093750I249999J0D01*
G01*
X195077501Y-71093750D01*
G75*
G02*
X195327500Y-71343749I0J-249999D01*
G01*
X195327500Y-71993751D01*
G75*
G02*
X195077501Y-72243750I-249999J0D01*
G01*
G37*
G36*
G01*
X195077501Y-70193750D02*
X194177499Y-70193750D01*
G75*
G02*
X193927500Y-69943751I0J249999D01*
G01*
X193927500Y-69293749D01*
G75*
G02*
X194177499Y-69043750I249999J0D01*
G01*
X195077501Y-69043750D01*
G75*
G02*
X195327500Y-69293749I0J-249999D01*
G01*
X195327500Y-69943751D01*
G75*
G02*
X195077501Y-70193750I-249999J0D01*
G01*
G37*
%TD*%
D20*
%TO.C,J6*%
X197167500Y-76962000D03*
D21*
X204787500Y-76962000D03*
D20*
X202247500Y-76962000D03*
X199707500Y-76962000D03*
%TD*%
D15*
%TO.C,SW30*%
X193087500Y-76132000D03*
X193087500Y-80332000D03*
D16*
X190987500Y-74432000D03*
X190987500Y-82032000D03*
D17*
X192087500Y-77132000D03*
X192087500Y-79332000D03*
%TD*%
D12*
%TO.C,SW28*%
X150812500Y-124618750D03*
D13*
X153352500Y-119538750D03*
D14*
X155892500Y-124618750D03*
D13*
X147002500Y-122078750D03*
D14*
X145732500Y-124618750D03*
%TD*%
D12*
%TO.C,SW27*%
X131762500Y-122237500D03*
D13*
X134302500Y-117157500D03*
D14*
X136842500Y-122237500D03*
D13*
X127952500Y-119697500D03*
D14*
X126682500Y-122237500D03*
%TD*%
D12*
%TO.C,SW26*%
X36512500Y-88900000D03*
D13*
X39052500Y-83820000D03*
D14*
X41592500Y-88900000D03*
D13*
X32702500Y-86360000D03*
D14*
X31432500Y-88900000D03*
%TD*%
D12*
%TO.C,SW25*%
X150812500Y-105568750D03*
D13*
X153352500Y-100488750D03*
D14*
X155892500Y-105568750D03*
D13*
X147002500Y-103028750D03*
D14*
X145732500Y-105568750D03*
%TD*%
D12*
%TO.C,SW24*%
X131762500Y-103187500D03*
D13*
X134302500Y-98107500D03*
D14*
X136842500Y-103187500D03*
D13*
X127952500Y-100647500D03*
D14*
X126682500Y-103187500D03*
%TD*%
D12*
%TO.C,SW23*%
X112712500Y-98425000D03*
D13*
X115252500Y-93345000D03*
D14*
X117792500Y-98425000D03*
D13*
X108902500Y-95885000D03*
D14*
X107632500Y-98425000D03*
%TD*%
D12*
%TO.C,SW22*%
X93662500Y-103187500D03*
D13*
X96202500Y-98107500D03*
D14*
X98742500Y-103187500D03*
D13*
X89852500Y-100647500D03*
D14*
X88582500Y-103187500D03*
%TD*%
D12*
%TO.C,SW21*%
X74612500Y-110331250D03*
D13*
X77152500Y-105251250D03*
D14*
X79692500Y-110331250D03*
D13*
X70802500Y-107791250D03*
D14*
X69532500Y-110331250D03*
%TD*%
D12*
%TO.C,SW20*%
X55562500Y-112712500D03*
D13*
X58102500Y-107632500D03*
D14*
X60642500Y-112712500D03*
D13*
X51752500Y-110172500D03*
D14*
X50482500Y-112712500D03*
%TD*%
D12*
%TO.C,SW19*%
X150812500Y-86518750D03*
D13*
X153352500Y-81438750D03*
D14*
X155892500Y-86518750D03*
D13*
X147002500Y-83978750D03*
D14*
X145732500Y-86518750D03*
%TD*%
D12*
%TO.C,SW18*%
X131762500Y-84137500D03*
D13*
X134302500Y-79057500D03*
D14*
X136842500Y-84137500D03*
D13*
X127952500Y-81597500D03*
D14*
X126682500Y-84137500D03*
%TD*%
D12*
%TO.C,SW17*%
X112712500Y-79375000D03*
D13*
X115252500Y-74295000D03*
D14*
X117792500Y-79375000D03*
D13*
X108902500Y-76835000D03*
D14*
X107632500Y-79375000D03*
%TD*%
D12*
%TO.C,SW16*%
X93662500Y-84137500D03*
D13*
X96202500Y-79057500D03*
D14*
X98742500Y-84137500D03*
D13*
X89852500Y-81597500D03*
D14*
X88582500Y-84137500D03*
%TD*%
D12*
%TO.C,SW15*%
X74612500Y-91281250D03*
D13*
X77152500Y-86201250D03*
D14*
X79692500Y-91281250D03*
D13*
X70802500Y-88741250D03*
D14*
X69532500Y-91281250D03*
%TD*%
D12*
%TO.C,SW14*%
X55562500Y-93662500D03*
D13*
X58102500Y-88582500D03*
D14*
X60642500Y-93662500D03*
D13*
X51752500Y-91122500D03*
D14*
X50482500Y-93662500D03*
%TD*%
D12*
%TO.C,SW13*%
X150812500Y-67468750D03*
D13*
X153352500Y-62388750D03*
D14*
X155892500Y-67468750D03*
D13*
X147002500Y-64928750D03*
D14*
X145732500Y-67468750D03*
%TD*%
D12*
%TO.C,SW12*%
X131762500Y-65087500D03*
D13*
X134302500Y-60007500D03*
D14*
X136842500Y-65087500D03*
D13*
X127952500Y-62547500D03*
D14*
X126682500Y-65087500D03*
%TD*%
D12*
%TO.C,SW11*%
X112712500Y-60325000D03*
D13*
X115252500Y-55245000D03*
D14*
X117792500Y-60325000D03*
D13*
X108902500Y-57785000D03*
D14*
X107632500Y-60325000D03*
%TD*%
D12*
%TO.C,SW10*%
X93662500Y-65087500D03*
D13*
X96202500Y-60007500D03*
D14*
X98742500Y-65087500D03*
D13*
X89852500Y-62547500D03*
D14*
X88582500Y-65087500D03*
%TD*%
D12*
%TO.C,SW9*%
X74612500Y-72231250D03*
D13*
X77152500Y-67151250D03*
D14*
X79692500Y-72231250D03*
D13*
X70802500Y-69691250D03*
D14*
X69532500Y-72231250D03*
%TD*%
D12*
%TO.C,SW8*%
X55562500Y-74612500D03*
D13*
X58102500Y-69532500D03*
D14*
X60642500Y-74612500D03*
D13*
X51752500Y-72072500D03*
D14*
X50482500Y-74612500D03*
%TD*%
D12*
%TO.C,SW7*%
X150812500Y-48418750D03*
D13*
X153352500Y-43338750D03*
D14*
X155892500Y-48418750D03*
D13*
X147002500Y-45878750D03*
D14*
X145732500Y-48418750D03*
%TD*%
D12*
%TO.C,SW6*%
X131762500Y-46037500D03*
D13*
X134302500Y-40957500D03*
D14*
X136842500Y-46037500D03*
D13*
X127952500Y-43497500D03*
D14*
X126682500Y-46037500D03*
%TD*%
D12*
%TO.C,SW5*%
X112712500Y-41275000D03*
D13*
X115252500Y-36195000D03*
D14*
X117792500Y-41275000D03*
D13*
X108902500Y-38735000D03*
D14*
X107632500Y-41275000D03*
%TD*%
D12*
%TO.C,SW4*%
X93662500Y-46037500D03*
D13*
X96202500Y-40957500D03*
D14*
X98742500Y-46037500D03*
D13*
X89852500Y-43497500D03*
D14*
X88582500Y-46037500D03*
%TD*%
D12*
%TO.C,SW3*%
X74612500Y-53181250D03*
D13*
X77152500Y-48101250D03*
D14*
X79692500Y-53181250D03*
D13*
X70802500Y-50641250D03*
D14*
X69532500Y-53181250D03*
%TD*%
D12*
%TO.C,SW2*%
X55562500Y-55562500D03*
D13*
X58102500Y-50482500D03*
D14*
X60642500Y-55562500D03*
D13*
X51752500Y-53022500D03*
D14*
X50482500Y-55562500D03*
%TD*%
%TO.C,R8*%
G36*
G01*
X166185001Y-73037500D02*
X165284999Y-73037500D01*
G75*
G02*
X165035000Y-72787501I0J249999D01*
G01*
X165035000Y-72087499D01*
G75*
G02*
X165284999Y-71837500I249999J0D01*
G01*
X166185001Y-71837500D01*
G75*
G02*
X166435000Y-72087499I0J-249999D01*
G01*
X166435000Y-72787501D01*
G75*
G02*
X166185001Y-73037500I-249999J0D01*
G01*
G37*
G36*
G01*
X166185001Y-71037500D02*
X165284999Y-71037500D01*
G75*
G02*
X165035000Y-70787501I0J249999D01*
G01*
X165035000Y-70087499D01*
G75*
G02*
X165284999Y-69837500I249999J0D01*
G01*
X166185001Y-69837500D01*
G75*
G02*
X166435000Y-70087499I0J-249999D01*
G01*
X166435000Y-70787501D01*
G75*
G02*
X166185001Y-71037500I-249999J0D01*
G01*
G37*
%TD*%
%TO.C,R7*%
G36*
G01*
X161474999Y-49993750D02*
X162375001Y-49993750D01*
G75*
G02*
X162625000Y-50243749I0J-249999D01*
G01*
X162625000Y-50943751D01*
G75*
G02*
X162375001Y-51193750I-249999J0D01*
G01*
X161474999Y-51193750D01*
G75*
G02*
X161225000Y-50943751I0J249999D01*
G01*
X161225000Y-50243749D01*
G75*
G02*
X161474999Y-49993750I249999J0D01*
G01*
G37*
G36*
G01*
X161474999Y-51993750D02*
X162375001Y-51993750D01*
G75*
G02*
X162625000Y-52243749I0J-249999D01*
G01*
X162625000Y-52943751D01*
G75*
G02*
X162375001Y-53193750I-249999J0D01*
G01*
X161474999Y-53193750D01*
G75*
G02*
X161225000Y-52943751I0J249999D01*
G01*
X161225000Y-52243749D01*
G75*
G02*
X161474999Y-51993750I249999J0D01*
G01*
G37*
%TD*%
%TO.C,R5*%
G36*
G01*
X178250001Y-53193750D02*
X177349999Y-53193750D01*
G75*
G02*
X177100000Y-52943751I0J249999D01*
G01*
X177100000Y-52243749D01*
G75*
G02*
X177349999Y-51993750I249999J0D01*
G01*
X178250001Y-51993750D01*
G75*
G02*
X178500000Y-52243749I0J-249999D01*
G01*
X178500000Y-52943751D01*
G75*
G02*
X178250001Y-53193750I-249999J0D01*
G01*
G37*
G36*
G01*
X178250001Y-51193750D02*
X177349999Y-51193750D01*
G75*
G02*
X177100000Y-50943751I0J249999D01*
G01*
X177100000Y-50243749D01*
G75*
G02*
X177349999Y-49993750I249999J0D01*
G01*
X178250001Y-49993750D01*
G75*
G02*
X178500000Y-50243749I0J-249999D01*
G01*
X178500000Y-50943751D01*
G75*
G02*
X178250001Y-51193750I-249999J0D01*
G01*
G37*
%TD*%
%TO.C,R4*%
G36*
G01*
X167666249Y-69837500D02*
X168566251Y-69837500D01*
G75*
G02*
X168816250Y-70087499I0J-249999D01*
G01*
X168816250Y-70787501D01*
G75*
G02*
X168566251Y-71037500I-249999J0D01*
G01*
X167666249Y-71037500D01*
G75*
G02*
X167416250Y-70787501I0J249999D01*
G01*
X167416250Y-70087499D01*
G75*
G02*
X167666249Y-69837500I249999J0D01*
G01*
G37*
G36*
G01*
X167666249Y-71837500D02*
X168566251Y-71837500D01*
G75*
G02*
X168816250Y-72087499I0J-249999D01*
G01*
X168816250Y-72787501D01*
G75*
G02*
X168566251Y-73037500I-249999J0D01*
G01*
X167666249Y-73037500D01*
G75*
G02*
X167416250Y-72787501I0J249999D01*
G01*
X167416250Y-72087499D01*
G75*
G02*
X167666249Y-71837500I249999J0D01*
G01*
G37*
%TD*%
%TO.C,R3*%
G36*
G01*
X173297001Y-73037500D02*
X172396999Y-73037500D01*
G75*
G02*
X172147000Y-72787501I0J249999D01*
G01*
X172147000Y-72087499D01*
G75*
G02*
X172396999Y-71837500I249999J0D01*
G01*
X173297001Y-71837500D01*
G75*
G02*
X173547000Y-72087499I0J-249999D01*
G01*
X173547000Y-72787501D01*
G75*
G02*
X173297001Y-73037500I-249999J0D01*
G01*
G37*
G36*
G01*
X173297001Y-71037500D02*
X172396999Y-71037500D01*
G75*
G02*
X172147000Y-70787501I0J249999D01*
G01*
X172147000Y-70087499D01*
G75*
G02*
X172396999Y-69837500I249999J0D01*
G01*
X173297001Y-69837500D01*
G75*
G02*
X173547000Y-70087499I0J-249999D01*
G01*
X173547000Y-70787501D01*
G75*
G02*
X173297001Y-71037500I-249999J0D01*
G01*
G37*
%TD*%
%TO.C,R2*%
G36*
G01*
X168287500Y-52191499D02*
X168287500Y-53091501D01*
G75*
G02*
X168037501Y-53341500I-249999J0D01*
G01*
X167337499Y-53341500D01*
G75*
G02*
X167087500Y-53091501I0J249999D01*
G01*
X167087500Y-52191499D01*
G75*
G02*
X167337499Y-51941500I249999J0D01*
G01*
X168037501Y-51941500D01*
G75*
G02*
X168287500Y-52191499I0J-249999D01*
G01*
G37*
G36*
G01*
X166287500Y-52191499D02*
X166287500Y-53091501D01*
G75*
G02*
X166037501Y-53341500I-249999J0D01*
G01*
X165337499Y-53341500D01*
G75*
G02*
X165087500Y-53091501I0J249999D01*
G01*
X165087500Y-52191499D01*
G75*
G02*
X165337499Y-51941500I249999J0D01*
G01*
X166037501Y-51941500D01*
G75*
G02*
X166287500Y-52191499I0J-249999D01*
G01*
G37*
%TD*%
%TO.C,R1*%
G36*
G01*
X171437500Y-53091501D02*
X171437500Y-52191499D01*
G75*
G02*
X171687499Y-51941500I249999J0D01*
G01*
X172387501Y-51941500D01*
G75*
G02*
X172637500Y-52191499I0J-249999D01*
G01*
X172637500Y-53091501D01*
G75*
G02*
X172387501Y-53341500I-249999J0D01*
G01*
X171687499Y-53341500D01*
G75*
G02*
X171437500Y-53091501I0J249999D01*
G01*
G37*
G36*
G01*
X173437500Y-53091501D02*
X173437500Y-52191499D01*
G75*
G02*
X173687499Y-51941500I249999J0D01*
G01*
X174387501Y-51941500D01*
G75*
G02*
X174637500Y-52191499I0J-249999D01*
G01*
X174637500Y-53091501D01*
G75*
G02*
X174387501Y-53341500I-249999J0D01*
G01*
X173687499Y-53341500D01*
G75*
G02*
X173437500Y-53091501I0J249999D01*
G01*
G37*
%TD*%
%TO.C,LED2*%
G36*
G01*
X163803751Y-73037500D02*
X162903749Y-73037500D01*
G75*
G02*
X162653750Y-72787501I0J249999D01*
G01*
X162653750Y-72137499D01*
G75*
G02*
X162903749Y-71887500I249999J0D01*
G01*
X163803751Y-71887500D01*
G75*
G02*
X164053750Y-72137499I0J-249999D01*
G01*
X164053750Y-72787501D01*
G75*
G02*
X163803751Y-73037500I-249999J0D01*
G01*
G37*
G36*
G01*
X163803751Y-70987500D02*
X162903749Y-70987500D01*
G75*
G02*
X162653750Y-70737501I0J249999D01*
G01*
X162653750Y-70087499D01*
G75*
G02*
X162903749Y-69837500I249999J0D01*
G01*
X163803751Y-69837500D01*
G75*
G02*
X164053750Y-70087499I0J-249999D01*
G01*
X164053750Y-70737501D01*
G75*
G02*
X163803751Y-70987500I-249999J0D01*
G01*
G37*
%TD*%
%TO.C,LED1*%
G36*
G01*
X175678251Y-73037500D02*
X174778249Y-73037500D01*
G75*
G02*
X174528250Y-72787501I0J249999D01*
G01*
X174528250Y-72137499D01*
G75*
G02*
X174778249Y-71887500I249999J0D01*
G01*
X175678251Y-71887500D01*
G75*
G02*
X175928250Y-72137499I0J-249999D01*
G01*
X175928250Y-72787501D01*
G75*
G02*
X175678251Y-73037500I-249999J0D01*
G01*
G37*
G36*
G01*
X175678251Y-70987500D02*
X174778249Y-70987500D01*
G75*
G02*
X174528250Y-70737501I0J249999D01*
G01*
X174528250Y-70087499D01*
G75*
G02*
X174778249Y-69837500I249999J0D01*
G01*
X175678251Y-69837500D01*
G75*
G02*
X175928250Y-70087499I0J-249999D01*
G01*
X175928250Y-70737501D01*
G75*
G02*
X175678251Y-70987500I-249999J0D01*
G01*
G37*
%TD*%
D21*
%TO.C,J4*%
X204787500Y-80962500D03*
D20*
X202247500Y-80962500D03*
%TD*%
D21*
%TO.C,J1*%
X165100000Y-80962500D03*
D20*
X167640000Y-80962500D03*
%TD*%
M02*
