%TF.GenerationSoftware,KiCad,Pcbnew,(5.1.7)-1*%
%TF.CreationDate,2021-02-09T20:12:25+08:00*%
%TF.ProjectId,jiran-ble,6a697261-6e2d-4626-9c65-2e6b69636164,rev?*%
%TF.SameCoordinates,Original*%
%TF.FileFunction,Profile,NP*%
%FSLAX46Y46*%
G04 Gerber Fmt 4.6, Leading zero omitted, Abs format (unit mm)*
G04 Created by KiCad (PCBNEW (5.1.7)-1) date 2021-02-09 20:12:25*
%MOMM*%
%LPD*%
G01*
G04 APERTURE LIST*
%TA.AperFunction,Profile*%
%ADD10C,0.100000*%
%TD*%
G04 APERTURE END LIST*
D10*
X190296800Y-43649900D02*
G75*
G02*
X191296800Y-44649900I0J-1000000D01*
G01*
X176212500Y-44653200D02*
G75*
G02*
X177212500Y-43653200I1000000J0D01*
G01*
X177215800Y-136525000D02*
G75*
G02*
X176215800Y-135525000I0J1000000D01*
G01*
X191300100Y-135521700D02*
G75*
G02*
X190300100Y-136521700I-1000000J0D01*
G01*
X194468750Y-46434375D02*
X194472050Y-44649900D01*
X173034960Y-44653200D02*
X173037500Y-46434375D01*
X191293750Y-46434375D02*
X191296800Y-44649900D01*
X176212500Y-46434375D02*
X176212500Y-44653200D01*
X176212500Y-46434375D02*
X173037500Y-46434375D01*
X176212500Y-51990625D02*
X173037500Y-51990625D01*
X194468750Y-46434375D02*
X191293750Y-46434375D01*
X194468750Y-51990625D02*
X191293750Y-51990625D01*
X191293750Y-129778125D02*
X191300100Y-135521700D01*
X194468750Y-129778125D02*
X191293750Y-129778125D01*
X194468750Y-124221875D02*
X191293750Y-124221875D01*
X176212500Y-129778125D02*
X176215800Y-135525000D01*
X173037500Y-124221875D02*
X176212500Y-124221875D01*
X173037500Y-129778125D02*
X176212500Y-129778125D01*
X194468750Y-124221875D02*
X194472050Y-68716400D01*
X173037500Y-68719700D02*
X173037500Y-124221875D01*
X177215800Y-136525000D02*
X190300100Y-136521700D01*
X191293750Y-51990625D02*
X191293750Y-124221875D01*
X177212500Y-43653200D02*
X190296800Y-43649900D01*
X176212500Y-124221875D02*
X176212500Y-51990625D01*
X346865450Y-97425000D02*
X346868750Y-80378300D01*
X198034150Y-114931700D02*
G75*
G02*
X197034150Y-113931700I0J1000000D01*
G01*
X210530950Y-113935000D02*
G75*
G02*
X209530950Y-114935000I-1000000J0D01*
G01*
X209534250Y-83188300D02*
G75*
G02*
X210534250Y-84188300I0J-1000000D01*
G01*
X197037450Y-84185000D02*
G75*
G02*
X198037450Y-83185000I1000000J0D01*
G01*
X197830950Y-66716400D02*
G75*
G02*
X196830950Y-67716400I-1000000J0D01*
G01*
X194472050Y-68716400D02*
G75*
G02*
X195472050Y-67716400I1000000J0D01*
G01*
X195468750Y-136521700D02*
G75*
G02*
X194468750Y-135521700I0J1000000D01*
G01*
X213528150Y-135525000D02*
G75*
G02*
X212528150Y-136525000I-1000000J0D01*
G01*
X213522050Y-135137400D02*
G75*
G02*
X214522050Y-134137400I1000000J0D01*
G01*
X232578150Y-133137400D02*
G75*
G02*
X231578150Y-134137400I-1000000J0D01*
G01*
X232572050Y-132762500D02*
G75*
G02*
X233572050Y-131762500I1000000J0D01*
G01*
X251615450Y-130762500D02*
G75*
G02*
X250615450Y-131762500I-1000000J0D01*
G01*
X251622050Y-108950000D02*
G75*
G02*
X252622050Y-107950000I1000000J0D01*
G01*
X269668750Y-107953300D02*
G75*
G02*
X270668750Y-108953300I0J-1000000D01*
G01*
X271668750Y-112709200D02*
G75*
G02*
X270668750Y-111709200I0J1000000D01*
G01*
X288718750Y-112715800D02*
G75*
G02*
X289718750Y-113715800I0J-1000000D01*
G01*
X290718750Y-119859300D02*
G75*
G02*
X289718750Y-118859300I0J1000000D01*
G01*
X307768750Y-119853200D02*
G75*
G02*
X308768750Y-120853200I0J-1000000D01*
G01*
X309768750Y-122234200D02*
G75*
G02*
X308768750Y-121234200I0J1000000D01*
G01*
X327815450Y-121237500D02*
G75*
G02*
X326815450Y-122237500I-1000000J0D01*
G01*
X327822050Y-99425000D02*
G75*
G02*
X328822050Y-98425000I1000000J0D01*
G01*
X346865450Y-97425000D02*
G75*
G02*
X345865450Y-98425000I-1000000J0D01*
G01*
X345868750Y-79378300D02*
G75*
G02*
X346868750Y-80378300I0J-1000000D01*
G01*
X328818750Y-79371700D02*
G75*
G02*
X327818750Y-78371700I0J1000000D01*
G01*
X326818750Y-46040800D02*
G75*
G02*
X327818750Y-47040800I0J-1000000D01*
G01*
X309768750Y-46034200D02*
G75*
G02*
X308768750Y-45034200I0J1000000D01*
G01*
X307768750Y-43653200D02*
G75*
G02*
X308768750Y-44653200I0J-1000000D01*
G01*
X290718750Y-43659300D02*
G75*
G02*
X289718750Y-42659300I0J1000000D01*
G01*
X288718750Y-36515800D02*
G75*
G02*
X289718750Y-37515800I0J-1000000D01*
G01*
X271668750Y-36509200D02*
G75*
G02*
X270668750Y-35509200I0J1000000D01*
G01*
X269668750Y-31753300D02*
G75*
G02*
X270668750Y-32753300I0J-1000000D01*
G01*
X251609350Y-32750000D02*
G75*
G02*
X252609350Y-31750000I1000000J0D01*
G01*
X251615450Y-35512500D02*
G75*
G02*
X250615450Y-36512500I-1000000J0D01*
G01*
X232559350Y-37512500D02*
G75*
G02*
X233559350Y-36512500I1000000J0D01*
G01*
X232565450Y-37900100D02*
G75*
G02*
X231565450Y-38900100I-1000000J0D01*
G01*
X213522050Y-39900100D02*
G75*
G02*
X214522050Y-38900100I1000000J0D01*
G01*
X213515450Y-42649900D02*
G75*
G02*
X212515450Y-43649900I-1000000J0D01*
G01*
X194472050Y-44649900D02*
G75*
G02*
X195472050Y-43649900I1000000J0D01*
G01*
X195468750Y-54517800D02*
G75*
G02*
X194468750Y-53517800I0J1000000D01*
G01*
X196834250Y-54511700D02*
G75*
G02*
X197834250Y-55511700I0J-1000000D01*
G01*
X169472100Y-83175600D02*
G75*
G02*
X170472100Y-84175600I0J-1000000D01*
G01*
X170468800Y-113935000D02*
G75*
G02*
X169468800Y-114935000I-1000000J0D01*
G01*
X157972000Y-114931700D02*
G75*
G02*
X156972000Y-113931700I0J1000000D01*
G01*
X156975300Y-84185000D02*
G75*
G02*
X157975300Y-83185000I1000000J0D01*
G01*
X173034200Y-135525000D02*
G75*
G02*
X172034200Y-136525000I-1000000J0D01*
G01*
X154987500Y-136521700D02*
G75*
G02*
X153987500Y-135521700I0J1000000D01*
G01*
X152987500Y-134140700D02*
G75*
G02*
X153987500Y-135140700I0J-1000000D01*
G01*
X135937500Y-134146800D02*
G75*
G02*
X134937500Y-133146800I0J1000000D01*
G01*
X133937500Y-131765800D02*
G75*
G02*
X134937500Y-132765800I0J-1000000D01*
G01*
X116887500Y-131759200D02*
G75*
G02*
X115887500Y-130759200I0J1000000D01*
G01*
X114887500Y-107953300D02*
G75*
G02*
X115887500Y-108953300I0J-1000000D01*
G01*
X96840800Y-108950000D02*
G75*
G02*
X97840800Y-107950000I1000000J0D01*
G01*
X96834200Y-111712500D02*
G75*
G02*
X95834200Y-112712500I-1000000J0D01*
G01*
X77790800Y-113712500D02*
G75*
G02*
X78790800Y-112712500I1000000J0D01*
G01*
X77784200Y-118862600D02*
G75*
G02*
X76784200Y-119862600I-1000000J0D01*
G01*
X58728100Y-120849900D02*
G75*
G02*
X59728100Y-119849900I1000000J0D01*
G01*
X58734200Y-121237500D02*
G75*
G02*
X57734200Y-122237500I-1000000J0D01*
G01*
X40687500Y-122234200D02*
G75*
G02*
X39687500Y-121234200I0J1000000D01*
G01*
X38687500Y-98428300D02*
G75*
G02*
X39687500Y-99428300I0J-1000000D01*
G01*
X21637500Y-98421700D02*
G75*
G02*
X20637500Y-97421700I0J1000000D01*
G01*
X20640800Y-80375000D02*
G75*
G02*
X21640800Y-79375000I1000000J0D01*
G01*
X39684200Y-78375000D02*
G75*
G02*
X38684200Y-79375000I-1000000J0D01*
G01*
X39690800Y-47037500D02*
G75*
G02*
X40690800Y-46037500I1000000J0D01*
G01*
X169675300Y-55508400D02*
G75*
G02*
X170675300Y-54508400I1000000J0D01*
G01*
X170672000Y-67725800D02*
G75*
G02*
X169672000Y-66725800I0J1000000D01*
G01*
X172037500Y-67719700D02*
G75*
G02*
X173037500Y-68719700I0J-1000000D01*
G01*
X173034200Y-53508400D02*
G75*
G02*
X172034200Y-54508400I-1000000J0D01*
G01*
X58734200Y-45037500D02*
G75*
G02*
X57734200Y-46037500I-1000000J0D01*
G01*
X58740800Y-44649900D02*
G75*
G02*
X59740800Y-43649900I1000000J0D01*
G01*
X77784200Y-42649900D02*
G75*
G02*
X76784200Y-43649900I-1000000J0D01*
G01*
X77790800Y-37512500D02*
G75*
G02*
X78790800Y-36512500I1000000J0D01*
G01*
X96846900Y-35512500D02*
G75*
G02*
X95846900Y-36512500I-1000000J0D01*
G01*
X96840800Y-32750000D02*
G75*
G02*
X97840800Y-31750000I1000000J0D01*
G01*
X114887500Y-31753300D02*
G75*
G02*
X115887500Y-32753300I0J-1000000D01*
G01*
X116874800Y-36509200D02*
G75*
G02*
X115874800Y-35509200I0J1000000D01*
G01*
X172034960Y-43653200D02*
G75*
G02*
X173034960Y-44653200I0J-1000000D01*
G01*
X154990040Y-43656760D02*
G75*
G02*
X153990040Y-42656760I0J1000000D01*
G01*
X133934200Y-36509960D02*
G75*
G02*
X134934200Y-37509960I0J-1000000D01*
G01*
X152987500Y-38892480D02*
G75*
G02*
X153987500Y-39892480I0J-1000000D01*
G01*
X135934960Y-38891720D02*
G75*
G02*
X134934960Y-37891720I0J1000000D01*
G01*
X210530950Y-113935000D02*
X210534250Y-84188300D01*
X197037450Y-84185000D02*
X197034150Y-113931700D01*
X198037450Y-83185000D02*
X209534250Y-83188300D01*
X198034150Y-114931700D02*
X209530950Y-114935000D01*
X208553050Y-43656250D02*
X212515450Y-43649900D01*
X199459850Y-43656250D02*
X195472050Y-43649900D01*
X194468750Y-53517800D02*
X194468750Y-51990625D01*
X208553050Y-49479200D02*
X208553050Y-43656250D01*
X199459850Y-49479200D02*
X208553050Y-49479200D01*
X199459850Y-43656250D02*
X199459850Y-49479200D01*
X196834250Y-54511700D02*
X195468750Y-54517800D01*
X195472050Y-67716400D02*
X196830950Y-67716400D01*
X197830950Y-66716400D02*
X197834250Y-55511700D01*
X194468750Y-135521700D02*
X194468750Y-129778125D01*
X213522050Y-39900100D02*
X213515450Y-42649900D01*
X231565450Y-38900100D02*
X214522050Y-38900100D01*
X232559350Y-37512500D02*
X232565450Y-37900100D01*
X250615450Y-36512500D02*
X233559350Y-36512500D01*
X251609350Y-32750000D02*
X251615450Y-35512500D01*
X269668750Y-31753300D02*
X252609350Y-31750000D01*
X270668750Y-35509200D02*
X270668750Y-32753300D01*
X288718750Y-36515800D02*
X271668750Y-36509200D01*
X289718750Y-42659300D02*
X289718750Y-37515800D01*
X307768750Y-43653200D02*
X290718750Y-43659300D01*
X308768750Y-45034200D02*
X308768750Y-44653200D01*
X326818750Y-46040800D02*
X309768750Y-46034200D01*
X327818750Y-78371700D02*
X327818750Y-47040800D01*
X345868750Y-79378300D02*
X328818750Y-79371700D01*
X328822050Y-98425000D02*
X345865450Y-98425000D01*
X327815450Y-121237500D02*
X327822050Y-99425000D01*
X309768750Y-122234200D02*
X326815450Y-122237500D01*
X308768750Y-120853200D02*
X308768750Y-121234200D01*
X290718750Y-119859300D02*
X307768750Y-119853200D01*
X289718750Y-113715800D02*
X289718750Y-118859300D01*
X271668750Y-112709200D02*
X288718750Y-112715800D01*
X270668750Y-108953300D02*
X270668750Y-111709200D01*
X252622050Y-107950000D02*
X269668750Y-107953300D01*
X251615450Y-130762500D02*
X251622050Y-108950000D01*
X233572050Y-131762500D02*
X250615450Y-131762500D01*
X232578150Y-133137400D02*
X232572050Y-132762500D01*
X214522050Y-134137400D02*
X231578150Y-134137400D01*
X213528150Y-135525000D02*
X213522050Y-135137400D01*
X195468750Y-136521700D02*
X212528150Y-136525000D01*
X156972000Y-113931700D02*
X156975300Y-84185000D01*
X169468800Y-114935000D02*
X157972000Y-114931700D01*
X170472100Y-84175600D02*
X170468800Y-113935000D01*
X157975300Y-83185000D02*
X169472100Y-83175600D01*
X173034200Y-53508400D02*
X173037500Y-51990625D01*
X170675300Y-54508400D02*
X172034200Y-54508400D01*
X169672000Y-66725800D02*
X169675300Y-55508400D01*
X172037500Y-67719700D02*
X170672000Y-67725800D01*
X158953200Y-43656250D02*
X154990040Y-43656760D01*
X158953200Y-49479200D02*
X158953200Y-43656250D01*
X168046400Y-49479200D02*
X158953200Y-49479200D01*
X168046400Y-43656250D02*
X168046400Y-49479200D01*
X154987500Y-136521700D02*
X172034200Y-136525000D01*
X153987500Y-135140700D02*
X153987500Y-135521700D01*
X135937500Y-134146800D02*
X152987500Y-134140700D01*
X134937500Y-132765800D02*
X134937500Y-133146800D01*
X116887500Y-131759200D02*
X133937500Y-131765800D01*
X115887500Y-108953300D02*
X115887500Y-130759200D01*
X97840800Y-107950000D02*
X114887500Y-107953300D01*
X96834200Y-111712500D02*
X96840800Y-108950000D01*
X78790800Y-112712500D02*
X95834200Y-112712500D01*
X77784200Y-118862600D02*
X77790800Y-113712500D01*
X59728100Y-119849900D02*
X76784200Y-119862600D01*
X58734200Y-121237500D02*
X58728100Y-120849900D01*
X40687500Y-122234200D02*
X57734200Y-122237500D01*
X39687500Y-99428300D02*
X39687500Y-121234200D01*
X21637500Y-98421700D02*
X38687500Y-98428300D01*
X20640800Y-80375000D02*
X20637500Y-97421700D01*
X38684200Y-79375000D02*
X21640800Y-79375000D01*
X39690800Y-47037500D02*
X39684200Y-78375000D01*
X57734200Y-46037500D02*
X40690800Y-46037500D01*
X58740800Y-44649900D02*
X58734200Y-45037500D01*
X76784200Y-43649900D02*
X59740800Y-43649900D01*
X77790800Y-37512500D02*
X77784200Y-42649900D01*
X95846900Y-36512500D02*
X78790800Y-36512500D01*
X96840800Y-32750000D02*
X96846900Y-35512500D01*
X114887500Y-31753300D02*
X97840800Y-31750000D01*
X115874800Y-35509200D02*
X115887500Y-32753300D01*
X133934200Y-36509960D02*
X116874800Y-36509200D01*
X134934960Y-37891720D02*
X134934200Y-37509960D01*
X152987500Y-38892480D02*
X135934960Y-38891720D01*
X153990040Y-42656760D02*
X153987500Y-39892480D01*
X168046400Y-43656250D02*
X172034960Y-43653200D01*
X173034200Y-135525000D02*
X173037500Y-129778125D01*
M02*
