%TF.GenerationSoftware,KiCad,Pcbnew,(5.1.7)-1*%
%TF.CreationDate,2021-02-08T18:02:38+08:00*%
%TF.ProjectId,jiran-ble,6a697261-6e2d-4626-9c65-2e6b69636164,rev?*%
%TF.SameCoordinates,Original*%
%TF.FileFunction,Legend,Bot*%
%TF.FilePolarity,Positive*%
%FSLAX46Y46*%
G04 Gerber Fmt 4.6, Leading zero omitted, Abs format (unit mm)*
G04 Created by KiCad (PCBNEW (5.1.7)-1) date 2021-02-08 18:02:38*
%MOMM*%
%LPD*%
G01*
G04 APERTURE LIST*
%ADD10C,0.120000*%
%ADD11C,0.010000*%
%ADD12C,0.150000*%
%ADD13R,0.800000X1.200000*%
%ADD14R,0.650000X1.000000*%
%ADD15R,1.000000X0.650000*%
%ADD16R,0.650000X1.060000*%
%ADD17C,3.987800*%
%ADD18C,3.000000*%
%ADD19R,2.300000X2.000000*%
%ADD20C,1.750000*%
%ADD21C,1.000000*%
%ADD22R,0.800000X0.900000*%
%ADD23O,1.700000X1.700000*%
%ADD24R,1.700000X1.700000*%
%ADD25C,4.200000*%
%ADD26R,1.200000X0.900000*%
%ADD27R,0.900000X1.200000*%
G04 APERTURE END LIST*
D10*
%TO.C,X2*%
X204787500Y-63693750D02*
X204787500Y-64893750D01*
%TO.C,X1*%
X165163500Y-58543750D02*
X165163500Y-57343750D01*
%TO.C,U4*%
X205603750Y-59425000D02*
X205603750Y-61875000D01*
X202383750Y-61225000D02*
X202383750Y-59425000D01*
%TO.C,U1*%
X164315500Y-62812500D02*
X164315500Y-60362500D01*
X167535500Y-61012500D02*
X167535500Y-62812500D01*
%TO.C,Q3*%
X201605000Y-61085000D02*
X201605000Y-59625000D01*
X198445000Y-61085000D02*
X198445000Y-58955000D01*
%TO.C,D58*%
X191087500Y-128718750D02*
X191087500Y-130968750D01*
X193087500Y-128718750D02*
X193087500Y-130968750D01*
X191087500Y-128718750D02*
X193087500Y-128718750D01*
%TO.C,D57*%
X210931250Y-126337500D02*
X210931250Y-128587500D01*
X212931250Y-126337500D02*
X212931250Y-128587500D01*
X210931250Y-126337500D02*
X212931250Y-126337500D01*
%TO.C,D56*%
X229981250Y-123956250D02*
X229981250Y-126206250D01*
X231981250Y-123956250D02*
X231981250Y-126206250D01*
X229981250Y-123956250D02*
X231981250Y-123956250D01*
%TO.C,D55*%
X325231250Y-90618750D02*
X325231250Y-92868750D01*
X327231250Y-90618750D02*
X327231250Y-92868750D01*
X325231250Y-90618750D02*
X327231250Y-90618750D01*
%TO.C,D54*%
X210931250Y-107287500D02*
X210931250Y-109537500D01*
X212931250Y-107287500D02*
X212931250Y-109537500D01*
X210931250Y-107287500D02*
X212931250Y-107287500D01*
%TO.C,D53*%
X229981250Y-104906250D02*
X229981250Y-107156250D01*
X231981250Y-104906250D02*
X231981250Y-107156250D01*
X229981250Y-104906250D02*
X231981250Y-104906250D01*
%TO.C,D52*%
X249031250Y-100143750D02*
X249031250Y-102393750D01*
X251031250Y-100143750D02*
X251031250Y-102393750D01*
X249031250Y-100143750D02*
X251031250Y-100143750D01*
%TO.C,D51*%
X268081250Y-104906250D02*
X268081250Y-107156250D01*
X270081250Y-104906250D02*
X270081250Y-107156250D01*
X268081250Y-104906250D02*
X270081250Y-104906250D01*
%TO.C,D50*%
X287131250Y-112050000D02*
X287131250Y-114300000D01*
X289131250Y-112050000D02*
X289131250Y-114300000D01*
X287131250Y-112050000D02*
X289131250Y-112050000D01*
%TO.C,D49*%
X306181250Y-114431250D02*
X306181250Y-116681250D01*
X308181250Y-114431250D02*
X308181250Y-116681250D01*
X306181250Y-114431250D02*
X308181250Y-114431250D01*
%TO.C,D48*%
X210931250Y-88237500D02*
X210931250Y-90487500D01*
X212931250Y-88237500D02*
X212931250Y-90487500D01*
X210931250Y-88237500D02*
X212931250Y-88237500D01*
%TO.C,D47*%
X229981250Y-85856250D02*
X229981250Y-88106250D01*
X231981250Y-85856250D02*
X231981250Y-88106250D01*
X229981250Y-85856250D02*
X231981250Y-85856250D01*
%TO.C,D46*%
X249031250Y-81093750D02*
X249031250Y-83343750D01*
X251031250Y-81093750D02*
X251031250Y-83343750D01*
X249031250Y-81093750D02*
X251031250Y-81093750D01*
%TO.C,D45*%
X268081250Y-85856250D02*
X268081250Y-88106250D01*
X270081250Y-85856250D02*
X270081250Y-88106250D01*
X268081250Y-85856250D02*
X270081250Y-85856250D01*
%TO.C,D44*%
X287131250Y-93000000D02*
X287131250Y-95250000D01*
X289131250Y-93000000D02*
X289131250Y-95250000D01*
X287131250Y-93000000D02*
X289131250Y-93000000D01*
%TO.C,D43*%
X306181250Y-95381250D02*
X306181250Y-97631250D01*
X308181250Y-95381250D02*
X308181250Y-97631250D01*
X306181250Y-95381250D02*
X308181250Y-95381250D01*
%TO.C,D42*%
X210931250Y-69187500D02*
X210931250Y-71437500D01*
X212931250Y-69187500D02*
X212931250Y-71437500D01*
X210931250Y-69187500D02*
X212931250Y-69187500D01*
%TO.C,D41*%
X229981250Y-66806250D02*
X229981250Y-69056250D01*
X231981250Y-66806250D02*
X231981250Y-69056250D01*
X229981250Y-66806250D02*
X231981250Y-66806250D01*
%TO.C,D40*%
X249031250Y-62043750D02*
X249031250Y-64293750D01*
X251031250Y-62043750D02*
X251031250Y-64293750D01*
X249031250Y-62043750D02*
X251031250Y-62043750D01*
%TO.C,D39*%
X268081250Y-66806250D02*
X268081250Y-69056250D01*
X270081250Y-66806250D02*
X270081250Y-69056250D01*
X268081250Y-66806250D02*
X270081250Y-66806250D01*
%TO.C,D38*%
X287131250Y-73950000D02*
X287131250Y-76200000D01*
X289131250Y-73950000D02*
X289131250Y-76200000D01*
X287131250Y-73950000D02*
X289131250Y-73950000D01*
%TO.C,D37*%
X306181250Y-76331250D02*
X306181250Y-78581250D01*
X308181250Y-76331250D02*
X308181250Y-78581250D01*
X306181250Y-76331250D02*
X308181250Y-76331250D01*
%TO.C,D36*%
X210931250Y-50137500D02*
X210931250Y-52387500D01*
X212931250Y-50137500D02*
X212931250Y-52387500D01*
X210931250Y-50137500D02*
X212931250Y-50137500D01*
%TO.C,D35*%
X229981250Y-47756250D02*
X229981250Y-50006250D01*
X231981250Y-47756250D02*
X231981250Y-50006250D01*
X229981250Y-47756250D02*
X231981250Y-47756250D01*
%TO.C,D34*%
X249031250Y-42993750D02*
X249031250Y-45243750D01*
X251031250Y-42993750D02*
X251031250Y-45243750D01*
X249031250Y-42993750D02*
X251031250Y-42993750D01*
%TO.C,D33*%
X268081250Y-47756250D02*
X268081250Y-50006250D01*
X270081250Y-47756250D02*
X270081250Y-50006250D01*
X268081250Y-47756250D02*
X270081250Y-47756250D01*
%TO.C,D32*%
X287131250Y-54900000D02*
X287131250Y-57150000D01*
X289131250Y-54900000D02*
X289131250Y-57150000D01*
X287131250Y-54900000D02*
X289131250Y-54900000D01*
%TO.C,D31*%
X306181250Y-57281250D02*
X306181250Y-59531250D01*
X308181250Y-57281250D02*
X308181250Y-59531250D01*
X306181250Y-57281250D02*
X308181250Y-57281250D01*
%TO.C,D30*%
X198846000Y-63389000D02*
X196596000Y-63389000D01*
X198846000Y-65389000D02*
X196596000Y-65389000D01*
X198846000Y-63389000D02*
X198846000Y-65389000D01*
%TO.C,D29*%
X161718750Y-128718750D02*
X161718750Y-130968750D01*
X163718750Y-128718750D02*
X163718750Y-130968750D01*
X161718750Y-128718750D02*
X163718750Y-128718750D01*
%TO.C,D28*%
X142668750Y-126337500D02*
X142668750Y-128587500D01*
X144668750Y-126337500D02*
X144668750Y-128587500D01*
X142668750Y-126337500D02*
X144668750Y-126337500D01*
%TO.C,D27*%
X123618750Y-123956250D02*
X123618750Y-126206250D01*
X125618750Y-123956250D02*
X125618750Y-126206250D01*
X123618750Y-123956250D02*
X125618750Y-123956250D01*
%TO.C,D26*%
X28368750Y-90618750D02*
X28368750Y-92868750D01*
X30368750Y-90618750D02*
X30368750Y-92868750D01*
X28368750Y-90618750D02*
X30368750Y-90618750D01*
%TO.C,D25*%
X142668750Y-107287500D02*
X142668750Y-109537500D01*
X144668750Y-107287500D02*
X144668750Y-109537500D01*
X142668750Y-107287500D02*
X144668750Y-107287500D01*
%TO.C,D24*%
X123618750Y-104906250D02*
X123618750Y-107156250D01*
X125618750Y-104906250D02*
X125618750Y-107156250D01*
X123618750Y-104906250D02*
X125618750Y-104906250D01*
%TO.C,D23*%
X104568750Y-100143750D02*
X104568750Y-102393750D01*
X106568750Y-100143750D02*
X106568750Y-102393750D01*
X104568750Y-100143750D02*
X106568750Y-100143750D01*
%TO.C,D22*%
X85518750Y-104906250D02*
X85518750Y-107156250D01*
X87518750Y-104906250D02*
X87518750Y-107156250D01*
X85518750Y-104906250D02*
X87518750Y-104906250D01*
%TO.C,D21*%
X66468750Y-112050000D02*
X66468750Y-114300000D01*
X68468750Y-112050000D02*
X68468750Y-114300000D01*
X66468750Y-112050000D02*
X68468750Y-112050000D01*
%TO.C,D20*%
X47418750Y-114431250D02*
X47418750Y-116681250D01*
X49418750Y-114431250D02*
X49418750Y-116681250D01*
X47418750Y-114431250D02*
X49418750Y-114431250D01*
%TO.C,D19*%
X142668750Y-88237500D02*
X142668750Y-90487500D01*
X144668750Y-88237500D02*
X144668750Y-90487500D01*
X142668750Y-88237500D02*
X144668750Y-88237500D01*
%TO.C,D18*%
X123618750Y-85856250D02*
X123618750Y-88106250D01*
X125618750Y-85856250D02*
X125618750Y-88106250D01*
X123618750Y-85856250D02*
X125618750Y-85856250D01*
%TO.C,D17*%
X104568750Y-81093750D02*
X104568750Y-83343750D01*
X106568750Y-81093750D02*
X106568750Y-83343750D01*
X104568750Y-81093750D02*
X106568750Y-81093750D01*
%TO.C,D16*%
X85518750Y-85856250D02*
X85518750Y-88106250D01*
X87518750Y-85856250D02*
X87518750Y-88106250D01*
X85518750Y-85856250D02*
X87518750Y-85856250D01*
%TO.C,D15*%
X66468750Y-93000000D02*
X66468750Y-95250000D01*
X68468750Y-93000000D02*
X68468750Y-95250000D01*
X66468750Y-93000000D02*
X68468750Y-93000000D01*
%TO.C,D14*%
X47418750Y-95381250D02*
X47418750Y-97631250D01*
X49418750Y-95381250D02*
X49418750Y-97631250D01*
X47418750Y-95381250D02*
X49418750Y-95381250D01*
%TO.C,D13*%
X142668750Y-69187500D02*
X142668750Y-71437500D01*
X144668750Y-69187500D02*
X144668750Y-71437500D01*
X142668750Y-69187500D02*
X144668750Y-69187500D01*
%TO.C,D12*%
X123618750Y-66806250D02*
X123618750Y-69056250D01*
X125618750Y-66806250D02*
X125618750Y-69056250D01*
X123618750Y-66806250D02*
X125618750Y-66806250D01*
%TO.C,D11*%
X104568750Y-62043750D02*
X104568750Y-64293750D01*
X106568750Y-62043750D02*
X106568750Y-64293750D01*
X104568750Y-62043750D02*
X106568750Y-62043750D01*
%TO.C,D10*%
X85518750Y-66806250D02*
X85518750Y-69056250D01*
X87518750Y-66806250D02*
X87518750Y-69056250D01*
X85518750Y-66806250D02*
X87518750Y-66806250D01*
%TO.C,D9*%
X66468750Y-73950000D02*
X66468750Y-76200000D01*
X68468750Y-73950000D02*
X68468750Y-76200000D01*
X66468750Y-73950000D02*
X68468750Y-73950000D01*
%TO.C,D8*%
X47418750Y-76331250D02*
X47418750Y-78581250D01*
X49418750Y-76331250D02*
X49418750Y-78581250D01*
X47418750Y-76331250D02*
X49418750Y-76331250D01*
%TO.C,D7*%
X142668750Y-50137500D02*
X142668750Y-52387500D01*
X144668750Y-50137500D02*
X144668750Y-52387500D01*
X142668750Y-50137500D02*
X144668750Y-50137500D01*
%TO.C,D6*%
X123618750Y-47756250D02*
X123618750Y-50006250D01*
X125618750Y-47756250D02*
X125618750Y-50006250D01*
X123618750Y-47756250D02*
X125618750Y-47756250D01*
%TO.C,D5*%
X104568750Y-42993750D02*
X104568750Y-45243750D01*
X106568750Y-42993750D02*
X106568750Y-45243750D01*
X104568750Y-42993750D02*
X106568750Y-42993750D01*
%TO.C,D4*%
X85518750Y-47756250D02*
X85518750Y-50006250D01*
X87518750Y-47756250D02*
X87518750Y-50006250D01*
X85518750Y-47756250D02*
X87518750Y-47756250D01*
%TO.C,D3*%
X66468750Y-54900000D02*
X66468750Y-57150000D01*
X68468750Y-54900000D02*
X68468750Y-57150000D01*
X66468750Y-54900000D02*
X68468750Y-54900000D01*
%TO.C,D2*%
X47418750Y-57281250D02*
X47418750Y-59531250D01*
X49418750Y-57281250D02*
X49418750Y-59531250D01*
X47418750Y-57281250D02*
X49418750Y-57281250D01*
%TO.C,D1*%
X171041500Y-58848500D02*
X173291500Y-58848500D01*
X171041500Y-56848500D02*
X173291500Y-56848500D01*
X171041500Y-58848500D02*
X171041500Y-56848500D01*
%TO.C,U6*%
X194446250Y-61225000D02*
X194446250Y-59425000D01*
X197666250Y-59425000D02*
X197666250Y-61875000D01*
%TO.C,U3*%
X172253000Y-62812500D02*
X172253000Y-60362500D01*
X175473000Y-61012500D02*
X175473000Y-62812500D01*
%TO.C,Q1*%
X168314250Y-61152500D02*
X168314250Y-62612500D01*
X171474250Y-61152500D02*
X171474250Y-63282500D01*
D11*
%TO.C,G1*%
G36*
X77053807Y13037741D02*
G01*
X77051910Y13105877D01*
X77049194Y13158109D01*
X77045026Y13197358D01*
X77038770Y13226548D01*
X77029791Y13248600D01*
X77017454Y13266438D01*
X77001125Y13282984D01*
X77000391Y13283650D01*
X76970986Y13299505D01*
X76932588Y13306282D01*
X76893046Y13303330D01*
X76867979Y13294663D01*
X76845610Y13279818D01*
X76828239Y13259639D01*
X76815199Y13231734D01*
X76805823Y13193709D01*
X76799444Y13143174D01*
X76795396Y13077735D01*
X76793757Y13028326D01*
X76789558Y12865928D01*
X77057596Y12865928D01*
X77053807Y13037741D01*
G37*
X77053807Y13037741D02*
X77051910Y13105877D01*
X77049194Y13158109D01*
X77045026Y13197358D01*
X77038770Y13226548D01*
X77029791Y13248600D01*
X77017454Y13266438D01*
X77001125Y13282984D01*
X77000391Y13283650D01*
X76970986Y13299505D01*
X76932588Y13306282D01*
X76893046Y13303330D01*
X76867979Y13294663D01*
X76845610Y13279818D01*
X76828239Y13259639D01*
X76815199Y13231734D01*
X76805823Y13193709D01*
X76799444Y13143174D01*
X76795396Y13077735D01*
X76793757Y13028326D01*
X76789558Y12865928D01*
X77057596Y12865928D01*
X77053807Y13037741D01*
G36*
X76565293Y13127799D02*
G01*
X76562913Y13191440D01*
X76558383Y13241150D01*
X76551241Y13279361D01*
X76541027Y13308500D01*
X76527279Y13330998D01*
X76509537Y13349285D01*
X76508621Y13350062D01*
X76481678Y13367220D01*
X76450280Y13373778D01*
X76435814Y13374166D01*
X76390627Y13369504D01*
X76357799Y13354048D01*
X76332686Y13325090D01*
X76323564Y13308731D01*
X76316511Y13293751D01*
X76311222Y13278665D01*
X76307445Y13260584D01*
X76304926Y13236617D01*
X76303415Y13203873D01*
X76302657Y13159462D01*
X76302401Y13100495D01*
X76302381Y13066342D01*
X76302381Y12865928D01*
X76565984Y12865928D01*
X76565984Y13047800D01*
X76565293Y13127799D01*
G37*
X76565293Y13127799D02*
X76562913Y13191440D01*
X76558383Y13241150D01*
X76551241Y13279361D01*
X76541027Y13308500D01*
X76527279Y13330998D01*
X76509537Y13349285D01*
X76508621Y13350062D01*
X76481678Y13367220D01*
X76450280Y13373778D01*
X76435814Y13374166D01*
X76390627Y13369504D01*
X76357799Y13354048D01*
X76332686Y13325090D01*
X76323564Y13308731D01*
X76316511Y13293751D01*
X76311222Y13278665D01*
X76307445Y13260584D01*
X76304926Y13236617D01*
X76303415Y13203873D01*
X76302657Y13159462D01*
X76302401Y13100495D01*
X76302381Y13066342D01*
X76302381Y12865928D01*
X76565984Y12865928D01*
X76565984Y13047800D01*
X76565293Y13127799D01*
G36*
X81339075Y12395209D02*
G01*
X81339075Y11886832D01*
X81790965Y11886832D01*
X81790965Y12395209D01*
X81339075Y12395209D01*
G37*
X81339075Y12395209D02*
X81339075Y11886832D01*
X81790965Y11886832D01*
X81790965Y12395209D01*
X81339075Y12395209D01*
G36*
X81051558Y18703878D02*
G01*
X81050408Y18751497D01*
X81047985Y18788723D01*
X81043901Y18819771D01*
X81037770Y18848854D01*
X81030254Y18876586D01*
X80998919Y18965906D01*
X80959016Y19042989D01*
X80907100Y19113718D01*
X80864090Y19160270D01*
X80791485Y19225352D01*
X80716109Y19275855D01*
X80631707Y19315698D01*
X80594124Y19329493D01*
X80567054Y19338518D01*
X80541011Y19346415D01*
X80514589Y19353259D01*
X80486383Y19359125D01*
X80454987Y19364089D01*
X80418995Y19368226D01*
X80377002Y19371611D01*
X80327601Y19374318D01*
X80269388Y19376423D01*
X80200956Y19378002D01*
X80120900Y19379129D01*
X80027814Y19379879D01*
X79920293Y19380328D01*
X79796930Y19380551D01*
X79656320Y19380622D01*
X79637426Y19380624D01*
X78928994Y19380680D01*
X78928994Y18900546D01*
X79571525Y18900383D01*
X79704650Y18900323D01*
X79820399Y18900149D01*
X79920225Y18899761D01*
X80005579Y18899060D01*
X80077916Y18897945D01*
X80138686Y18896318D01*
X80189344Y18894077D01*
X80231342Y18891124D01*
X80266132Y18887359D01*
X80295166Y18882681D01*
X80319899Y18876992D01*
X80341781Y18870191D01*
X80362267Y18862178D01*
X80382808Y18852855D01*
X80402423Y18843319D01*
X80453740Y18812087D01*
X80501102Y18772847D01*
X80509385Y18764453D01*
X80558436Y18703316D01*
X80592922Y18637661D01*
X80614059Y18564141D01*
X80623064Y18479407D01*
X80623582Y18450171D01*
X80615633Y18354502D01*
X80591653Y18268519D01*
X80551443Y18191717D01*
X80495218Y18123997D01*
X80436539Y18074569D01*
X80371667Y18037634D01*
X80295301Y18010297D01*
X80279153Y18005974D01*
X80264052Y18002309D01*
X80248535Y17999158D01*
X80231126Y17996482D01*
X80210345Y17994243D01*
X80184716Y17992401D01*
X80152761Y17990919D01*
X80113001Y17989758D01*
X80063960Y17988878D01*
X80004159Y17988242D01*
X79932120Y17987810D01*
X79846366Y17987544D01*
X79745419Y17987406D01*
X79627801Y17987355D01*
X79567666Y17987351D01*
X78928994Y17987351D01*
X78928994Y17507218D01*
X81018986Y17507218D01*
X81018986Y17986896D01*
X80864065Y17989477D01*
X80709145Y17992059D01*
X80770737Y18042723D01*
X80860509Y18128427D01*
X80935602Y18225392D01*
X80995056Y18332260D01*
X81022309Y18399125D01*
X81033093Y18430140D01*
X81040858Y18455995D01*
X81046102Y18480783D01*
X81049324Y18508592D01*
X81051020Y18543516D01*
X81051688Y18589643D01*
X81051821Y18641651D01*
X81051558Y18703878D01*
G37*
X81051558Y18703878D02*
X81050408Y18751497D01*
X81047985Y18788723D01*
X81043901Y18819771D01*
X81037770Y18848854D01*
X81030254Y18876586D01*
X80998919Y18965906D01*
X80959016Y19042989D01*
X80907100Y19113718D01*
X80864090Y19160270D01*
X80791485Y19225352D01*
X80716109Y19275855D01*
X80631707Y19315698D01*
X80594124Y19329493D01*
X80567054Y19338518D01*
X80541011Y19346415D01*
X80514589Y19353259D01*
X80486383Y19359125D01*
X80454987Y19364089D01*
X80418995Y19368226D01*
X80377002Y19371611D01*
X80327601Y19374318D01*
X80269388Y19376423D01*
X80200956Y19378002D01*
X80120900Y19379129D01*
X80027814Y19379879D01*
X79920293Y19380328D01*
X79796930Y19380551D01*
X79656320Y19380622D01*
X79637426Y19380624D01*
X78928994Y19380680D01*
X78928994Y18900546D01*
X79571525Y18900383D01*
X79704650Y18900323D01*
X79820399Y18900149D01*
X79920225Y18899761D01*
X80005579Y18899060D01*
X80077916Y18897945D01*
X80138686Y18896318D01*
X80189344Y18894077D01*
X80231342Y18891124D01*
X80266132Y18887359D01*
X80295166Y18882681D01*
X80319899Y18876992D01*
X80341781Y18870191D01*
X80362267Y18862178D01*
X80382808Y18852855D01*
X80402423Y18843319D01*
X80453740Y18812087D01*
X80501102Y18772847D01*
X80509385Y18764453D01*
X80558436Y18703316D01*
X80592922Y18637661D01*
X80614059Y18564141D01*
X80623064Y18479407D01*
X80623582Y18450171D01*
X80615633Y18354502D01*
X80591653Y18268519D01*
X80551443Y18191717D01*
X80495218Y18123997D01*
X80436539Y18074569D01*
X80371667Y18037634D01*
X80295301Y18010297D01*
X80279153Y18005974D01*
X80264052Y18002309D01*
X80248535Y17999158D01*
X80231126Y17996482D01*
X80210345Y17994243D01*
X80184716Y17992401D01*
X80152761Y17990919D01*
X80113001Y17989758D01*
X80063960Y17988878D01*
X80004159Y17988242D01*
X79932120Y17987810D01*
X79846366Y17987544D01*
X79745419Y17987406D01*
X79627801Y17987355D01*
X79567666Y17987351D01*
X78928994Y17987351D01*
X78928994Y17507218D01*
X81018986Y17507218D01*
X81018986Y17986896D01*
X80864065Y17989477D01*
X80709145Y17992059D01*
X80770737Y18042723D01*
X80860509Y18128427D01*
X80935602Y18225392D01*
X80995056Y18332260D01*
X81022309Y18399125D01*
X81033093Y18430140D01*
X81040858Y18455995D01*
X81046102Y18480783D01*
X81049324Y18508592D01*
X81051020Y18543516D01*
X81051688Y18589643D01*
X81051821Y18641651D01*
X81051558Y18703878D01*
G36*
X80548267Y14438130D02*
G01*
X80548267Y14376539D01*
X80539232Y14266365D01*
X80512714Y14161570D01*
X80469599Y14063806D01*
X80410771Y13974724D01*
X80337113Y13895976D01*
X80258373Y13834973D01*
X80206870Y13803584D01*
X80154725Y13777985D01*
X80096343Y13755829D01*
X80026130Y13734773D01*
X80007265Y13729720D01*
X79989756Y13725326D01*
X79972214Y13721608D01*
X79952909Y13718496D01*
X79930113Y13715918D01*
X79902095Y13713805D01*
X79867127Y13712086D01*
X79823480Y13710691D01*
X79769425Y13709549D01*
X79703232Y13708590D01*
X79623173Y13707742D01*
X79527518Y13706937D01*
X79430309Y13706216D01*
X78928994Y13702619D01*
X78928994Y13223675D01*
X81018986Y13223675D01*
X81018986Y13703808D01*
X80790688Y13704083D01*
X80562389Y13704358D01*
X80637704Y13744133D01*
X80746356Y13809219D01*
X80837746Y13880812D01*
X80912509Y13959560D01*
X80971278Y14046112D01*
X81008152Y14123803D01*
X81027896Y14185008D01*
X81043698Y14255216D01*
X81053813Y14325350D01*
X81056644Y14376539D01*
X81056644Y14438130D01*
X80548267Y14438130D01*
G37*
X80548267Y14438130D02*
X80548267Y14376539D01*
X80539232Y14266365D01*
X80512714Y14161570D01*
X80469599Y14063806D01*
X80410771Y13974724D01*
X80337113Y13895976D01*
X80258373Y13834973D01*
X80206870Y13803584D01*
X80154725Y13777985D01*
X80096343Y13755829D01*
X80026130Y13734773D01*
X80007265Y13729720D01*
X79989756Y13725326D01*
X79972214Y13721608D01*
X79952909Y13718496D01*
X79930113Y13715918D01*
X79902095Y13713805D01*
X79867127Y13712086D01*
X79823480Y13710691D01*
X79769425Y13709549D01*
X79703232Y13708590D01*
X79623173Y13707742D01*
X79527518Y13706937D01*
X79430309Y13706216D01*
X78928994Y13702619D01*
X78928994Y13223675D01*
X81018986Y13223675D01*
X81018986Y13703808D01*
X80790688Y13704083D01*
X80562389Y13704358D01*
X80637704Y13744133D01*
X80746356Y13809219D01*
X80837746Y13880812D01*
X80912509Y13959560D01*
X80971278Y14046112D01*
X81008152Y14123803D01*
X81027896Y14185008D01*
X81043698Y14255216D01*
X81053813Y14325350D01*
X81056644Y14376539D01*
X81056644Y14438130D01*
X80548267Y14438130D01*
G36*
X78928994Y12385795D02*
G01*
X78928994Y11896247D01*
X81018986Y11896247D01*
X81018986Y12385795D01*
X78928994Y12385795D01*
G37*
X78928994Y12385795D02*
X78928994Y11896247D01*
X81018986Y11896247D01*
X81018986Y12385795D01*
X78928994Y12385795D01*
G36*
X80738661Y11058367D02*
G01*
X80571204Y11058267D01*
X80416245Y11057971D01*
X80274459Y11057486D01*
X80146521Y11056817D01*
X80033106Y11055972D01*
X79934890Y11054956D01*
X79852547Y11053776D01*
X79786752Y11052439D01*
X79738181Y11050949D01*
X79707508Y11049314D01*
X79700726Y11048661D01*
X79567649Y11025849D01*
X79447443Y10991025D01*
X79337874Y10943413D01*
X79253669Y10893805D01*
X79159174Y10820288D01*
X79078885Y10734805D01*
X79012547Y10636984D01*
X78959903Y10526454D01*
X78923394Y10413402D01*
X78913672Y10373333D01*
X78906647Y10336271D01*
X78901790Y10297381D01*
X78898575Y10251827D01*
X78896472Y10194774D01*
X78895650Y10159294D01*
X78895069Y10101417D01*
X78895576Y10045621D01*
X78897051Y9996551D01*
X78899376Y9958852D01*
X78901140Y9943561D01*
X78932069Y9806122D01*
X78980329Y9675115D01*
X79045107Y9551942D01*
X79125590Y9438004D01*
X79220964Y9334701D01*
X79289069Y9275117D01*
X79333763Y9239163D01*
X79482064Y9380418D01*
X79537578Y9433169D01*
X79580868Y9474391D01*
X79613129Y9505767D01*
X79635554Y9528978D01*
X79649337Y9545706D01*
X79655671Y9557632D01*
X79655750Y9566440D01*
X79650768Y9573810D01*
X79641918Y9581424D01*
X79631067Y9590370D01*
X79605108Y9612717D01*
X79580877Y9632875D01*
X79574207Y9638220D01*
X79549533Y9661711D01*
X79518783Y9696925D01*
X79485387Y9739330D01*
X79452773Y9784395D01*
X79424369Y9827589D01*
X79404641Y9862302D01*
X79368831Y9948036D01*
X79348921Y10033872D01*
X79343226Y10119650D01*
X79351051Y10212894D01*
X79374350Y10295538D01*
X79412865Y10367325D01*
X79466335Y10427993D01*
X79534501Y10477285D01*
X79617103Y10514941D01*
X79713880Y10540703D01*
X79774984Y10549931D01*
X79797733Y10551434D01*
X79838226Y10552837D01*
X79895379Y10554131D01*
X79968107Y10555305D01*
X80055326Y10556350D01*
X80155953Y10557254D01*
X80268902Y10558009D01*
X80393089Y10558603D01*
X80527430Y10559027D01*
X80670840Y10559270D01*
X80776566Y10559327D01*
X81696822Y10559405D01*
X81696822Y11058367D01*
X80738661Y11058367D01*
G37*
X80738661Y11058367D02*
X80571204Y11058267D01*
X80416245Y11057971D01*
X80274459Y11057486D01*
X80146521Y11056817D01*
X80033106Y11055972D01*
X79934890Y11054956D01*
X79852547Y11053776D01*
X79786752Y11052439D01*
X79738181Y11050949D01*
X79707508Y11049314D01*
X79700726Y11048661D01*
X79567649Y11025849D01*
X79447443Y10991025D01*
X79337874Y10943413D01*
X79253669Y10893805D01*
X79159174Y10820288D01*
X79078885Y10734805D01*
X79012547Y10636984D01*
X78959903Y10526454D01*
X78923394Y10413402D01*
X78913672Y10373333D01*
X78906647Y10336271D01*
X78901790Y10297381D01*
X78898575Y10251827D01*
X78896472Y10194774D01*
X78895650Y10159294D01*
X78895069Y10101417D01*
X78895576Y10045621D01*
X78897051Y9996551D01*
X78899376Y9958852D01*
X78901140Y9943561D01*
X78932069Y9806122D01*
X78980329Y9675115D01*
X79045107Y9551942D01*
X79125590Y9438004D01*
X79220964Y9334701D01*
X79289069Y9275117D01*
X79333763Y9239163D01*
X79482064Y9380418D01*
X79537578Y9433169D01*
X79580868Y9474391D01*
X79613129Y9505767D01*
X79635554Y9528978D01*
X79649337Y9545706D01*
X79655671Y9557632D01*
X79655750Y9566440D01*
X79650768Y9573810D01*
X79641918Y9581424D01*
X79631067Y9590370D01*
X79605108Y9612717D01*
X79580877Y9632875D01*
X79574207Y9638220D01*
X79549533Y9661711D01*
X79518783Y9696925D01*
X79485387Y9739330D01*
X79452773Y9784395D01*
X79424369Y9827589D01*
X79404641Y9862302D01*
X79368831Y9948036D01*
X79348921Y10033872D01*
X79343226Y10119650D01*
X79351051Y10212894D01*
X79374350Y10295538D01*
X79412865Y10367325D01*
X79466335Y10427993D01*
X79534501Y10477285D01*
X79617103Y10514941D01*
X79713880Y10540703D01*
X79774984Y10549931D01*
X79797733Y10551434D01*
X79838226Y10552837D01*
X79895379Y10554131D01*
X79968107Y10555305D01*
X80055326Y10556350D01*
X80155953Y10557254D01*
X80268902Y10558009D01*
X80393089Y10558603D01*
X80527430Y10559027D01*
X80670840Y10559270D01*
X80776566Y10559327D01*
X81696822Y10559405D01*
X81696822Y11058367D01*
X80738661Y11058367D01*
G36*
X81031044Y16008911D02*
G01*
X81005813Y16140323D01*
X80989141Y16198619D01*
X80944574Y16308576D01*
X80885184Y16407119D01*
X80811644Y16493525D01*
X80724631Y16567066D01*
X80624820Y16627020D01*
X80565247Y16653726D01*
X80532244Y16666376D01*
X80499589Y16677467D01*
X80465855Y16687100D01*
X80429618Y16695376D01*
X80389448Y16702396D01*
X80343922Y16708260D01*
X80291611Y16713071D01*
X80231090Y16716929D01*
X80160931Y16719934D01*
X80079710Y16722188D01*
X79985999Y16723792D01*
X79878371Y16724847D01*
X79755402Y16725454D01*
X79615663Y16725713D01*
X79547989Y16725744D01*
X78928994Y16725824D01*
X78928994Y16255105D01*
X79185680Y16255105D01*
X79115097Y16181227D01*
X79040571Y16092622D01*
X78981700Y15998419D01*
X78937658Y15896570D01*
X78907614Y15785026D01*
X78890741Y15661739D01*
X78887997Y15619635D01*
X78886803Y15569410D01*
X78887660Y15516836D01*
X78890359Y15470819D01*
X78891786Y15457207D01*
X78913653Y15342243D01*
X78949341Y15233726D01*
X78997623Y15134182D01*
X79057267Y15046134D01*
X79127045Y14972105D01*
X79128929Y14970439D01*
X79202548Y14915837D01*
X79283735Y14875706D01*
X79374197Y14849526D01*
X79475641Y14836774D01*
X79555050Y14836122D01*
X79555050Y15308960D01*
X79510476Y15309410D01*
X79479073Y15311493D01*
X79455193Y15316306D01*
X79433184Y15324948D01*
X79409775Y15337203D01*
X79353433Y15378795D01*
X79307331Y15434568D01*
X79271987Y15502575D01*
X79247921Y15580872D01*
X79235652Y15667514D01*
X79235698Y15760556D01*
X79248579Y15858052D01*
X79258789Y15903207D01*
X79289679Y15992022D01*
X79333894Y16072292D01*
X79389549Y16141569D01*
X79454758Y16197403D01*
X79510107Y16229605D01*
X79536704Y16241827D01*
X79558808Y16250210D01*
X79580972Y16255478D01*
X79607751Y16258352D01*
X79643700Y16259556D01*
X79693373Y16259811D01*
X79700519Y16259812D01*
X79827159Y16259812D01*
X79849057Y16190045D01*
X79873220Y16101118D01*
X79889539Y16011170D01*
X79898780Y15914582D01*
X79901706Y15805737D01*
X79901705Y15803215D01*
X79901160Y15740866D01*
X79899348Y15692608D01*
X79895832Y15653722D01*
X79890177Y15619490D01*
X79881943Y15585191D01*
X79881292Y15582788D01*
X79851901Y15498564D01*
X79813664Y15430323D01*
X79765855Y15377061D01*
X79707750Y15337773D01*
X79702683Y15335227D01*
X79675358Y15322808D01*
X79650893Y15315030D01*
X79623362Y15310839D01*
X79586840Y15309180D01*
X79555050Y15308960D01*
X79555050Y14836122D01*
X79569172Y14836006D01*
X79672976Y14845190D01*
X79763764Y14865400D01*
X79844511Y14897728D01*
X79918196Y14943268D01*
X79964153Y14980865D01*
X80031272Y15053546D01*
X80088114Y15141143D01*
X80134347Y15242581D01*
X80169639Y15356788D01*
X80193660Y15482692D01*
X80206079Y15619220D01*
X80206563Y15765299D01*
X80206553Y15765557D01*
X80201050Y15853971D01*
X80191415Y15944863D01*
X80178368Y16033888D01*
X80162626Y16116704D01*
X80144909Y16188967D01*
X80127809Y16241545D01*
X80126516Y16248699D01*
X80131344Y16253064D01*
X80145364Y16255021D01*
X80171651Y16254951D01*
X80213276Y16253234D01*
X80219611Y16252927D01*
X80313217Y16241412D01*
X80394116Y16216428D01*
X80462596Y16177679D01*
X80518943Y16124866D01*
X80563444Y16057692D01*
X80596387Y15975860D01*
X80618058Y15879072D01*
X80623863Y15833940D01*
X80627835Y15742747D01*
X80622761Y15640350D01*
X80609409Y15531611D01*
X80588550Y15421393D01*
X80560950Y15314560D01*
X80527381Y15215973D01*
X80525266Y15210607D01*
X80514215Y15179598D01*
X80508059Y15155681D01*
X80508065Y15143837D01*
X80508229Y15143670D01*
X80518928Y15138837D01*
X80544664Y15128981D01*
X80582640Y15115116D01*
X80630060Y15098262D01*
X80684127Y15079436D01*
X80695527Y15075512D01*
X80875738Y15013597D01*
X80908818Y15100085D01*
X80960909Y15254220D01*
X81000540Y15410400D01*
X81027539Y15566291D01*
X81041737Y15719562D01*
X81042962Y15867880D01*
X81031044Y16008911D01*
G37*
X81031044Y16008911D02*
X81005813Y16140323D01*
X80989141Y16198619D01*
X80944574Y16308576D01*
X80885184Y16407119D01*
X80811644Y16493525D01*
X80724631Y16567066D01*
X80624820Y16627020D01*
X80565247Y16653726D01*
X80532244Y16666376D01*
X80499589Y16677467D01*
X80465855Y16687100D01*
X80429618Y16695376D01*
X80389448Y16702396D01*
X80343922Y16708260D01*
X80291611Y16713071D01*
X80231090Y16716929D01*
X80160931Y16719934D01*
X80079710Y16722188D01*
X79985999Y16723792D01*
X79878371Y16724847D01*
X79755402Y16725454D01*
X79615663Y16725713D01*
X79547989Y16725744D01*
X78928994Y16725824D01*
X78928994Y16255105D01*
X79185680Y16255105D01*
X79115097Y16181227D01*
X79040571Y16092622D01*
X78981700Y15998419D01*
X78937658Y15896570D01*
X78907614Y15785026D01*
X78890741Y15661739D01*
X78887997Y15619635D01*
X78886803Y15569410D01*
X78887660Y15516836D01*
X78890359Y15470819D01*
X78891786Y15457207D01*
X78913653Y15342243D01*
X78949341Y15233726D01*
X78997623Y15134182D01*
X79057267Y15046134D01*
X79127045Y14972105D01*
X79128929Y14970439D01*
X79202548Y14915837D01*
X79283735Y14875706D01*
X79374197Y14849526D01*
X79475641Y14836774D01*
X79555050Y14836122D01*
X79555050Y15308960D01*
X79510476Y15309410D01*
X79479073Y15311493D01*
X79455193Y15316306D01*
X79433184Y15324948D01*
X79409775Y15337203D01*
X79353433Y15378795D01*
X79307331Y15434568D01*
X79271987Y15502575D01*
X79247921Y15580872D01*
X79235652Y15667514D01*
X79235698Y15760556D01*
X79248579Y15858052D01*
X79258789Y15903207D01*
X79289679Y15992022D01*
X79333894Y16072292D01*
X79389549Y16141569D01*
X79454758Y16197403D01*
X79510107Y16229605D01*
X79536704Y16241827D01*
X79558808Y16250210D01*
X79580972Y16255478D01*
X79607751Y16258352D01*
X79643700Y16259556D01*
X79693373Y16259811D01*
X79700519Y16259812D01*
X79827159Y16259812D01*
X79849057Y16190045D01*
X79873220Y16101118D01*
X79889539Y16011170D01*
X79898780Y15914582D01*
X79901706Y15805737D01*
X79901705Y15803215D01*
X79901160Y15740866D01*
X79899348Y15692608D01*
X79895832Y15653722D01*
X79890177Y15619490D01*
X79881943Y15585191D01*
X79881292Y15582788D01*
X79851901Y15498564D01*
X79813664Y15430323D01*
X79765855Y15377061D01*
X79707750Y15337773D01*
X79702683Y15335227D01*
X79675358Y15322808D01*
X79650893Y15315030D01*
X79623362Y15310839D01*
X79586840Y15309180D01*
X79555050Y15308960D01*
X79555050Y14836122D01*
X79569172Y14836006D01*
X79672976Y14845190D01*
X79763764Y14865400D01*
X79844511Y14897728D01*
X79918196Y14943268D01*
X79964153Y14980865D01*
X80031272Y15053546D01*
X80088114Y15141143D01*
X80134347Y15242581D01*
X80169639Y15356788D01*
X80193660Y15482692D01*
X80206079Y15619220D01*
X80206563Y15765299D01*
X80206553Y15765557D01*
X80201050Y15853971D01*
X80191415Y15944863D01*
X80178368Y16033888D01*
X80162626Y16116704D01*
X80144909Y16188967D01*
X80127809Y16241545D01*
X80126516Y16248699D01*
X80131344Y16253064D01*
X80145364Y16255021D01*
X80171651Y16254951D01*
X80213276Y16253234D01*
X80219611Y16252927D01*
X80313217Y16241412D01*
X80394116Y16216428D01*
X80462596Y16177679D01*
X80518943Y16124866D01*
X80563444Y16057692D01*
X80596387Y15975860D01*
X80618058Y15879072D01*
X80623863Y15833940D01*
X80627835Y15742747D01*
X80622761Y15640350D01*
X80609409Y15531611D01*
X80588550Y15421393D01*
X80560950Y15314560D01*
X80527381Y15215973D01*
X80525266Y15210607D01*
X80514215Y15179598D01*
X80508059Y15155681D01*
X80508065Y15143837D01*
X80508229Y15143670D01*
X80518928Y15138837D01*
X80544664Y15128981D01*
X80582640Y15115116D01*
X80630060Y15098262D01*
X80684127Y15079436D01*
X80695527Y15075512D01*
X80875738Y15013597D01*
X80908818Y15100085D01*
X80960909Y15254220D01*
X81000540Y15410400D01*
X81027539Y15566291D01*
X81041737Y15719562D01*
X81042962Y15867880D01*
X81031044Y16008911D01*
G36*
X75520988Y19390094D02*
G01*
X75520988Y9260220D01*
X77290891Y9260220D01*
X77290891Y12602325D01*
X76057607Y12602325D01*
X76057771Y12948304D01*
X76058009Y13047863D01*
X76058661Y13130422D01*
X76059787Y13197803D01*
X76061449Y13251831D01*
X76063706Y13294331D01*
X76066621Y13327127D01*
X76070253Y13352043D01*
X76071403Y13357842D01*
X76096985Y13443631D01*
X76134249Y13515545D01*
X76182809Y13573018D01*
X76242274Y13615482D01*
X76251340Y13620144D01*
X76285848Y13635871D01*
X76315029Y13644990D01*
X76346912Y13649259D01*
X76389525Y13650436D01*
X76389672Y13650436D01*
X76469635Y13644232D01*
X76537289Y13624324D01*
X76594081Y13589866D01*
X76641459Y13540010D01*
X76676668Y13482423D01*
X76703915Y13428539D01*
X76734013Y13469466D01*
X76774281Y13513111D01*
X76822815Y13548597D01*
X76872966Y13571113D01*
X76875592Y13571867D01*
X76903357Y13576891D01*
X76940887Y13580339D01*
X76972803Y13581369D01*
X77048975Y13572881D01*
X77116868Y13547897D01*
X77175363Y13507339D01*
X77223336Y13452125D01*
X77259668Y13383176D01*
X77276280Y13332316D01*
X77280321Y13313567D01*
X77283578Y13290201D01*
X77286126Y13260189D01*
X77288043Y13221500D01*
X77289402Y13172106D01*
X77290279Y13109977D01*
X77290751Y13033082D01*
X77290891Y12939392D01*
X77290891Y13939167D01*
X76057607Y13939167D01*
X76057607Y14824119D01*
X76302381Y14824119D01*
X76302381Y14212185D01*
X77290891Y14212185D01*
X77290891Y15087722D01*
X76057607Y15087722D01*
X76057607Y16029160D01*
X76302381Y16029160D01*
X76302381Y15360739D01*
X76556570Y15360739D01*
X76556570Y15944431D01*
X76801344Y15944431D01*
X76801344Y15360739D01*
X77046117Y15360739D01*
X77046117Y16019746D01*
X77290891Y16019746D01*
X77290891Y15087722D01*
X77290891Y14212185D01*
X77290891Y13939167D01*
X77290891Y12939392D01*
X77290891Y12602325D01*
X77290891Y9260220D01*
X77827511Y9260220D01*
X77827511Y19390094D01*
X75520988Y19390094D01*
G37*
X75520988Y19390094D02*
X75520988Y9260220D01*
X77290891Y9260220D01*
X77290891Y12602325D01*
X76057607Y12602325D01*
X76057771Y12948304D01*
X76058009Y13047863D01*
X76058661Y13130422D01*
X76059787Y13197803D01*
X76061449Y13251831D01*
X76063706Y13294331D01*
X76066621Y13327127D01*
X76070253Y13352043D01*
X76071403Y13357842D01*
X76096985Y13443631D01*
X76134249Y13515545D01*
X76182809Y13573018D01*
X76242274Y13615482D01*
X76251340Y13620144D01*
X76285848Y13635871D01*
X76315029Y13644990D01*
X76346912Y13649259D01*
X76389525Y13650436D01*
X76389672Y13650436D01*
X76469635Y13644232D01*
X76537289Y13624324D01*
X76594081Y13589866D01*
X76641459Y13540010D01*
X76676668Y13482423D01*
X76703915Y13428539D01*
X76734013Y13469466D01*
X76774281Y13513111D01*
X76822815Y13548597D01*
X76872966Y13571113D01*
X76875592Y13571867D01*
X76903357Y13576891D01*
X76940887Y13580339D01*
X76972803Y13581369D01*
X77048975Y13572881D01*
X77116868Y13547897D01*
X77175363Y13507339D01*
X77223336Y13452125D01*
X77259668Y13383176D01*
X77276280Y13332316D01*
X77280321Y13313567D01*
X77283578Y13290201D01*
X77286126Y13260189D01*
X77288043Y13221500D01*
X77289402Y13172106D01*
X77290279Y13109977D01*
X77290751Y13033082D01*
X77290891Y12939392D01*
X77290891Y13939167D01*
X76057607Y13939167D01*
X76057607Y14824119D01*
X76302381Y14824119D01*
X76302381Y14212185D01*
X77290891Y14212185D01*
X77290891Y15087722D01*
X76057607Y15087722D01*
X76057607Y16029160D01*
X76302381Y16029160D01*
X76302381Y15360739D01*
X76556570Y15360739D01*
X76556570Y15944431D01*
X76801344Y15944431D01*
X76801344Y15360739D01*
X77046117Y15360739D01*
X77046117Y16019746D01*
X77290891Y16019746D01*
X77290891Y15087722D01*
X77290891Y14212185D01*
X77290891Y13939167D01*
X77290891Y12939392D01*
X77290891Y12602325D01*
X77290891Y9260220D01*
X77827511Y9260220D01*
X77827511Y19390094D01*
X75520988Y19390094D01*
G36*
X74212389Y18025009D02*
G01*
X74212389Y17751992D01*
X74457163Y17751992D01*
X74457163Y18025009D01*
X74212389Y18025009D01*
G37*
X74212389Y18025009D02*
X74212389Y17751992D01*
X74457163Y17751992D01*
X74457163Y18025009D01*
X74212389Y18025009D01*
G36*
X72922619Y18015594D02*
G01*
X72922619Y17751992D01*
X74042930Y17751992D01*
X74042930Y18015594D01*
X72922619Y18015594D01*
G37*
X72922619Y18015594D02*
X72922619Y17751992D01*
X74042930Y17751992D01*
X74042930Y18015594D01*
X72922619Y18015594D01*
G36*
X74056812Y17045913D02*
G01*
X74056063Y17097528D01*
X74053598Y17135716D01*
X74048695Y17165854D01*
X74040630Y17193318D01*
X74034965Y17208280D01*
X73998675Y17274437D01*
X73947311Y17331605D01*
X73883153Y17378104D01*
X73808478Y17412255D01*
X73732255Y17431356D01*
X73708102Y17433687D01*
X73667338Y17435795D01*
X73612181Y17437631D01*
X73544849Y17439145D01*
X73467559Y17440285D01*
X73382530Y17441003D01*
X73296840Y17441246D01*
X72922619Y17441317D01*
X72922619Y17187129D01*
X73235647Y17186942D01*
X73313903Y17186617D01*
X73388983Y17185782D01*
X73458066Y17184509D01*
X73518329Y17182867D01*
X73566949Y17180927D01*
X73601104Y17178761D01*
X73612637Y17177508D01*
X73684869Y17160240D01*
X73742268Y17131397D01*
X73784951Y17090851D01*
X73813034Y17038475D01*
X73826634Y16974141D01*
X73828061Y16941551D01*
X73820171Y16871296D01*
X73796829Y16811629D01*
X73758525Y16763124D01*
X73705749Y16726351D01*
X73638991Y16701881D01*
X73618693Y16697469D01*
X73597625Y16695250D01*
X73560335Y16693220D01*
X73509431Y16691445D01*
X73447518Y16689990D01*
X73377203Y16688919D01*
X73301093Y16688299D01*
X73246130Y16688167D01*
X72922619Y16688167D01*
X72922619Y16433978D01*
X74042930Y16433978D01*
X74042930Y16688167D01*
X73962908Y16688167D01*
X73926743Y16688467D01*
X73899085Y16689268D01*
X73884257Y16690420D01*
X73882885Y16690929D01*
X73888984Y16698438D01*
X73905277Y16716143D01*
X73928763Y16740813D01*
X73940013Y16752435D01*
X73985717Y16806565D01*
X74021551Y16863298D01*
X74027096Y16874414D01*
X74040152Y16903134D01*
X74048728Y16926973D01*
X74053749Y16951261D01*
X74056137Y16981330D01*
X74056817Y17022511D01*
X74056812Y17045913D01*
G37*
X74056812Y17045913D02*
X74056063Y17097528D01*
X74053598Y17135716D01*
X74048695Y17165854D01*
X74040630Y17193318D01*
X74034965Y17208280D01*
X73998675Y17274437D01*
X73947311Y17331605D01*
X73883153Y17378104D01*
X73808478Y17412255D01*
X73732255Y17431356D01*
X73708102Y17433687D01*
X73667338Y17435795D01*
X73612181Y17437631D01*
X73544849Y17439145D01*
X73467559Y17440285D01*
X73382530Y17441003D01*
X73296840Y17441246D01*
X72922619Y17441317D01*
X72922619Y17187129D01*
X73235647Y17186942D01*
X73313903Y17186617D01*
X73388983Y17185782D01*
X73458066Y17184509D01*
X73518329Y17182867D01*
X73566949Y17180927D01*
X73601104Y17178761D01*
X73612637Y17177508D01*
X73684869Y17160240D01*
X73742268Y17131397D01*
X73784951Y17090851D01*
X73813034Y17038475D01*
X73826634Y16974141D01*
X73828061Y16941551D01*
X73820171Y16871296D01*
X73796829Y16811629D01*
X73758525Y16763124D01*
X73705749Y16726351D01*
X73638991Y16701881D01*
X73618693Y16697469D01*
X73597625Y16695250D01*
X73560335Y16693220D01*
X73509431Y16691445D01*
X73447518Y16689990D01*
X73377203Y16688919D01*
X73301093Y16688299D01*
X73246130Y16688167D01*
X72922619Y16688167D01*
X72922619Y16433978D01*
X74042930Y16433978D01*
X74042930Y16688167D01*
X73962908Y16688167D01*
X73926743Y16688467D01*
X73899085Y16689268D01*
X73884257Y16690420D01*
X73882885Y16690929D01*
X73888984Y16698438D01*
X73905277Y16716143D01*
X73928763Y16740813D01*
X73940013Y16752435D01*
X73985717Y16806565D01*
X74021551Y16863298D01*
X74027096Y16874414D01*
X74040152Y16903134D01*
X74048728Y16926973D01*
X74053749Y16951261D01*
X74056137Y16981330D01*
X74056817Y17022511D01*
X74056812Y17045913D01*
G36*
X73157978Y12790613D02*
G01*
X73157978Y13572007D01*
X72922619Y13572007D01*
X72922619Y12527010D01*
X74400676Y12527010D01*
X74400676Y12790613D01*
X73157978Y12790613D01*
G37*
X73157978Y12790613D02*
X73157978Y13572007D01*
X72922619Y13572007D01*
X72922619Y12527010D01*
X74400676Y12527010D01*
X74400676Y12790613D01*
X73157978Y12790613D01*
G36*
X72922619Y16123304D02*
G01*
X72922619Y15869116D01*
X73106199Y15868656D01*
X73057598Y15826384D01*
X72993992Y15760013D01*
X72947593Y15686261D01*
X72918130Y15604520D01*
X72905334Y15514180D01*
X72904735Y15481069D01*
X72906071Y15437630D01*
X72908817Y15397134D01*
X72912471Y15366262D01*
X72913983Y15358483D01*
X72928713Y15315008D01*
X72952807Y15264153D01*
X72982760Y15212282D01*
X73015065Y15165758D01*
X73030318Y15147263D01*
X73097235Y15085151D01*
X73177159Y15033979D01*
X73264762Y14996688D01*
X73296865Y14986614D01*
X73325016Y14979603D01*
X73353896Y14975111D01*
X73388186Y14972592D01*
X73432565Y14971500D01*
X73459470Y14971386D01*
X73459470Y15227181D01*
X73387753Y15234549D01*
X73324448Y15251613D01*
X73313439Y15256156D01*
X73272302Y15280207D01*
X73228933Y15314989D01*
X73189966Y15354620D01*
X73165520Y15387305D01*
X73136292Y15451818D01*
X73122947Y15522520D01*
X73126109Y15594567D01*
X73134234Y15630120D01*
X73164228Y15699104D01*
X73209452Y15759360D01*
X73267406Y15808497D01*
X73335590Y15844125D01*
X73369707Y15855320D01*
X73443221Y15867452D01*
X73520901Y15866750D01*
X73595811Y15853697D01*
X73645936Y15836121D01*
X73699339Y15804452D01*
X73750109Y15760558D01*
X73792725Y15709917D01*
X73818943Y15664472D01*
X73834009Y15612791D01*
X73839521Y15552165D01*
X73835347Y15489951D01*
X73823064Y15438299D01*
X73798958Y15389947D01*
X73761972Y15341329D01*
X73717137Y15297985D01*
X73669486Y15265453D01*
X73663090Y15262182D01*
X73603339Y15241104D01*
X73533399Y15229401D01*
X73459470Y15227181D01*
X73459470Y14971386D01*
X73482774Y14971287D01*
X73539725Y14971586D01*
X73582501Y14972842D01*
X73615752Y14975593D01*
X73644128Y14980378D01*
X73672279Y14987733D01*
X73699305Y14996343D01*
X73791983Y15036194D01*
X73872854Y15089406D01*
X73940813Y15154494D01*
X73994750Y15229969D01*
X74033560Y15314344D01*
X74056133Y15406133D01*
X74061759Y15483126D01*
X74055855Y15570014D01*
X74037032Y15645942D01*
X74003622Y15715049D01*
X73953954Y15781472D01*
X73931729Y15805569D01*
X73870382Y15869116D01*
X74466577Y15869116D01*
X74466577Y16123304D01*
X72922619Y16123304D01*
G37*
X72922619Y16123304D02*
X72922619Y15869116D01*
X73106199Y15868656D01*
X73057598Y15826384D01*
X72993992Y15760013D01*
X72947593Y15686261D01*
X72918130Y15604520D01*
X72905334Y15514180D01*
X72904735Y15481069D01*
X72906071Y15437630D01*
X72908817Y15397134D01*
X72912471Y15366262D01*
X72913983Y15358483D01*
X72928713Y15315008D01*
X72952807Y15264153D01*
X72982760Y15212282D01*
X73015065Y15165758D01*
X73030318Y15147263D01*
X73097235Y15085151D01*
X73177159Y15033979D01*
X73264762Y14996688D01*
X73296865Y14986614D01*
X73325016Y14979603D01*
X73353896Y14975111D01*
X73388186Y14972592D01*
X73432565Y14971500D01*
X73459470Y14971386D01*
X73459470Y15227181D01*
X73387753Y15234549D01*
X73324448Y15251613D01*
X73313439Y15256156D01*
X73272302Y15280207D01*
X73228933Y15314989D01*
X73189966Y15354620D01*
X73165520Y15387305D01*
X73136292Y15451818D01*
X73122947Y15522520D01*
X73126109Y15594567D01*
X73134234Y15630120D01*
X73164228Y15699104D01*
X73209452Y15759360D01*
X73267406Y15808497D01*
X73335590Y15844125D01*
X73369707Y15855320D01*
X73443221Y15867452D01*
X73520901Y15866750D01*
X73595811Y15853697D01*
X73645936Y15836121D01*
X73699339Y15804452D01*
X73750109Y15760558D01*
X73792725Y15709917D01*
X73818943Y15664472D01*
X73834009Y15612791D01*
X73839521Y15552165D01*
X73835347Y15489951D01*
X73823064Y15438299D01*
X73798958Y15389947D01*
X73761972Y15341329D01*
X73717137Y15297985D01*
X73669486Y15265453D01*
X73663090Y15262182D01*
X73603339Y15241104D01*
X73533399Y15229401D01*
X73459470Y15227181D01*
X73459470Y14971386D01*
X73482774Y14971287D01*
X73539725Y14971586D01*
X73582501Y14972842D01*
X73615752Y14975593D01*
X73644128Y14980378D01*
X73672279Y14987733D01*
X73699305Y14996343D01*
X73791983Y15036194D01*
X73872854Y15089406D01*
X73940813Y15154494D01*
X73994750Y15229969D01*
X74033560Y15314344D01*
X74056133Y15406133D01*
X74061759Y15483126D01*
X74055855Y15570014D01*
X74037032Y15645942D01*
X74003622Y15715049D01*
X73953954Y15781472D01*
X73931729Y15805569D01*
X73870382Y15869116D01*
X74466577Y15869116D01*
X74466577Y16123304D01*
X72922619Y16123304D01*
G36*
X74052465Y14307584D02*
G01*
X74046980Y14365339D01*
X74038804Y14409214D01*
X74008348Y14494830D01*
X73965883Y14566233D01*
X73910596Y14624238D01*
X73841673Y14669659D01*
X73758301Y14703307D01*
X73739172Y14708874D01*
X73722047Y14713001D01*
X73702381Y14716374D01*
X73678192Y14719068D01*
X73647500Y14721156D01*
X73608325Y14722713D01*
X73558687Y14723813D01*
X73496606Y14724528D01*
X73420100Y14724934D01*
X73327191Y14725105D01*
X73303901Y14725118D01*
X72927326Y14725268D01*
X72924699Y14600528D01*
X72922072Y14475787D01*
X73054637Y14475787D01*
X73012175Y14423656D01*
X72971563Y14368710D01*
X72942898Y14316486D01*
X72922282Y14259534D01*
X72917867Y14243444D01*
X72909066Y14192642D01*
X72905144Y14131742D01*
X72906089Y14068480D01*
X72911885Y14010592D01*
X72918336Y13979185D01*
X72948041Y13899927D01*
X72990777Y13832479D01*
X73045365Y13778364D01*
X73100160Y13744012D01*
X73126503Y13731992D01*
X73150128Y13724335D01*
X73176627Y13720081D01*
X73211597Y13718268D01*
X73252122Y13717930D01*
X73263850Y13718054D01*
X73263850Y13967790D01*
X73224361Y13970826D01*
X73191765Y13979002D01*
X73186240Y13981522D01*
X73155275Y14005206D01*
X73126421Y14040410D01*
X73105264Y14080147D01*
X73103436Y14085090D01*
X73096824Y14116985D01*
X73093574Y14160607D01*
X73093637Y14209163D01*
X73096968Y14255863D01*
X73103519Y14293915D01*
X73104913Y14298913D01*
X73128646Y14353942D01*
X73163483Y14404054D01*
X73205004Y14443323D01*
X73220086Y14453285D01*
X73247209Y14467113D01*
X73274223Y14475000D01*
X73308417Y14478606D01*
X73334818Y14479395D01*
X73406871Y14480494D01*
X73424381Y14419301D01*
X73434878Y14369465D01*
X73441511Y14310372D01*
X73444211Y14247583D01*
X73442910Y14186660D01*
X73437538Y14133163D01*
X73428430Y14093793D01*
X73404197Y14046645D01*
X73368690Y14005325D01*
X73330409Y13977955D01*
X73301957Y13970098D01*
X73263850Y13967790D01*
X73263850Y13718054D01*
X73298679Y13718423D01*
X73332015Y13720542D01*
X73357723Y13725248D01*
X73381399Y13733501D01*
X73404084Y13744012D01*
X73468024Y13785698D01*
X73520527Y13842335D01*
X73561583Y13913903D01*
X73591178Y14000387D01*
X73597037Y14025514D01*
X73604625Y14079645D01*
X73607919Y14146046D01*
X73607124Y14218703D01*
X73602444Y14291605D01*
X73594084Y14358736D01*
X73584037Y14407533D01*
X73566132Y14475787D01*
X73613890Y14475695D01*
X73656302Y14470344D01*
X73701492Y14456327D01*
X73742299Y14436475D01*
X73771558Y14413620D01*
X73771907Y14413231D01*
X73802983Y14364864D01*
X73823445Y14303218D01*
X73833190Y14230632D01*
X73832115Y14149449D01*
X73820115Y14062010D01*
X73797088Y13970655D01*
X73792116Y13955046D01*
X73781391Y13920913D01*
X73773979Y13894451D01*
X73771072Y13880027D01*
X73771294Y13878660D01*
X73784083Y13872543D01*
X73809543Y13863425D01*
X73842994Y13852683D01*
X73879759Y13841691D01*
X73915158Y13831823D01*
X73944512Y13824455D01*
X73963143Y13820962D01*
X73967054Y13821141D01*
X73974428Y13832874D01*
X73985120Y13858867D01*
X73997856Y13895116D01*
X74011363Y13937621D01*
X74024367Y13982380D01*
X74035595Y14025392D01*
X74043564Y14061554D01*
X74050573Y14113815D01*
X74054340Y14176073D01*
X74054944Y14242579D01*
X74052465Y14307584D01*
G37*
X74052465Y14307584D02*
X74046980Y14365339D01*
X74038804Y14409214D01*
X74008348Y14494830D01*
X73965883Y14566233D01*
X73910596Y14624238D01*
X73841673Y14669659D01*
X73758301Y14703307D01*
X73739172Y14708874D01*
X73722047Y14713001D01*
X73702381Y14716374D01*
X73678192Y14719068D01*
X73647500Y14721156D01*
X73608325Y14722713D01*
X73558687Y14723813D01*
X73496606Y14724528D01*
X73420100Y14724934D01*
X73327191Y14725105D01*
X73303901Y14725118D01*
X72927326Y14725268D01*
X72924699Y14600528D01*
X72922072Y14475787D01*
X73054637Y14475787D01*
X73012175Y14423656D01*
X72971563Y14368710D01*
X72942898Y14316486D01*
X72922282Y14259534D01*
X72917867Y14243444D01*
X72909066Y14192642D01*
X72905144Y14131742D01*
X72906089Y14068480D01*
X72911885Y14010592D01*
X72918336Y13979185D01*
X72948041Y13899927D01*
X72990777Y13832479D01*
X73045365Y13778364D01*
X73100160Y13744012D01*
X73126503Y13731992D01*
X73150128Y13724335D01*
X73176627Y13720081D01*
X73211597Y13718268D01*
X73252122Y13717930D01*
X73263850Y13718054D01*
X73263850Y13967790D01*
X73224361Y13970826D01*
X73191765Y13979002D01*
X73186240Y13981522D01*
X73155275Y14005206D01*
X73126421Y14040410D01*
X73105264Y14080147D01*
X73103436Y14085090D01*
X73096824Y14116985D01*
X73093574Y14160607D01*
X73093637Y14209163D01*
X73096968Y14255863D01*
X73103519Y14293915D01*
X73104913Y14298913D01*
X73128646Y14353942D01*
X73163483Y14404054D01*
X73205004Y14443323D01*
X73220086Y14453285D01*
X73247209Y14467113D01*
X73274223Y14475000D01*
X73308417Y14478606D01*
X73334818Y14479395D01*
X73406871Y14480494D01*
X73424381Y14419301D01*
X73434878Y14369465D01*
X73441511Y14310372D01*
X73444211Y14247583D01*
X73442910Y14186660D01*
X73437538Y14133163D01*
X73428430Y14093793D01*
X73404197Y14046645D01*
X73368690Y14005325D01*
X73330409Y13977955D01*
X73301957Y13970098D01*
X73263850Y13967790D01*
X73263850Y13718054D01*
X73298679Y13718423D01*
X73332015Y13720542D01*
X73357723Y13725248D01*
X73381399Y13733501D01*
X73404084Y13744012D01*
X73468024Y13785698D01*
X73520527Y13842335D01*
X73561583Y13913903D01*
X73591178Y14000387D01*
X73597037Y14025514D01*
X73604625Y14079645D01*
X73607919Y14146046D01*
X73607124Y14218703D01*
X73602444Y14291605D01*
X73594084Y14358736D01*
X73584037Y14407533D01*
X73566132Y14475787D01*
X73613890Y14475695D01*
X73656302Y14470344D01*
X73701492Y14456327D01*
X73742299Y14436475D01*
X73771558Y14413620D01*
X73771907Y14413231D01*
X73802983Y14364864D01*
X73823445Y14303218D01*
X73833190Y14230632D01*
X73832115Y14149449D01*
X73820115Y14062010D01*
X73797088Y13970655D01*
X73792116Y13955046D01*
X73781391Y13920913D01*
X73773979Y13894451D01*
X73771072Y13880027D01*
X73771294Y13878660D01*
X73784083Y13872543D01*
X73809543Y13863425D01*
X73842994Y13852683D01*
X73879759Y13841691D01*
X73915158Y13831823D01*
X73944512Y13824455D01*
X73963143Y13820962D01*
X73967054Y13821141D01*
X73974428Y13832874D01*
X73985120Y13858867D01*
X73997856Y13895116D01*
X74011363Y13937621D01*
X74024367Y13982380D01*
X74035595Y14025392D01*
X74043564Y14061554D01*
X74050573Y14113815D01*
X74054340Y14176073D01*
X74054944Y14242579D01*
X74052465Y14307584D01*
G36*
X73860688Y9514408D02*
G01*
X73921235Y9574069D01*
X73981185Y9642383D01*
X74023605Y9713059D01*
X74049782Y9789094D01*
X74061004Y9873483D01*
X74061647Y9900774D01*
X74052861Y9996349D01*
X74026978Y10085907D01*
X73985172Y10167976D01*
X73928617Y10241086D01*
X73858487Y10303766D01*
X73775957Y10354545D01*
X73682200Y10391953D01*
X73665675Y10396754D01*
X73630852Y10404533D01*
X73590784Y10409536D01*
X73541043Y10412131D01*
X73477206Y10412684D01*
X73473360Y10412663D01*
X73417404Y10411931D01*
X73375150Y10410074D01*
X73341479Y10406453D01*
X73311270Y10400431D01*
X73279402Y10391370D01*
X73264762Y10386658D01*
X73177890Y10349408D01*
X73099195Y10298444D01*
X73030865Y10236036D01*
X72975090Y10164455D01*
X72934058Y10085973D01*
X72914007Y10022785D01*
X72908803Y9986977D01*
X72905913Y9939295D01*
X72905332Y9886456D01*
X72907052Y9835172D01*
X72911067Y9792159D01*
X72914261Y9774412D01*
X72932040Y9723696D01*
X72961122Y9668270D01*
X72997668Y9614613D01*
X73033238Y9573717D01*
X73057083Y9549230D01*
X73074616Y9530055D01*
X73082515Y9519850D01*
X73082663Y9519320D01*
X73073970Y9517100D01*
X73050772Y9515403D01*
X73017393Y9514493D01*
X73002641Y9514408D01*
X72922619Y9514408D01*
X72922619Y9260220D01*
X73482774Y9260220D01*
X73482774Y9519116D01*
X73431869Y9519584D01*
X73395031Y9521412D01*
X73367512Y9525237D01*
X73344562Y9531697D01*
X73323480Y9540478D01*
X73252487Y9582834D01*
X73195354Y9637831D01*
X73152535Y9704965D01*
X73133374Y9752461D01*
X73125136Y9796968D01*
X73124545Y9850552D01*
X73131074Y9905326D01*
X73144196Y9953405D01*
X73147325Y9960984D01*
X73179491Y10014415D01*
X73225180Y10064291D01*
X73279156Y10105440D01*
X73311109Y10122770D01*
X73337784Y10134442D01*
X73360987Y10142188D01*
X73385762Y10146805D01*
X73417155Y10149088D01*
X73460209Y10149833D01*
X73482972Y10149879D01*
X73531654Y10149621D01*
X73566533Y10148262D01*
X73592634Y10144922D01*
X73614983Y10138723D01*
X73638605Y10128787D01*
X73658479Y10119191D01*
X73723049Y10078059D01*
X73774061Y10026450D01*
X73811059Y9966894D01*
X73833591Y9901918D01*
X73841202Y9834053D01*
X73833438Y9765826D01*
X73809844Y9699767D01*
X73769966Y9638404D01*
X73748969Y9615356D01*
X73716592Y9587800D01*
X73677236Y9560848D01*
X73651720Y9546598D01*
X73626454Y9534812D01*
X73604518Y9526978D01*
X73580991Y9522294D01*
X73550953Y9519960D01*
X73509484Y9519176D01*
X73482774Y9519116D01*
X73482774Y9260220D01*
X74466577Y9260220D01*
X74466577Y9514408D01*
X73860688Y9514408D01*
G37*
X73860688Y9514408D02*
X73921235Y9574069D01*
X73981185Y9642383D01*
X74023605Y9713059D01*
X74049782Y9789094D01*
X74061004Y9873483D01*
X74061647Y9900774D01*
X74052861Y9996349D01*
X74026978Y10085907D01*
X73985172Y10167976D01*
X73928617Y10241086D01*
X73858487Y10303766D01*
X73775957Y10354545D01*
X73682200Y10391953D01*
X73665675Y10396754D01*
X73630852Y10404533D01*
X73590784Y10409536D01*
X73541043Y10412131D01*
X73477206Y10412684D01*
X73473360Y10412663D01*
X73417404Y10411931D01*
X73375150Y10410074D01*
X73341479Y10406453D01*
X73311270Y10400431D01*
X73279402Y10391370D01*
X73264762Y10386658D01*
X73177890Y10349408D01*
X73099195Y10298444D01*
X73030865Y10236036D01*
X72975090Y10164455D01*
X72934058Y10085973D01*
X72914007Y10022785D01*
X72908803Y9986977D01*
X72905913Y9939295D01*
X72905332Y9886456D01*
X72907052Y9835172D01*
X72911067Y9792159D01*
X72914261Y9774412D01*
X72932040Y9723696D01*
X72961122Y9668270D01*
X72997668Y9614613D01*
X73033238Y9573717D01*
X73057083Y9549230D01*
X73074616Y9530055D01*
X73082515Y9519850D01*
X73082663Y9519320D01*
X73073970Y9517100D01*
X73050772Y9515403D01*
X73017393Y9514493D01*
X73002641Y9514408D01*
X72922619Y9514408D01*
X72922619Y9260220D01*
X73482774Y9260220D01*
X73482774Y9519116D01*
X73431869Y9519584D01*
X73395031Y9521412D01*
X73367512Y9525237D01*
X73344562Y9531697D01*
X73323480Y9540478D01*
X73252487Y9582834D01*
X73195354Y9637831D01*
X73152535Y9704965D01*
X73133374Y9752461D01*
X73125136Y9796968D01*
X73124545Y9850552D01*
X73131074Y9905326D01*
X73144196Y9953405D01*
X73147325Y9960984D01*
X73179491Y10014415D01*
X73225180Y10064291D01*
X73279156Y10105440D01*
X73311109Y10122770D01*
X73337784Y10134442D01*
X73360987Y10142188D01*
X73385762Y10146805D01*
X73417155Y10149088D01*
X73460209Y10149833D01*
X73482972Y10149879D01*
X73531654Y10149621D01*
X73566533Y10148262D01*
X73592634Y10144922D01*
X73614983Y10138723D01*
X73638605Y10128787D01*
X73658479Y10119191D01*
X73723049Y10078059D01*
X73774061Y10026450D01*
X73811059Y9966894D01*
X73833591Y9901918D01*
X73841202Y9834053D01*
X73833438Y9765826D01*
X73809844Y9699767D01*
X73769966Y9638404D01*
X73748969Y9615356D01*
X73716592Y9587800D01*
X73677236Y9560848D01*
X73651720Y9546598D01*
X73626454Y9534812D01*
X73604518Y9526978D01*
X73580991Y9522294D01*
X73550953Y9519960D01*
X73509484Y9519176D01*
X73482774Y9519116D01*
X73482774Y9260220D01*
X74466577Y9260220D01*
X74466577Y9514408D01*
X73860688Y9514408D01*
G36*
X73993504Y19360836D02*
G01*
X73975982Y19353972D01*
X73942585Y19340962D01*
X73894996Y19322458D01*
X73834897Y19299114D01*
X73763971Y19271583D01*
X73683902Y19240519D01*
X73596372Y19206573D01*
X73503064Y19170401D01*
X73405660Y19132654D01*
X73401919Y19131205D01*
X73303634Y19092994D01*
X73208832Y19055890D01*
X73119277Y19020597D01*
X73036731Y18987822D01*
X72962955Y18958271D01*
X72899713Y18932650D01*
X72848768Y18911664D01*
X72811881Y18896020D01*
X72790864Y18886448D01*
X72723582Y18846225D01*
X72667622Y18799819D01*
X72625610Y18749748D01*
X72602829Y18706192D01*
X72591396Y18665680D01*
X72582868Y18616527D01*
X72578104Y18566289D01*
X72577965Y18522521D01*
X72579948Y18505142D01*
X72590278Y18456466D01*
X72603071Y18409443D01*
X72617055Y18367568D01*
X72630960Y18334334D01*
X72643515Y18313235D01*
X72651851Y18307440D01*
X72663910Y18311130D01*
X72688931Y18321074D01*
X72722803Y18335588D01*
X72748199Y18346938D01*
X72835202Y18386436D01*
X72818337Y18424607D01*
X72798345Y18486161D01*
X72793877Y18543576D01*
X72805093Y18594071D01*
X72808253Y18601116D01*
X72825961Y18627510D01*
X72851608Y18654183D01*
X72879990Y18676758D01*
X72905906Y18690858D01*
X72917999Y18693430D01*
X72928310Y18689902D01*
X72954488Y18679729D01*
X72995028Y18663525D01*
X73048425Y18641905D01*
X73113175Y18615482D01*
X73187771Y18584873D01*
X73270708Y18550691D01*
X73360482Y18513551D01*
X73455587Y18474068D01*
X73473917Y18466443D01*
X73569938Y18426490D01*
X73660950Y18388628D01*
X73745440Y18353486D01*
X73821896Y18321692D01*
X73888807Y18293876D01*
X73944659Y18270666D01*
X73987940Y18252691D01*
X74017138Y18240579D01*
X74030740Y18234960D01*
X74031420Y18234684D01*
X74036169Y18236524D01*
X74039339Y18247978D01*
X74041087Y18271288D01*
X74041570Y18308700D01*
X74040947Y18362458D01*
X74040834Y18368580D01*
X74038223Y18507248D01*
X73629373Y18661641D01*
X73546277Y18693055D01*
X73468734Y18722436D01*
X73398491Y18749118D01*
X73337294Y18772434D01*
X73286889Y18791718D01*
X73249023Y18806302D01*
X73225442Y18815522D01*
X73217870Y18818687D01*
X73225917Y18822243D01*
X73250009Y18831391D01*
X73288417Y18845508D01*
X73339412Y18863972D01*
X73401267Y18886160D01*
X73472252Y18911449D01*
X73550639Y18939215D01*
X73629061Y18966855D01*
X74042904Y19112370D01*
X74042917Y19246387D01*
X74042930Y19380405D01*
X73993504Y19360836D01*
G37*
X73993504Y19360836D02*
X73975982Y19353972D01*
X73942585Y19340962D01*
X73894996Y19322458D01*
X73834897Y19299114D01*
X73763971Y19271583D01*
X73683902Y19240519D01*
X73596372Y19206573D01*
X73503064Y19170401D01*
X73405660Y19132654D01*
X73401919Y19131205D01*
X73303634Y19092994D01*
X73208832Y19055890D01*
X73119277Y19020597D01*
X73036731Y18987822D01*
X72962955Y18958271D01*
X72899713Y18932650D01*
X72848768Y18911664D01*
X72811881Y18896020D01*
X72790864Y18886448D01*
X72723582Y18846225D01*
X72667622Y18799819D01*
X72625610Y18749748D01*
X72602829Y18706192D01*
X72591396Y18665680D01*
X72582868Y18616527D01*
X72578104Y18566289D01*
X72577965Y18522521D01*
X72579948Y18505142D01*
X72590278Y18456466D01*
X72603071Y18409443D01*
X72617055Y18367568D01*
X72630960Y18334334D01*
X72643515Y18313235D01*
X72651851Y18307440D01*
X72663910Y18311130D01*
X72688931Y18321074D01*
X72722803Y18335588D01*
X72748199Y18346938D01*
X72835202Y18386436D01*
X72818337Y18424607D01*
X72798345Y18486161D01*
X72793877Y18543576D01*
X72805093Y18594071D01*
X72808253Y18601116D01*
X72825961Y18627510D01*
X72851608Y18654183D01*
X72879990Y18676758D01*
X72905906Y18690858D01*
X72917999Y18693430D01*
X72928310Y18689902D01*
X72954488Y18679729D01*
X72995028Y18663525D01*
X73048425Y18641905D01*
X73113175Y18615482D01*
X73187771Y18584873D01*
X73270708Y18550691D01*
X73360482Y18513551D01*
X73455587Y18474068D01*
X73473917Y18466443D01*
X73569938Y18426490D01*
X73660950Y18388628D01*
X73745440Y18353486D01*
X73821896Y18321692D01*
X73888807Y18293876D01*
X73944659Y18270666D01*
X73987940Y18252691D01*
X74017138Y18240579D01*
X74030740Y18234960D01*
X74031420Y18234684D01*
X74036169Y18236524D01*
X74039339Y18247978D01*
X74041087Y18271288D01*
X74041570Y18308700D01*
X74040947Y18362458D01*
X74040834Y18368580D01*
X74038223Y18507248D01*
X73629373Y18661641D01*
X73546277Y18693055D01*
X73468734Y18722436D01*
X73398491Y18749118D01*
X73337294Y18772434D01*
X73286889Y18791718D01*
X73249023Y18806302D01*
X73225442Y18815522D01*
X73217870Y18818687D01*
X73225917Y18822243D01*
X73250009Y18831391D01*
X73288417Y18845508D01*
X73339412Y18863972D01*
X73401267Y18886160D01*
X73472252Y18911449D01*
X73550639Y18939215D01*
X73629061Y18966855D01*
X74042904Y19112370D01*
X74042917Y19246387D01*
X74042930Y19380405D01*
X73993504Y19360836D01*
G36*
X73993504Y11641043D02*
G01*
X73975982Y11634180D01*
X73942585Y11621169D01*
X73894996Y11602666D01*
X73834897Y11579322D01*
X73763971Y11551791D01*
X73683902Y11520726D01*
X73596372Y11486781D01*
X73503064Y11450609D01*
X73405660Y11412862D01*
X73401919Y11411412D01*
X73303634Y11373202D01*
X73208832Y11336097D01*
X73119277Y11300805D01*
X73036731Y11268030D01*
X72962955Y11238478D01*
X72899713Y11212857D01*
X72848768Y11191871D01*
X72811881Y11176228D01*
X72790864Y11166656D01*
X72723582Y11126433D01*
X72667622Y11080027D01*
X72625610Y11029955D01*
X72602829Y10986399D01*
X72591396Y10945887D01*
X72582868Y10896735D01*
X72578104Y10846497D01*
X72577965Y10802729D01*
X72579948Y10785350D01*
X72590278Y10736673D01*
X72603071Y10689650D01*
X72617055Y10647775D01*
X72630960Y10614541D01*
X72643515Y10593443D01*
X72651851Y10587648D01*
X72663910Y10591337D01*
X72688931Y10601282D01*
X72722803Y10615796D01*
X72748199Y10627146D01*
X72835202Y10666644D01*
X72818337Y10704815D01*
X72798345Y10766368D01*
X72793877Y10823784D01*
X72805093Y10874279D01*
X72808253Y10881324D01*
X72825961Y10907718D01*
X72851608Y10934391D01*
X72879990Y10956966D01*
X72905906Y10971066D01*
X72917999Y10973637D01*
X72928310Y10970110D01*
X72954488Y10959937D01*
X72995028Y10943733D01*
X73048425Y10922112D01*
X73113175Y10895690D01*
X73187771Y10865081D01*
X73270708Y10830899D01*
X73360482Y10793759D01*
X73455587Y10754276D01*
X73473917Y10746650D01*
X73569938Y10706697D01*
X73660950Y10668835D01*
X73745440Y10633693D01*
X73821896Y10601900D01*
X73888807Y10574084D01*
X73944659Y10550874D01*
X73987940Y10532899D01*
X74017138Y10520787D01*
X74030740Y10515167D01*
X74031420Y10514892D01*
X74036169Y10516732D01*
X74039339Y10528185D01*
X74041087Y10551496D01*
X74041570Y10588908D01*
X74040947Y10642666D01*
X74040834Y10648788D01*
X74038223Y10787456D01*
X73629373Y10941849D01*
X73546277Y10973263D01*
X73468734Y11002644D01*
X73398491Y11029325D01*
X73337294Y11052641D01*
X73286889Y11071925D01*
X73249023Y11086510D01*
X73225442Y11095730D01*
X73217870Y11098895D01*
X73225917Y11102450D01*
X73250009Y11111598D01*
X73288417Y11125716D01*
X73339412Y11144180D01*
X73401267Y11166367D01*
X73472252Y11191656D01*
X73550639Y11219423D01*
X73629061Y11247063D01*
X74042904Y11392577D01*
X74042930Y11660613D01*
X73993504Y11641043D01*
G37*
X73993504Y11641043D02*
X73975982Y11634180D01*
X73942585Y11621169D01*
X73894996Y11602666D01*
X73834897Y11579322D01*
X73763971Y11551791D01*
X73683902Y11520726D01*
X73596372Y11486781D01*
X73503064Y11450609D01*
X73405660Y11412862D01*
X73401919Y11411412D01*
X73303634Y11373202D01*
X73208832Y11336097D01*
X73119277Y11300805D01*
X73036731Y11268030D01*
X72962955Y11238478D01*
X72899713Y11212857D01*
X72848768Y11191871D01*
X72811881Y11176228D01*
X72790864Y11166656D01*
X72723582Y11126433D01*
X72667622Y11080027D01*
X72625610Y11029955D01*
X72602829Y10986399D01*
X72591396Y10945887D01*
X72582868Y10896735D01*
X72578104Y10846497D01*
X72577965Y10802729D01*
X72579948Y10785350D01*
X72590278Y10736673D01*
X72603071Y10689650D01*
X72617055Y10647775D01*
X72630960Y10614541D01*
X72643515Y10593443D01*
X72651851Y10587648D01*
X72663910Y10591337D01*
X72688931Y10601282D01*
X72722803Y10615796D01*
X72748199Y10627146D01*
X72835202Y10666644D01*
X72818337Y10704815D01*
X72798345Y10766368D01*
X72793877Y10823784D01*
X72805093Y10874279D01*
X72808253Y10881324D01*
X72825961Y10907718D01*
X72851608Y10934391D01*
X72879990Y10956966D01*
X72905906Y10971066D01*
X72917999Y10973637D01*
X72928310Y10970110D01*
X72954488Y10959937D01*
X72995028Y10943733D01*
X73048425Y10922112D01*
X73113175Y10895690D01*
X73187771Y10865081D01*
X73270708Y10830899D01*
X73360482Y10793759D01*
X73455587Y10754276D01*
X73473917Y10746650D01*
X73569938Y10706697D01*
X73660950Y10668835D01*
X73745440Y10633693D01*
X73821896Y10601900D01*
X73888807Y10574084D01*
X73944659Y10550874D01*
X73987940Y10532899D01*
X74017138Y10520787D01*
X74030740Y10515167D01*
X74031420Y10514892D01*
X74036169Y10516732D01*
X74039339Y10528185D01*
X74041087Y10551496D01*
X74041570Y10588908D01*
X74040947Y10642666D01*
X74040834Y10648788D01*
X74038223Y10787456D01*
X73629373Y10941849D01*
X73546277Y10973263D01*
X73468734Y11002644D01*
X73398491Y11029325D01*
X73337294Y11052641D01*
X73286889Y11071925D01*
X73249023Y11086510D01*
X73225442Y11095730D01*
X73217870Y11098895D01*
X73225917Y11102450D01*
X73250009Y11111598D01*
X73288417Y11125716D01*
X73339412Y11144180D01*
X73401267Y11166367D01*
X73472252Y11191656D01*
X73550639Y11219423D01*
X73629061Y11247063D01*
X74042904Y11392577D01*
X74042930Y11660613D01*
X73993504Y11641043D01*
%TO.C,X2*%
D12*
X204200023Y-63746130D02*
X203533357Y-64746130D01*
X203533357Y-63746130D02*
X204200023Y-64746130D01*
X203200023Y-63841369D02*
X203152404Y-63793750D01*
X203057166Y-63746130D01*
X202819071Y-63746130D01*
X202723833Y-63793750D01*
X202676214Y-63841369D01*
X202628595Y-63936607D01*
X202628595Y-64031845D01*
X202676214Y-64174702D01*
X203247642Y-64746130D01*
X202628595Y-64746130D01*
%TO.C,X1*%
X167370023Y-57396130D02*
X166703357Y-58396130D01*
X166703357Y-57396130D02*
X167370023Y-58396130D01*
X165798595Y-58396130D02*
X166370023Y-58396130D01*
X166084309Y-58396130D02*
X166084309Y-57396130D01*
X166179547Y-57538988D01*
X166274785Y-57634226D01*
X166370023Y-57681845D01*
%TO.C,U4*%
X203446130Y-59563095D02*
X204255654Y-59563095D01*
X204350892Y-59610714D01*
X204398511Y-59658333D01*
X204446130Y-59753571D01*
X204446130Y-59944047D01*
X204398511Y-60039285D01*
X204350892Y-60086904D01*
X204255654Y-60134523D01*
X203446130Y-60134523D01*
X203779464Y-61039285D02*
X204446130Y-61039285D01*
X203398511Y-60801190D02*
X204112797Y-60563095D01*
X204112797Y-61182142D01*
%TO.C,Q3*%
X200572619Y-60229761D02*
X200525000Y-60134523D01*
X200429761Y-60039285D01*
X200286904Y-59896428D01*
X200239285Y-59801190D01*
X200239285Y-59705952D01*
X200477380Y-59753571D02*
X200429761Y-59658333D01*
X200334523Y-59563095D01*
X200144047Y-59515476D01*
X199810714Y-59515476D01*
X199620238Y-59563095D01*
X199525000Y-59658333D01*
X199477380Y-59753571D01*
X199477380Y-59944047D01*
X199525000Y-60039285D01*
X199620238Y-60134523D01*
X199810714Y-60182142D01*
X200144047Y-60182142D01*
X200334523Y-60134523D01*
X200429761Y-60039285D01*
X200477380Y-59944047D01*
X200477380Y-59753571D01*
X199477380Y-60515476D02*
X199477380Y-61134523D01*
X199858333Y-60801190D01*
X199858333Y-60944047D01*
X199905952Y-61039285D01*
X199953571Y-61086904D01*
X200048809Y-61134523D01*
X200286904Y-61134523D01*
X200382142Y-61086904D01*
X200429761Y-61039285D01*
X200477380Y-60944047D01*
X200477380Y-60658333D01*
X200429761Y-60563095D01*
X200382142Y-60515476D01*
%TO.C,D30*%
X197810285Y-64841380D02*
X197810285Y-63841380D01*
X197572190Y-63841380D01*
X197429333Y-63889000D01*
X197334095Y-63984238D01*
X197286476Y-64079476D01*
X197238857Y-64269952D01*
X197238857Y-64412809D01*
X197286476Y-64603285D01*
X197334095Y-64698523D01*
X197429333Y-64793761D01*
X197572190Y-64841380D01*
X197810285Y-64841380D01*
X196905523Y-63841380D02*
X196286476Y-63841380D01*
X196619809Y-64222333D01*
X196476952Y-64222333D01*
X196381714Y-64269952D01*
X196334095Y-64317571D01*
X196286476Y-64412809D01*
X196286476Y-64650904D01*
X196334095Y-64746142D01*
X196381714Y-64793761D01*
X196476952Y-64841380D01*
X196762666Y-64841380D01*
X196857904Y-64793761D01*
X196905523Y-64746142D01*
X195667428Y-63841380D02*
X195572190Y-63841380D01*
X195476952Y-63889000D01*
X195429333Y-63936619D01*
X195381714Y-64031857D01*
X195334095Y-64222333D01*
X195334095Y-64460428D01*
X195381714Y-64650904D01*
X195429333Y-64746142D01*
X195476952Y-64793761D01*
X195572190Y-64841380D01*
X195667428Y-64841380D01*
X195762666Y-64793761D01*
X195810285Y-64746142D01*
X195857904Y-64650904D01*
X195905523Y-64460428D01*
X195905523Y-64222333D01*
X195857904Y-64031857D01*
X195810285Y-63936619D01*
X195762666Y-63889000D01*
X195667428Y-63841380D01*
%TO.C,U6*%
X195508630Y-59563095D02*
X196318154Y-59563095D01*
X196413392Y-59610714D01*
X196461011Y-59658333D01*
X196508630Y-59753571D01*
X196508630Y-59944047D01*
X196461011Y-60039285D01*
X196413392Y-60086904D01*
X196318154Y-60134523D01*
X195508630Y-60134523D01*
X195508630Y-61039285D02*
X195508630Y-60848809D01*
X195556250Y-60753571D01*
X195603869Y-60705952D01*
X195746726Y-60610714D01*
X195937202Y-60563095D01*
X196318154Y-60563095D01*
X196413392Y-60610714D01*
X196461011Y-60658333D01*
X196508630Y-60753571D01*
X196508630Y-60944047D01*
X196461011Y-61039285D01*
X196413392Y-61086904D01*
X196318154Y-61134523D01*
X196080059Y-61134523D01*
X195984821Y-61086904D01*
X195937202Y-61039285D01*
X195889583Y-60944047D01*
X195889583Y-60753571D01*
X195937202Y-60658333D01*
X195984821Y-60610714D01*
X196080059Y-60563095D01*
%TD*%
%LPC*%
D13*
%TO.C,X2*%
X204190500Y-64293750D03*
X202590500Y-64293750D03*
%TD*%
%TO.C,X1*%
X165760500Y-57943750D03*
X167360500Y-57943750D03*
%TD*%
D14*
%TO.C,U5*%
X204283000Y-57077750D03*
X200473000Y-57077750D03*
D15*
X206823000Y-62411750D03*
X206823000Y-59871750D03*
X206823000Y-63681750D03*
X206823000Y-58601750D03*
D14*
X195393000Y-57077750D03*
X203013000Y-57077750D03*
X197933000Y-57077750D03*
X199203000Y-57077750D03*
X201743000Y-57077750D03*
X196663000Y-57077750D03*
D15*
X206823000Y-64951750D03*
X206823000Y-61141750D03*
X206823000Y-57331750D03*
%TD*%
D16*
%TO.C,U4*%
X203043750Y-61425000D03*
X204943750Y-61425000D03*
X203043750Y-59225000D03*
X203993750Y-61425000D03*
X204943750Y-59225000D03*
%TD*%
D14*
%TO.C,U2*%
X165604500Y-65159750D03*
X169414500Y-65159750D03*
D15*
X163064500Y-59825750D03*
X163064500Y-62365750D03*
X163064500Y-58555750D03*
X163064500Y-63635750D03*
D14*
X174494500Y-65159750D03*
X166874500Y-65159750D03*
X171954500Y-65159750D03*
X170684500Y-65159750D03*
X168144500Y-65159750D03*
X173224500Y-65159750D03*
D15*
X163064500Y-57285750D03*
X163064500Y-61095750D03*
X163064500Y-64905750D03*
%TD*%
D16*
%TO.C,U1*%
X166875500Y-60812500D03*
X164975500Y-60812500D03*
X166875500Y-63012500D03*
X165925500Y-60812500D03*
X164975500Y-63012500D03*
%TD*%
D17*
%TO.C,SW32*%
X295275000Y-53181250D03*
D18*
X297815000Y-48101250D03*
D19*
X301117000Y-48101250D03*
D20*
X300355000Y-53181250D03*
D19*
X288190000Y-50641250D03*
D18*
X291465000Y-50641250D03*
D20*
X290195000Y-53181250D03*
%TD*%
D17*
%TO.C,SW31*%
X314325000Y-55562500D03*
D18*
X316865000Y-50482500D03*
D19*
X320167000Y-50482500D03*
D20*
X319405000Y-55562500D03*
D19*
X307240000Y-53022500D03*
D18*
X310515000Y-53022500D03*
D20*
X309245000Y-55562500D03*
%TD*%
D17*
%TO.C,SW29*%
X169862500Y-127000000D03*
D18*
X172402500Y-121920000D03*
D19*
X175704500Y-121920000D03*
D20*
X174942500Y-127000000D03*
D19*
X162777500Y-124460000D03*
D18*
X166052500Y-124460000D03*
D20*
X164782500Y-127000000D03*
%TD*%
D21*
%TO.C,SW1*%
X177800000Y-79332000D03*
X177800000Y-77132000D03*
%TD*%
D22*
%TO.C,Q3*%
X200975000Y-59325000D03*
X200025000Y-61325000D03*
X199075000Y-59325000D03*
%TD*%
D21*
%TO.C,J5*%
X205600300Y-44627800D03*
X205600300Y-44932600D03*
X194449700Y-45554900D03*
X194449700Y-45262800D03*
X194449700Y-44919900D03*
X194449700Y-44615100D03*
X194449400Y-44335700D03*
X205600300Y-45275500D03*
X194449700Y-49098200D03*
X194450000Y-49343500D03*
X194450000Y-48581500D03*
X194450000Y-48844200D03*
X205600600Y-49343500D03*
X205600600Y-48581500D03*
X205600300Y-49098200D03*
X205600600Y-48844200D03*
X205600300Y-45567600D03*
X205600000Y-44348400D03*
%TD*%
D23*
%TO.C,J3*%
X172720000Y-76993750D03*
D24*
X165100000Y-76993750D03*
D23*
X167640000Y-76993750D03*
X170180000Y-76993750D03*
%TD*%
D21*
%TO.C,J2*%
X175437800Y-44627800D03*
X175437800Y-44932600D03*
X164287200Y-45554900D03*
X164287200Y-45262800D03*
X164287200Y-44919900D03*
X164287200Y-44615100D03*
X164286900Y-44335700D03*
X175437800Y-45275500D03*
X164287200Y-49098200D03*
X164287500Y-49343500D03*
X164287500Y-48581500D03*
X164287500Y-48844200D03*
X175438100Y-49343500D03*
X175438100Y-48581500D03*
X175437800Y-49098200D03*
X175438100Y-48844200D03*
X175437800Y-45567600D03*
X175437500Y-44348400D03*
%TD*%
D25*
%TO.C,HM10*%
X323850000Y-84137500D03*
%TD*%
%TO.C,HM9*%
X304800000Y-101996875D03*
%TD*%
%TO.C,HM8*%
X304800000Y-63896875D03*
%TD*%
%TO.C,HM7*%
X228600000Y-56753125D03*
%TD*%
%TO.C,HM6*%
X228600000Y-113903125D03*
%TD*%
%TO.C,HM5*%
X46037500Y-84137500D03*
%TD*%
%TO.C,HM4*%
X65087500Y-101996875D03*
%TD*%
%TO.C,HM3*%
X65087500Y-63896875D03*
%TD*%
%TO.C,HM2*%
X141287500Y-56753125D03*
%TD*%
%TO.C,HM1*%
X141287500Y-113903125D03*
%TD*%
D26*
%TO.C,D58*%
X192087500Y-132618750D03*
X192087500Y-129318750D03*
%TD*%
%TO.C,D57*%
X211931250Y-130237500D03*
X211931250Y-126937500D03*
%TD*%
%TO.C,D56*%
X230981250Y-127856250D03*
X230981250Y-124556250D03*
%TD*%
%TO.C,D55*%
X326231250Y-94518750D03*
X326231250Y-91218750D03*
%TD*%
%TO.C,D54*%
X211931250Y-111187500D03*
X211931250Y-107887500D03*
%TD*%
%TO.C,D53*%
X230981250Y-108806250D03*
X230981250Y-105506250D03*
%TD*%
%TO.C,D52*%
X250031250Y-104043750D03*
X250031250Y-100743750D03*
%TD*%
%TO.C,D51*%
X269081250Y-108806250D03*
X269081250Y-105506250D03*
%TD*%
%TO.C,D50*%
X288131250Y-115950000D03*
X288131250Y-112650000D03*
%TD*%
%TO.C,D49*%
X307181250Y-118331250D03*
X307181250Y-115031250D03*
%TD*%
%TO.C,D48*%
X211931250Y-92137500D03*
X211931250Y-88837500D03*
%TD*%
%TO.C,D47*%
X230981250Y-89756250D03*
X230981250Y-86456250D03*
%TD*%
%TO.C,D46*%
X250031250Y-84993750D03*
X250031250Y-81693750D03*
%TD*%
%TO.C,D45*%
X269081250Y-89756250D03*
X269081250Y-86456250D03*
%TD*%
%TO.C,D44*%
X288131250Y-96900000D03*
X288131250Y-93600000D03*
%TD*%
%TO.C,D43*%
X307181250Y-99281250D03*
X307181250Y-95981250D03*
%TD*%
%TO.C,D42*%
X211931250Y-73087500D03*
X211931250Y-69787500D03*
%TD*%
%TO.C,D41*%
X230981250Y-70706250D03*
X230981250Y-67406250D03*
%TD*%
%TO.C,D40*%
X250031250Y-65943750D03*
X250031250Y-62643750D03*
%TD*%
%TO.C,D39*%
X269081250Y-70706250D03*
X269081250Y-67406250D03*
%TD*%
%TO.C,D38*%
X288131250Y-77850000D03*
X288131250Y-74550000D03*
%TD*%
%TO.C,D37*%
X307181250Y-80231250D03*
X307181250Y-76931250D03*
%TD*%
%TO.C,D36*%
X211931250Y-54037500D03*
X211931250Y-50737500D03*
%TD*%
%TO.C,D35*%
X230981250Y-51656250D03*
X230981250Y-48356250D03*
%TD*%
%TO.C,D34*%
X250031250Y-46893750D03*
X250031250Y-43593750D03*
%TD*%
%TO.C,D33*%
X269081250Y-51656250D03*
X269081250Y-48356250D03*
%TD*%
%TO.C,D32*%
X288131250Y-58800000D03*
X288131250Y-55500000D03*
%TD*%
%TO.C,D31*%
X307181250Y-61181250D03*
X307181250Y-57881250D03*
%TD*%
D27*
%TO.C,D30*%
X194946000Y-64389000D03*
X198246000Y-64389000D03*
%TD*%
D26*
%TO.C,D29*%
X162718750Y-132618750D03*
X162718750Y-129318750D03*
%TD*%
%TO.C,D28*%
X143668750Y-130237500D03*
X143668750Y-126937500D03*
%TD*%
%TO.C,D27*%
X124618750Y-127856250D03*
X124618750Y-124556250D03*
%TD*%
%TO.C,D26*%
X29368750Y-94518750D03*
X29368750Y-91218750D03*
%TD*%
%TO.C,D25*%
X143668750Y-111187500D03*
X143668750Y-107887500D03*
%TD*%
%TO.C,D24*%
X124618750Y-108806250D03*
X124618750Y-105506250D03*
%TD*%
%TO.C,D23*%
X105568750Y-104043750D03*
X105568750Y-100743750D03*
%TD*%
%TO.C,D22*%
X86518750Y-108806250D03*
X86518750Y-105506250D03*
%TD*%
%TO.C,D21*%
X67468750Y-115950000D03*
X67468750Y-112650000D03*
%TD*%
%TO.C,D20*%
X48418750Y-118331250D03*
X48418750Y-115031250D03*
%TD*%
%TO.C,D19*%
X143668750Y-92137500D03*
X143668750Y-88837500D03*
%TD*%
%TO.C,D18*%
X124618750Y-89756250D03*
X124618750Y-86456250D03*
%TD*%
%TO.C,D17*%
X105568750Y-84993750D03*
X105568750Y-81693750D03*
%TD*%
%TO.C,D16*%
X86518750Y-89756250D03*
X86518750Y-86456250D03*
%TD*%
%TO.C,D15*%
X67468750Y-96900000D03*
X67468750Y-93600000D03*
%TD*%
%TO.C,D14*%
X48418750Y-99281250D03*
X48418750Y-95981250D03*
%TD*%
%TO.C,D13*%
X143668750Y-73087500D03*
X143668750Y-69787500D03*
%TD*%
%TO.C,D12*%
X124618750Y-70706250D03*
X124618750Y-67406250D03*
%TD*%
%TO.C,D11*%
X105568750Y-65943750D03*
X105568750Y-62643750D03*
%TD*%
%TO.C,D10*%
X86518750Y-70706250D03*
X86518750Y-67406250D03*
%TD*%
%TO.C,D9*%
X67468750Y-77850000D03*
X67468750Y-74550000D03*
%TD*%
%TO.C,D8*%
X48418750Y-80231250D03*
X48418750Y-76931250D03*
%TD*%
%TO.C,D7*%
X143668750Y-54037500D03*
X143668750Y-50737500D03*
%TD*%
%TO.C,D6*%
X124618750Y-51656250D03*
X124618750Y-48356250D03*
%TD*%
%TO.C,D5*%
X105568750Y-46893750D03*
X105568750Y-43593750D03*
%TD*%
%TO.C,D4*%
X86518750Y-51656250D03*
X86518750Y-48356250D03*
%TD*%
%TO.C,D3*%
X67468750Y-58800000D03*
X67468750Y-55500000D03*
%TD*%
%TO.C,D2*%
X48418750Y-61181250D03*
X48418750Y-57881250D03*
%TD*%
D27*
%TO.C,D1*%
X174941500Y-57848500D03*
X171641500Y-57848500D03*
%TD*%
D16*
%TO.C,U6*%
X195106250Y-61425000D03*
X197006250Y-61425000D03*
X195106250Y-59225000D03*
X196056250Y-61425000D03*
X197006250Y-59225000D03*
%TD*%
D17*
%TO.C,SW58*%
X200025000Y-127000000D03*
D18*
X202565000Y-121920000D03*
D19*
X205867000Y-121920000D03*
D20*
X205105000Y-127000000D03*
D19*
X192940000Y-124460000D03*
D18*
X196215000Y-124460000D03*
D20*
X194945000Y-127000000D03*
%TD*%
D17*
%TO.C,SW57*%
X219075000Y-124618750D03*
D18*
X221615000Y-119538750D03*
D19*
X224917000Y-119538750D03*
D20*
X224155000Y-124618750D03*
D19*
X211990000Y-122078750D03*
D18*
X215265000Y-122078750D03*
D20*
X213995000Y-124618750D03*
%TD*%
D17*
%TO.C,SW56*%
X238125000Y-122237500D03*
D18*
X240665000Y-117157500D03*
D19*
X243967000Y-117157500D03*
D20*
X243205000Y-122237500D03*
D19*
X231040000Y-119697500D03*
D18*
X234315000Y-119697500D03*
D20*
X233045000Y-122237500D03*
%TD*%
D17*
%TO.C,SW55*%
X333375000Y-88900000D03*
D18*
X335915000Y-83820000D03*
D19*
X339217000Y-83820000D03*
D20*
X338455000Y-88900000D03*
D19*
X326290000Y-86360000D03*
D18*
X329565000Y-86360000D03*
D20*
X328295000Y-88900000D03*
%TD*%
D17*
%TO.C,SW54*%
X219075000Y-105568750D03*
D18*
X221615000Y-100488750D03*
D19*
X224917000Y-100488750D03*
D20*
X224155000Y-105568750D03*
D19*
X211990000Y-103028750D03*
D18*
X215265000Y-103028750D03*
D20*
X213995000Y-105568750D03*
%TD*%
D17*
%TO.C,SW53*%
X238125000Y-103187500D03*
D18*
X240665000Y-98107500D03*
D19*
X243967000Y-98107500D03*
D20*
X243205000Y-103187500D03*
D19*
X231040000Y-100647500D03*
D18*
X234315000Y-100647500D03*
D20*
X233045000Y-103187500D03*
%TD*%
D17*
%TO.C,SW52*%
X257175000Y-98425000D03*
D18*
X259715000Y-93345000D03*
D19*
X263017000Y-93345000D03*
D20*
X262255000Y-98425000D03*
D19*
X250090000Y-95885000D03*
D18*
X253365000Y-95885000D03*
D20*
X252095000Y-98425000D03*
%TD*%
D17*
%TO.C,SW51*%
X276225000Y-103187500D03*
D18*
X278765000Y-98107500D03*
D19*
X282067000Y-98107500D03*
D20*
X281305000Y-103187500D03*
D19*
X269140000Y-100647500D03*
D18*
X272415000Y-100647500D03*
D20*
X271145000Y-103187500D03*
%TD*%
D17*
%TO.C,SW50*%
X295275000Y-110331250D03*
D18*
X297815000Y-105251250D03*
D19*
X301117000Y-105251250D03*
D20*
X300355000Y-110331250D03*
D19*
X288190000Y-107791250D03*
D18*
X291465000Y-107791250D03*
D20*
X290195000Y-110331250D03*
%TD*%
D17*
%TO.C,SW49*%
X314325000Y-112712500D03*
D18*
X316865000Y-107632500D03*
D19*
X320167000Y-107632500D03*
D20*
X319405000Y-112712500D03*
D19*
X307240000Y-110172500D03*
D18*
X310515000Y-110172500D03*
D20*
X309245000Y-112712500D03*
%TD*%
D17*
%TO.C,SW48*%
X219075000Y-86518750D03*
D18*
X221615000Y-81438750D03*
D19*
X224917000Y-81438750D03*
D20*
X224155000Y-86518750D03*
D19*
X211990000Y-83978750D03*
D18*
X215265000Y-83978750D03*
D20*
X213995000Y-86518750D03*
%TD*%
D17*
%TO.C,SW47*%
X238125000Y-84137500D03*
D18*
X240665000Y-79057500D03*
D19*
X243967000Y-79057500D03*
D20*
X243205000Y-84137500D03*
D19*
X231040000Y-81597500D03*
D18*
X234315000Y-81597500D03*
D20*
X233045000Y-84137500D03*
%TD*%
D17*
%TO.C,SW46*%
X257175000Y-79375000D03*
D18*
X259715000Y-74295000D03*
D19*
X263017000Y-74295000D03*
D20*
X262255000Y-79375000D03*
D19*
X250090000Y-76835000D03*
D18*
X253365000Y-76835000D03*
D20*
X252095000Y-79375000D03*
%TD*%
D17*
%TO.C,SW45*%
X276225000Y-84137500D03*
D18*
X278765000Y-79057500D03*
D19*
X282067000Y-79057500D03*
D20*
X281305000Y-84137500D03*
D19*
X269140000Y-81597500D03*
D18*
X272415000Y-81597500D03*
D20*
X271145000Y-84137500D03*
%TD*%
D17*
%TO.C,SW44*%
X295275000Y-91281250D03*
D18*
X297815000Y-86201250D03*
D19*
X301117000Y-86201250D03*
D20*
X300355000Y-91281250D03*
D19*
X288190000Y-88741250D03*
D18*
X291465000Y-88741250D03*
D20*
X290195000Y-91281250D03*
%TD*%
D17*
%TO.C,SW43*%
X314325000Y-93662500D03*
D18*
X316865000Y-88582500D03*
D19*
X320167000Y-88582500D03*
D20*
X319405000Y-93662500D03*
D19*
X307240000Y-91122500D03*
D18*
X310515000Y-91122500D03*
D20*
X309245000Y-93662500D03*
%TD*%
D17*
%TO.C,SW42*%
X219075000Y-67468750D03*
D18*
X221615000Y-62388750D03*
D19*
X224917000Y-62388750D03*
D20*
X224155000Y-67468750D03*
D19*
X211990000Y-64928750D03*
D18*
X215265000Y-64928750D03*
D20*
X213995000Y-67468750D03*
%TD*%
D17*
%TO.C,SW41*%
X238125000Y-65087500D03*
D18*
X240665000Y-60007500D03*
D19*
X243967000Y-60007500D03*
D20*
X243205000Y-65087500D03*
D19*
X231040000Y-62547500D03*
D18*
X234315000Y-62547500D03*
D20*
X233045000Y-65087500D03*
%TD*%
D17*
%TO.C,SW40*%
X257175000Y-60325000D03*
D18*
X259715000Y-55245000D03*
D19*
X263017000Y-55245000D03*
D20*
X262255000Y-60325000D03*
D19*
X250090000Y-57785000D03*
D18*
X253365000Y-57785000D03*
D20*
X252095000Y-60325000D03*
%TD*%
D17*
%TO.C,SW39*%
X276225000Y-65087500D03*
D18*
X278765000Y-60007500D03*
D19*
X282067000Y-60007500D03*
D20*
X281305000Y-65087500D03*
D19*
X269140000Y-62547500D03*
D18*
X272415000Y-62547500D03*
D20*
X271145000Y-65087500D03*
%TD*%
D17*
%TO.C,SW38*%
X295275000Y-72231250D03*
D18*
X297815000Y-67151250D03*
D19*
X301117000Y-67151250D03*
D20*
X300355000Y-72231250D03*
D19*
X288190000Y-69691250D03*
D18*
X291465000Y-69691250D03*
D20*
X290195000Y-72231250D03*
%TD*%
D17*
%TO.C,SW37*%
X314325000Y-74612500D03*
D18*
X316865000Y-69532500D03*
D19*
X320167000Y-69532500D03*
D20*
X319405000Y-74612500D03*
D19*
X307240000Y-72072500D03*
D18*
X310515000Y-72072500D03*
D20*
X309245000Y-74612500D03*
%TD*%
D17*
%TO.C,SW36*%
X219075000Y-48418750D03*
D18*
X221615000Y-43338750D03*
D19*
X224917000Y-43338750D03*
D20*
X224155000Y-48418750D03*
D19*
X211990000Y-45878750D03*
D18*
X215265000Y-45878750D03*
D20*
X213995000Y-48418750D03*
%TD*%
D17*
%TO.C,SW35*%
X238125000Y-46037500D03*
D18*
X240665000Y-40957500D03*
D19*
X243967000Y-40957500D03*
D20*
X243205000Y-46037500D03*
D19*
X231040000Y-43497500D03*
D18*
X234315000Y-43497500D03*
D20*
X233045000Y-46037500D03*
%TD*%
D17*
%TO.C,SW34*%
X257175000Y-41275000D03*
D18*
X259715000Y-36195000D03*
D19*
X263017000Y-36195000D03*
D20*
X262255000Y-41275000D03*
D19*
X250090000Y-38735000D03*
D18*
X253365000Y-38735000D03*
D20*
X252095000Y-41275000D03*
%TD*%
D17*
%TO.C,SW33*%
X276225000Y-46037500D03*
D18*
X278765000Y-40957500D03*
D19*
X282067000Y-40957500D03*
D20*
X281305000Y-46037500D03*
D19*
X269140000Y-43497500D03*
D18*
X272415000Y-43497500D03*
D20*
X271145000Y-46037500D03*
%TD*%
D23*
%TO.C,J6*%
X197167500Y-76962000D03*
D24*
X204787500Y-76962000D03*
D23*
X202247500Y-76962000D03*
X199707500Y-76962000D03*
%TD*%
D16*
%TO.C,U3*%
X174813000Y-60812500D03*
X172913000Y-60812500D03*
X174813000Y-63012500D03*
X173863000Y-60812500D03*
X172913000Y-63012500D03*
%TD*%
D21*
%TO.C,SW30*%
X192087500Y-77132000D03*
X192087500Y-79332000D03*
%TD*%
D17*
%TO.C,SW28*%
X150812500Y-124618750D03*
D18*
X153352500Y-119538750D03*
D19*
X156654500Y-119538750D03*
D20*
X155892500Y-124618750D03*
D19*
X143727500Y-122078750D03*
D18*
X147002500Y-122078750D03*
D20*
X145732500Y-124618750D03*
%TD*%
D17*
%TO.C,SW27*%
X131762500Y-122237500D03*
D18*
X134302500Y-117157500D03*
D19*
X137604500Y-117157500D03*
D20*
X136842500Y-122237500D03*
D19*
X124677500Y-119697500D03*
D18*
X127952500Y-119697500D03*
D20*
X126682500Y-122237500D03*
%TD*%
D17*
%TO.C,SW26*%
X36512500Y-88900000D03*
D18*
X39052500Y-83820000D03*
D19*
X42354500Y-83820000D03*
D20*
X41592500Y-88900000D03*
D19*
X29427500Y-86360000D03*
D18*
X32702500Y-86360000D03*
D20*
X31432500Y-88900000D03*
%TD*%
D17*
%TO.C,SW25*%
X150812500Y-105568750D03*
D18*
X153352500Y-100488750D03*
D19*
X156654500Y-100488750D03*
D20*
X155892500Y-105568750D03*
D19*
X143727500Y-103028750D03*
D18*
X147002500Y-103028750D03*
D20*
X145732500Y-105568750D03*
%TD*%
D17*
%TO.C,SW24*%
X131762500Y-103187500D03*
D18*
X134302500Y-98107500D03*
D19*
X137604500Y-98107500D03*
D20*
X136842500Y-103187500D03*
D19*
X124677500Y-100647500D03*
D18*
X127952500Y-100647500D03*
D20*
X126682500Y-103187500D03*
%TD*%
D17*
%TO.C,SW23*%
X112712500Y-98425000D03*
D18*
X115252500Y-93345000D03*
D19*
X118554500Y-93345000D03*
D20*
X117792500Y-98425000D03*
D19*
X105627500Y-95885000D03*
D18*
X108902500Y-95885000D03*
D20*
X107632500Y-98425000D03*
%TD*%
D17*
%TO.C,SW22*%
X93662500Y-103187500D03*
D18*
X96202500Y-98107500D03*
D19*
X99504500Y-98107500D03*
D20*
X98742500Y-103187500D03*
D19*
X86577500Y-100647500D03*
D18*
X89852500Y-100647500D03*
D20*
X88582500Y-103187500D03*
%TD*%
D17*
%TO.C,SW21*%
X74612500Y-110331250D03*
D18*
X77152500Y-105251250D03*
D19*
X80454500Y-105251250D03*
D20*
X79692500Y-110331250D03*
D19*
X67527500Y-107791250D03*
D18*
X70802500Y-107791250D03*
D20*
X69532500Y-110331250D03*
%TD*%
D17*
%TO.C,SW20*%
X55562500Y-112712500D03*
D18*
X58102500Y-107632500D03*
D19*
X61404500Y-107632500D03*
D20*
X60642500Y-112712500D03*
D19*
X48477500Y-110172500D03*
D18*
X51752500Y-110172500D03*
D20*
X50482500Y-112712500D03*
%TD*%
D17*
%TO.C,SW19*%
X150812500Y-86518750D03*
D18*
X153352500Y-81438750D03*
D19*
X156654500Y-81438750D03*
D20*
X155892500Y-86518750D03*
D19*
X143727500Y-83978750D03*
D18*
X147002500Y-83978750D03*
D20*
X145732500Y-86518750D03*
%TD*%
D17*
%TO.C,SW18*%
X131762500Y-84137500D03*
D18*
X134302500Y-79057500D03*
D19*
X137604500Y-79057500D03*
D20*
X136842500Y-84137500D03*
D19*
X124677500Y-81597500D03*
D18*
X127952500Y-81597500D03*
D20*
X126682500Y-84137500D03*
%TD*%
D17*
%TO.C,SW17*%
X112712500Y-79375000D03*
D18*
X115252500Y-74295000D03*
D19*
X118554500Y-74295000D03*
D20*
X117792500Y-79375000D03*
D19*
X105627500Y-76835000D03*
D18*
X108902500Y-76835000D03*
D20*
X107632500Y-79375000D03*
%TD*%
D17*
%TO.C,SW16*%
X93662500Y-84137500D03*
D18*
X96202500Y-79057500D03*
D19*
X99504500Y-79057500D03*
D20*
X98742500Y-84137500D03*
D19*
X86577500Y-81597500D03*
D18*
X89852500Y-81597500D03*
D20*
X88582500Y-84137500D03*
%TD*%
D17*
%TO.C,SW15*%
X74612500Y-91281250D03*
D18*
X77152500Y-86201250D03*
D19*
X80454500Y-86201250D03*
D20*
X79692500Y-91281250D03*
D19*
X67527500Y-88741250D03*
D18*
X70802500Y-88741250D03*
D20*
X69532500Y-91281250D03*
%TD*%
D17*
%TO.C,SW14*%
X55562500Y-93662500D03*
D18*
X58102500Y-88582500D03*
D19*
X61404500Y-88582500D03*
D20*
X60642500Y-93662500D03*
D19*
X48477500Y-91122500D03*
D18*
X51752500Y-91122500D03*
D20*
X50482500Y-93662500D03*
%TD*%
D17*
%TO.C,SW13*%
X150812500Y-67468750D03*
D18*
X153352500Y-62388750D03*
D19*
X156654500Y-62388750D03*
D20*
X155892500Y-67468750D03*
D19*
X143727500Y-64928750D03*
D18*
X147002500Y-64928750D03*
D20*
X145732500Y-67468750D03*
%TD*%
D17*
%TO.C,SW12*%
X131762500Y-65087500D03*
D18*
X134302500Y-60007500D03*
D19*
X137604500Y-60007500D03*
D20*
X136842500Y-65087500D03*
D19*
X124677500Y-62547500D03*
D18*
X127952500Y-62547500D03*
D20*
X126682500Y-65087500D03*
%TD*%
D17*
%TO.C,SW11*%
X112712500Y-60325000D03*
D18*
X115252500Y-55245000D03*
D19*
X118554500Y-55245000D03*
D20*
X117792500Y-60325000D03*
D19*
X105627500Y-57785000D03*
D18*
X108902500Y-57785000D03*
D20*
X107632500Y-60325000D03*
%TD*%
D17*
%TO.C,SW10*%
X93662500Y-65087500D03*
D18*
X96202500Y-60007500D03*
D19*
X99504500Y-60007500D03*
D20*
X98742500Y-65087500D03*
D19*
X86577500Y-62547500D03*
D18*
X89852500Y-62547500D03*
D20*
X88582500Y-65087500D03*
%TD*%
D17*
%TO.C,SW9*%
X74612500Y-72231250D03*
D18*
X77152500Y-67151250D03*
D19*
X80454500Y-67151250D03*
D20*
X79692500Y-72231250D03*
D19*
X67527500Y-69691250D03*
D18*
X70802500Y-69691250D03*
D20*
X69532500Y-72231250D03*
%TD*%
D17*
%TO.C,SW8*%
X55562500Y-74612500D03*
D18*
X58102500Y-69532500D03*
D19*
X61404500Y-69532500D03*
D20*
X60642500Y-74612500D03*
D19*
X48477500Y-72072500D03*
D18*
X51752500Y-72072500D03*
D20*
X50482500Y-74612500D03*
%TD*%
D17*
%TO.C,SW7*%
X150812500Y-48418750D03*
D18*
X153352500Y-43338750D03*
D19*
X156654500Y-43338750D03*
D20*
X155892500Y-48418750D03*
D19*
X143727500Y-45878750D03*
D18*
X147002500Y-45878750D03*
D20*
X145732500Y-48418750D03*
%TD*%
D17*
%TO.C,SW6*%
X131762500Y-46037500D03*
D18*
X134302500Y-40957500D03*
D19*
X137604500Y-40957500D03*
D20*
X136842500Y-46037500D03*
D19*
X124677500Y-43497500D03*
D18*
X127952500Y-43497500D03*
D20*
X126682500Y-46037500D03*
%TD*%
D17*
%TO.C,SW5*%
X112712500Y-41275000D03*
D18*
X115252500Y-36195000D03*
D19*
X118554500Y-36195000D03*
D20*
X117792500Y-41275000D03*
D19*
X105627500Y-38735000D03*
D18*
X108902500Y-38735000D03*
D20*
X107632500Y-41275000D03*
%TD*%
D17*
%TO.C,SW4*%
X93662500Y-46037500D03*
D18*
X96202500Y-40957500D03*
D19*
X99504500Y-40957500D03*
D20*
X98742500Y-46037500D03*
D19*
X86577500Y-43497500D03*
D18*
X89852500Y-43497500D03*
D20*
X88582500Y-46037500D03*
%TD*%
D17*
%TO.C,SW3*%
X74612500Y-53181250D03*
D18*
X77152500Y-48101250D03*
D19*
X80454500Y-48101250D03*
D20*
X79692500Y-53181250D03*
D19*
X67527500Y-50641250D03*
D18*
X70802500Y-50641250D03*
D20*
X69532500Y-53181250D03*
%TD*%
D17*
%TO.C,SW2*%
X55562500Y-55562500D03*
D18*
X58102500Y-50482500D03*
D19*
X61404500Y-50482500D03*
D20*
X60642500Y-55562500D03*
D19*
X48477500Y-53022500D03*
D18*
X51752500Y-53022500D03*
D20*
X50482500Y-55562500D03*
%TD*%
D22*
%TO.C,Q1*%
X168944250Y-62912500D03*
X169894250Y-60912500D03*
X170844250Y-62912500D03*
%TD*%
D24*
%TO.C,J4*%
X204787500Y-80962500D03*
D23*
X202247500Y-80962500D03*
%TD*%
D24*
%TO.C,J1*%
X165100000Y-80962500D03*
D23*
X167640000Y-80962500D03*
%TD*%
M02*
