M48
; DRILL file {KiCad (5.1.7)-1} date 02/08/21 18:02:40
; FORMAT={-:-/ absolute / inch / decimal}
; #@! TF.CreationDate,2021-02-08T18:02:40+08:00
; #@! TF.GenerationSoftware,Kicad,Pcbnew,(5.1.7)-1
; #@! TF.FileFunction,NonPlated,1,2,NPTH
FMAT,2
INCH
T1C0.0394
T2C0.0689
T3C0.1181
T4C0.1570
T5C0.1654
%
G90
G05
T1
X7.5625Y-3.0367
X7.5625Y-3.1233
X7.0Y-3.0367
X7.0Y-3.1233
T2
X9.175Y-3.3125
X9.575Y-3.3125
X4.2375Y-1.625
X4.6375Y-1.625
X8.425Y-4.1562
X8.825Y-4.1562
X3.4875Y-2.5625
X3.8875Y-2.5625
X3.4875Y-1.8125
X3.8875Y-1.8125
X9.925Y-3.875
X10.325Y-3.875
X4.9875Y-3.3125
X5.3875Y-3.3125
X4.2375Y-3.875
X4.6375Y-3.875
X4.9875Y-4.8125
X5.3875Y-4.8125
X8.425Y-2.6562
X8.825Y-2.6562
X9.925Y-3.125
X10.325Y-3.125
X10.675Y-3.3125
X11.075Y-3.3125
X5.7375Y-1.9062
X6.1375Y-1.9062
X7.675Y-5.0
X8.075Y-5.0
X2.7375Y-4.3438
X3.1375Y-4.3438
X12.925Y-3.5
X13.325Y-3.5
X5.7375Y-3.4062
X6.1375Y-3.4062
X4.9875Y-4.0625
X5.3875Y-4.0625
X11.425Y-2.8438
X11.825Y-2.8438
X9.925Y-1.625
X10.325Y-1.625
X12.175Y-4.4375
X12.575Y-4.4375
X1.9875Y-2.9375
X2.3875Y-2.9375
X10.675Y-4.0625
X11.075Y-4.0625
X12.175Y-2.1875
X12.575Y-2.1875
X4.9875Y-2.5625
X5.3875Y-2.5625
X3.4875Y-4.0625
X3.8875Y-4.0625
X5.7375Y-4.1562
X6.1375Y-4.1562
X9.175Y-2.5625
X9.575Y-2.5625
X9.175Y-1.8125
X9.575Y-1.8125
X11.425Y-3.5938
X11.825Y-3.5938
X2.7375Y-2.0938
X3.1375Y-2.0938
X9.175Y-4.8125
X9.575Y-4.8125
X11.425Y-2.0938
X11.825Y-2.0938
X5.7375Y-2.6562
X6.1375Y-2.6562
X3.4875Y-3.3125
X3.8875Y-3.3125
X2.7375Y-3.5938
X3.1375Y-3.5938
X1.9875Y-2.1875
X2.3875Y-2.1875
X10.675Y-2.5625
X11.075Y-2.5625
X9.925Y-2.375
X10.325Y-2.375
X8.425Y-4.9062
X8.825Y-4.9062
X4.2375Y-3.125
X4.6375Y-3.125
X1.9875Y-4.4375
X2.3875Y-4.4375
X6.4875Y-5.0
X6.8875Y-5.0
X5.7375Y-4.9062
X6.1375Y-4.9062
X10.675Y-1.8125
X11.075Y-1.8125
X11.425Y-4.3438
X11.825Y-4.3438
X2.7375Y-2.8438
X3.1375Y-2.8438
X4.9875Y-1.8125
X5.3875Y-1.8125
X8.425Y-1.9062
X8.825Y-1.9062
X8.425Y-3.4062
X8.825Y-3.4062
X9.175Y-4.0625
X9.575Y-4.0625
X4.2375Y-2.375
X4.6375Y-2.375
X1.9875Y-3.6875
X2.3875Y-3.6875
X1.2375Y-3.5
X1.6375Y-3.5
X12.175Y-2.9375
X12.575Y-2.9375
X12.175Y-3.6875
X12.575Y-3.6875
T3
X12.225Y-2.8375
X12.475Y-2.7375
X12.225Y-3.5875
X12.475Y-3.4875
X9.225Y-3.2125
X9.475Y-3.1125
X4.2875Y-1.525
X4.5375Y-1.425
X8.475Y-4.0562
X8.725Y-3.9562
X3.5375Y-2.4625
X3.7875Y-2.3625
X3.5375Y-1.7125
X3.7875Y-1.6125
X9.975Y-3.775
X10.225Y-3.675
X5.0375Y-3.2125
X5.2875Y-3.1125
X4.2875Y-3.775
X4.5375Y-3.675
X5.0375Y-4.7125
X5.2875Y-4.6125
X8.475Y-2.5562
X8.725Y-2.4562
X9.975Y-3.025
X10.225Y-2.925
X10.725Y-3.2125
X10.975Y-3.1125
X5.7875Y-1.8062
X6.0375Y-1.7063
X7.725Y-4.9
X7.975Y-4.8
X2.7875Y-4.2437
X3.0375Y-4.1437
X12.975Y-3.4
X13.225Y-3.3
X5.7875Y-3.3062
X6.0375Y-3.2062
X5.0375Y-3.9625
X5.2875Y-3.8625
X11.475Y-2.7437
X11.725Y-2.6437
X9.975Y-1.525
X10.225Y-1.425
X12.225Y-4.3375
X12.475Y-4.2375
X2.0375Y-2.8375
X2.2875Y-2.7375
X10.725Y-3.9625
X10.975Y-3.8625
X12.225Y-2.0875
X12.475Y-1.9875
X5.0375Y-2.4625
X5.2875Y-2.3625
X3.5375Y-3.9625
X3.7875Y-3.8625
X5.7875Y-4.0562
X6.0375Y-3.9562
X9.225Y-2.4625
X9.475Y-2.3625
X9.225Y-1.7125
X9.475Y-1.6125
X11.475Y-3.4937
X11.725Y-3.3937
X2.7875Y-1.9937
X3.0375Y-1.8938
X9.225Y-4.7125
X9.475Y-4.6125
X11.475Y-1.9937
X11.725Y-1.8938
X5.7875Y-2.5562
X6.0375Y-2.4562
X3.5375Y-3.2125
X3.7875Y-3.1125
X2.7875Y-3.4937
X3.0375Y-3.3937
X2.0375Y-2.0875
X2.2875Y-1.9875
X10.725Y-2.4625
X10.975Y-2.3625
X9.975Y-2.275
X10.225Y-2.175
X8.475Y-4.8062
X8.725Y-4.7062
X4.2875Y-3.025
X4.5375Y-2.925
X2.0375Y-4.3375
X2.2875Y-4.2375
X6.5375Y-4.9
X6.7875Y-4.8
X5.7875Y-4.8062
X6.0375Y-4.7062
X10.725Y-1.7125
X10.975Y-1.6125
X11.475Y-4.2437
X11.725Y-4.1437
X2.7875Y-2.7437
X3.0375Y-2.6437
X5.0375Y-1.7125
X5.2875Y-1.6125
X8.475Y-1.8062
X8.725Y-1.7063
X8.475Y-3.3062
X8.725Y-3.2062
X9.225Y-3.9625
X9.475Y-3.8625
X4.2875Y-2.275
X4.5375Y-2.175
X2.0375Y-3.5875
X2.2875Y-3.4875
X1.2875Y-3.4
X1.5375Y-3.3
T4
X2.9375Y-2.8438
X5.1875Y-1.8125
X8.625Y-1.9062
X8.625Y-3.4062
X9.375Y-4.0625
X4.4375Y-2.375
X2.1875Y-3.6875
X1.4375Y-3.5
X12.375Y-2.9375
X12.375Y-3.6875
X9.375Y-3.3125
X4.4375Y-1.625
X8.625Y-4.1562
X3.6875Y-2.5625
X3.6875Y-1.8125
X10.125Y-3.875
X5.1875Y-3.3125
X4.4375Y-3.875
X5.1875Y-4.8125
X8.625Y-2.6562
X10.125Y-3.125
X10.875Y-3.3125
X5.9375Y-1.9062
X7.875Y-5.0
X2.9375Y-4.3438
X13.125Y-3.5
X5.9375Y-3.4062
X5.1875Y-4.0625
X11.625Y-2.8438
X10.125Y-1.625
X12.375Y-4.4375
X2.1875Y-2.9375
X10.875Y-4.0625
X12.375Y-2.1875
X5.1875Y-2.5625
X3.6875Y-4.0625
X5.9375Y-4.1562
X9.375Y-2.5625
X9.375Y-1.8125
X11.625Y-3.5938
X2.9375Y-2.0938
X9.375Y-4.8125
X11.625Y-2.0938
X5.9375Y-2.6562
X3.6875Y-3.3125
X2.9375Y-3.5938
X2.1875Y-2.1875
X10.875Y-2.5625
X10.125Y-2.375
X8.625Y-4.9062
X4.4375Y-3.125
X2.1875Y-4.4375
X6.6875Y-5.0
X5.9375Y-4.9062
X10.875Y-1.8125
X11.625Y-4.3438
T5
X12.0Y-2.5156
X5.5625Y-2.2344
X12.0Y-4.0156
X1.8125Y-3.3125
X12.75Y-3.3125
X2.5625Y-2.5156
X9.0Y-4.4844
X9.0Y-2.2344
X2.5625Y-4.0156
X5.5625Y-4.4844
T0
M30
